M48
;Layer_Color=9474304
;FILE_FORMAT=2:5
INCH,LZ
;TYPE=PLATED
T1F00S00C0.01600
T2F00S00C0.02800
T3F00S00C0.03000
T4F00S00C0.03200
T5F00S00C0.03500
T6F00S00C0.03600
T7F00S00C0.05118
T8F00S00C0.05906
T9F00S00C0.08000
T10F00S00C0.10236
T11F00S00C0.12000
T12F00S00C0.14016
T13F00S00C0.15000
T14F00S00C0.15100
T15F00S00C0.15500
T16F00S00C0.21000
;TYPE=NON_PLATED
T17F00S00C0.20000
%
T01
X0391Y0064
X04005Y00805
X04085Y00885
X0418Y00825
X04335Y00735
X0432Y0114
X0439Y012
X0449Y01185
X0466Y01175
X04615Y0131
X04625Y01475
X045675Y015275
X0447Y0148
X04365Y0134
X04315Y01345
X0429Y01285
X04125Y011
X04035Y01045
X0381Y0093
X0368Y00995
X0358Y0109
X03615Y01234
X03835Y0125
X03825Y012
X0384Y0134
X03895Y013
X03955Y01315
X04005Y0139
X04075Y0144
X03951Y01461
X0338Y01505
X03375Y01335
X04655Y0098
Y0093
Y0088
X0467Y0083
X0487Y00945
X0474Y0109
X0477Y0115
X0473795Y01242
X04785Y0126
X047575Y013675
X0474Y01435
X047975Y014975
X0488Y0132
X0496Y0134
X0515Y01365
X05265Y0138
X0529Y01205
X05375Y01275
X0562Y0133
X05585Y0144
X0575Y01385
X05785Y0153
X05885Y01445
X05955Y0137
X0583Y01215
X0584Y0116
X05815Y0106
X05835Y00995
X05845Y00935
X05588Y0105357
X0547Y00845
X05335Y0087
X0529Y0084
X05255Y0073
X0504
X0505705Y00682
X0529Y0102
X0512Y01205
X0489478Y0162522
X0488Y0175
X04795Y0191
X05165Y01955
X0527Y01925
X05245Y018
X05405Y01755
X0559Y0182
X05535Y01925
X0554Y02035
X05425Y0207
X0555Y0223
X0558Y0248
X0557Y0259
X0565Y02645
X05885Y0264
X05585Y02925
X0544Y03045
X05335Y0305
X05275Y03045
X0513Y02905
X05185Y02645
X0528Y02595
X05275Y02475
X0540759Y02426
X0539Y0238
X05125Y0227
X04755Y0255
Y03075
X0568Y01925
X05575Y01595
X05835Y016
X04565Y0173
X04435
X0446Y01575
X04375Y0193
X04315Y01995
X0419Y0207
X04155Y0214
X0393Y02175
X03855Y02235
X0394Y02425
X0412Y0244
X0404Y0259
Y02805
X03975Y02755
X0378Y0272
X03775Y0264
X0371Y028
X03815Y0287
X038Y0201
X0386Y0181
X0374Y0174
X03785Y0169
X03605Y0158
X03455Y0166
X0345Y0176
X0338Y01865
X0314Y01995
X03635Y02125
X046Y01945
X03075Y0361
X03405Y0372
Y0382
X03315Y0383
X03695Y0382
X03685Y03725
X0354Y03655
Y03475
X03745Y0336
X0395Y03375
X0412Y03285
X04065Y0322
X0412Y0352
X0413Y0405
X04085Y0408
X04215Y041
X04265Y04105
X0435Y04125
Y0418
X03965Y0422
X0371
X03575Y04105
X0383Y0384
X0365Y0322
X0429Y04555
Y04605
X04695Y04065
X0474Y04095
X04855Y04175
X0496Y0419
X05115Y043
X05285Y04505
X05325Y0465
X05465Y0468
X05565Y0467
X0555495Y0462324
X05475Y04285
X0546Y0405
X0533Y0408
X0523Y0391
X0516335Y0392
X0505Y03905
X05135Y03375
X05225Y0335
X053Y0333
X0528Y0324
X05215Y03135
X05535
X05855Y03155
X05435Y0349
X0546Y03675
X0474Y0317
X0472Y0473
X0496Y04785
X0536Y048
X05325Y04845
X053Y0498
X05305Y05045
X0519Y05225
X0511Y0521
X05Y05225
X05045Y05335
X05015Y05385
Y05435
X05025Y05535
X04925Y05575
X0491541Y05656
X04835Y05615
X04785Y0565
X04815Y05705
X0476Y0588
X05115Y0578
X05295Y05685
X05365Y0563
X0538Y05565
X05255Y05535
X05284Y05415
X05325Y0544
X0532388Y05373
X0554201Y05395
X0561Y054
X056Y0561
X05575Y05775
X0556743Y058877
X05665Y05955
X05855Y0595
X0595Y0587
X0596Y05735
X05955Y0562
X0594Y0547
X0581Y05595
X058Y05675
Y0573
X05715Y048
X056Y04785
X05895Y0481
X0481Y0524
X0467Y05475
X0465Y05575
X04475Y05645
X0439Y0561
X0441Y0539
X04435Y05335
X04525Y05375
X0441Y05195
X04335Y05135
X04235Y05095
X04185Y0511
X0429Y04945
X04155Y04785
X03915Y04755
X0367
X03535Y04775
X0323Y0474
X03185Y0520535
X03295Y05395
X0318Y0552
X0346Y05485
X03515Y0569
X033Y0578
X0325Y05895
X0395Y0588
X0423Y05885
X04295
X04235Y05745
X0419Y0538
X0424Y0533
X0368Y0520417
X0465Y0473
X04635Y0593
X0305Y0512
X0303939Y0476939
T02
X0473Y03565
Y0373
T03
X0315Y0232
X0355
X03545Y02205
X03075Y0329343
X03475
Y0341342
T04
X0299Y0176
X03445Y0504
X0296Y05325
T05
X03145Y02205
X0315Y0272
X0355
X03475Y0289342
X03075
Y0341342
T06
X03896Y00501
X03996
X04496
X04596
X05096
X05196
X05696
X05796
X05509Y03506
Y03606
X05512Y04106
Y04206
X0297874Y0496
Y0503874
Y0511748
X029
Y0503874
Y0496
T07
X0016472Y0138
X0075528
X0072Y0224472
Y0283528
X0079528Y032
X0020472
T08
X0124181Y0042
X0124681Y0127
X0272319
X0271819Y0042
X0272319Y0211
Y0295
X0124681
Y0211
X012224Y0381004
X014976
X006724
X020476
Y0548996
X0149721
X012224
X006724
T09
X03696Y00301
X04096
X04296
X04696
X04896
X05296
X05496
X05896
X05709Y03306
Y03706
X05712Y03906
Y04306
T10
X0046Y0138
X0072Y0254
X005Y032
T11
X055Y01
T12
X0026551Y0377402
X0245449
Y0552598
X0026551Y0553583
T13
X03Y045
X055
Y055
Y06
X05
X045
X04
X035
X03
X025
X02
X015
X01
X005Y0601
T14
X05Y015
T15
X0018378Y002
X0065622
X0063622Y0094
X0016378
X0322Y0061622
Y0014378
X0067622Y0184
X0020378
X0024Y0228378
Y0275622
T16
X0042Y002
X004Y0094
X0322Y0038
X0044Y0184
X0024Y0252
T17
X005Y005
X01
M30
