%FSLAX25Y25*%
%MOIN*%
G70*
G01*
G75*
G04 Layer_Physical_Order=2*
G04 Layer_Color=36540*
%ADD10C,0.00600*%
%ADD11R,0.03200X0.03800*%
%ADD12R,0.03937X0.11811*%
%ADD13R,0.03937X0.09449*%
%ADD14R,0.12992X0.09449*%
%ADD15R,0.03800X0.03200*%
%ADD16R,0.07087X0.13386*%
%ADD17R,0.11811X0.03937*%
%ADD18R,0.13386X0.07087*%
%ADD19R,0.09000X0.10000*%
%ADD20R,0.04724X0.01181*%
%ADD21O,0.08661X0.02362*%
G04:AMPARAMS|DCode=22|XSize=216.54mil|YSize=78.74mil|CornerRadius=0mil|HoleSize=0mil|Usage=FLASHONLY|Rotation=180.000|XOffset=0mil|YOffset=0mil|HoleType=Round|Shape=Octagon|*
%AMOCTAGOND22*
4,1,8,-0.10827,0.01969,-0.10827,-0.01969,-0.08858,-0.03937,0.08858,-0.03937,0.10827,-0.01969,0.10827,0.01969,0.08858,0.03937,-0.08858,0.03937,-0.10827,0.01969,0.0*
%
%ADD22OCTAGOND22*%

%ADD23R,0.21654X0.07874*%
G04:AMPARAMS|DCode=24|XSize=216.54mil|YSize=78.74mil|CornerRadius=0mil|HoleSize=0mil|Usage=FLASHONLY|Rotation=90.000|XOffset=0mil|YOffset=0mil|HoleType=Round|Shape=Octagon|*
%AMOCTAGOND24*
4,1,8,0.01969,0.10827,-0.01969,0.10827,-0.03937,0.08858,-0.03937,-0.08858,-0.01969,-0.10827,0.01969,-0.10827,0.03937,-0.08858,0.03937,0.08858,0.01969,0.10827,0.0*
%
%ADD24OCTAGOND24*%

%ADD25R,0.07874X0.21654*%
%ADD26R,0.03937X0.04331*%
%ADD27R,0.03740X0.02165*%
%ADD28R,0.10000X0.09000*%
%ADD29R,0.06299X0.13780*%
%ADD30C,0.00800*%
%ADD31C,0.01000*%
%ADD32C,0.04000*%
%ADD33C,0.06000*%
%ADD34C,0.08000*%
%ADD35C,0.01500*%
%ADD36C,0.02500*%
%ADD37C,0.10000*%
%ADD38C,0.03000*%
%ADD39C,0.25000*%
%ADD40C,0.20000*%
%ADD41R,0.08858X0.08858*%
%ADD42C,0.17716*%
%ADD43C,0.15000*%
%ADD44C,0.00250*%
%ADD45R,0.12000X0.12000*%
%ADD46C,0.06200*%
%ADD47R,0.12000X0.12000*%
%ADD48P,0.25569X8X202.5*%
G04:AMPARAMS|DCode=49|XSize=180mil|YSize=300mil|CornerRadius=0mil|HoleSize=0mil|Usage=FLASHONLY|Rotation=180.000|XOffset=0mil|YOffset=0mil|HoleType=Round|Shape=Octagon|*
%AMOCTAGOND49*
4,1,8,0.04500,-0.15000,-0.04500,-0.15000,-0.09000,-0.10500,-0.09000,0.10500,-0.04500,0.15000,0.04500,0.15000,0.09000,0.10500,0.09000,-0.10500,0.04500,-0.15000,0.0*
%
%ADD49OCTAGOND49*%

%ADD50C,0.09843*%
%ADD51P,0.10653X8X22.5*%
%ADD52P,0.25569X8X112.5*%
G04:AMPARAMS|DCode=53|XSize=180mil|YSize=300mil|CornerRadius=0mil|HoleSize=0mil|Usage=FLASHONLY|Rotation=90.000|XOffset=0mil|YOffset=0mil|HoleType=Round|Shape=Octagon|*
%AMOCTAGOND53*
4,1,8,-0.15000,-0.04500,-0.15000,0.04500,-0.10500,0.09000,0.10500,0.09000,0.15000,0.04500,0.15000,-0.04500,0.10500,-0.09000,-0.10500,-0.09000,-0.15000,-0.04500,0.0*
%
%ADD53OCTAGOND53*%

%ADD54C,0.08268*%
%ADD55C,0.14500*%
%ADD56C,0.06500*%
%ADD57C,0.05300*%
%ADD58R,0.05300X0.05300*%
%ADD59C,0.04000*%
%ADD60C,0.08000*%
%ADD61C,0.05000*%
%ADD62C,0.10000*%
%ADD63C,0.06000*%
G36*
X600000D02*
X287500D01*
Y187500D01*
X274000D01*
X263000Y199510D01*
X260000Y202786D01*
Y212188D01*
X279500Y227000D01*
X286398D01*
Y208198D01*
X354053D01*
X366657Y220802D01*
X363904Y223555D01*
Y319190D01*
X364319Y319468D01*
X364321Y319467D01*
X365000Y319378D01*
X365679Y319467D01*
X366311Y319729D01*
X366854Y320146D01*
X367271Y320689D01*
X367533Y321321D01*
X367622Y322000D01*
X367533Y322679D01*
X367271Y323311D01*
X366854Y323854D01*
X366311Y324271D01*
X365679Y324533D01*
X365000Y324622D01*
X364321Y324533D01*
X364319Y324532D01*
X363904Y324810D01*
Y354596D01*
X288500D01*
X287500Y355596D01*
Y472750D01*
X116500D01*
Y566000D01*
X0D01*
Y620000D01*
X600000D01*
Y0D01*
D02*
G37*
%LPC*%
G36*
X542900Y209570D02*
Y207400D01*
X545070D01*
X545033Y207679D01*
X544771Y208311D01*
X544354Y208854D01*
X543811Y209271D01*
X543179Y209533D01*
X542900Y209570D01*
D02*
G37*
G36*
X363100Y212100D02*
X360930D01*
X360967Y211821D01*
X361229Y211189D01*
X361646Y210646D01*
X362189Y210229D01*
X362821Y209967D01*
X363100Y209930D01*
Y212100D01*
D02*
G37*
G36*
X542100Y209570D02*
X541821Y209533D01*
X541189Y209271D01*
X540646Y208854D01*
X540229Y208311D01*
X539967Y207679D01*
X539930Y207400D01*
X542100D01*
Y209570D01*
D02*
G37*
G36*
X277835Y210600D02*
X272719D01*
Y205484D01*
X273760Y205621D01*
X275103Y206177D01*
X276257Y207062D01*
X277142Y208215D01*
X277698Y209559D01*
X277835Y210600D01*
D02*
G37*
G36*
X366070Y212100D02*
X363900D01*
Y209930D01*
X364179Y209967D01*
X364811Y210229D01*
X365354Y210646D01*
X365771Y211189D01*
X366033Y211821D01*
X366070Y212100D01*
D02*
G37*
G36*
X272719Y216516D02*
Y211400D01*
X277835D01*
X277698Y212441D01*
X277142Y213785D01*
X276257Y214938D01*
X275103Y215823D01*
X273760Y216379D01*
X272719Y216516D01*
D02*
G37*
G36*
X363100Y215070D02*
X362821Y215033D01*
X362189Y214771D01*
X361646Y214354D01*
X361229Y213811D01*
X360967Y213179D01*
X360930Y212900D01*
X363100D01*
Y215070D01*
D02*
G37*
G36*
X415500Y216622D02*
X414821Y216533D01*
X414189Y216271D01*
X413646Y215854D01*
X413229Y215311D01*
X412967Y214679D01*
X412878Y214000D01*
X412967Y213321D01*
X413229Y212689D01*
X413646Y212146D01*
X414189Y211729D01*
X414821Y211467D01*
X415500Y211378D01*
X416179Y211467D01*
X416811Y211729D01*
X417354Y212146D01*
X417771Y212689D01*
X418033Y213321D01*
X418122Y214000D01*
X418033Y214679D01*
X417771Y215311D01*
X417354Y215854D01*
X416811Y216271D01*
X416179Y216533D01*
X415500Y216622D01*
D02*
G37*
G36*
X271919Y216516D02*
X270878Y216379D01*
X269534Y215823D01*
X268381Y214938D01*
X267496Y213785D01*
X266940Y212441D01*
X266803Y211400D01*
X271919D01*
Y216516D01*
D02*
G37*
G36*
X431500Y202122D02*
X430821Y202033D01*
X430189Y201771D01*
X429646Y201354D01*
X429229Y200811D01*
X428967Y200179D01*
X428878Y199500D01*
X428967Y198821D01*
X429229Y198189D01*
X429646Y197646D01*
X430189Y197229D01*
X430821Y196967D01*
X431500Y196878D01*
X432179Y196967D01*
X432811Y197229D01*
X433354Y197646D01*
X433771Y198189D01*
X434033Y198821D01*
X434122Y199500D01*
X434033Y200179D01*
X433771Y200811D01*
X433354Y201354D01*
X432811Y201771D01*
X432179Y202033D01*
X431500Y202122D01*
D02*
G37*
G36*
X380000Y203622D02*
X379321Y203533D01*
X378689Y203271D01*
X378146Y202854D01*
X377729Y202311D01*
X377467Y201679D01*
X377378Y201000D01*
X377467Y200321D01*
X377729Y199689D01*
X378146Y199146D01*
X378689Y198729D01*
X379321Y198467D01*
X380000Y198378D01*
X380679Y198467D01*
X381311Y198729D01*
X381854Y199146D01*
X382271Y199689D01*
X382533Y200321D01*
X382622Y201000D01*
X382533Y201679D01*
X382271Y202311D01*
X381854Y202854D01*
X381311Y203271D01*
X380679Y203533D01*
X380000Y203622D01*
D02*
G37*
G36*
X516500Y198122D02*
X515821Y198033D01*
X515189Y197771D01*
X514646Y197354D01*
X514229Y196811D01*
X513967Y196179D01*
X513878Y195500D01*
X513967Y194821D01*
X514229Y194189D01*
X514646Y193646D01*
X515189Y193229D01*
X515821Y192967D01*
X516500Y192878D01*
X517179Y192967D01*
X517811Y193229D01*
X518354Y193646D01*
X518771Y194189D01*
X519033Y194821D01*
X519122Y195500D01*
X519033Y196179D01*
X518771Y196811D01*
X518354Y197354D01*
X517811Y197771D01*
X517179Y198033D01*
X516500Y198122D01*
D02*
G37*
G36*
X314000Y202122D02*
X313321Y202033D01*
X312689Y201771D01*
X312146Y201354D01*
X311729Y200811D01*
X311467Y200179D01*
X311378Y199500D01*
X311467Y198821D01*
X311729Y198189D01*
X312146Y197646D01*
X312689Y197229D01*
X313321Y196967D01*
X314000Y196878D01*
X314679Y196967D01*
X315311Y197229D01*
X315854Y197646D01*
X316271Y198189D01*
X316533Y198821D01*
X316622Y199500D01*
X316533Y200179D01*
X316271Y200811D01*
X315854Y201354D01*
X315311Y201771D01*
X314679Y202033D01*
X314000Y202122D01*
D02*
G37*
G36*
X554000Y206122D02*
X553321Y206033D01*
X552689Y205771D01*
X552146Y205354D01*
X551729Y204811D01*
X551467Y204179D01*
X551378Y203500D01*
X551467Y202821D01*
X551729Y202189D01*
X552146Y201646D01*
X552689Y201229D01*
X553321Y200967D01*
X554000Y200878D01*
X554679Y200967D01*
X555311Y201229D01*
X555854Y201646D01*
X556271Y202189D01*
X556533Y202821D01*
X556622Y203500D01*
X556533Y204179D01*
X556271Y204811D01*
X555854Y205354D01*
X555311Y205771D01*
X554679Y206033D01*
X554000Y206122D01*
D02*
G37*
G36*
X545070Y206600D02*
X542900D01*
Y204430D01*
X543179Y204467D01*
X543811Y204729D01*
X544354Y205146D01*
X544771Y205689D01*
X545033Y206321D01*
X545070Y206600D01*
D02*
G37*
G36*
X271919Y210600D02*
X266803D01*
X266940Y209559D01*
X267496Y208215D01*
X268381Y207062D01*
X269534Y206177D01*
X270878Y205621D01*
X271919Y205484D01*
Y210600D01*
D02*
G37*
G36*
X419000Y209622D02*
X418321Y209533D01*
X417689Y209271D01*
X417146Y208854D01*
X416729Y208311D01*
X416467Y207679D01*
X416378Y207000D01*
X416467Y206321D01*
X416729Y205689D01*
X417146Y205146D01*
X417689Y204729D01*
X418321Y204467D01*
X419000Y204378D01*
X419679Y204467D01*
X420311Y204729D01*
X420854Y205146D01*
X421271Y205689D01*
X421533Y206321D01*
X421622Y207000D01*
X421533Y207679D01*
X421271Y208311D01*
X420854Y208854D01*
X420311Y209271D01*
X419679Y209533D01*
X419000Y209622D01*
D02*
G37*
G36*
X542100Y206600D02*
X539930D01*
X539967Y206321D01*
X540229Y205689D01*
X540646Y205146D01*
X541189Y204729D01*
X541821Y204467D01*
X542100Y204430D01*
Y206600D01*
D02*
G37*
G36*
X394000Y245122D02*
X393321Y245033D01*
X392689Y244771D01*
X392146Y244354D01*
X391729Y243811D01*
X391467Y243179D01*
X391378Y242500D01*
X391467Y241821D01*
X391729Y241189D01*
X392146Y240646D01*
X392689Y240229D01*
X393321Y239967D01*
X394000Y239878D01*
X394679Y239967D01*
X395311Y240229D01*
X395854Y240646D01*
X396271Y241189D01*
X396533Y241821D01*
X396622Y242500D01*
X396533Y243179D01*
X396271Y243811D01*
X395854Y244354D01*
X395311Y244771D01*
X394679Y245033D01*
X394000Y245122D01*
D02*
G37*
G36*
X543328Y242200D02*
X541159D01*
Y240030D01*
X541437Y240067D01*
X542070Y240329D01*
X542613Y240746D01*
X543030Y241289D01*
X543292Y241921D01*
X543328Y242200D01*
D02*
G37*
G36*
X512900Y229570D02*
Y227400D01*
X515070D01*
X515033Y227679D01*
X514771Y228311D01*
X514354Y228854D01*
X513811Y229271D01*
X513179Y229533D01*
X512900Y229570D01*
D02*
G37*
G36*
X540359Y242200D02*
X538189D01*
X538226Y241921D01*
X538487Y241289D01*
X538694Y241019D01*
X538503Y240557D01*
X538321Y240533D01*
X537689Y240271D01*
X537146Y239854D01*
X536729Y239311D01*
X536467Y238679D01*
X536378Y238000D01*
X536467Y237321D01*
X536729Y236689D01*
X537146Y236146D01*
X537689Y235729D01*
X538321Y235467D01*
X539000Y235378D01*
X539679Y235467D01*
X540311Y235729D01*
X540854Y236146D01*
X541271Y236689D01*
X541533Y237321D01*
X541622Y238000D01*
X541533Y238679D01*
X541271Y239311D01*
X540854Y239854D01*
X540743Y239940D01*
X540759Y239977D01*
X540681Y239988D01*
X540359Y240235D01*
Y242200D01*
D02*
G37*
G36*
X412000Y246622D02*
X411321Y246533D01*
X410689Y246271D01*
X410146Y245854D01*
X409729Y245311D01*
X409467Y244679D01*
X409378Y244000D01*
X409467Y243321D01*
X409729Y242689D01*
X410146Y242146D01*
X410689Y241729D01*
X411321Y241467D01*
X412000Y241378D01*
X412679Y241467D01*
X413311Y241729D01*
X413854Y242146D01*
X414271Y242689D01*
X414533Y243321D01*
X414622Y244000D01*
X414533Y244679D01*
X414271Y245311D01*
X413854Y245854D01*
X413311Y246271D01*
X412679Y246533D01*
X412000Y246622D01*
D02*
G37*
G36*
X527500Y250122D02*
X526821Y250033D01*
X526189Y249771D01*
X525646Y249354D01*
X525229Y248811D01*
X524967Y248179D01*
X524878Y247500D01*
X524967Y246821D01*
X525229Y246189D01*
X525646Y245646D01*
X526189Y245229D01*
X526821Y244967D01*
X527500Y244878D01*
X528179Y244967D01*
X528811Y245229D01*
X529354Y245646D01*
X529771Y246189D01*
X530033Y246821D01*
X530122Y247500D01*
X530033Y248179D01*
X529771Y248811D01*
X529354Y249354D01*
X528811Y249771D01*
X528179Y250033D01*
X527500Y250122D01*
D02*
G37*
G36*
X558000Y250622D02*
X557321Y250533D01*
X556689Y250271D01*
X556146Y249854D01*
X555729Y249311D01*
X555467Y248679D01*
X555378Y248000D01*
X555467Y247321D01*
X555729Y246689D01*
X556146Y246146D01*
X556689Y245729D01*
X557321Y245467D01*
X558000Y245378D01*
X558679Y245467D01*
X559311Y245729D01*
X559854Y246146D01*
X560271Y246689D01*
X560533Y247321D01*
X560622Y248000D01*
X560533Y248679D01*
X560271Y249311D01*
X559854Y249854D01*
X559311Y250271D01*
X558679Y250533D01*
X558000Y250622D01*
D02*
G37*
G36*
X540359Y245170D02*
X540080Y245133D01*
X539447Y244871D01*
X538904Y244454D01*
X538487Y243911D01*
X538226Y243279D01*
X538189Y243000D01*
X540359D01*
Y245170D01*
D02*
G37*
G36*
X541159D02*
Y243000D01*
X543328D01*
X543292Y243279D01*
X543030Y243911D01*
X542613Y244454D01*
X542070Y244871D01*
X541437Y245133D01*
X541159Y245170D01*
D02*
G37*
G36*
X512100Y229570D02*
X511821Y229533D01*
X511189Y229271D01*
X510646Y228854D01*
X510229Y228311D01*
X509967Y227679D01*
X509930Y227400D01*
X512100D01*
Y229570D01*
D02*
G37*
G36*
X554600Y222600D02*
X552430D01*
X552467Y222321D01*
X552729Y221689D01*
X553146Y221146D01*
X553689Y220729D01*
X554321Y220467D01*
X554600Y220430D01*
Y222600D01*
D02*
G37*
G36*
X557570D02*
X555400D01*
Y220430D01*
X555679Y220467D01*
X556311Y220729D01*
X556854Y221146D01*
X557271Y221689D01*
X557533Y222321D01*
X557570Y222600D01*
D02*
G37*
G36*
X363900Y215070D02*
Y212900D01*
X366070D01*
X366033Y213179D01*
X365771Y213811D01*
X365354Y214354D01*
X364811Y214771D01*
X364179Y215033D01*
X363900Y215070D01*
D02*
G37*
G36*
X393000Y220122D02*
X392321Y220033D01*
X391689Y219771D01*
X391146Y219354D01*
X390729Y218811D01*
X390467Y218179D01*
X390378Y217500D01*
X390467Y216821D01*
X390729Y216189D01*
X391146Y215646D01*
X391689Y215229D01*
X392321Y214967D01*
X393000Y214878D01*
X393679Y214967D01*
X394311Y215229D01*
X394854Y215646D01*
X395271Y216189D01*
X395533Y216821D01*
X395622Y217500D01*
X395533Y218179D01*
X395271Y218811D01*
X394854Y219354D01*
X394311Y219771D01*
X393679Y220033D01*
X393000Y220122D01*
D02*
G37*
G36*
X385500Y226122D02*
X384821Y226033D01*
X384189Y225771D01*
X383646Y225354D01*
X383229Y224811D01*
X382967Y224179D01*
X382878Y223500D01*
X382967Y222821D01*
X383229Y222189D01*
X383646Y221646D01*
X384189Y221229D01*
X384821Y220967D01*
X385500Y220878D01*
X386179Y220967D01*
X386811Y221229D01*
X387354Y221646D01*
X387771Y222189D01*
X388033Y222821D01*
X388122Y223500D01*
X388033Y224179D01*
X387771Y224811D01*
X387354Y225354D01*
X386811Y225771D01*
X386179Y226033D01*
X385500Y226122D01*
D02*
G37*
G36*
X512100Y226600D02*
X509930D01*
X509967Y226321D01*
X510229Y225689D01*
X510646Y225146D01*
X511189Y224729D01*
X511821Y224467D01*
X512100Y224430D01*
Y226600D01*
D02*
G37*
G36*
X515070D02*
X512900D01*
Y224430D01*
X513179Y224467D01*
X513811Y224729D01*
X514354Y225146D01*
X514771Y225689D01*
X515033Y226321D01*
X515070Y226600D01*
D02*
G37*
G36*
X554600Y225570D02*
X554321Y225533D01*
X553689Y225271D01*
X553146Y224854D01*
X552729Y224311D01*
X552467Y223679D01*
X552430Y223400D01*
X554600D01*
Y225570D01*
D02*
G37*
G36*
X555400D02*
Y223400D01*
X557570D01*
X557533Y223679D01*
X557271Y224311D01*
X556854Y224854D01*
X556311Y225271D01*
X555679Y225533D01*
X555400Y225570D01*
D02*
G37*
G36*
X460000Y197122D02*
X459321Y197033D01*
X458689Y196771D01*
X458146Y196354D01*
X457729Y195811D01*
X457467Y195179D01*
X457378Y194500D01*
X457467Y193821D01*
X457729Y193189D01*
X458146Y192646D01*
X458689Y192229D01*
X459321Y191967D01*
X460000Y191878D01*
X460679Y191967D01*
X461311Y192229D01*
X461854Y192646D01*
X462271Y193189D01*
X462533Y193821D01*
X462622Y194500D01*
X462533Y195179D01*
X462271Y195811D01*
X461854Y196354D01*
X461311Y196771D01*
X460679Y197033D01*
X460000Y197122D01*
D02*
G37*
G36*
X360900Y160570D02*
Y158400D01*
X363070D01*
X363033Y158679D01*
X362771Y159311D01*
X362354Y159854D01*
X361811Y160271D01*
X361179Y160533D01*
X360900Y160570D01*
D02*
G37*
G36*
X489478Y165144D02*
X488799Y165055D01*
X488167Y164793D01*
X487624Y164376D01*
X487207Y163833D01*
X486945Y163201D01*
X486856Y162522D01*
X486945Y161843D01*
X487207Y161211D01*
X487624Y160668D01*
X488167Y160251D01*
X488799Y159989D01*
X489478Y159899D01*
X490157Y159989D01*
X490789Y160251D01*
X491332Y160668D01*
X491749Y161211D01*
X492011Y161843D01*
X492101Y162522D01*
X492011Y163201D01*
X491749Y163833D01*
X491332Y164376D01*
X490789Y164793D01*
X490157Y165055D01*
X489478Y165144D01*
D02*
G37*
G36*
X583500Y162622D02*
X582821Y162533D01*
X582189Y162271D01*
X581646Y161854D01*
X581229Y161311D01*
X580967Y160679D01*
X580878Y160000D01*
X580967Y159321D01*
X581229Y158689D01*
X581646Y158146D01*
X582189Y157729D01*
X582821Y157467D01*
X583500Y157378D01*
X584179Y157467D01*
X584811Y157729D01*
X585354Y158146D01*
X585771Y158689D01*
X586033Y159321D01*
X586122Y160000D01*
X586033Y160679D01*
X585771Y161311D01*
X585354Y161854D01*
X584811Y162271D01*
X584179Y162533D01*
X583500Y162622D01*
D02*
G37*
G36*
X360100Y160570D02*
X359821Y160533D01*
X359189Y160271D01*
X358646Y159854D01*
X358229Y159311D01*
X357967Y158679D01*
X357930Y158400D01*
X360100D01*
Y160570D01*
D02*
G37*
G36*
X345500Y168622D02*
X344821Y168533D01*
X344189Y168271D01*
X343646Y167854D01*
X343229Y167311D01*
X342967Y166679D01*
X342878Y166000D01*
X342967Y165321D01*
X343229Y164689D01*
X343646Y164146D01*
X344189Y163729D01*
X344821Y163467D01*
X345500Y163378D01*
X346179Y163467D01*
X346811Y163729D01*
X347354Y164146D01*
X347771Y164689D01*
X348033Y165321D01*
X348122Y166000D01*
X348033Y166679D01*
X347771Y167311D01*
X347354Y167854D01*
X346811Y168271D01*
X346179Y168533D01*
X345500Y168622D01*
D02*
G37*
G36*
X456500Y175622D02*
X455821Y175533D01*
X455189Y175271D01*
X454646Y174854D01*
X454229Y174311D01*
X453967Y173679D01*
X453878Y173000D01*
X453967Y172321D01*
X454229Y171689D01*
X454646Y171146D01*
X455189Y170729D01*
X455821Y170467D01*
X456500Y170378D01*
X457179Y170467D01*
X457811Y170729D01*
X458354Y171146D01*
X458771Y171689D01*
X459033Y172321D01*
X459122Y173000D01*
X459033Y173679D01*
X458771Y174311D01*
X458354Y174854D01*
X457811Y175271D01*
X457179Y175533D01*
X456500Y175622D01*
D02*
G37*
G36*
X374000Y176622D02*
X373321Y176533D01*
X372689Y176271D01*
X372146Y175854D01*
X371729Y175311D01*
X371467Y174679D01*
X371378Y174000D01*
X371467Y173321D01*
X371729Y172689D01*
X372146Y172146D01*
X372689Y171729D01*
X373321Y171467D01*
X374000Y171378D01*
X374679Y171467D01*
X375311Y171729D01*
X375854Y172146D01*
X376271Y172689D01*
X376533Y173321D01*
X376622Y174000D01*
X376533Y174679D01*
X376271Y175311D01*
X375854Y175854D01*
X375311Y176271D01*
X374679Y176533D01*
X374000Y176622D01*
D02*
G37*
G36*
X378500Y171622D02*
X377821Y171533D01*
X377189Y171271D01*
X376646Y170854D01*
X376229Y170311D01*
X375967Y169679D01*
X375878Y169000D01*
X375967Y168321D01*
X376229Y167689D01*
X376646Y167146D01*
X377189Y166729D01*
X377821Y166467D01*
X378500Y166378D01*
X379179Y166467D01*
X379811Y166729D01*
X380354Y167146D01*
X380771Y167689D01*
X381033Y168321D01*
X381122Y169000D01*
X381033Y169679D01*
X380771Y170311D01*
X380354Y170854D01*
X379811Y171271D01*
X379179Y171533D01*
X378500Y171622D01*
D02*
G37*
G36*
X443500Y175622D02*
X442821Y175533D01*
X442189Y175271D01*
X441646Y174854D01*
X441229Y174311D01*
X440967Y173679D01*
X440878Y173000D01*
X440967Y172321D01*
X441229Y171689D01*
X441646Y171146D01*
X442189Y170729D01*
X442821Y170467D01*
X443500Y170378D01*
X444179Y170467D01*
X444811Y170729D01*
X445354Y171146D01*
X445771Y171689D01*
X446033Y172321D01*
X446122Y173000D01*
X446033Y173679D01*
X445771Y174311D01*
X445354Y174854D01*
X444811Y175271D01*
X444179Y175533D01*
X443500Y175622D01*
D02*
G37*
G36*
X578500Y155622D02*
X577821Y155533D01*
X577189Y155271D01*
X576646Y154854D01*
X576229Y154311D01*
X575967Y153679D01*
X575878Y153000D01*
X575967Y152321D01*
X576229Y151689D01*
X576646Y151146D01*
X577189Y150729D01*
X577821Y150467D01*
X578500Y150378D01*
X579179Y150467D01*
X579811Y150729D01*
X580354Y151146D01*
X580771Y151689D01*
X581033Y152321D01*
X581122Y153000D01*
X581033Y153679D01*
X580771Y154311D01*
X580354Y154854D01*
X579811Y155271D01*
X579179Y155533D01*
X578500Y155622D01*
D02*
G37*
G36*
X499600Y160601D02*
X498337Y160502D01*
X496714Y160112D01*
X495173Y159474D01*
X493750Y158602D01*
X492482Y157518D01*
X491398Y156250D01*
X490526Y154827D01*
X489888Y153286D01*
X489498Y151663D01*
X489399Y150400D01*
X499600D01*
Y160601D01*
D02*
G37*
G36*
X338000Y153122D02*
X337321Y153033D01*
X336689Y152771D01*
X336146Y152354D01*
X335729Y151811D01*
X335467Y151179D01*
X335378Y150500D01*
X335467Y149821D01*
X335729Y149189D01*
X336146Y148646D01*
X336689Y148229D01*
X337321Y147967D01*
X338000Y147878D01*
X338679Y147967D01*
X339311Y148229D01*
X339854Y148646D01*
X340271Y149189D01*
X340533Y149821D01*
X340622Y150500D01*
X340533Y151179D01*
X340271Y151811D01*
X339854Y152354D01*
X339311Y152771D01*
X338679Y153033D01*
X338000Y153122D01*
D02*
G37*
G36*
X456750Y155372D02*
X456071Y155283D01*
X455439Y155021D01*
X454896Y154604D01*
X454479Y154061D01*
X454217Y153429D01*
X454128Y152750D01*
X454217Y152071D01*
X454479Y151439D01*
X454896Y150896D01*
X455439Y150479D01*
X456071Y150217D01*
X456750Y150128D01*
X457429Y150217D01*
X458061Y150479D01*
X458604Y150896D01*
X459021Y151439D01*
X459283Y152071D01*
X459372Y152750D01*
X459283Y153429D01*
X459021Y154061D01*
X458604Y154604D01*
X458061Y155021D01*
X457429Y155283D01*
X456750Y155372D01*
D02*
G37*
G36*
X500400Y160601D02*
Y150400D01*
X510601D01*
X510502Y151663D01*
X510112Y153286D01*
X509474Y154827D01*
X508602Y156250D01*
X507518Y157518D01*
X506250Y158602D01*
X504827Y159474D01*
X503286Y160112D01*
X501663Y160502D01*
X500400Y160601D01*
D02*
G37*
G36*
X363070Y157600D02*
X360900D01*
Y155430D01*
X361179Y155467D01*
X361811Y155729D01*
X362354Y156146D01*
X362771Y156689D01*
X363033Y157321D01*
X363070Y157600D01*
D02*
G37*
G36*
X557500Y162122D02*
X556821Y162033D01*
X556189Y161771D01*
X555646Y161354D01*
X555229Y160811D01*
X554967Y160179D01*
X554878Y159500D01*
X554967Y158821D01*
X555229Y158189D01*
X555646Y157646D01*
X556189Y157229D01*
X556821Y156967D01*
X557500Y156878D01*
X558179Y156967D01*
X558811Y157229D01*
X559354Y157646D01*
X559771Y158189D01*
X560033Y158821D01*
X560122Y159500D01*
X560033Y160179D01*
X559771Y160811D01*
X559354Y161354D01*
X558811Y161771D01*
X558179Y162033D01*
X557500Y162122D01*
D02*
G37*
G36*
X446000Y160122D02*
X445321Y160033D01*
X444689Y159771D01*
X444146Y159354D01*
X443729Y158811D01*
X443467Y158179D01*
X443378Y157500D01*
X443467Y156821D01*
X443729Y156189D01*
X444146Y155646D01*
X444689Y155229D01*
X445321Y154967D01*
X446000Y154878D01*
X446679Y154967D01*
X447311Y155229D01*
X447854Y155646D01*
X448271Y156189D01*
X448533Y156821D01*
X448622Y157500D01*
X448533Y158179D01*
X448271Y158811D01*
X447854Y159354D01*
X447311Y159771D01*
X446679Y160033D01*
X446000Y160122D01*
D02*
G37*
G36*
X360100Y157600D02*
X357930D01*
X357967Y157321D01*
X358229Y156689D01*
X358646Y156146D01*
X359189Y155729D01*
X359821Y155467D01*
X360100Y155430D01*
Y157600D01*
D02*
G37*
G36*
X298600Y175600D02*
X294413D01*
X294518Y174799D01*
X294982Y173680D01*
X295719Y172719D01*
X296680Y171982D01*
X297799Y171518D01*
X298600Y171413D01*
Y175600D01*
D02*
G37*
G36*
X559000Y184622D02*
X558321Y184533D01*
X557689Y184271D01*
X557146Y183854D01*
X556729Y183311D01*
X556467Y182679D01*
X556378Y182000D01*
X556467Y181321D01*
X556729Y180689D01*
X557146Y180146D01*
X557689Y179729D01*
X558321Y179467D01*
X559000Y179378D01*
X559679Y179467D01*
X560311Y179729D01*
X560854Y180146D01*
X561271Y180689D01*
X561533Y181321D01*
X561622Y182000D01*
X561533Y182679D01*
X561271Y183311D01*
X560854Y183854D01*
X560311Y184271D01*
X559679Y184533D01*
X559000Y184622D01*
D02*
G37*
G36*
X338000Y189122D02*
X337321Y189033D01*
X336689Y188771D01*
X336146Y188354D01*
X335729Y187811D01*
X335467Y187179D01*
X335378Y186500D01*
X335467Y185821D01*
X335729Y185189D01*
X336146Y184646D01*
X336689Y184229D01*
X337321Y183967D01*
X338000Y183878D01*
X338679Y183967D01*
X339311Y184229D01*
X339854Y184646D01*
X340271Y185189D01*
X340533Y185821D01*
X340622Y186500D01*
X340533Y187179D01*
X340271Y187811D01*
X339854Y188354D01*
X339311Y188771D01*
X338679Y189033D01*
X338000Y189122D01*
D02*
G37*
G36*
X524500Y182622D02*
X523821Y182533D01*
X523189Y182271D01*
X522646Y181854D01*
X522229Y181311D01*
X521967Y180679D01*
X521878Y180000D01*
X521967Y179321D01*
X522229Y178689D01*
X522646Y178146D01*
X523189Y177729D01*
X523821Y177467D01*
X524500Y177378D01*
X525179Y177467D01*
X525811Y177729D01*
X526354Y178146D01*
X526771Y178689D01*
X527033Y179321D01*
X527122Y180000D01*
X527033Y180679D01*
X526771Y181311D01*
X526354Y181854D01*
X525811Y182271D01*
X525179Y182533D01*
X524500Y182622D01*
D02*
G37*
G36*
X386000Y183622D02*
X385321Y183533D01*
X384689Y183271D01*
X384146Y182854D01*
X383729Y182311D01*
X383467Y181679D01*
X383378Y181000D01*
X383467Y180321D01*
X383729Y179689D01*
X384146Y179146D01*
X384689Y178729D01*
X385321Y178467D01*
X386000Y178378D01*
X386679Y178467D01*
X387311Y178729D01*
X387854Y179146D01*
X388271Y179689D01*
X388533Y180321D01*
X388622Y181000D01*
X388533Y181679D01*
X388271Y182311D01*
X387854Y182854D01*
X387311Y183271D01*
X386679Y183533D01*
X386000Y183622D01*
D02*
G37*
G36*
X479500Y193622D02*
X478821Y193533D01*
X478189Y193271D01*
X477646Y192854D01*
X477229Y192311D01*
X476967Y191679D01*
X476878Y191000D01*
X476967Y190321D01*
X477229Y189689D01*
X477646Y189146D01*
X478189Y188729D01*
X478821Y188467D01*
X479500Y188378D01*
X480179Y188467D01*
X480811Y188729D01*
X481354Y189146D01*
X481771Y189689D01*
X482033Y190321D01*
X482122Y191000D01*
X482033Y191679D01*
X481771Y192311D01*
X481354Y192854D01*
X480811Y193271D01*
X480179Y193533D01*
X479500Y193622D01*
D02*
G37*
G36*
X568000Y195122D02*
X567321Y195033D01*
X566689Y194771D01*
X566146Y194354D01*
X565729Y193811D01*
X565467Y193179D01*
X565378Y192500D01*
X565467Y191821D01*
X565729Y191189D01*
X566146Y190646D01*
X566689Y190229D01*
X567321Y189967D01*
X568000Y189878D01*
X568679Y189967D01*
X569311Y190229D01*
X569854Y190646D01*
X570271Y191189D01*
X570533Y191821D01*
X570622Y192500D01*
X570533Y193179D01*
X570271Y193811D01*
X569854Y194354D01*
X569311Y194771D01*
X568679Y195033D01*
X568000Y195122D01*
D02*
G37*
G36*
X437500Y195622D02*
X436821Y195533D01*
X436189Y195271D01*
X435646Y194854D01*
X435229Y194311D01*
X434967Y193679D01*
X434878Y193000D01*
X434967Y192321D01*
X435229Y191689D01*
X435646Y191146D01*
X436189Y190729D01*
X436821Y190467D01*
X437500Y190378D01*
X438179Y190467D01*
X438811Y190729D01*
X439354Y191146D01*
X439771Y191689D01*
X440033Y192321D01*
X440122Y193000D01*
X440033Y193679D01*
X439771Y194311D01*
X439354Y194854D01*
X438811Y195271D01*
X438179Y195533D01*
X437500Y195622D01*
D02*
G37*
G36*
X527000Y195122D02*
X526321Y195033D01*
X525689Y194771D01*
X525146Y194354D01*
X524729Y193811D01*
X524467Y193179D01*
X524378Y192500D01*
X524467Y191821D01*
X524729Y191189D01*
X525146Y190646D01*
X525689Y190229D01*
X526321Y189967D01*
X527000Y189878D01*
X527679Y189967D01*
X528311Y190229D01*
X528854Y190646D01*
X529271Y191189D01*
X529533Y191821D01*
X529622Y192500D01*
X529533Y193179D01*
X529271Y193811D01*
X528854Y194354D01*
X528311Y194771D01*
X527679Y195033D01*
X527000Y195122D01*
D02*
G37*
G36*
X553500D02*
X552821Y195033D01*
X552189Y194771D01*
X551646Y194354D01*
X551229Y193811D01*
X550967Y193179D01*
X550878Y192500D01*
X550967Y191821D01*
X551229Y191189D01*
X551646Y190646D01*
X552189Y190229D01*
X552821Y189967D01*
X553500Y189878D01*
X554179Y189967D01*
X554811Y190229D01*
X555354Y190646D01*
X555771Y191189D01*
X556033Y191821D01*
X556122Y192500D01*
X556033Y193179D01*
X555771Y193811D01*
X555354Y194354D01*
X554811Y194771D01*
X554179Y195033D01*
X553500Y195122D01*
D02*
G37*
G36*
X540100Y175100D02*
X537930D01*
X537967Y174821D01*
X538229Y174189D01*
X538646Y173646D01*
X539189Y173229D01*
X539821Y172967D01*
X540100Y172930D01*
Y175100D01*
D02*
G37*
G36*
X543070D02*
X540900D01*
Y172930D01*
X541179Y172967D01*
X541811Y173229D01*
X542354Y173646D01*
X542771Y174189D01*
X543033Y174821D01*
X543070Y175100D01*
D02*
G37*
G36*
X303587Y175600D02*
X299400D01*
Y171413D01*
X300201Y171518D01*
X301320Y171982D01*
X302281Y172719D01*
X303018Y173680D01*
X303482Y174799D01*
X303587Y175600D01*
D02*
G37*
G36*
X488000Y177622D02*
X487321Y177533D01*
X486689Y177271D01*
X486146Y176854D01*
X485729Y176311D01*
X485467Y175679D01*
X485378Y175000D01*
X485467Y174321D01*
X485729Y173689D01*
X486146Y173146D01*
X486689Y172729D01*
X487321Y172467D01*
X488000Y172378D01*
X488679Y172467D01*
X489311Y172729D01*
X489854Y173146D01*
X490271Y173689D01*
X490533Y174321D01*
X490622Y175000D01*
X490533Y175679D01*
X490271Y176311D01*
X489854Y176854D01*
X489311Y177271D01*
X488679Y177533D01*
X488000Y177622D01*
D02*
G37*
G36*
X345000Y178622D02*
X344321Y178533D01*
X343689Y178271D01*
X343146Y177854D01*
X342729Y177311D01*
X342467Y176679D01*
X342378Y176000D01*
X342467Y175321D01*
X342729Y174689D01*
X343146Y174146D01*
X343689Y173729D01*
X344321Y173467D01*
X345000Y173378D01*
X345679Y173467D01*
X346311Y173729D01*
X346854Y174146D01*
X347271Y174689D01*
X347533Y175321D01*
X347622Y176000D01*
X347533Y176679D01*
X347271Y177311D01*
X346854Y177854D01*
X346311Y178271D01*
X345679Y178533D01*
X345000Y178622D01*
D02*
G37*
G36*
X298600Y180587D02*
X297799Y180482D01*
X296680Y180018D01*
X295719Y179281D01*
X294982Y178320D01*
X294518Y177201D01*
X294413Y176400D01*
X298600D01*
Y180587D01*
D02*
G37*
G36*
X299400D02*
Y176400D01*
X303587D01*
X303482Y177201D01*
X303018Y178320D01*
X302281Y179281D01*
X301320Y180018D01*
X300201Y180482D01*
X299400Y180587D01*
D02*
G37*
G36*
X540100Y178070D02*
X539821Y178033D01*
X539189Y177771D01*
X538646Y177354D01*
X538229Y176811D01*
X537967Y176179D01*
X537930Y175900D01*
X540100D01*
Y178070D01*
D02*
G37*
G36*
X540900D02*
Y175900D01*
X543070D01*
X543033Y176179D01*
X542771Y176811D01*
X542354Y177354D01*
X541811Y177771D01*
X541179Y178033D01*
X540900Y178070D01*
D02*
G37*
G36*
X475500Y257622D02*
X474821Y257533D01*
X474189Y257271D01*
X473646Y256854D01*
X473229Y256311D01*
X472967Y255679D01*
X472878Y255000D01*
X472967Y254321D01*
X473229Y253689D01*
X473646Y253146D01*
X474189Y252729D01*
X474821Y252467D01*
X475500Y252378D01*
X476179Y252467D01*
X476811Y252729D01*
X477354Y253146D01*
X477771Y253689D01*
X478033Y254321D01*
X478122Y255000D01*
X478033Y255679D01*
X477771Y256311D01*
X477354Y256854D01*
X476811Y257271D01*
X476179Y257533D01*
X475500Y257622D01*
D02*
G37*
G36*
X522100Y334600D02*
X519930D01*
X519967Y334321D01*
X520229Y333689D01*
X520646Y333146D01*
X521189Y332729D01*
X521821Y332467D01*
X522100Y332430D01*
Y334600D01*
D02*
G37*
G36*
X525070D02*
X522900D01*
Y332430D01*
X523179Y332467D01*
X523811Y332729D01*
X524354Y333146D01*
X524771Y333689D01*
X525033Y334321D01*
X525070Y334600D01*
D02*
G37*
G36*
X529600Y332600D02*
X527430D01*
X527467Y332321D01*
X527729Y331689D01*
X528146Y331146D01*
X528689Y330729D01*
X529321Y330467D01*
X529600Y330430D01*
Y332600D01*
D02*
G37*
G36*
X532570D02*
X530400D01*
Y330430D01*
X530679Y330467D01*
X531311Y330729D01*
X531854Y331146D01*
X532271Y331689D01*
X532533Y332321D01*
X532570Y332600D01*
D02*
G37*
G36*
X529600Y335570D02*
X529321Y335533D01*
X528689Y335271D01*
X528146Y334854D01*
X527729Y334311D01*
X527467Y333679D01*
X527430Y333400D01*
X529600D01*
Y335570D01*
D02*
G37*
G36*
X377070Y335600D02*
X374900D01*
Y333430D01*
X375179Y333467D01*
X375811Y333729D01*
X376354Y334146D01*
X376771Y334689D01*
X377033Y335321D01*
X377070Y335600D01*
D02*
G37*
G36*
X395000Y340122D02*
X394321Y340033D01*
X393689Y339771D01*
X393146Y339354D01*
X392729Y338811D01*
X392467Y338179D01*
X392378Y337500D01*
X392467Y336821D01*
X392729Y336189D01*
X393146Y335646D01*
X393689Y335229D01*
X394321Y334967D01*
X395000Y334878D01*
X395679Y334967D01*
X396311Y335229D01*
X396854Y335646D01*
X397271Y336189D01*
X397533Y336821D01*
X397622Y337500D01*
X397533Y338179D01*
X397271Y338811D01*
X396854Y339354D01*
X396311Y339771D01*
X395679Y340033D01*
X395000Y340122D01*
D02*
G37*
G36*
X530400Y335570D02*
Y333400D01*
X532570D01*
X532533Y333679D01*
X532271Y334311D01*
X531854Y334854D01*
X531311Y335271D01*
X530679Y335533D01*
X530400Y335570D01*
D02*
G37*
G36*
X374100Y335600D02*
X371930D01*
X371967Y335321D01*
X372229Y334689D01*
X372646Y334146D01*
X373189Y333729D01*
X373821Y333467D01*
X374100Y333430D01*
Y335600D01*
D02*
G37*
G36*
X406100Y321600D02*
X403930D01*
X403967Y321321D01*
X404229Y320689D01*
X404646Y320146D01*
X405189Y319729D01*
X405821Y319467D01*
X406100Y319430D01*
Y321600D01*
D02*
G37*
G36*
X409070D02*
X406900D01*
Y319430D01*
X407179Y319467D01*
X407811Y319729D01*
X408354Y320146D01*
X408771Y320689D01*
X409033Y321321D01*
X409070Y321600D01*
D02*
G37*
G36*
X585500Y318122D02*
X584821Y318033D01*
X584189Y317771D01*
X583646Y317354D01*
X583229Y316811D01*
X582967Y316179D01*
X582878Y315500D01*
X582967Y314821D01*
X583229Y314189D01*
X583646Y313646D01*
X584189Y313229D01*
X584821Y312967D01*
X585500Y312878D01*
X586179Y312967D01*
X586811Y313229D01*
X587354Y313646D01*
X587771Y314189D01*
X588033Y314821D01*
X588122Y315500D01*
X588033Y316179D01*
X587771Y316811D01*
X587354Y317354D01*
X586811Y317771D01*
X586179Y318033D01*
X585500Y318122D01*
D02*
G37*
G36*
X474000Y319622D02*
X473321Y319533D01*
X472689Y319271D01*
X472146Y318854D01*
X471729Y318311D01*
X471467Y317679D01*
X471378Y317000D01*
X471467Y316321D01*
X471729Y315689D01*
X472146Y315146D01*
X472689Y314729D01*
X473321Y314467D01*
X474000Y314378D01*
X474679Y314467D01*
X475311Y314729D01*
X475854Y315146D01*
X476271Y315689D01*
X476533Y316321D01*
X476622Y317000D01*
X476533Y317679D01*
X476271Y318311D01*
X475854Y318854D01*
X475311Y319271D01*
X474679Y319533D01*
X474000Y319622D01*
D02*
G37*
G36*
X528000Y326622D02*
X527321Y326533D01*
X526689Y326271D01*
X526146Y325854D01*
X525729Y325311D01*
X525467Y324679D01*
X525378Y324000D01*
X525467Y323321D01*
X525729Y322689D01*
X526146Y322146D01*
X526689Y321729D01*
X527321Y321467D01*
X528000Y321378D01*
X528679Y321467D01*
X529311Y321729D01*
X529854Y322146D01*
X530271Y322689D01*
X530533Y323321D01*
X530622Y324000D01*
X530533Y324679D01*
X530271Y325311D01*
X529854Y325854D01*
X529311Y326271D01*
X528679Y326533D01*
X528000Y326622D01*
D02*
G37*
G36*
X412000Y331122D02*
X411321Y331033D01*
X410689Y330771D01*
X410146Y330354D01*
X409729Y329811D01*
X409467Y329179D01*
X409378Y328500D01*
X409467Y327821D01*
X409729Y327189D01*
X410146Y326646D01*
X410689Y326229D01*
X411321Y325967D01*
X412000Y325878D01*
X412679Y325967D01*
X413311Y326229D01*
X413854Y326646D01*
X414271Y327189D01*
X414533Y327821D01*
X414622Y328500D01*
X414533Y329179D01*
X414271Y329811D01*
X413854Y330354D01*
X413311Y330771D01*
X412679Y331033D01*
X412000Y331122D01*
D02*
G37*
G36*
X570900Y335240D02*
X569699Y335082D01*
X568580Y334618D01*
X567619Y333881D01*
X566882Y332920D01*
X566418Y331801D01*
X566260Y330600D01*
X566418Y329399D01*
X566882Y328280D01*
X567619Y327319D01*
X568580Y326582D01*
X569699Y326118D01*
X570900Y325960D01*
X572101Y326118D01*
X573220Y326582D01*
X574181Y327319D01*
X574918Y328280D01*
X575382Y329399D01*
X575540Y330600D01*
X575382Y331801D01*
X574918Y332920D01*
X574181Y333881D01*
X573220Y334618D01*
X572101Y335082D01*
X570900Y335240D01*
D02*
G37*
G36*
X406100Y324570D02*
X405821Y324533D01*
X405189Y324271D01*
X404646Y323854D01*
X404229Y323311D01*
X403967Y322679D01*
X403930Y322400D01*
X406100D01*
Y324570D01*
D02*
G37*
G36*
X406900D02*
Y322400D01*
X409070D01*
X409033Y322679D01*
X408771Y323311D01*
X408354Y323854D01*
X407811Y324271D01*
X407179Y324533D01*
X406900Y324570D01*
D02*
G37*
G36*
X513500Y340122D02*
X512821Y340033D01*
X512189Y339771D01*
X511646Y339354D01*
X511229Y338811D01*
X510967Y338179D01*
X510878Y337500D01*
X510967Y336821D01*
X511229Y336189D01*
X511646Y335646D01*
X512189Y335229D01*
X512821Y334967D01*
X513500Y334878D01*
X514179Y334967D01*
X514811Y335229D01*
X515354Y335646D01*
X515771Y336189D01*
X516033Y336821D01*
X516122Y337500D01*
X516033Y338179D01*
X515771Y338811D01*
X515354Y339354D01*
X514811Y339771D01*
X514179Y340033D01*
X513500Y340122D01*
D02*
G37*
G36*
X550500Y360200D02*
X547322D01*
X547393Y359660D01*
X547755Y358785D01*
X548332Y358032D01*
X549085Y357455D01*
X549960Y357093D01*
X550500Y357022D01*
Y360200D01*
D02*
G37*
G36*
X554478D02*
X551300D01*
Y357022D01*
X551840Y357093D01*
X552715Y357455D01*
X553468Y358032D01*
X554045Y358785D01*
X554407Y359660D01*
X554478Y360200D01*
D02*
G37*
G36*
X472600Y359574D02*
X472191Y359520D01*
X471437Y359208D01*
X470789Y358711D01*
X470292Y358063D01*
X469980Y357309D01*
X469926Y356900D01*
X472600D01*
Y359574D01*
D02*
G37*
G36*
X473400D02*
Y356900D01*
X476074D01*
X476020Y357309D01*
X475708Y358063D01*
X475211Y358711D01*
X474563Y359208D01*
X473809Y359520D01*
X473400Y359574D01*
D02*
G37*
G36*
X307500Y363622D02*
X306821Y363533D01*
X306189Y363271D01*
X305646Y362854D01*
X305229Y362311D01*
X304967Y361679D01*
X304878Y361000D01*
X304967Y360321D01*
X305229Y359689D01*
X305646Y359146D01*
X306189Y358729D01*
X306821Y358467D01*
X307500Y358378D01*
X308179Y358467D01*
X308811Y358729D01*
X309354Y359146D01*
X309771Y359689D01*
X310033Y360321D01*
X310122Y361000D01*
X310033Y361679D01*
X309771Y362311D01*
X309354Y362854D01*
X308811Y363271D01*
X308179Y363533D01*
X307500Y363622D01*
D02*
G37*
G36*
X353600Y365100D02*
X351430D01*
X351467Y364821D01*
X351729Y364189D01*
X352146Y363646D01*
X352689Y363229D01*
X353321Y362967D01*
X353600Y362930D01*
Y365100D01*
D02*
G37*
G36*
X356570D02*
X354400D01*
Y362930D01*
X354679Y362967D01*
X355311Y363229D01*
X355854Y363646D01*
X356271Y364189D01*
X356533Y364821D01*
X356570Y365100D01*
D02*
G37*
G36*
X550500Y364178D02*
X549960Y364107D01*
X549085Y363745D01*
X548332Y363168D01*
X547755Y362416D01*
X547393Y361540D01*
X547322Y361000D01*
X550500D01*
Y364178D01*
D02*
G37*
G36*
X551300D02*
Y361000D01*
X554478D01*
X554407Y361540D01*
X554045Y362416D01*
X553468Y363168D01*
X552715Y363745D01*
X551840Y364107D01*
X551300Y364178D01*
D02*
G37*
G36*
X374100Y338570D02*
X373821Y338533D01*
X373189Y338271D01*
X372646Y337854D01*
X372229Y337311D01*
X371967Y336679D01*
X371930Y336400D01*
X374100D01*
Y338570D01*
D02*
G37*
G36*
X374900D02*
Y336400D01*
X377070D01*
X377033Y336679D01*
X376771Y337311D01*
X376354Y337854D01*
X375811Y338271D01*
X375179Y338533D01*
X374900Y338570D01*
D02*
G37*
G36*
X522100Y337570D02*
X521821Y337533D01*
X521189Y337271D01*
X520646Y336854D01*
X520229Y336311D01*
X519967Y335679D01*
X519930Y335400D01*
X522100D01*
Y337570D01*
D02*
G37*
G36*
X522900D02*
Y335400D01*
X525070D01*
X525033Y335679D01*
X524771Y336311D01*
X524354Y336854D01*
X523811Y337271D01*
X523179Y337533D01*
X522900Y337570D01*
D02*
G37*
G36*
X543500Y351622D02*
X542821Y351533D01*
X542189Y351271D01*
X541646Y350854D01*
X541229Y350311D01*
X540967Y349679D01*
X540878Y349000D01*
X540967Y348321D01*
X541229Y347689D01*
X541646Y347146D01*
X542189Y346729D01*
X542821Y346467D01*
X543500Y346378D01*
X544179Y346467D01*
X544811Y346729D01*
X545354Y347146D01*
X545771Y347689D01*
X546033Y348321D01*
X546122Y349000D01*
X546033Y349679D01*
X545771Y350311D01*
X545354Y350854D01*
X544811Y351271D01*
X544179Y351533D01*
X543500Y351622D01*
D02*
G37*
G36*
X472600Y356100D02*
X469926D01*
X469980Y355691D01*
X470292Y354937D01*
X470789Y354289D01*
X471437Y353792D01*
X472191Y353480D01*
X472600Y353426D01*
Y356100D01*
D02*
G37*
G36*
X476074D02*
X473400D01*
Y353426D01*
X473809Y353480D01*
X474563Y353792D01*
X475211Y354289D01*
X475708Y354937D01*
X476020Y355691D01*
X476074Y356100D01*
D02*
G37*
G36*
X550900Y354231D02*
X549960Y354107D01*
X549085Y353745D01*
X548332Y353168D01*
X547755Y352415D01*
X547393Y351540D01*
X547269Y350600D01*
X547393Y349660D01*
X547755Y348784D01*
X548332Y348032D01*
X549085Y347455D01*
X549960Y347093D01*
X550900Y346969D01*
X551840Y347093D01*
X552715Y347455D01*
X553468Y348032D01*
X554045Y348784D01*
X554407Y349660D01*
X554531Y350600D01*
X554407Y351540D01*
X554045Y352415D01*
X553468Y353168D01*
X552715Y353745D01*
X551840Y354107D01*
X550900Y354231D01*
D02*
G37*
G36*
X412000Y354622D02*
X411321Y354533D01*
X410689Y354271D01*
X410146Y353854D01*
X409729Y353311D01*
X409467Y352679D01*
X409378Y352000D01*
X409467Y351321D01*
X409729Y350689D01*
X410146Y350146D01*
X410689Y349729D01*
X411321Y349467D01*
X412000Y349378D01*
X412679Y349467D01*
X413311Y349729D01*
X413854Y350146D01*
X414271Y350689D01*
X414533Y351321D01*
X414622Y352000D01*
X414533Y352679D01*
X414271Y353311D01*
X413854Y353854D01*
X413311Y354271D01*
X412679Y354533D01*
X412000Y354622D01*
D02*
G37*
G36*
X553500Y316122D02*
X552821Y316033D01*
X552189Y315771D01*
X551646Y315354D01*
X551229Y314811D01*
X550967Y314179D01*
X550878Y313500D01*
X550967Y312821D01*
X551229Y312189D01*
X551646Y311646D01*
X552189Y311229D01*
X552821Y310967D01*
X553500Y310878D01*
X554179Y310967D01*
X554811Y311229D01*
X555354Y311646D01*
X555771Y312189D01*
X556033Y312821D01*
X556122Y313500D01*
X556033Y314179D01*
X555771Y314811D01*
X555354Y315354D01*
X554811Y315771D01*
X554179Y316033D01*
X553500Y316122D01*
D02*
G37*
G36*
X380570Y271600D02*
X378400D01*
Y269430D01*
X378679Y269467D01*
X379311Y269729D01*
X379854Y270146D01*
X380271Y270689D01*
X380533Y271321D01*
X380570Y271600D01*
D02*
G37*
G36*
X377600Y274570D02*
X377321Y274533D01*
X376689Y274271D01*
X376146Y273854D01*
X375729Y273311D01*
X375467Y272679D01*
X375430Y272400D01*
X377600D01*
Y274570D01*
D02*
G37*
G36*
X565000Y267122D02*
X564321Y267033D01*
X563689Y266771D01*
X563146Y266354D01*
X562729Y265811D01*
X562467Y265179D01*
X562378Y264500D01*
X562467Y263821D01*
X562729Y263189D01*
X563146Y262646D01*
X563689Y262229D01*
X564321Y261967D01*
X565000Y261878D01*
X565679Y261967D01*
X566311Y262229D01*
X566854Y262646D01*
X567271Y263189D01*
X567533Y263821D01*
X567622Y264500D01*
X567533Y265179D01*
X567271Y265811D01*
X566854Y266354D01*
X566311Y266771D01*
X565679Y267033D01*
X565000Y267122D01*
D02*
G37*
G36*
X377600Y271600D02*
X375430D01*
X375467Y271321D01*
X375729Y270689D01*
X376146Y270146D01*
X376689Y269729D01*
X377321Y269467D01*
X377600Y269430D01*
Y271600D01*
D02*
G37*
G36*
X378400Y274570D02*
Y272400D01*
X380570D01*
X380533Y272679D01*
X380271Y273311D01*
X379854Y273854D01*
X379311Y274271D01*
X378679Y274533D01*
X378400Y274570D01*
D02*
G37*
G36*
X373570Y279600D02*
X371400D01*
Y277430D01*
X371679Y277467D01*
X372311Y277729D01*
X372854Y278146D01*
X373271Y278689D01*
X373533Y279321D01*
X373570Y279600D01*
D02*
G37*
G36*
X404000Y283122D02*
X403321Y283033D01*
X402689Y282771D01*
X402146Y282354D01*
X401729Y281811D01*
X401467Y281179D01*
X401378Y280500D01*
X401467Y279821D01*
X401729Y279189D01*
X402146Y278646D01*
X402689Y278229D01*
X403321Y277967D01*
X404000Y277878D01*
X404679Y277967D01*
X405311Y278229D01*
X405854Y278646D01*
X406271Y279189D01*
X406533Y279821D01*
X406622Y280500D01*
X406533Y281179D01*
X406271Y281811D01*
X405854Y282354D01*
X405311Y282771D01*
X404679Y283033D01*
X404000Y283122D01*
D02*
G37*
G36*
X397500Y278122D02*
X396821Y278033D01*
X396189Y277771D01*
X395646Y277354D01*
X395229Y276811D01*
X394967Y276179D01*
X394878Y275500D01*
X394967Y274821D01*
X395229Y274189D01*
X395646Y273646D01*
X396189Y273229D01*
X396821Y272967D01*
X397500Y272878D01*
X398179Y272967D01*
X398811Y273229D01*
X399354Y273646D01*
X399771Y274189D01*
X400033Y274821D01*
X400122Y275500D01*
X400033Y276179D01*
X399771Y276811D01*
X399354Y277354D01*
X398811Y277771D01*
X398179Y278033D01*
X397500Y278122D01*
D02*
G37*
G36*
X370600Y279600D02*
X368430D01*
X368467Y279321D01*
X368729Y278689D01*
X369146Y278146D01*
X369689Y277729D01*
X370321Y277467D01*
X370600Y277430D01*
Y279600D01*
D02*
G37*
G36*
X406570Y258600D02*
X404400D01*
Y256430D01*
X404679Y256467D01*
X405311Y256729D01*
X405854Y257146D01*
X406271Y257689D01*
X406533Y258321D01*
X406570Y258600D01*
D02*
G37*
G36*
X528000Y262122D02*
X527321Y262033D01*
X526689Y261771D01*
X526146Y261354D01*
X525729Y260811D01*
X525467Y260179D01*
X525378Y259500D01*
X525467Y258821D01*
X525729Y258189D01*
X526146Y257646D01*
X526689Y257229D01*
X527321Y256967D01*
X528000Y256878D01*
X528679Y256967D01*
X529311Y257229D01*
X529854Y257646D01*
X530271Y258189D01*
X530533Y258821D01*
X530622Y259500D01*
X530533Y260179D01*
X530271Y260811D01*
X529854Y261354D01*
X529311Y261771D01*
X528679Y262033D01*
X528000Y262122D01*
D02*
G37*
G36*
X557000Y261622D02*
X556321Y261533D01*
X555689Y261271D01*
X555146Y260854D01*
X554729Y260311D01*
X554467Y259679D01*
X554378Y259000D01*
X554467Y258321D01*
X554729Y257689D01*
X555146Y257146D01*
X555689Y256729D01*
X556321Y256467D01*
X557000Y256378D01*
X557679Y256467D01*
X558311Y256729D01*
X558854Y257146D01*
X559271Y257689D01*
X559533Y258321D01*
X559622Y259000D01*
X559533Y259679D01*
X559271Y260311D01*
X558854Y260854D01*
X558311Y261271D01*
X557679Y261533D01*
X557000Y261622D01*
D02*
G37*
G36*
X403600Y258600D02*
X401430D01*
X401467Y258321D01*
X401729Y257689D01*
X402146Y257146D01*
X402689Y256729D01*
X403321Y256467D01*
X403600Y256430D01*
Y258600D01*
D02*
G37*
G36*
Y261570D02*
X403321Y261533D01*
X402689Y261271D01*
X402146Y260854D01*
X401729Y260311D01*
X401467Y259679D01*
X401430Y259400D01*
X403600D01*
Y261570D01*
D02*
G37*
G36*
X588500Y266622D02*
X587821Y266533D01*
X587189Y266271D01*
X586646Y265854D01*
X586229Y265311D01*
X585967Y264679D01*
X585878Y264000D01*
X585967Y263321D01*
X586229Y262689D01*
X586646Y262146D01*
X587189Y261729D01*
X587821Y261467D01*
X588500Y261378D01*
X589179Y261467D01*
X589811Y261729D01*
X590354Y262146D01*
X590771Y262689D01*
X591033Y263321D01*
X591122Y264000D01*
X591033Y264679D01*
X590771Y265311D01*
X590354Y265854D01*
X589811Y266271D01*
X589179Y266533D01*
X588500Y266622D01*
D02*
G37*
G36*
X518500Y267122D02*
X517821Y267033D01*
X517189Y266771D01*
X516646Y266354D01*
X516229Y265811D01*
X515967Y265179D01*
X515878Y264500D01*
X515967Y263821D01*
X516229Y263189D01*
X516646Y262646D01*
X517189Y262229D01*
X517821Y261967D01*
X518500Y261878D01*
X519179Y261967D01*
X519811Y262229D01*
X520354Y262646D01*
X520771Y263189D01*
X521033Y263821D01*
X521122Y264500D01*
X521033Y265179D01*
X520771Y265811D01*
X520354Y266354D01*
X519811Y266771D01*
X519179Y267033D01*
X518500Y267122D01*
D02*
G37*
G36*
X404400Y261570D02*
Y259400D01*
X406570D01*
X406533Y259679D01*
X406271Y260311D01*
X405854Y260854D01*
X405311Y261271D01*
X404679Y261533D01*
X404400Y261570D01*
D02*
G37*
G36*
X377500Y266622D02*
X376821Y266533D01*
X376189Y266271D01*
X375646Y265854D01*
X375229Y265311D01*
X374967Y264679D01*
X374878Y264000D01*
X374967Y263321D01*
X375229Y262689D01*
X375646Y262146D01*
X376189Y261729D01*
X376821Y261467D01*
X377500Y261378D01*
X378179Y261467D01*
X378811Y261729D01*
X379354Y262146D01*
X379771Y262689D01*
X380033Y263321D01*
X380122Y264000D01*
X380033Y264679D01*
X379771Y265311D01*
X379354Y265854D01*
X378811Y266271D01*
X378179Y266533D01*
X377500Y266622D01*
D02*
G37*
G36*
X370600Y282570D02*
X370321Y282533D01*
X369689Y282271D01*
X369146Y281854D01*
X368729Y281311D01*
X368467Y280679D01*
X368430Y280400D01*
X370600D01*
Y282570D01*
D02*
G37*
G36*
X544000Y307122D02*
X543321Y307033D01*
X542689Y306771D01*
X542146Y306354D01*
X541729Y305811D01*
X541467Y305179D01*
X541378Y304500D01*
X541467Y303821D01*
X541729Y303189D01*
X542146Y302646D01*
X542689Y302229D01*
X543321Y301967D01*
X544000Y301878D01*
X544679Y301967D01*
X545311Y302229D01*
X545854Y302646D01*
X546271Y303189D01*
X546533Y303821D01*
X546622Y304500D01*
X546533Y305179D01*
X546271Y305811D01*
X545854Y306354D01*
X545311Y306771D01*
X544679Y307033D01*
X544000Y307122D01*
D02*
G37*
G36*
X533100Y304600D02*
X530930D01*
X530967Y304321D01*
X531229Y303689D01*
X531646Y303146D01*
X532189Y302729D01*
X532821Y302467D01*
X533100Y302430D01*
Y304600D01*
D02*
G37*
G36*
X558900Y295070D02*
Y292900D01*
X561070D01*
X561033Y293179D01*
X560771Y293811D01*
X560354Y294354D01*
X559811Y294771D01*
X559179Y295033D01*
X558900Y295070D01*
D02*
G37*
G36*
X527500Y307122D02*
X526821Y307033D01*
X526189Y306771D01*
X525646Y306354D01*
X525229Y305811D01*
X524967Y305179D01*
X524878Y304500D01*
X524967Y303821D01*
X525229Y303189D01*
X525646Y302646D01*
X526189Y302229D01*
X526821Y301967D01*
X527500Y301878D01*
X528179Y301967D01*
X528811Y302229D01*
X529354Y302646D01*
X529771Y303189D01*
X530033Y303821D01*
X530122Y304500D01*
X530033Y305179D01*
X529771Y305811D01*
X529354Y306354D01*
X528811Y306771D01*
X528179Y307033D01*
X527500Y307122D01*
D02*
G37*
G36*
X536070Y304600D02*
X533900D01*
Y302430D01*
X534179Y302467D01*
X534811Y302729D01*
X535354Y303146D01*
X535771Y303689D01*
X536033Y304321D01*
X536070Y304600D01*
D02*
G37*
G36*
X533900Y307570D02*
Y305400D01*
X536070D01*
X536033Y305679D01*
X535771Y306311D01*
X535354Y306854D01*
X534811Y307271D01*
X534179Y307533D01*
X533900Y307570D01*
D02*
G37*
G36*
X521500Y316122D02*
X520821Y316033D01*
X520189Y315771D01*
X519646Y315354D01*
X519229Y314811D01*
X518967Y314179D01*
X518878Y313500D01*
X518967Y312821D01*
X519229Y312189D01*
X519646Y311646D01*
X520189Y311229D01*
X520821Y310967D01*
X521500Y310878D01*
X522179Y310967D01*
X522811Y311229D01*
X523354Y311646D01*
X523771Y312189D01*
X524033Y312821D01*
X524122Y313500D01*
X524033Y314179D01*
X523771Y314811D01*
X523354Y315354D01*
X522811Y315771D01*
X522179Y316033D01*
X521500Y316122D01*
D02*
G37*
G36*
X475500Y310122D02*
X474821Y310033D01*
X474189Y309771D01*
X473646Y309354D01*
X473229Y308811D01*
X472967Y308179D01*
X472878Y307500D01*
X472967Y306821D01*
X473229Y306189D01*
X473646Y305646D01*
X474189Y305229D01*
X474821Y304967D01*
X475500Y304878D01*
X476179Y304967D01*
X476811Y305229D01*
X477354Y305646D01*
X477771Y306189D01*
X478033Y306821D01*
X478122Y307500D01*
X478033Y308179D01*
X477771Y308811D01*
X477354Y309354D01*
X476811Y309771D01*
X476179Y310033D01*
X475500Y310122D01*
D02*
G37*
G36*
X533100Y307570D02*
X532821Y307533D01*
X532189Y307271D01*
X531646Y306854D01*
X531229Y306311D01*
X530967Y305679D01*
X530930Y305400D01*
X533100D01*
Y307570D01*
D02*
G37*
G36*
X512600Y290100D02*
X510430D01*
X510467Y289821D01*
X510729Y289189D01*
X511146Y288646D01*
X511689Y288229D01*
X512321Y287967D01*
X512600Y287930D01*
Y290100D01*
D02*
G37*
G36*
X515570D02*
X513400D01*
Y287930D01*
X513679Y287967D01*
X514311Y288229D01*
X514854Y288646D01*
X515271Y289189D01*
X515533Y289821D01*
X515570Y290100D01*
D02*
G37*
G36*
X371400Y282570D02*
Y280400D01*
X373570D01*
X373533Y280679D01*
X373271Y281311D01*
X372854Y281854D01*
X372311Y282271D01*
X371679Y282533D01*
X371400Y282570D01*
D02*
G37*
G36*
X381500Y289622D02*
X380821Y289533D01*
X380189Y289271D01*
X379646Y288854D01*
X379229Y288311D01*
X378967Y287679D01*
X378878Y287000D01*
X378967Y286321D01*
X379229Y285689D01*
X379646Y285146D01*
X380189Y284729D01*
X380821Y284467D01*
X381500Y284378D01*
X382179Y284467D01*
X382811Y284729D01*
X383354Y285146D01*
X383771Y285689D01*
X384033Y286321D01*
X384122Y287000D01*
X384033Y287679D01*
X383771Y288311D01*
X383354Y288854D01*
X382811Y289271D01*
X382179Y289533D01*
X381500Y289622D01*
D02*
G37*
G36*
X558100Y292100D02*
X555930D01*
X555967Y291821D01*
X556229Y291189D01*
X556646Y290646D01*
X557189Y290229D01*
X557821Y289967D01*
X558100Y289930D01*
Y292100D01*
D02*
G37*
G36*
X513400Y293070D02*
Y290900D01*
X515570D01*
X515533Y291179D01*
X515271Y291811D01*
X514854Y292354D01*
X514311Y292771D01*
X513679Y293033D01*
X513400Y293070D01*
D02*
G37*
G36*
X558100Y295070D02*
X557821Y295033D01*
X557189Y294771D01*
X556646Y294354D01*
X556229Y293811D01*
X555967Y293179D01*
X555930Y292900D01*
X558100D01*
Y295070D01*
D02*
G37*
G36*
X561070Y292100D02*
X558900D01*
Y289930D01*
X559179Y289967D01*
X559811Y290229D01*
X560354Y290646D01*
X560771Y291189D01*
X561033Y291821D01*
X561070Y292100D01*
D02*
G37*
G36*
X512600Y293070D02*
X512321Y293033D01*
X511689Y292771D01*
X511146Y292354D01*
X510729Y291811D01*
X510467Y291179D01*
X510430Y290900D01*
X512600D01*
Y293070D01*
D02*
G37*
G36*
X400900Y83070D02*
Y80900D01*
X403070D01*
X403033Y81179D01*
X402771Y81811D01*
X402354Y82354D01*
X401811Y82771D01*
X401179Y83033D01*
X400900Y83070D01*
D02*
G37*
G36*
X528600Y83600D02*
X526430D01*
X526467Y83321D01*
X526729Y82689D01*
X527146Y82146D01*
X527689Y81729D01*
X528321Y81467D01*
X528600Y81430D01*
Y83600D01*
D02*
G37*
G36*
X469570Y82600D02*
X467400D01*
Y80430D01*
X467679Y80467D01*
X468311Y80729D01*
X468854Y81146D01*
X469271Y81689D01*
X469533Y82321D01*
X469570Y82600D01*
D02*
G37*
G36*
X400100Y83070D02*
X399821Y83033D01*
X399189Y82771D01*
X398646Y82354D01*
X398229Y81811D01*
X397967Y81179D01*
X397930Y80900D01*
X400100D01*
Y83070D01*
D02*
G37*
G36*
X531570Y83600D02*
X529400D01*
Y81430D01*
X529679Y81467D01*
X530311Y81729D01*
X530854Y82146D01*
X531271Y82689D01*
X531533Y83321D01*
X531570Y83600D01*
D02*
G37*
G36*
X467400Y85570D02*
Y83400D01*
X469570D01*
X469533Y83679D01*
X469271Y84311D01*
X468854Y84854D01*
X468311Y85271D01*
X467679Y85533D01*
X467400Y85570D01*
D02*
G37*
G36*
X528600Y86570D02*
X528321Y86533D01*
X527689Y86271D01*
X527146Y85854D01*
X526729Y85311D01*
X526467Y84679D01*
X526430Y84400D01*
X528600D01*
Y86570D01*
D02*
G37*
G36*
X547000Y87122D02*
X546321Y87033D01*
X545689Y86771D01*
X545146Y86354D01*
X544729Y85811D01*
X544467Y85179D01*
X544378Y84500D01*
X544467Y83821D01*
X544729Y83189D01*
X545146Y82646D01*
X545689Y82229D01*
X546321Y81967D01*
X547000Y81878D01*
X547679Y81967D01*
X548311Y82229D01*
X548854Y82646D01*
X549271Y83189D01*
X549533Y83821D01*
X549622Y84500D01*
X549533Y85179D01*
X549271Y85811D01*
X548854Y86354D01*
X548311Y86771D01*
X547679Y87033D01*
X547000Y87122D01*
D02*
G37*
G36*
X465500Y100622D02*
X464821Y100533D01*
X464189Y100271D01*
X463646Y99854D01*
X463229Y99311D01*
X462967Y98679D01*
X462878Y98000D01*
X462967Y97321D01*
X463229Y96689D01*
X463646Y96146D01*
X464161Y95750D01*
Y95250D01*
X463646Y94854D01*
X463229Y94311D01*
X462967Y93679D01*
X462878Y93000D01*
X462967Y92321D01*
X463229Y91689D01*
X463646Y91146D01*
X464161Y90750D01*
Y90250D01*
X463646Y89854D01*
X463229Y89311D01*
X462967Y88679D01*
X462878Y88000D01*
X462967Y87321D01*
X463229Y86689D01*
X463646Y86146D01*
X464189Y85729D01*
X464821Y85467D01*
X465132Y85426D01*
X465261Y84943D01*
X465146Y84854D01*
X464729Y84311D01*
X464467Y83679D01*
X464430Y83400D01*
X466600D01*
Y85570D01*
X467000Y85623D01*
X466970Y85851D01*
X467354Y86146D01*
X467771Y86689D01*
X468033Y87321D01*
X468122Y88000D01*
X468033Y88679D01*
X467771Y89311D01*
X467354Y89854D01*
X466811Y90271D01*
Y90729D01*
X467354Y91146D01*
X467771Y91689D01*
X468033Y92321D01*
X468122Y93000D01*
X468033Y93679D01*
X467771Y94311D01*
X467354Y94854D01*
X466811Y95271D01*
Y95729D01*
X467354Y96146D01*
X467771Y96689D01*
X468033Y97321D01*
X468122Y98000D01*
X468033Y98679D01*
X467771Y99311D01*
X467354Y99854D01*
X466811Y100271D01*
X466179Y100533D01*
X465500Y100622D01*
D02*
G37*
G36*
X466600Y82600D02*
X464430D01*
X464467Y82321D01*
X464729Y81689D01*
X465146Y81146D01*
X465689Y80729D01*
X466321Y80467D01*
X466600Y80430D01*
Y82600D01*
D02*
G37*
G36*
X332800Y71222D02*
X322400D01*
Y62022D01*
X337600D01*
Y66422D01*
X332800Y71222D01*
D02*
G37*
G36*
X504000Y75622D02*
X503321Y75533D01*
X502689Y75271D01*
X502146Y74854D01*
X501729Y74311D01*
X501467Y73679D01*
X501378Y73000D01*
X501467Y72321D01*
X501729Y71689D01*
X502146Y71146D01*
X502689Y70729D01*
X503321Y70467D01*
X503558Y70436D01*
X503632Y70340D01*
X503786Y69969D01*
X503434Y69511D01*
X503172Y68879D01*
X503083Y68200D01*
X503172Y67521D01*
X503434Y66889D01*
X503851Y66346D01*
X504394Y65929D01*
X505027Y65667D01*
X505705Y65578D01*
X506384Y65667D01*
X507017Y65929D01*
X507560Y66346D01*
X507976Y66889D01*
X508238Y67521D01*
X508328Y68200D01*
X508238Y68879D01*
X507976Y69511D01*
X507560Y70054D01*
X507017Y70471D01*
X506384Y70733D01*
X505705Y70822D01*
X505640Y70981D01*
X505854Y71146D01*
X506271Y71689D01*
X506533Y72321D01*
X506622Y73000D01*
X506533Y73679D01*
X506271Y74311D01*
X505854Y74854D01*
X505311Y75271D01*
X504679Y75533D01*
X504000Y75622D01*
D02*
G37*
G36*
X391000Y66622D02*
X390321Y66533D01*
X389689Y66271D01*
X389146Y65854D01*
X388729Y65311D01*
X388467Y64679D01*
X388378Y64000D01*
X388467Y63321D01*
X388729Y62689D01*
X389146Y62146D01*
X389689Y61729D01*
X390321Y61467D01*
X391000Y61378D01*
X391679Y61467D01*
X392311Y61729D01*
X392854Y62146D01*
X393271Y62689D01*
X393533Y63321D01*
X393622Y64000D01*
X393533Y64679D01*
X393271Y65311D01*
X392854Y65854D01*
X392311Y66271D01*
X391679Y66533D01*
X391000Y66622D01*
D02*
G37*
G36*
X321600Y71222D02*
X311200D01*
X306400Y66422D01*
Y62022D01*
X321600D01*
Y71222D01*
D02*
G37*
G36*
X525500Y75622D02*
X524821Y75533D01*
X524189Y75271D01*
X523646Y74854D01*
X523229Y74311D01*
X522967Y73679D01*
X522878Y73000D01*
X522967Y72321D01*
X523229Y71689D01*
X523646Y71146D01*
X524189Y70729D01*
X524821Y70467D01*
X525500Y70378D01*
X526179Y70467D01*
X526811Y70729D01*
X527354Y71146D01*
X527771Y71689D01*
X528033Y72321D01*
X528122Y73000D01*
X528033Y73679D01*
X527771Y74311D01*
X527354Y74854D01*
X526811Y75271D01*
X526179Y75533D01*
X525500Y75622D01*
D02*
G37*
G36*
X403070Y80100D02*
X400900D01*
Y77930D01*
X401179Y77967D01*
X401811Y78229D01*
X402354Y78646D01*
X402771Y79189D01*
X403033Y79821D01*
X403070Y80100D01*
D02*
G37*
G36*
X418000Y85122D02*
X417321Y85033D01*
X416689Y84771D01*
X416146Y84354D01*
X415729Y83811D01*
X415467Y83179D01*
X415378Y82500D01*
X415467Y81821D01*
X415729Y81189D01*
X416146Y80646D01*
X416689Y80229D01*
X417321Y79967D01*
X418000Y79878D01*
X418679Y79967D01*
X419311Y80229D01*
X419854Y80646D01*
X420271Y81189D01*
X420533Y81821D01*
X420622Y82500D01*
X420533Y83179D01*
X420271Y83811D01*
X419854Y84354D01*
X419311Y84771D01*
X418679Y85033D01*
X418000Y85122D01*
D02*
G37*
G36*
X433500Y76122D02*
X432821Y76033D01*
X432189Y75771D01*
X431646Y75354D01*
X431229Y74811D01*
X430967Y74179D01*
X430878Y73500D01*
X430967Y72821D01*
X431229Y72189D01*
X431646Y71646D01*
X432189Y71229D01*
X432821Y70967D01*
X433500Y70878D01*
X434179Y70967D01*
X434811Y71229D01*
X435354Y71646D01*
X435771Y72189D01*
X436033Y72821D01*
X436122Y73500D01*
X436033Y74179D01*
X435771Y74811D01*
X435354Y75354D01*
X434811Y75771D01*
X434179Y76033D01*
X433500Y76122D01*
D02*
G37*
G36*
X400100Y80100D02*
X397930D01*
X397967Y79821D01*
X398229Y79189D01*
X398646Y78646D01*
X399189Y78229D01*
X399821Y77967D01*
X400100Y77930D01*
Y80100D01*
D02*
G37*
G36*
X489570Y94100D02*
X487400D01*
Y91930D01*
X487679Y91967D01*
X488311Y92229D01*
X488854Y92646D01*
X489271Y93189D01*
X489533Y93821D01*
X489570Y94100D01*
D02*
G37*
G36*
X380600Y95570D02*
X380321Y95533D01*
X379689Y95271D01*
X379146Y94854D01*
X378729Y94311D01*
X378467Y93679D01*
X378430Y93400D01*
X380600D01*
Y95570D01*
D02*
G37*
G36*
X558100Y99600D02*
X550400D01*
Y91900D01*
X551588Y92017D01*
X553115Y92480D01*
X554522Y93233D01*
X555755Y94245D01*
X556768Y95478D01*
X557520Y96885D01*
X557983Y98412D01*
X558100Y99600D01*
D02*
G37*
G36*
X486600Y94100D02*
X484430D01*
X484467Y93821D01*
X484729Y93189D01*
X485146Y92646D01*
X485689Y92229D01*
X486321Y91967D01*
X486600Y91930D01*
Y94100D01*
D02*
G37*
G36*
X381400Y95570D02*
Y93400D01*
X383570D01*
X383533Y93679D01*
X383271Y94311D01*
X382854Y94854D01*
X382311Y95271D01*
X381679Y95533D01*
X381400Y95570D01*
D02*
G37*
G36*
X486600Y97070D02*
X486321Y97033D01*
X485689Y96771D01*
X485146Y96354D01*
X484729Y95811D01*
X484467Y95179D01*
X484430Y94900D01*
X486600D01*
Y97070D01*
D02*
G37*
G36*
X487400D02*
Y94900D01*
X489570D01*
X489533Y95179D01*
X489271Y95811D01*
X488854Y96354D01*
X488311Y96771D01*
X487679Y97033D01*
X487400Y97070D01*
D02*
G37*
G36*
X584100Y96070D02*
X583821Y96033D01*
X583189Y95771D01*
X582646Y95354D01*
X582229Y94811D01*
X581967Y94179D01*
X581930Y93900D01*
X584100D01*
Y96070D01*
D02*
G37*
G36*
X584900D02*
Y93900D01*
X587070D01*
X587033Y94179D01*
X586771Y94811D01*
X586354Y95354D01*
X585811Y95771D01*
X585179Y96033D01*
X584900Y96070D01*
D02*
G37*
G36*
X549600Y99600D02*
X541900D01*
X542017Y98412D01*
X542480Y96885D01*
X543232Y95478D01*
X544245Y94245D01*
X545478Y93233D01*
X546885Y92480D01*
X548412Y92017D01*
X549600Y91900D01*
Y99600D01*
D02*
G37*
G36*
X533500Y89622D02*
X532821Y89533D01*
X532189Y89271D01*
X531646Y88854D01*
X531229Y88311D01*
X530967Y87679D01*
X530878Y87000D01*
X530963Y86353D01*
X530754Y86233D01*
X530499Y86127D01*
X530311Y86271D01*
X529679Y86533D01*
X529400Y86570D01*
Y84400D01*
X531570D01*
X531537Y84646D01*
X531746Y84767D01*
X532001Y84873D01*
X532189Y84729D01*
X532821Y84467D01*
X533500Y84378D01*
X534179Y84467D01*
X534811Y84729D01*
X535354Y85146D01*
X535771Y85689D01*
X536033Y86321D01*
X536122Y87000D01*
X536033Y87679D01*
X535771Y88311D01*
X535354Y88854D01*
X534811Y89271D01*
X534179Y89533D01*
X533500Y89622D01*
D02*
G37*
G36*
X408100Y91070D02*
X407821Y91033D01*
X407189Y90771D01*
X406646Y90354D01*
X406229Y89811D01*
X405967Y89179D01*
X405930Y88900D01*
X408100D01*
Y91070D01*
D02*
G37*
G36*
Y88100D02*
X405930D01*
X405967Y87821D01*
X406229Y87189D01*
X406646Y86646D01*
X407189Y86229D01*
X407821Y85967D01*
X408100Y85930D01*
Y88100D01*
D02*
G37*
G36*
X411070D02*
X408900D01*
Y85930D01*
X409179Y85967D01*
X409811Y86229D01*
X410354Y86646D01*
X410771Y87189D01*
X411033Y87821D01*
X411070Y88100D01*
D02*
G37*
G36*
X408900Y91070D02*
Y88900D01*
X411070D01*
X411033Y89179D01*
X410771Y89811D01*
X410354Y90354D01*
X409811Y90771D01*
X409179Y91033D01*
X408900Y91070D01*
D02*
G37*
G36*
X584100Y93100D02*
X581930D01*
X581967Y92821D01*
X582229Y92189D01*
X582646Y91646D01*
X583189Y91229D01*
X583821Y90967D01*
X584100Y90930D01*
Y93100D01*
D02*
G37*
G36*
X587070D02*
X584900D01*
Y90930D01*
X585179Y90967D01*
X585811Y91229D01*
X586354Y91646D01*
X586771Y92189D01*
X587033Y92821D01*
X587070Y93100D01*
D02*
G37*
G36*
X380600Y92600D02*
X378430D01*
X378467Y92321D01*
X378729Y91689D01*
X379146Y91146D01*
X379689Y90729D01*
X380321Y90467D01*
X380600Y90430D01*
Y92600D01*
D02*
G37*
G36*
X383570D02*
X381400D01*
Y90430D01*
X381679Y90467D01*
X382311Y90729D01*
X382854Y91146D01*
X383271Y91689D01*
X383533Y92321D01*
X383570Y92600D01*
D02*
G37*
G36*
X321600Y37600D02*
X309589D01*
Y31795D01*
X315794Y25589D01*
X321600D01*
Y37600D01*
D02*
G37*
G36*
X334411D02*
X322400D01*
Y25589D01*
X328205D01*
X334411Y31795D01*
Y37600D01*
D02*
G37*
G36*
X549600Y34740D02*
X548399Y34582D01*
X547280Y34118D01*
X546319Y33381D01*
X545582Y32420D01*
X545118Y31301D01*
X544960Y30100D01*
X545118Y28899D01*
X545582Y27780D01*
X546319Y26819D01*
X547280Y26082D01*
X548399Y25618D01*
X549600Y25460D01*
X550801Y25618D01*
X551920Y26082D01*
X552881Y26819D01*
X553618Y27780D01*
X554082Y28899D01*
X554240Y30100D01*
X554082Y31301D01*
X553618Y32420D01*
X552881Y33381D01*
X551920Y34118D01*
X550801Y34582D01*
X549600Y34740D01*
D02*
G37*
G36*
X589600D02*
X588399Y34582D01*
X587280Y34118D01*
X586319Y33381D01*
X585582Y32420D01*
X585118Y31301D01*
X584960Y30100D01*
X585118Y28899D01*
X585582Y27780D01*
X586319Y26819D01*
X587280Y26082D01*
X588399Y25618D01*
X589600Y25460D01*
X590801Y25618D01*
X591920Y26082D01*
X592881Y26819D01*
X593618Y27780D01*
X594082Y28899D01*
X594240Y30100D01*
X594082Y31301D01*
X593618Y32420D01*
X592881Y33381D01*
X591920Y34118D01*
X590801Y34582D01*
X589600Y34740D01*
D02*
G37*
G36*
X321600Y50411D02*
X315794D01*
X309589Y44205D01*
Y38400D01*
X321600D01*
Y50411D01*
D02*
G37*
G36*
X449600Y53731D02*
X448660Y53607D01*
X447785Y53245D01*
X447032Y52668D01*
X446455Y51916D01*
X446093Y51040D01*
X445969Y50100D01*
X446093Y49160D01*
X446455Y48285D01*
X447032Y47532D01*
X447785Y46955D01*
X448660Y46593D01*
X449600Y46469D01*
X450540Y46593D01*
X451415Y46955D01*
X452168Y47532D01*
X452745Y48285D01*
X453107Y49160D01*
X453231Y50100D01*
X453107Y51040D01*
X452745Y51916D01*
X452168Y52668D01*
X451415Y53245D01*
X450540Y53607D01*
X449600Y53731D01*
D02*
G37*
G36*
X509600D02*
X508660Y53607D01*
X507785Y53245D01*
X507032Y52668D01*
X506455Y51916D01*
X506093Y51040D01*
X505969Y50100D01*
X506093Y49160D01*
X506455Y48285D01*
X507032Y47532D01*
X507785Y46955D01*
X508660Y46593D01*
X509600Y46469D01*
X510540Y46593D01*
X511415Y46955D01*
X512168Y47532D01*
X512745Y48285D01*
X513107Y49160D01*
X513231Y50100D01*
X513107Y51040D01*
X512745Y51916D01*
X512168Y52668D01*
X511415Y53245D01*
X510540Y53607D01*
X509600Y53731D01*
D02*
G37*
G36*
X328205Y50411D02*
X322400D01*
Y38400D01*
X334411D01*
Y44205D01*
X328205Y50411D01*
D02*
G37*
G36*
X389600Y53731D02*
X388660Y53607D01*
X387785Y53245D01*
X387033Y52668D01*
X386455Y51916D01*
X386093Y51040D01*
X385969Y50100D01*
X386093Y49160D01*
X386455Y48285D01*
X387033Y47532D01*
X387785Y46955D01*
X388660Y46593D01*
X389600Y46469D01*
X390540Y46593D01*
X391416Y46955D01*
X392167Y47532D01*
X392745Y48285D01*
X393107Y49160D01*
X393231Y50100D01*
X393107Y51040D01*
X392745Y51916D01*
X392167Y52668D01*
X391416Y53245D01*
X390540Y53607D01*
X389600Y53731D01*
D02*
G37*
G36*
X529600Y34740D02*
X528399Y34582D01*
X527280Y34118D01*
X526319Y33381D01*
X525582Y32420D01*
X525118Y31301D01*
X524960Y30100D01*
X525118Y28899D01*
X525582Y27780D01*
X526319Y26819D01*
X527280Y26082D01*
X528399Y25618D01*
X529600Y25460D01*
X530801Y25618D01*
X531920Y26082D01*
X532881Y26819D01*
X533618Y27780D01*
X534082Y28899D01*
X534240Y30100D01*
X534082Y31301D01*
X533618Y32420D01*
X532881Y33381D01*
X531920Y34118D01*
X530801Y34582D01*
X529600Y34740D01*
D02*
G37*
G36*
X321600Y23978D02*
X311200D01*
X306400Y19178D01*
Y14778D01*
X321600D01*
Y23978D01*
D02*
G37*
G36*
X332800D02*
X322400D01*
Y14778D01*
X337600D01*
Y19178D01*
X332800Y23978D01*
D02*
G37*
G36*
X321600Y13978D02*
X306400D01*
Y9578D01*
X311200Y4778D01*
X321600D01*
Y13978D01*
D02*
G37*
G36*
X337600D02*
X322400D01*
Y4778D01*
X332800D01*
X337600Y9578D01*
Y13978D01*
D02*
G37*
G36*
X369600Y34740D02*
X368399Y34582D01*
X367280Y34118D01*
X366319Y33381D01*
X365582Y32420D01*
X365118Y31301D01*
X364960Y30100D01*
X365118Y28899D01*
X365582Y27780D01*
X366319Y26819D01*
X367280Y26082D01*
X368399Y25618D01*
X369600Y25460D01*
X370801Y25618D01*
X371920Y26082D01*
X372881Y26819D01*
X373618Y27780D01*
X374082Y28899D01*
X374240Y30100D01*
X374082Y31301D01*
X373618Y32420D01*
X372881Y33381D01*
X371920Y34118D01*
X370801Y34582D01*
X369600Y34740D01*
D02*
G37*
G36*
X469600D02*
X468399Y34582D01*
X467280Y34118D01*
X466319Y33381D01*
X465582Y32420D01*
X465118Y31301D01*
X464960Y30100D01*
X465118Y28899D01*
X465582Y27780D01*
X466319Y26819D01*
X467280Y26082D01*
X468399Y25618D01*
X469600Y25460D01*
X470801Y25618D01*
X471920Y26082D01*
X472881Y26819D01*
X473618Y27780D01*
X474082Y28899D01*
X474240Y30100D01*
X474082Y31301D01*
X473618Y32420D01*
X472881Y33381D01*
X471920Y34118D01*
X470801Y34582D01*
X469600Y34740D01*
D02*
G37*
G36*
X489600D02*
X488399Y34582D01*
X487280Y34118D01*
X486319Y33381D01*
X485582Y32420D01*
X485118Y31301D01*
X484960Y30100D01*
X485118Y28899D01*
X485582Y27780D01*
X486319Y26819D01*
X487280Y26082D01*
X488399Y25618D01*
X489600Y25460D01*
X490801Y25618D01*
X491920Y26082D01*
X492881Y26819D01*
X493618Y27780D01*
X494082Y28899D01*
X494240Y30100D01*
X494082Y31301D01*
X493618Y32420D01*
X492881Y33381D01*
X491920Y34118D01*
X490801Y34582D01*
X489600Y34740D01*
D02*
G37*
G36*
X409600D02*
X408399Y34582D01*
X407280Y34118D01*
X406319Y33381D01*
X405582Y32420D01*
X405118Y31301D01*
X404960Y30100D01*
X405118Y28899D01*
X405582Y27780D01*
X406319Y26819D01*
X407280Y26082D01*
X408399Y25618D01*
X409600Y25460D01*
X410801Y25618D01*
X411920Y26082D01*
X412881Y26819D01*
X413618Y27780D01*
X414082Y28899D01*
X414240Y30100D01*
X414082Y31301D01*
X413618Y32420D01*
X412881Y33381D01*
X411920Y34118D01*
X410801Y34582D01*
X409600Y34740D01*
D02*
G37*
G36*
X429600D02*
X428399Y34582D01*
X427280Y34118D01*
X426319Y33381D01*
X425582Y32420D01*
X425118Y31301D01*
X424960Y30100D01*
X425118Y28899D01*
X425582Y27780D01*
X426319Y26819D01*
X427280Y26082D01*
X428399Y25618D01*
X429600Y25460D01*
X430801Y25618D01*
X431920Y26082D01*
X432881Y26819D01*
X433618Y27780D01*
X434082Y28899D01*
X434240Y30100D01*
X434082Y31301D01*
X433618Y32420D01*
X432881Y33381D01*
X431920Y34118D01*
X430801Y34582D01*
X429600Y34740D01*
D02*
G37*
G36*
X460000Y53678D02*
Y50500D01*
X463178D01*
X463107Y51040D01*
X462745Y51916D01*
X462168Y52668D01*
X461415Y53245D01*
X460540Y53607D01*
X460000Y53678D01*
D02*
G37*
G36*
X519200D02*
X518660Y53607D01*
X517785Y53245D01*
X517032Y52668D01*
X516455Y51916D01*
X516093Y51040D01*
X516022Y50500D01*
X519200D01*
Y53678D01*
D02*
G37*
G36*
X400000D02*
Y50500D01*
X403178D01*
X403107Y51040D01*
X402745Y51916D01*
X402168Y52668D01*
X401415Y53245D01*
X400540Y53607D01*
X400000Y53678D01*
D02*
G37*
G36*
X459200D02*
X458660Y53607D01*
X457785Y53245D01*
X457032Y52668D01*
X456455Y51916D01*
X456093Y51040D01*
X456022Y50500D01*
X459200D01*
Y53678D01*
D02*
G37*
G36*
X520000D02*
Y50500D01*
X523178D01*
X523107Y51040D01*
X522745Y51916D01*
X522168Y52668D01*
X521416Y53245D01*
X520540Y53607D01*
X520000Y53678D01*
D02*
G37*
G36*
X321600Y61222D02*
X306400D01*
Y56822D01*
X311200Y52022D01*
X321600D01*
Y61222D01*
D02*
G37*
G36*
X337600D02*
X322400D01*
Y52022D01*
X332800D01*
X337600Y56822D01*
Y61222D01*
D02*
G37*
G36*
X579200Y53678D02*
X578660Y53607D01*
X577784Y53245D01*
X577032Y52668D01*
X576455Y51916D01*
X576093Y51040D01*
X576022Y50500D01*
X579200D01*
Y53678D01*
D02*
G37*
G36*
X580000D02*
Y50500D01*
X583178D01*
X583107Y51040D01*
X582745Y51916D01*
X582168Y52668D01*
X581416Y53245D01*
X580540Y53607D01*
X580000Y53678D01*
D02*
G37*
G36*
X399200D02*
X398660Y53607D01*
X397784Y53245D01*
X397032Y52668D01*
X396455Y51916D01*
X396093Y51040D01*
X396022Y50500D01*
X399200D01*
Y53678D01*
D02*
G37*
G36*
X403178Y49700D02*
X400000D01*
Y46522D01*
X400540Y46593D01*
X401415Y46955D01*
X402168Y47532D01*
X402745Y48285D01*
X403107Y49160D01*
X403178Y49700D01*
D02*
G37*
G36*
X459200D02*
X456022D01*
X456093Y49160D01*
X456455Y48285D01*
X457032Y47532D01*
X457785Y46955D01*
X458660Y46593D01*
X459200Y46522D01*
Y49700D01*
D02*
G37*
G36*
X569600Y53731D02*
X568660Y53607D01*
X567785Y53245D01*
X567032Y52668D01*
X566455Y51916D01*
X566093Y51040D01*
X565969Y50100D01*
X566093Y49160D01*
X566455Y48285D01*
X567032Y47532D01*
X567785Y46955D01*
X568660Y46593D01*
X569600Y46469D01*
X570540Y46593D01*
X571416Y46955D01*
X572168Y47532D01*
X572745Y48285D01*
X573107Y49160D01*
X573231Y50100D01*
X573107Y51040D01*
X572745Y51916D01*
X572168Y52668D01*
X571416Y53245D01*
X570540Y53607D01*
X569600Y53731D01*
D02*
G37*
G36*
X399200Y49700D02*
X396022D01*
X396093Y49160D01*
X396455Y48285D01*
X397032Y47532D01*
X397784Y46955D01*
X398660Y46593D01*
X399200Y46522D01*
Y49700D01*
D02*
G37*
G36*
X463178D02*
X460000D01*
Y46522D01*
X460540Y46593D01*
X461415Y46955D01*
X462168Y47532D01*
X462745Y48285D01*
X463107Y49160D01*
X463178Y49700D01*
D02*
G37*
G36*
X579200D02*
X576022D01*
X576093Y49160D01*
X576455Y48285D01*
X577032Y47532D01*
X577784Y46955D01*
X578660Y46593D01*
X579200Y46522D01*
Y49700D01*
D02*
G37*
G36*
X583178D02*
X580000D01*
Y46522D01*
X580540Y46593D01*
X581416Y46955D01*
X582168Y47532D01*
X582745Y48285D01*
X583107Y49160D01*
X583178Y49700D01*
D02*
G37*
G36*
X519200D02*
X516022D01*
X516093Y49160D01*
X516455Y48285D01*
X517032Y47532D01*
X517785Y46955D01*
X518660Y46593D01*
X519200Y46522D01*
Y49700D01*
D02*
G37*
G36*
X523178D02*
X520000D01*
Y46522D01*
X520540Y46593D01*
X521416Y46955D01*
X522168Y47532D01*
X522745Y48285D01*
X523107Y49160D01*
X523178Y49700D01*
D02*
G37*
G36*
X496000Y136622D02*
X495321Y136533D01*
X494689Y136271D01*
X494146Y135854D01*
X493729Y135311D01*
X493467Y134679D01*
X493378Y134000D01*
X493467Y133321D01*
X493729Y132689D01*
X494146Y132146D01*
X494689Y131729D01*
X495321Y131467D01*
X496000Y131378D01*
X496679Y131467D01*
X497311Y131729D01*
X497854Y132146D01*
X498271Y132689D01*
X498533Y133321D01*
X498622Y134000D01*
X498533Y134679D01*
X498271Y135311D01*
X497854Y135854D01*
X497311Y136271D01*
X496679Y136533D01*
X496000Y136622D01*
D02*
G37*
G36*
X515000Y139122D02*
X514321Y139033D01*
X513689Y138771D01*
X513146Y138354D01*
X512729Y137811D01*
X512467Y137179D01*
X512378Y136500D01*
X512467Y135821D01*
X512729Y135189D01*
X513146Y134646D01*
X513689Y134229D01*
X514321Y133967D01*
X515000Y133878D01*
X515679Y133967D01*
X516311Y134229D01*
X516854Y134646D01*
X517271Y135189D01*
X517533Y135821D01*
X517622Y136500D01*
X517533Y137179D01*
X517271Y137811D01*
X516854Y138354D01*
X516311Y138771D01*
X515679Y139033D01*
X515000Y139122D01*
D02*
G37*
G36*
X384000Y136622D02*
X383321Y136533D01*
X382689Y136271D01*
X382146Y135854D01*
X381729Y135311D01*
X381467Y134679D01*
X381378Y134000D01*
X381467Y133321D01*
X381729Y132689D01*
X382146Y132146D01*
X382689Y131729D01*
X383321Y131467D01*
X384000Y131378D01*
X384679Y131467D01*
X385311Y131729D01*
X385854Y132146D01*
X386271Y132689D01*
X386533Y133321D01*
X386622Y134000D01*
X386533Y134679D01*
X386271Y135311D01*
X385854Y135854D01*
X385311Y136271D01*
X384679Y136533D01*
X384000Y136622D01*
D02*
G37*
G36*
X431500Y137122D02*
X430821Y137033D01*
X430189Y136771D01*
X429646Y136354D01*
X429229Y135811D01*
X428967Y135179D01*
X428878Y134500D01*
X428967Y133821D01*
X429229Y133189D01*
X429646Y132646D01*
X430189Y132229D01*
X430821Y131967D01*
X431500Y131878D01*
X432179Y131967D01*
X432811Y132229D01*
X433354Y132646D01*
X433630Y133004D01*
X434125Y132939D01*
X434229Y132689D01*
X434646Y132146D01*
X435189Y131729D01*
X435821Y131467D01*
X436500Y131378D01*
X437179Y131467D01*
X437811Y131729D01*
X438354Y132146D01*
X438771Y132689D01*
X439033Y133321D01*
X439122Y134000D01*
X439033Y134679D01*
X438771Y135311D01*
X438354Y135854D01*
X437811Y136271D01*
X437179Y136533D01*
X436500Y136622D01*
X435821Y136533D01*
X435189Y136271D01*
X434646Y135854D01*
X434371Y135496D01*
X433875Y135561D01*
X433771Y135811D01*
X433354Y136354D01*
X432811Y136771D01*
X432179Y137033D01*
X431500Y137122D01*
D02*
G37*
G36*
X475750Y139372D02*
X475071Y139283D01*
X474439Y139021D01*
X473896Y138604D01*
X473479Y138061D01*
X473217Y137429D01*
X473128Y136750D01*
X473217Y136071D01*
X473479Y135439D01*
X473896Y134896D01*
X474439Y134479D01*
X475071Y134217D01*
X475750Y134128D01*
X476429Y134217D01*
X477061Y134479D01*
X477604Y134896D01*
X478021Y135439D01*
X478283Y136071D01*
X478372Y136750D01*
X478283Y137429D01*
X478021Y138061D01*
X477604Y138604D01*
X477061Y139021D01*
X476429Y139283D01*
X475750Y139372D01*
D02*
G37*
G36*
X529070Y137600D02*
X526900D01*
Y135430D01*
X527179Y135467D01*
X527811Y135729D01*
X528354Y136146D01*
X528771Y136689D01*
X529033Y137321D01*
X529070Y137600D01*
D02*
G37*
G36*
X575000Y141122D02*
X574321Y141033D01*
X573689Y140771D01*
X573146Y140354D01*
X572729Y139811D01*
X572467Y139179D01*
X572378Y138500D01*
X572467Y137821D01*
X572729Y137189D01*
X573146Y136646D01*
X573689Y136229D01*
X574321Y135967D01*
X575000Y135878D01*
X575679Y135967D01*
X576311Y136229D01*
X576854Y136646D01*
X577271Y137189D01*
X577533Y137821D01*
X577622Y138500D01*
X577533Y139179D01*
X577271Y139811D01*
X576854Y140354D01*
X576311Y140771D01*
X575679Y141033D01*
X575000Y141122D01*
D02*
G37*
G36*
X595500Y139622D02*
X594821Y139533D01*
X594189Y139271D01*
X593646Y138854D01*
X593229Y138311D01*
X592967Y137679D01*
X592878Y137000D01*
X592967Y136321D01*
X593229Y135689D01*
X593646Y135146D01*
X594189Y134729D01*
X594821Y134467D01*
X595500Y134378D01*
X596179Y134467D01*
X596811Y134729D01*
X597354Y135146D01*
X597771Y135689D01*
X598033Y136321D01*
X598122Y137000D01*
X598033Y137679D01*
X597771Y138311D01*
X597354Y138854D01*
X596811Y139271D01*
X596179Y139533D01*
X595500Y139622D01*
D02*
G37*
G36*
X526100Y137600D02*
X523930D01*
X523967Y137321D01*
X524229Y136689D01*
X524646Y136146D01*
X525189Y135729D01*
X525821Y135467D01*
X526100Y135430D01*
Y137600D01*
D02*
G37*
G36*
X337500Y136122D02*
X336821Y136033D01*
X336189Y135771D01*
X335646Y135354D01*
X335229Y134811D01*
X334967Y134179D01*
X334878Y133500D01*
X334967Y132821D01*
X335229Y132189D01*
X335646Y131646D01*
X336189Y131229D01*
X336821Y130967D01*
X337500Y130878D01*
X338179Y130967D01*
X338811Y131229D01*
X339354Y131646D01*
X339771Y132189D01*
X340033Y132821D01*
X340122Y133500D01*
X340033Y134179D01*
X339771Y134811D01*
X339354Y135354D01*
X338811Y135771D01*
X338179Y136033D01*
X337500Y136122D01*
D02*
G37*
G36*
X429000Y131122D02*
X428321Y131033D01*
X427689Y130771D01*
X427146Y130354D01*
X426729Y129811D01*
X426467Y129179D01*
X426378Y128500D01*
X426467Y127821D01*
X426729Y127189D01*
X427146Y126646D01*
X427689Y126229D01*
X428321Y125967D01*
X429000Y125878D01*
X429679Y125967D01*
X430311Y126229D01*
X430854Y126646D01*
X431271Y127189D01*
X431533Y127821D01*
X431622Y128500D01*
X431533Y129179D01*
X431271Y129811D01*
X430854Y130354D01*
X430311Y130771D01*
X429679Y131033D01*
X429000Y131122D01*
D02*
G37*
G36*
X478500Y128622D02*
X477821Y128533D01*
X477189Y128271D01*
X476646Y127854D01*
X476229Y127311D01*
X475967Y126679D01*
X475928Y126386D01*
X475466Y126195D01*
X475106Y126471D01*
X474473Y126733D01*
X473795Y126822D01*
X473116Y126733D01*
X472483Y126471D01*
X471940Y126054D01*
X471524Y125511D01*
X471262Y124879D01*
X471172Y124200D01*
X471262Y123521D01*
X471524Y122889D01*
X471940Y122346D01*
X472483Y121929D01*
X473116Y121667D01*
X473795Y121578D01*
X474473Y121667D01*
X475106Y121929D01*
X475649Y122346D01*
X476066Y122889D01*
X476328Y123521D01*
X476366Y123814D01*
X476828Y124005D01*
X477189Y123729D01*
X477821Y123467D01*
X478500Y123378D01*
X479179Y123467D01*
X479811Y123729D01*
X480354Y124146D01*
X480771Y124689D01*
X481033Y125321D01*
X481122Y126000D01*
X481033Y126679D01*
X480771Y127311D01*
X480354Y127854D01*
X479811Y128271D01*
X479179Y128533D01*
X478500Y128622D01*
D02*
G37*
G36*
X583400Y124070D02*
Y121900D01*
X585570D01*
X585533Y122179D01*
X585271Y122811D01*
X584854Y123354D01*
X584311Y123771D01*
X583679Y124033D01*
X583400Y124070D01*
D02*
G37*
G36*
X537500Y130122D02*
X536821Y130033D01*
X536189Y129771D01*
X535646Y129354D01*
X535229Y128811D01*
X534967Y128179D01*
X534878Y127500D01*
X534967Y126821D01*
X535229Y126189D01*
X535646Y125646D01*
X536189Y125229D01*
X536821Y124967D01*
X537500Y124878D01*
X538179Y124967D01*
X538811Y125229D01*
X539354Y125646D01*
X539771Y126189D01*
X540033Y126821D01*
X540122Y127500D01*
X540033Y128179D01*
X539771Y128811D01*
X539354Y129354D01*
X538811Y129771D01*
X538179Y130033D01*
X537500Y130122D01*
D02*
G37*
G36*
X389500Y132622D02*
X388821Y132533D01*
X388189Y132271D01*
X387646Y131854D01*
X387229Y131311D01*
X386967Y130679D01*
X386878Y130000D01*
X386967Y129321D01*
X387229Y128689D01*
X387646Y128146D01*
X388189Y127729D01*
X388821Y127467D01*
X389500Y127378D01*
X390179Y127467D01*
X390811Y127729D01*
X391354Y128146D01*
X391771Y128689D01*
X392033Y129321D01*
X392122Y130000D01*
X392033Y130679D01*
X391771Y131311D01*
X391354Y131854D01*
X390811Y132271D01*
X390179Y132533D01*
X389500Y132622D01*
D02*
G37*
G36*
X488000Y134622D02*
X487321Y134533D01*
X486689Y134271D01*
X486146Y133854D01*
X485729Y133311D01*
X485467Y132679D01*
X485378Y132000D01*
X485467Y131321D01*
X485729Y130689D01*
X486146Y130146D01*
X486689Y129729D01*
X487321Y129467D01*
X488000Y129378D01*
X488679Y129467D01*
X489311Y129729D01*
X489854Y130146D01*
X490271Y130689D01*
X490533Y131321D01*
X490622Y132000D01*
X490533Y132679D01*
X490271Y133311D01*
X489854Y133854D01*
X489311Y134271D01*
X488679Y134533D01*
X488000Y134622D01*
D02*
G37*
G36*
X562000Y135622D02*
X561321Y135533D01*
X560689Y135271D01*
X560146Y134854D01*
X559729Y134311D01*
X559467Y133679D01*
X559378Y133000D01*
X559467Y132321D01*
X559729Y131689D01*
X560146Y131146D01*
X560689Y130729D01*
X561321Y130467D01*
X562000Y130378D01*
X562679Y130467D01*
X563311Y130729D01*
X563854Y131146D01*
X564271Y131689D01*
X564533Y132321D01*
X564622Y133000D01*
X564533Y133679D01*
X564271Y134311D01*
X563854Y134854D01*
X563311Y135271D01*
X562679Y135533D01*
X562000Y135622D01*
D02*
G37*
G36*
X461500Y133622D02*
X460821Y133533D01*
X460189Y133271D01*
X459646Y132854D01*
X459229Y132311D01*
X458967Y131679D01*
X458878Y131000D01*
X458967Y130321D01*
X459229Y129689D01*
X459646Y129146D01*
X460189Y128729D01*
X460821Y128467D01*
X461500Y128378D01*
X462179Y128467D01*
X462811Y128729D01*
X463354Y129146D01*
X463771Y129689D01*
X464033Y130321D01*
X464122Y131000D01*
X464033Y131679D01*
X463771Y132311D01*
X463354Y132854D01*
X462811Y133271D01*
X462179Y133533D01*
X461500Y133622D01*
D02*
G37*
G36*
X395500Y134122D02*
X394821Y134033D01*
X394189Y133771D01*
X393646Y133354D01*
X393229Y132811D01*
X392967Y132179D01*
X392878Y131500D01*
X392967Y130821D01*
X393229Y130189D01*
X393646Y129646D01*
X394189Y129229D01*
X394821Y128967D01*
X395500Y128878D01*
X396179Y128967D01*
X396811Y129229D01*
X397354Y129646D01*
X397771Y130189D01*
X398033Y130821D01*
X398122Y131500D01*
X398033Y132179D01*
X397771Y132811D01*
X397354Y133354D01*
X396811Y133771D01*
X396179Y134033D01*
X395500Y134122D01*
D02*
G37*
G36*
X462500Y150122D02*
X461821Y150033D01*
X461189Y149771D01*
X460646Y149354D01*
X460229Y148811D01*
X459967Y148179D01*
X459878Y147500D01*
X459967Y146821D01*
X460229Y146189D01*
X460646Y145646D01*
X461189Y145229D01*
X461821Y144967D01*
X462500Y144878D01*
X463179Y144967D01*
X463811Y145229D01*
X464354Y145646D01*
X464771Y146189D01*
X465033Y146821D01*
X465122Y147500D01*
X465033Y148179D01*
X464771Y148811D01*
X464354Y149354D01*
X463811Y149771D01*
X463179Y150033D01*
X462500Y150122D01*
D02*
G37*
G36*
X588100Y147070D02*
X587821Y147033D01*
X587189Y146771D01*
X586646Y146354D01*
X586229Y145811D01*
X585967Y145179D01*
X585930Y144900D01*
X588100D01*
Y147070D01*
D02*
G37*
G36*
X394700Y145700D02*
X392530D01*
X392567Y145421D01*
X392829Y144789D01*
X393246Y144246D01*
X393789Y143829D01*
X394421Y143567D01*
X394700Y143530D01*
Y145700D01*
D02*
G37*
G36*
X397670D02*
X395500D01*
Y143530D01*
X395779Y143567D01*
X396411Y143829D01*
X396954Y144246D01*
X397371Y144789D01*
X397633Y145421D01*
X397670Y145700D01*
D02*
G37*
G36*
X588900Y147070D02*
Y144900D01*
X591070D01*
X591033Y145179D01*
X590771Y145811D01*
X590354Y146354D01*
X589811Y146771D01*
X589179Y147033D01*
X588900Y147070D01*
D02*
G37*
G36*
X395500Y148670D02*
Y146500D01*
X397670D01*
X397633Y146779D01*
X397371Y147411D01*
X396954Y147954D01*
X396411Y148371D01*
X395779Y148633D01*
X395500Y148670D01*
D02*
G37*
G36*
X479750Y152372D02*
X479071Y152283D01*
X478439Y152021D01*
X477896Y151604D01*
X477479Y151061D01*
X477217Y150429D01*
X477128Y149750D01*
X477217Y149071D01*
X477479Y148439D01*
X477896Y147896D01*
X478439Y147479D01*
X479071Y147217D01*
X479750Y147128D01*
X480429Y147217D01*
X481061Y147479D01*
X481604Y147896D01*
X482021Y148439D01*
X482283Y149071D01*
X482372Y149750D01*
X482283Y150429D01*
X482021Y151061D01*
X481604Y151604D01*
X481061Y152021D01*
X480429Y152283D01*
X479750Y152372D01*
D02*
G37*
G36*
X447000Y150622D02*
X446321Y150533D01*
X445689Y150271D01*
X445146Y149854D01*
X444729Y149311D01*
X444467Y148679D01*
X444378Y148000D01*
X444467Y147321D01*
X444729Y146689D01*
X445146Y146146D01*
X445689Y145729D01*
X446321Y145467D01*
X447000Y145378D01*
X447679Y145467D01*
X448311Y145729D01*
X448854Y146146D01*
X449271Y146689D01*
X449533Y147321D01*
X449622Y148000D01*
X449533Y148679D01*
X449271Y149311D01*
X448854Y149854D01*
X448311Y150271D01*
X447679Y150533D01*
X447000Y150622D01*
D02*
G37*
G36*
X394700Y148670D02*
X394421Y148633D01*
X393789Y148371D01*
X393246Y147954D01*
X392829Y147411D01*
X392567Y146779D01*
X392530Y146500D01*
X394700D01*
Y148670D01*
D02*
G37*
G36*
X591070Y144100D02*
X588900D01*
Y141930D01*
X589179Y141967D01*
X589811Y142229D01*
X590354Y142646D01*
X590771Y143189D01*
X591033Y143821D01*
X591070Y144100D01*
D02*
G37*
G36*
X526900Y140570D02*
Y138400D01*
X529070D01*
X529033Y138679D01*
X528771Y139311D01*
X528354Y139854D01*
X527811Y140271D01*
X527179Y140533D01*
X526900Y140570D01*
D02*
G37*
G36*
X499600Y149600D02*
X489399D01*
X489498Y148337D01*
X489888Y146714D01*
X490526Y145173D01*
X491398Y143750D01*
X492482Y142482D01*
X493750Y141398D01*
X495173Y140526D01*
X496714Y139888D01*
X498337Y139498D01*
X499600Y139399D01*
Y149600D01*
D02*
G37*
G36*
X400500Y141622D02*
X399821Y141533D01*
X399189Y141271D01*
X398646Y140854D01*
X398229Y140311D01*
X397967Y139679D01*
X397878Y139000D01*
X397967Y138321D01*
X398229Y137689D01*
X398646Y137146D01*
X399189Y136729D01*
X399821Y136467D01*
X400500Y136378D01*
X401179Y136467D01*
X401811Y136729D01*
X402354Y137146D01*
X402771Y137689D01*
X403033Y138321D01*
X403122Y139000D01*
X403033Y139679D01*
X402771Y140311D01*
X402354Y140854D01*
X401811Y141271D01*
X401179Y141533D01*
X400500Y141622D01*
D02*
G37*
G36*
X526100Y140570D02*
X525821Y140533D01*
X525189Y140271D01*
X524646Y139854D01*
X524229Y139311D01*
X523967Y138679D01*
X523930Y138400D01*
X526100D01*
Y140570D01*
D02*
G37*
G36*
X510601Y149600D02*
X500400D01*
Y139399D01*
X501663Y139498D01*
X503286Y139888D01*
X504827Y140526D01*
X506250Y141398D01*
X507518Y142482D01*
X508602Y143750D01*
X509474Y145173D01*
X510112Y146714D01*
X510502Y148337D01*
X510601Y149600D01*
D02*
G37*
G36*
X558500Y146622D02*
X557821Y146533D01*
X557189Y146271D01*
X556646Y145854D01*
X556229Y145311D01*
X555967Y144679D01*
X555878Y144000D01*
X555967Y143321D01*
X556229Y142689D01*
X556646Y142146D01*
X557189Y141729D01*
X557821Y141467D01*
X558500Y141378D01*
X559179Y141467D01*
X559811Y141729D01*
X560354Y142146D01*
X560771Y142689D01*
X561033Y143321D01*
X561122Y144000D01*
X561033Y144679D01*
X560771Y145311D01*
X560354Y145854D01*
X559811Y146271D01*
X559179Y146533D01*
X558500Y146622D01*
D02*
G37*
G36*
X588100Y144100D02*
X585930D01*
X585967Y143821D01*
X586229Y143189D01*
X586646Y142646D01*
X587189Y142229D01*
X587821Y141967D01*
X588100Y141930D01*
Y144100D01*
D02*
G37*
G36*
X474000Y146122D02*
X473321Y146033D01*
X472689Y145771D01*
X472146Y145354D01*
X471729Y144811D01*
X471467Y144179D01*
X471378Y143500D01*
X471467Y142821D01*
X471729Y142189D01*
X472146Y141646D01*
X472689Y141229D01*
X473321Y140967D01*
X474000Y140878D01*
X474679Y140967D01*
X475311Y141229D01*
X475854Y141646D01*
X476271Y142189D01*
X476533Y142821D01*
X476622Y143500D01*
X476533Y144179D01*
X476271Y144811D01*
X475854Y145354D01*
X475311Y145771D01*
X474679Y146033D01*
X474000Y146122D01*
D02*
G37*
G36*
X407500Y146622D02*
X406821Y146533D01*
X406189Y146271D01*
X405646Y145854D01*
X405229Y145311D01*
X404967Y144679D01*
X404878Y144000D01*
X404967Y143321D01*
X405229Y142689D01*
X405646Y142146D01*
X406189Y141729D01*
X406821Y141467D01*
X407500Y141378D01*
X408179Y141467D01*
X408811Y141729D01*
X409354Y142146D01*
X409771Y142689D01*
X410033Y143321D01*
X410122Y144000D01*
X410033Y144679D01*
X409771Y145311D01*
X409354Y145854D01*
X408811Y146271D01*
X408179Y146533D01*
X407500Y146622D01*
D02*
G37*
G36*
X358000Y111622D02*
X357321Y111533D01*
X356689Y111271D01*
X356146Y110854D01*
X355729Y110311D01*
X355467Y109679D01*
X355378Y109000D01*
X355467Y108321D01*
X355729Y107689D01*
X356146Y107146D01*
X356689Y106729D01*
X357321Y106467D01*
X358000Y106378D01*
X358679Y106467D01*
X359311Y106729D01*
X359854Y107146D01*
X360271Y107689D01*
X360533Y108321D01*
X360622Y109000D01*
X360533Y109679D01*
X360271Y110311D01*
X359854Y110854D01*
X359311Y111271D01*
X358679Y111533D01*
X358000Y111622D01*
D02*
G37*
G36*
X474000D02*
X473321Y111533D01*
X472689Y111271D01*
X472146Y110854D01*
X471729Y110311D01*
X471467Y109679D01*
X471378Y109000D01*
X471467Y108321D01*
X471729Y107689D01*
X472146Y107146D01*
X472689Y106729D01*
X473321Y106467D01*
X474000Y106378D01*
X474679Y106467D01*
X475311Y106729D01*
X475854Y107146D01*
X476271Y107689D01*
X476533Y108321D01*
X476622Y109000D01*
X476533Y109679D01*
X476271Y110311D01*
X475854Y110854D01*
X475311Y111271D01*
X474679Y111533D01*
X474000Y111622D01*
D02*
G37*
G36*
X581500Y108622D02*
X580821Y108533D01*
X580189Y108271D01*
X579646Y107854D01*
X579229Y107311D01*
X578967Y106679D01*
X578878Y106000D01*
X578967Y105321D01*
X579229Y104689D01*
X579646Y104146D01*
X580189Y103729D01*
X580821Y103467D01*
X581500Y103378D01*
X582179Y103467D01*
X582811Y103729D01*
X583354Y104146D01*
X583771Y104689D01*
X584033Y105321D01*
X584122Y106000D01*
X584033Y106679D01*
X583771Y107311D01*
X583354Y107854D01*
X582811Y108271D01*
X582179Y108533D01*
X581500Y108622D01*
D02*
G37*
G36*
X559200Y107926D02*
Y105757D01*
X561370D01*
X561333Y106035D01*
X561071Y106668D01*
X560654Y107211D01*
X560111Y107628D01*
X559479Y107890D01*
X559200Y107926D01*
D02*
G37*
G36*
X412500Y112622D02*
X411821Y112533D01*
X411189Y112271D01*
X410646Y111854D01*
X410229Y111311D01*
X409967Y110679D01*
X409878Y110000D01*
X409967Y109321D01*
X410229Y108689D01*
X410646Y108146D01*
X411189Y107729D01*
X411821Y107467D01*
X412500Y107378D01*
X413179Y107467D01*
X413811Y107729D01*
X414354Y108146D01*
X414771Y108689D01*
X415033Y109321D01*
X415122Y110000D01*
X415033Y110679D01*
X414771Y111311D01*
X414354Y111854D01*
X413811Y112271D01*
X413179Y112533D01*
X412500Y112622D01*
D02*
G37*
G36*
X479570Y114600D02*
X477400D01*
Y112430D01*
X477679Y112467D01*
X478311Y112729D01*
X478854Y113146D01*
X479271Y113689D01*
X479533Y114321D01*
X479570Y114600D01*
D02*
G37*
G36*
X466000Y120122D02*
X465321Y120033D01*
X464689Y119771D01*
X464146Y119354D01*
X463729Y118811D01*
X463467Y118179D01*
X463378Y117500D01*
X463467Y116821D01*
X463729Y116189D01*
X464146Y115646D01*
X464689Y115229D01*
X465321Y114967D01*
X466000Y114878D01*
X466679Y114967D01*
X467311Y115229D01*
X467854Y115646D01*
X468271Y116189D01*
X468533Y116821D01*
X468622Y117500D01*
X468533Y118179D01*
X468271Y118811D01*
X467854Y119354D01*
X467311Y119771D01*
X466679Y120033D01*
X466000Y120122D01*
D02*
G37*
G36*
X432000Y116622D02*
X431321Y116533D01*
X430689Y116271D01*
X430146Y115854D01*
X429729Y115311D01*
X429467Y114679D01*
X429378Y114000D01*
X429467Y113321D01*
X429729Y112689D01*
X430146Y112146D01*
X430689Y111729D01*
X431321Y111467D01*
X432000Y111378D01*
X432679Y111467D01*
X433311Y111729D01*
X433854Y112146D01*
X434271Y112689D01*
X434533Y113321D01*
X434622Y114000D01*
X434533Y114679D01*
X434271Y115311D01*
X433854Y115854D01*
X433311Y116271D01*
X432679Y116533D01*
X432000Y116622D01*
D02*
G37*
G36*
X476600Y114600D02*
X474430D01*
X474467Y114321D01*
X474729Y113689D01*
X475146Y113146D01*
X475689Y112729D01*
X476321Y112467D01*
X476600Y112430D01*
Y114600D01*
D02*
G37*
G36*
X561370Y104957D02*
X559200D01*
Y102787D01*
X559479Y102824D01*
X560111Y103086D01*
X560654Y103502D01*
X561071Y104045D01*
X561333Y104678D01*
X561370Y104957D01*
D02*
G37*
G36*
X370570Y99100D02*
X368400D01*
Y96930D01*
X368679Y96967D01*
X369311Y97229D01*
X369854Y97646D01*
X370271Y98189D01*
X370533Y98821D01*
X370570Y99100D01*
D02*
G37*
G36*
X529000Y104622D02*
X528321Y104533D01*
X527689Y104271D01*
X527146Y103854D01*
X526729Y103311D01*
X526467Y102679D01*
X526378Y102000D01*
X526467Y101321D01*
X526729Y100689D01*
X527146Y100146D01*
X527689Y99729D01*
X528321Y99467D01*
X529000Y99378D01*
X529679Y99467D01*
X530311Y99729D01*
X530854Y100146D01*
X531271Y100689D01*
X531533Y101321D01*
X531622Y102000D01*
X531533Y102679D01*
X531271Y103311D01*
X530854Y103854D01*
X530311Y104271D01*
X529679Y104533D01*
X529000Y104622D01*
D02*
G37*
G36*
X583500Y102122D02*
X582821Y102033D01*
X582189Y101771D01*
X581646Y101354D01*
X581229Y100811D01*
X580967Y100179D01*
X580878Y99500D01*
X580967Y98821D01*
X581229Y98189D01*
X581646Y97646D01*
X582189Y97229D01*
X582821Y96967D01*
X583500Y96878D01*
X584179Y96967D01*
X584811Y97229D01*
X585354Y97646D01*
X585771Y98189D01*
X586033Y98821D01*
X586122Y99500D01*
X586033Y100179D01*
X585771Y100811D01*
X585354Y101354D01*
X584811Y101771D01*
X584179Y102033D01*
X583500Y102122D01*
D02*
G37*
G36*
X367600Y99100D02*
X365430D01*
X365467Y98821D01*
X365729Y98189D01*
X366146Y97646D01*
X366689Y97229D01*
X367321Y96967D01*
X367600Y96930D01*
Y99100D01*
D02*
G37*
G36*
Y102070D02*
X367321Y102033D01*
X366689Y101771D01*
X366146Y101354D01*
X365729Y100811D01*
X365467Y100179D01*
X365430Y99900D01*
X367600D01*
Y102070D01*
D02*
G37*
G36*
X403500Y107122D02*
X402821Y107033D01*
X402189Y106771D01*
X401646Y106354D01*
X401229Y105811D01*
X400967Y105179D01*
X400878Y104500D01*
X400967Y103821D01*
X401229Y103189D01*
X401646Y102646D01*
X402189Y102229D01*
X402821Y101967D01*
X403500Y101878D01*
X404179Y101967D01*
X404811Y102229D01*
X405354Y102646D01*
X405771Y103189D01*
X406033Y103821D01*
X406122Y104500D01*
X406033Y105179D01*
X405771Y105811D01*
X405354Y106354D01*
X404811Y106771D01*
X404179Y107033D01*
X403500Y107122D01*
D02*
G37*
G36*
X550400Y108100D02*
Y100400D01*
X558100D01*
X557983Y101588D01*
X557704Y102507D01*
X558074Y102843D01*
X558121Y102824D01*
X558400Y102787D01*
Y105356D01*
Y107926D01*
X558121Y107890D01*
X557489Y107628D01*
X556946Y107211D01*
X556529Y106668D01*
X556267Y106035D01*
X556247Y105880D01*
X555766Y105743D01*
X555755Y105755D01*
X554522Y106767D01*
X553115Y107520D01*
X551588Y107983D01*
X550400Y108100D01*
D02*
G37*
G36*
X368400Y102070D02*
Y99900D01*
X370570D01*
X370533Y100179D01*
X370271Y100811D01*
X369854Y101354D01*
X369311Y101771D01*
X368679Y102033D01*
X368400Y102070D01*
D02*
G37*
G36*
X549600Y108100D02*
X548412Y107983D01*
X546885Y107520D01*
X545478Y106767D01*
X544245Y105755D01*
X543232Y104522D01*
X542480Y103115D01*
X542017Y101588D01*
X541900Y100400D01*
X549600D01*
Y108100D01*
D02*
G37*
G36*
X449400Y121070D02*
Y118900D01*
X451570D01*
X451533Y119179D01*
X451271Y119811D01*
X450854Y120354D01*
X450311Y120771D01*
X449679Y121033D01*
X449400Y121070D01*
D02*
G37*
G36*
X582600Y121100D02*
X580430D01*
X580467Y120821D01*
X580729Y120189D01*
X581146Y119646D01*
X581689Y119229D01*
X582321Y118967D01*
X582600Y118930D01*
Y121100D01*
D02*
G37*
G36*
X585570D02*
X583400D01*
Y118930D01*
X583000Y118877D01*
X582917Y118888D01*
X582982Y118393D01*
X582689Y118271D01*
X582146Y117854D01*
X581729Y117311D01*
X581467Y116679D01*
X581378Y116000D01*
X581467Y115321D01*
X581729Y114689D01*
X582146Y114146D01*
X582689Y113729D01*
X583321Y113467D01*
X584000Y113378D01*
X584679Y113467D01*
X585311Y113729D01*
X585854Y114146D01*
X586271Y114689D01*
X586533Y115321D01*
X586622Y116000D01*
X586533Y116679D01*
X586271Y117311D01*
X585854Y117854D01*
X585311Y118271D01*
X584679Y118533D01*
X584083Y118612D01*
X584018Y119107D01*
X584311Y119229D01*
X584854Y119646D01*
X585271Y120189D01*
X585533Y120821D01*
X585570Y121100D01*
D02*
G37*
G36*
X448600Y121070D02*
X448321Y121033D01*
X447689Y120771D01*
X447146Y120354D01*
X446729Y119811D01*
X446467Y119179D01*
X446430Y118900D01*
X448600D01*
Y121070D01*
D02*
G37*
G36*
X383500Y127622D02*
X382821Y127533D01*
X382189Y127271D01*
X381646Y126854D01*
X381229Y126311D01*
X380967Y125679D01*
X380878Y125000D01*
X380967Y124321D01*
X381229Y123689D01*
X381646Y123146D01*
X381751Y123065D01*
X381794Y122740D01*
X381764Y122509D01*
X381189Y122271D01*
X380646Y121854D01*
X380229Y121311D01*
X379967Y120679D01*
X379930Y120400D01*
X385070D01*
X385033Y120679D01*
X384771Y121311D01*
X384354Y121854D01*
X383811Y122271D01*
X383831Y122421D01*
X384179Y122467D01*
X384811Y122729D01*
X385354Y123146D01*
X385771Y123689D01*
X386033Y124321D01*
X386122Y125000D01*
X386033Y125679D01*
X385771Y126311D01*
X385354Y126854D01*
X384811Y127271D01*
X384179Y127533D01*
X383500Y127622D01*
D02*
G37*
G36*
X512400Y123070D02*
Y120900D01*
X514570D01*
X514533Y121179D01*
X514271Y121811D01*
X513854Y122354D01*
X513311Y122771D01*
X512679Y123033D01*
X512400Y123070D01*
D02*
G37*
G36*
X582600Y124070D02*
X582321Y124033D01*
X581689Y123771D01*
X581146Y123354D01*
X580729Y122811D01*
X580467Y122179D01*
X580430Y121900D01*
X582600D01*
Y124070D01*
D02*
G37*
G36*
X361500Y126022D02*
X360821Y125933D01*
X360189Y125671D01*
X359646Y125254D01*
X359229Y124711D01*
X358967Y124079D01*
X358878Y123400D01*
X358967Y122721D01*
X359229Y122089D01*
X359646Y121546D01*
X360189Y121129D01*
X360821Y120867D01*
X361500Y120778D01*
X362179Y120867D01*
X362811Y121129D01*
X363354Y121546D01*
X363771Y122089D01*
X364033Y122721D01*
X364122Y123400D01*
X364033Y124079D01*
X363771Y124711D01*
X363354Y125254D01*
X362811Y125671D01*
X362179Y125933D01*
X361500Y126022D01*
D02*
G37*
G36*
X511600Y123070D02*
X511321Y123033D01*
X510689Y122771D01*
X510146Y122354D01*
X509729Y121811D01*
X509467Y121179D01*
X509430Y120900D01*
X511600D01*
Y123070D01*
D02*
G37*
G36*
X514570Y120100D02*
X512400D01*
Y117930D01*
X512679Y117967D01*
X513311Y118229D01*
X513854Y118646D01*
X514271Y119189D01*
X514533Y119821D01*
X514570Y120100D01*
D02*
G37*
G36*
X448600Y118100D02*
X446430D01*
X446467Y117821D01*
X446729Y117189D01*
X447146Y116646D01*
X447689Y116229D01*
X448321Y115967D01*
X448600Y115930D01*
Y118100D01*
D02*
G37*
G36*
X451570D02*
X449400D01*
Y115930D01*
X449679Y115967D01*
X450311Y116229D01*
X450854Y116646D01*
X451271Y117189D01*
X451533Y117821D01*
X451570Y118100D01*
D02*
G37*
G36*
X476600Y117570D02*
X476321Y117533D01*
X475689Y117271D01*
X475146Y116854D01*
X474729Y116311D01*
X474467Y115679D01*
X474430Y115400D01*
X476600D01*
Y117570D01*
D02*
G37*
G36*
X477400D02*
Y115400D01*
X479570D01*
X479533Y115679D01*
X479271Y116311D01*
X478854Y116854D01*
X478311Y117271D01*
X477679Y117533D01*
X477400Y117570D01*
D02*
G37*
G36*
X439000Y122622D02*
X438321Y122533D01*
X437689Y122271D01*
X437146Y121854D01*
X436729Y121311D01*
X436467Y120679D01*
X436378Y120000D01*
X436467Y119321D01*
X436729Y118689D01*
X437146Y118146D01*
X437689Y117729D01*
X438321Y117467D01*
X439000Y117378D01*
X439679Y117467D01*
X440311Y117729D01*
X440854Y118146D01*
X441271Y118689D01*
X441533Y119321D01*
X441622Y120000D01*
X441533Y120679D01*
X441271Y121311D01*
X440854Y121854D01*
X440311Y122271D01*
X439679Y122533D01*
X439000Y122622D01*
D02*
G37*
G36*
X529000Y123122D02*
X528321Y123033D01*
X527689Y122771D01*
X527146Y122354D01*
X526729Y121811D01*
X526467Y121179D01*
X526378Y120500D01*
X526467Y119821D01*
X526729Y119189D01*
X527146Y118646D01*
X527689Y118229D01*
X528321Y117967D01*
X529000Y117878D01*
X529679Y117967D01*
X530311Y118229D01*
X530854Y118646D01*
X531271Y119189D01*
X531533Y119821D01*
X531622Y120500D01*
X531533Y121179D01*
X531271Y121811D01*
X530854Y122354D01*
X530311Y122771D01*
X529679Y123033D01*
X529000Y123122D01*
D02*
G37*
G36*
X511600Y120100D02*
X509430D01*
X509467Y119821D01*
X509729Y119189D01*
X510146Y118646D01*
X510689Y118229D01*
X511321Y117967D01*
X511600Y117930D01*
Y120100D01*
D02*
G37*
G36*
X382100Y119600D02*
X379930D01*
X379967Y119321D01*
X380229Y118689D01*
X380646Y118146D01*
X381189Y117729D01*
X381821Y117467D01*
X382100Y117430D01*
Y119600D01*
D02*
G37*
G36*
X385070D02*
X382900D01*
Y117430D01*
X383179Y117467D01*
X383811Y117729D01*
X384354Y118146D01*
X384771Y118689D01*
X385033Y119321D01*
X385070Y119600D01*
D02*
G37*
G36*
X581400Y562070D02*
Y559900D01*
X583570D01*
X583533Y560179D01*
X583271Y560811D01*
X582854Y561354D01*
X582311Y561771D01*
X581679Y562033D01*
X581400Y562070D01*
D02*
G37*
G36*
X536500Y565622D02*
X535821Y565533D01*
X535189Y565271D01*
X534646Y564854D01*
X534229Y564311D01*
X533967Y563679D01*
X533878Y563000D01*
X533967Y562321D01*
X534229Y561689D01*
X534646Y561146D01*
X535189Y560729D01*
X535821Y560467D01*
X536500Y560378D01*
X537179Y560467D01*
X537811Y560729D01*
X538354Y561146D01*
X538771Y561689D01*
X539033Y562321D01*
X539122Y563000D01*
X539033Y563679D01*
X538771Y564311D01*
X538354Y564854D01*
X537811Y565271D01*
X537179Y565533D01*
X536500Y565622D01*
D02*
G37*
G36*
X598070Y561600D02*
X595900D01*
Y559430D01*
X596179Y559467D01*
X596811Y559729D01*
X597354Y560146D01*
X597771Y560689D01*
X598033Y561321D01*
X598070Y561600D01*
D02*
G37*
G36*
X580600Y562070D02*
X580321Y562033D01*
X579689Y561771D01*
X579146Y561354D01*
X578729Y560811D01*
X578467Y560179D01*
X578430Y559900D01*
X580600D01*
Y562070D01*
D02*
G37*
G36*
X559600Y563570D02*
X559321Y563533D01*
X558689Y563271D01*
X558146Y562854D01*
X557729Y562311D01*
X557467Y561679D01*
X557430Y561400D01*
X559600D01*
Y563570D01*
D02*
G37*
G36*
X478500Y567622D02*
X477821Y567533D01*
X477189Y567271D01*
X476646Y566854D01*
X476229Y566311D01*
X475967Y565679D01*
X475878Y565000D01*
X475967Y564321D01*
X476229Y563689D01*
X476646Y563146D01*
X477189Y562729D01*
X477821Y562467D01*
X478500Y562378D01*
X479179Y562467D01*
X479811Y562729D01*
X480354Y563146D01*
X480771Y563689D01*
X481033Y564321D01*
X481122Y565000D01*
X481033Y565679D01*
X480771Y566311D01*
X480354Y566854D01*
X479811Y567271D01*
X479179Y567533D01*
X478500Y567622D01*
D02*
G37*
G36*
X595900Y564570D02*
Y562400D01*
X598070D01*
X598033Y562679D01*
X597771Y563311D01*
X597354Y563854D01*
X596811Y564271D01*
X596179Y564533D01*
X595900Y564570D01*
D02*
G37*
G36*
X560400Y563570D02*
Y561400D01*
X562570D01*
X562533Y561679D01*
X562271Y562311D01*
X561854Y562854D01*
X561311Y563271D01*
X560679Y563533D01*
X560400Y563570D01*
D02*
G37*
G36*
X447500Y567122D02*
X446821Y567033D01*
X446189Y566771D01*
X445646Y566354D01*
X445229Y565811D01*
X444967Y565179D01*
X444878Y564500D01*
X444967Y563821D01*
X445229Y563189D01*
X445646Y562646D01*
X446189Y562229D01*
X446821Y561967D01*
X447500Y561878D01*
X448179Y561967D01*
X448811Y562229D01*
X449354Y562646D01*
X449771Y563189D01*
X450033Y563821D01*
X450122Y564500D01*
X450033Y565179D01*
X449771Y565811D01*
X449354Y566354D01*
X448811Y566771D01*
X448179Y567033D01*
X447500Y567122D01*
D02*
G37*
G36*
X483500Y564122D02*
X482821Y564033D01*
X482189Y563771D01*
X481646Y563354D01*
X481229Y562811D01*
X480967Y562179D01*
X480878Y561500D01*
X480967Y560821D01*
X481229Y560189D01*
X481646Y559646D01*
X482189Y559229D01*
X482821Y558967D01*
X483500Y558878D01*
X484179Y558967D01*
X484811Y559229D01*
X485354Y559646D01*
X485771Y560189D01*
X486033Y560821D01*
X486122Y561500D01*
X486033Y562179D01*
X485771Y562811D01*
X485354Y563354D01*
X484811Y563771D01*
X484179Y564033D01*
X483500Y564122D01*
D02*
G37*
G36*
X580600Y559100D02*
X578430D01*
X578467Y558821D01*
X578729Y558189D01*
X579146Y557646D01*
X579689Y557229D01*
X580321Y556967D01*
X580600Y556930D01*
Y559100D01*
D02*
G37*
G36*
X583570D02*
X581400D01*
Y556930D01*
X581679Y556967D01*
X582311Y557229D01*
X582854Y557646D01*
X583271Y558189D01*
X583533Y558821D01*
X583570Y559100D01*
D02*
G37*
G36*
X464600Y557100D02*
X462430D01*
X462467Y556821D01*
X462729Y556189D01*
X463146Y555646D01*
X463689Y555229D01*
X464321Y554967D01*
X464600Y554930D01*
Y557100D01*
D02*
G37*
G36*
X467570D02*
X465400D01*
Y554930D01*
X465679Y554967D01*
X466311Y555229D01*
X466854Y555646D01*
X467271Y556189D01*
X467533Y556821D01*
X467570Y557100D01*
D02*
G37*
G36*
X464600Y560070D02*
X464321Y560033D01*
X463689Y559771D01*
X463146Y559354D01*
X462729Y558811D01*
X462467Y558179D01*
X462430Y557900D01*
X464600D01*
Y560070D01*
D02*
G37*
G36*
X559600Y560600D02*
X557430D01*
X557467Y560321D01*
X557729Y559689D01*
X558146Y559146D01*
X558689Y558729D01*
X559321Y558467D01*
X559600Y558430D01*
Y560600D01*
D02*
G37*
G36*
X562570D02*
X560400D01*
Y558430D01*
X560679Y558467D01*
X561311Y558729D01*
X561854Y559146D01*
X562271Y559689D01*
X562533Y560321D01*
X562570Y560600D01*
D02*
G37*
G36*
X465400Y560070D02*
Y557900D01*
X467570D01*
X467533Y558179D01*
X467271Y558811D01*
X466854Y559354D01*
X466311Y559771D01*
X465679Y560033D01*
X465400Y560070D01*
D02*
G37*
G36*
X439000Y563622D02*
X438321Y563533D01*
X437689Y563271D01*
X437146Y562854D01*
X436729Y562311D01*
X436467Y561679D01*
X436378Y561000D01*
X436467Y560321D01*
X436729Y559689D01*
X437146Y559146D01*
X437689Y558729D01*
X438321Y558467D01*
X439000Y558378D01*
X439679Y558467D01*
X440311Y558729D01*
X440854Y559146D01*
X441271Y559689D01*
X441533Y560321D01*
X441622Y561000D01*
X441533Y561679D01*
X441271Y562311D01*
X440854Y562854D01*
X440311Y563271D01*
X439679Y563533D01*
X439000Y563622D01*
D02*
G37*
G36*
X423500Y577122D02*
X422821Y577033D01*
X422189Y576771D01*
X421646Y576354D01*
X421229Y575811D01*
X420967Y575179D01*
X420878Y574500D01*
X420967Y573821D01*
X421229Y573189D01*
X421646Y572646D01*
X422189Y572229D01*
X422821Y571967D01*
X423500Y571878D01*
X424179Y571967D01*
X424811Y572229D01*
X425354Y572646D01*
X425771Y573189D01*
X426033Y573821D01*
X426122Y574500D01*
X426033Y575179D01*
X425771Y575811D01*
X425354Y576354D01*
X424811Y576771D01*
X424179Y577033D01*
X423500Y577122D01*
D02*
G37*
G36*
X579600Y575570D02*
X579321Y575533D01*
X578689Y575271D01*
X578146Y574854D01*
X577729Y574311D01*
X577467Y573679D01*
X577430Y573400D01*
X579600D01*
Y575570D01*
D02*
G37*
G36*
X592535Y580080D02*
X587811D01*
X587352Y579889D01*
X587162Y579430D01*
Y555230D01*
X587352Y554771D01*
X587811Y554581D01*
X592535D01*
X592995Y554771D01*
X593185Y555230D01*
Y559792D01*
X593646Y560146D01*
X594189Y559729D01*
X594821Y559467D01*
X595100Y559430D01*
Y561999D01*
Y564570D01*
X594821Y564533D01*
X594189Y564271D01*
X593646Y563854D01*
X593185Y564208D01*
Y572221D01*
X593675Y572318D01*
X593729Y572189D01*
X594146Y571646D01*
X594689Y571229D01*
X595321Y570967D01*
X595600Y570930D01*
Y573499D01*
Y576070D01*
X595321Y576033D01*
X594689Y575771D01*
X594146Y575354D01*
X593729Y574811D01*
X593675Y574682D01*
X593185Y574779D01*
Y579430D01*
X592995Y579889D01*
X592535Y580080D01*
D02*
G37*
G36*
X598570Y573100D02*
X596400D01*
Y570930D01*
X596679Y570967D01*
X597311Y571229D01*
X597854Y571646D01*
X598271Y572189D01*
X598533Y572821D01*
X598570Y573100D01*
D02*
G37*
G36*
X580400Y575570D02*
Y573400D01*
X582570D01*
X582533Y573679D01*
X582271Y574311D01*
X581854Y574854D01*
X581311Y575271D01*
X580679Y575533D01*
X580400Y575570D01*
D02*
G37*
G36*
X560070Y577100D02*
X557900D01*
Y574930D01*
X558179Y574967D01*
X558811Y575229D01*
X559354Y575646D01*
X559771Y576189D01*
X560033Y576821D01*
X560070Y577100D01*
D02*
G37*
G36*
X330000Y580622D02*
X329321Y580533D01*
X328689Y580271D01*
X328146Y579854D01*
X327729Y579311D01*
X327467Y578679D01*
X327378Y578000D01*
X327467Y577321D01*
X327729Y576689D01*
X328146Y576146D01*
X328689Y575729D01*
X329321Y575467D01*
X330000Y575378D01*
X330679Y575467D01*
X331311Y575729D01*
X331854Y576146D01*
X332271Y576689D01*
X332533Y577321D01*
X332622Y578000D01*
X332533Y578679D01*
X332271Y579311D01*
X331854Y579854D01*
X331311Y580271D01*
X330679Y580533D01*
X330000Y580622D01*
D02*
G37*
G36*
X596400Y576070D02*
Y573900D01*
X598570D01*
X598533Y574179D01*
X598271Y574811D01*
X597854Y575354D01*
X597311Y575771D01*
X596679Y576033D01*
X596400Y576070D01*
D02*
G37*
G36*
X557100Y577100D02*
X554930D01*
X554967Y576821D01*
X555229Y576189D01*
X555646Y575646D01*
X556189Y575229D01*
X556821Y574967D01*
X557100Y574930D01*
Y577100D01*
D02*
G37*
G36*
X351900Y571570D02*
Y569400D01*
X354070D01*
X354033Y569679D01*
X353771Y570311D01*
X353354Y570854D01*
X352811Y571271D01*
X352179Y571533D01*
X351900Y571570D01*
D02*
G37*
G36*
X582570Y567100D02*
X580400D01*
Y564930D01*
X580679Y564967D01*
X581311Y565229D01*
X581854Y565646D01*
X582271Y566189D01*
X582533Y566821D01*
X582570Y567100D01*
D02*
G37*
G36*
X529500Y571122D02*
X528821Y571033D01*
X528189Y570771D01*
X527646Y570354D01*
X527229Y569811D01*
X526967Y569179D01*
X526878Y568500D01*
X526967Y567821D01*
X527229Y567189D01*
X527646Y566646D01*
X528189Y566229D01*
X528821Y565967D01*
X529500Y565878D01*
X530179Y565967D01*
X530811Y566229D01*
X531354Y566646D01*
X531771Y567189D01*
X532033Y567821D01*
X532122Y568500D01*
X532033Y569179D01*
X531771Y569811D01*
X531354Y570354D01*
X530811Y570771D01*
X530179Y571033D01*
X529500Y571122D01*
D02*
G37*
G36*
X491541Y568223D02*
X490863Y568133D01*
X490230Y567871D01*
X489687Y567454D01*
X489270Y566911D01*
X489008Y566279D01*
X488919Y565600D01*
X489008Y564921D01*
X489270Y564289D01*
X489687Y563746D01*
X490230Y563329D01*
X490863Y563067D01*
X491541Y562978D01*
X492220Y563067D01*
X492853Y563329D01*
X493396Y563746D01*
X493813Y564289D01*
X494074Y564921D01*
X494164Y565600D01*
X494074Y566279D01*
X493813Y566911D01*
X493396Y567454D01*
X492853Y567871D01*
X492220Y568133D01*
X491541Y568223D01*
D02*
G37*
G36*
X579600Y567100D02*
X577430D01*
X577467Y566821D01*
X577729Y566189D01*
X578146Y565646D01*
X578689Y565229D01*
X579321Y564967D01*
X579600Y564930D01*
Y567100D01*
D02*
G37*
G36*
X351100Y568600D02*
X348930D01*
X348967Y568321D01*
X349229Y567689D01*
X349646Y567146D01*
X350189Y566729D01*
X350821Y566467D01*
X351100Y566430D01*
Y568600D01*
D02*
G37*
G36*
X582570Y572600D02*
X577430D01*
X577467Y572321D01*
X577729Y571689D01*
X578146Y571146D01*
X578689Y570729D01*
X579241Y570500D01*
Y570000D01*
X578689Y569771D01*
X578146Y569354D01*
X577729Y568811D01*
X577467Y568179D01*
X577430Y567900D01*
X582570D01*
X582533Y568179D01*
X582271Y568811D01*
X581854Y569354D01*
X581311Y569771D01*
X580759Y570000D01*
Y570500D01*
X581311Y570729D01*
X581854Y571146D01*
X582271Y571689D01*
X582533Y572321D01*
X582570Y572600D01*
D02*
G37*
G36*
X351100Y571570D02*
X350821Y571533D01*
X350189Y571271D01*
X349646Y570854D01*
X349229Y570311D01*
X348967Y569679D01*
X348930Y569400D01*
X351100D01*
Y571570D01*
D02*
G37*
G36*
X354070Y568600D02*
X351900D01*
Y566430D01*
X352179Y566467D01*
X352811Y566729D01*
X353354Y567146D01*
X353771Y567689D01*
X354033Y568321D01*
X354070Y568600D01*
D02*
G37*
G36*
X481500Y573122D02*
X480821Y573033D01*
X480189Y572771D01*
X479646Y572354D01*
X479229Y571811D01*
X478967Y571179D01*
X478878Y570500D01*
X478967Y569821D01*
X479229Y569189D01*
X479646Y568646D01*
X480189Y568229D01*
X480821Y567967D01*
X481500Y567878D01*
X482179Y567967D01*
X482811Y568229D01*
X483354Y568646D01*
X483771Y569189D01*
X484033Y569821D01*
X484122Y570500D01*
X484033Y571179D01*
X483771Y571811D01*
X483354Y572354D01*
X482811Y572771D01*
X482179Y573033D01*
X481500Y573122D01*
D02*
G37*
G36*
X593600Y546600D02*
X591430D01*
X591467Y546321D01*
X591729Y545689D01*
X592146Y545146D01*
X592689Y544729D01*
X593321Y544467D01*
X593600Y544430D01*
Y546600D01*
D02*
G37*
G36*
X596570D02*
X594400D01*
Y544430D01*
X594679Y544467D01*
X595311Y544729D01*
X595854Y545146D01*
X596271Y545689D01*
X596533Y546321D01*
X596570Y546600D01*
D02*
G37*
G36*
X154750Y548596D02*
X150120D01*
Y543967D01*
X154750D01*
Y548596D01*
D02*
G37*
G36*
X209789Y554025D02*
X199731D01*
Y543967D01*
X209789D01*
Y554025D01*
D02*
G37*
G36*
X467000Y550122D02*
X466321Y550033D01*
X465689Y549771D01*
X465146Y549354D01*
X464729Y548811D01*
X464467Y548179D01*
X464378Y547500D01*
X464467Y546821D01*
X464729Y546189D01*
X465146Y545646D01*
X465689Y545229D01*
X466321Y544967D01*
X467000Y544878D01*
X467679Y544967D01*
X468311Y545229D01*
X468854Y545646D01*
X469271Y546189D01*
X469533Y546821D01*
X469622Y547500D01*
X469533Y548179D01*
X469271Y548811D01*
X468854Y549354D01*
X468311Y549771D01*
X467679Y550033D01*
X467000Y550122D01*
D02*
G37*
G36*
X593600Y549570D02*
X593321Y549533D01*
X592689Y549271D01*
X592146Y548854D01*
X591729Y548311D01*
X591467Y547679D01*
X591430Y547400D01*
X593600D01*
Y549570D01*
D02*
G37*
G36*
X594400D02*
Y547400D01*
X596570D01*
X596533Y547679D01*
X596271Y548311D01*
X595854Y548854D01*
X595311Y549271D01*
X594679Y549533D01*
X594400Y549570D01*
D02*
G37*
G36*
X345600Y548100D02*
X343430D01*
X343467Y547821D01*
X343729Y547189D01*
X344146Y546646D01*
X344689Y546229D01*
X345321Y545967D01*
X345600Y545930D01*
Y548100D01*
D02*
G37*
G36*
X348570D02*
X346400D01*
Y545930D01*
X346679Y545967D01*
X347311Y546229D01*
X347854Y546646D01*
X348271Y547189D01*
X348533Y547821D01*
X348570Y548100D01*
D02*
G37*
G36*
X149320Y548596D02*
X144691D01*
Y543967D01*
X149320D01*
Y548596D01*
D02*
G37*
G36*
X528000Y544070D02*
X527721Y544033D01*
X527089Y543771D01*
X526546Y543354D01*
X526129Y542811D01*
X525867Y542179D01*
X525830Y541900D01*
X528000D01*
Y544070D01*
D02*
G37*
G36*
X549600Y549600D02*
X541900D01*
X542017Y548412D01*
X542480Y546885D01*
X543232Y545478D01*
X544245Y544245D01*
X545478Y543232D01*
X546885Y542480D01*
X548412Y542017D01*
X549600Y541900D01*
Y549600D01*
D02*
G37*
G36*
X329100Y542070D02*
X328821Y542033D01*
X328189Y541771D01*
X327646Y541354D01*
X327229Y540811D01*
X326967Y540179D01*
X326930Y539900D01*
X329100D01*
Y542070D01*
D02*
G37*
G36*
X329900D02*
Y539900D01*
X332070D01*
X332033Y540179D01*
X331771Y540811D01*
X331354Y541354D01*
X330811Y541771D01*
X330179Y542033D01*
X329900Y542070D01*
D02*
G37*
G36*
X558100Y549600D02*
X550400D01*
Y541900D01*
X551588Y542017D01*
X553115Y542480D01*
X554522Y543232D01*
X555755Y544245D01*
X556768Y545478D01*
X557520Y546885D01*
X557983Y548412D01*
X558100Y549600D01*
D02*
G37*
G36*
X121840Y548596D02*
X117211D01*
Y543967D01*
X121840D01*
Y548596D01*
D02*
G37*
G36*
X127269D02*
X122640D01*
Y543967D01*
X127269D01*
Y548596D01*
D02*
G37*
G36*
X245449Y562103D02*
X243595Y561920D01*
X241812Y561379D01*
X240169Y560501D01*
X238728Y559319D01*
X237546Y557879D01*
X236668Y556236D01*
X236127Y554453D01*
X235945Y552598D01*
X236127Y550744D01*
X236668Y548961D01*
X237546Y547318D01*
X238728Y545878D01*
X240169Y544696D01*
X241812Y543818D01*
X243595Y543277D01*
X245449Y543094D01*
X247303Y543277D01*
X249086Y543818D01*
X250729Y544696D01*
X252169Y545878D01*
X253351Y547318D01*
X254229Y548961D01*
X254770Y550744D01*
X254953Y552598D01*
X254770Y554453D01*
X254229Y556236D01*
X253351Y557879D01*
X252169Y559319D01*
X250729Y560501D01*
X249086Y561379D01*
X247303Y561920D01*
X245449Y562103D01*
D02*
G37*
G36*
X532500Y546622D02*
X531821Y546533D01*
X531189Y546271D01*
X530646Y545854D01*
X530229Y545311D01*
X529967Y544679D01*
X529894Y544125D01*
X529619Y543966D01*
X529332Y543928D01*
X529079Y544033D01*
X528800Y544070D01*
Y541900D01*
X530966D01*
X530970Y541896D01*
X531023Y541500D01*
X531006Y541375D01*
X531281Y541534D01*
X531568Y541572D01*
X531821Y541467D01*
X532500Y541378D01*
X533179Y541467D01*
X533811Y541729D01*
X534354Y542146D01*
X534771Y542689D01*
X535033Y543321D01*
X535122Y544000D01*
X535033Y544679D01*
X534771Y545311D01*
X534354Y545854D01*
X533811Y546271D01*
X533179Y546533D01*
X532500Y546622D01*
D02*
G37*
G36*
X528070Y553100D02*
X525900D01*
Y550930D01*
X526179Y550967D01*
X526811Y551229D01*
X527354Y551646D01*
X527771Y552189D01*
X528033Y552821D01*
X528070Y553100D01*
D02*
G37*
G36*
X538000Y559122D02*
X537321Y559033D01*
X536689Y558771D01*
X536146Y558354D01*
X535729Y557811D01*
X535467Y557179D01*
X535378Y556500D01*
X535467Y555821D01*
X535729Y555189D01*
X536146Y554646D01*
X536689Y554229D01*
X537321Y553967D01*
X538000Y553878D01*
X538679Y553967D01*
X539311Y554229D01*
X539854Y554646D01*
X540271Y555189D01*
X540533Y555821D01*
X540622Y556500D01*
X540533Y557179D01*
X540271Y557811D01*
X539854Y558354D01*
X539311Y558771D01*
X538679Y559033D01*
X538000Y559122D01*
D02*
G37*
G36*
X505070Y553100D02*
X502900D01*
Y550930D01*
X503179Y550967D01*
X503811Y551229D01*
X504354Y551646D01*
X504771Y552189D01*
X505033Y552821D01*
X505070Y553100D01*
D02*
G37*
G36*
X525100D02*
X522930D01*
X522967Y552821D01*
X523229Y552189D01*
X523646Y551646D01*
X524189Y551229D01*
X524821Y550967D01*
X525100Y550930D01*
Y553100D01*
D02*
G37*
G36*
X502100Y556070D02*
X501821Y556033D01*
X501189Y555771D01*
X500646Y555354D01*
X500229Y554811D01*
X499967Y554179D01*
X499930Y553900D01*
X502100D01*
Y556070D01*
D02*
G37*
G36*
X525900D02*
Y553900D01*
X528070D01*
X528033Y554179D01*
X527771Y554811D01*
X527354Y555354D01*
X526811Y555771D01*
X526179Y556033D01*
X525900Y556070D01*
D02*
G37*
G36*
X492500Y560122D02*
X491821Y560033D01*
X491189Y559771D01*
X490646Y559354D01*
X490229Y558811D01*
X489967Y558179D01*
X489878Y557500D01*
X489967Y556821D01*
X490229Y556189D01*
X490646Y555646D01*
X491189Y555229D01*
X491821Y554967D01*
X492500Y554878D01*
X493179Y554967D01*
X493811Y555229D01*
X494354Y555646D01*
X494771Y556189D01*
X495033Y556821D01*
X495122Y557500D01*
X495033Y558179D01*
X494771Y558811D01*
X494354Y559354D01*
X493811Y559771D01*
X493179Y560033D01*
X492500Y560122D01*
D02*
G37*
G36*
X502900Y556070D02*
Y553900D01*
X505070D01*
X505033Y554179D01*
X504771Y554811D01*
X504354Y555354D01*
X503811Y555771D01*
X503179Y556033D01*
X502900Y556070D01*
D02*
G37*
G36*
X525100D02*
X524821Y556033D01*
X524189Y555771D01*
X523646Y555354D01*
X523229Y554811D01*
X522967Y554179D01*
X522930Y553900D01*
X525100D01*
Y556070D01*
D02*
G37*
G36*
X502100Y553100D02*
X499930D01*
X499967Y552821D01*
X500229Y552189D01*
X500646Y551646D01*
X501189Y551229D01*
X501821Y550967D01*
X502100Y550930D01*
Y553100D01*
D02*
G37*
G36*
X318000Y554622D02*
X317321Y554533D01*
X316689Y554271D01*
X316146Y553854D01*
X315729Y553311D01*
X315467Y552679D01*
X315378Y552000D01*
X315467Y551321D01*
X315729Y550689D01*
X316146Y550146D01*
X316689Y549729D01*
X317321Y549467D01*
X318000Y549378D01*
X318679Y549467D01*
X319311Y549729D01*
X319854Y550146D01*
X320271Y550689D01*
X320533Y551321D01*
X320622Y552000D01*
X320533Y552679D01*
X320271Y553311D01*
X319854Y553854D01*
X319311Y554271D01*
X318679Y554533D01*
X318000Y554622D01*
D02*
G37*
G36*
X121840Y554025D02*
X117211D01*
Y549396D01*
X121840D01*
Y554025D01*
D02*
G37*
G36*
X345600Y551070D02*
X345321Y551033D01*
X344689Y550771D01*
X344146Y550354D01*
X343729Y549811D01*
X343467Y549179D01*
X343430Y548900D01*
X345600D01*
Y551070D01*
D02*
G37*
G36*
X346400D02*
Y548900D01*
X348570D01*
X348533Y549179D01*
X348271Y549811D01*
X347854Y550354D01*
X347311Y550771D01*
X346679Y551033D01*
X346400Y551070D01*
D02*
G37*
G36*
X127269Y554025D02*
X122640D01*
Y549396D01*
X127269D01*
Y554025D01*
D02*
G37*
G36*
X549600Y558100D02*
X548412Y557983D01*
X546885Y557520D01*
X545478Y556768D01*
X544245Y555755D01*
X543232Y554522D01*
X542480Y553115D01*
X542017Y551588D01*
X541900Y550400D01*
X549600D01*
Y558100D01*
D02*
G37*
G36*
X550400D02*
Y550400D01*
X558100D01*
X557983Y551588D01*
X557520Y553115D01*
X556768Y554522D01*
X555755Y555755D01*
X554522Y556768D01*
X553115Y557520D01*
X551588Y557983D01*
X550400Y558100D01*
D02*
G37*
G36*
X149320Y554025D02*
X144691D01*
Y549396D01*
X149320D01*
Y554025D01*
D02*
G37*
G36*
X154750D02*
X150120D01*
Y549396D01*
X154750D01*
Y554025D01*
D02*
G37*
G36*
X585100Y597570D02*
X584821Y597533D01*
X584189Y597271D01*
X583646Y596854D01*
X583229Y596311D01*
X582967Y595679D01*
X582930Y595400D01*
X585100D01*
Y597570D01*
D02*
G37*
G36*
X585900D02*
Y595400D01*
X588070D01*
X588033Y595679D01*
X587771Y596311D01*
X587354Y596854D01*
X586811Y597271D01*
X586179Y597533D01*
X585900Y597570D01*
D02*
G37*
G36*
X569070Y595100D02*
X566900D01*
Y592930D01*
X567179Y592967D01*
X567811Y593229D01*
X568354Y593646D01*
X568771Y594189D01*
X569033Y594821D01*
X569070Y595100D01*
D02*
G37*
G36*
X463900Y595570D02*
Y593400D01*
X466070D01*
X466033Y593679D01*
X465771Y594311D01*
X465354Y594854D01*
X464811Y595271D01*
X464179Y595533D01*
X463900Y595570D01*
D02*
G37*
G36*
X566100Y598070D02*
X565821Y598033D01*
X565189Y597771D01*
X564646Y597354D01*
X564229Y596811D01*
X563967Y596179D01*
X563930Y595900D01*
X566100D01*
Y598070D01*
D02*
G37*
G36*
X100400Y613109D02*
Y600400D01*
X113109D01*
X112979Y602056D01*
X112497Y604061D01*
X111708Y605966D01*
X110631Y607724D01*
X109292Y609292D01*
X107724Y610631D01*
X105966Y611708D01*
X104061Y612497D01*
X102056Y612979D01*
X100400Y613109D01*
D02*
G37*
G36*
X149600D02*
X147944Y612979D01*
X145939Y612497D01*
X144034Y611708D01*
X142276Y610631D01*
X140708Y609292D01*
X139369Y607724D01*
X138292Y605966D01*
X137503Y604061D01*
X137021Y602056D01*
X136891Y600400D01*
X149600D01*
Y613109D01*
D02*
G37*
G36*
X566900Y598070D02*
Y595900D01*
X569070D01*
X569033Y596179D01*
X568771Y596811D01*
X568354Y597354D01*
X567811Y597771D01*
X567179Y598033D01*
X566900Y598070D01*
D02*
G37*
G36*
X99600Y613109D02*
X97944Y612979D01*
X95939Y612497D01*
X94034Y611708D01*
X92276Y610631D01*
X90708Y609292D01*
X89369Y607724D01*
X88292Y605966D01*
X87503Y604061D01*
X87021Y602056D01*
X86891Y600400D01*
X99600D01*
Y613109D01*
D02*
G37*
G36*
X566100Y595100D02*
X563930D01*
X563967Y594821D01*
X564229Y594189D01*
X564646Y593646D01*
X565189Y593229D01*
X565821Y592967D01*
X566100Y592930D01*
Y595100D01*
D02*
G37*
G36*
X423400Y591070D02*
Y588900D01*
X425570D01*
X425533Y589179D01*
X425271Y589811D01*
X424854Y590354D01*
X424311Y590771D01*
X423679Y591033D01*
X423400Y591070D01*
D02*
G37*
G36*
X324600Y592070D02*
X324321Y592033D01*
X323689Y591771D01*
X323146Y591354D01*
X322729Y590811D01*
X322467Y590179D01*
X322430Y589900D01*
X324600D01*
Y592070D01*
D02*
G37*
G36*
X63109Y600600D02*
X50400D01*
Y587891D01*
X52056Y588021D01*
X54061Y588503D01*
X55966Y589292D01*
X57724Y590369D01*
X59292Y591708D01*
X60631Y593276D01*
X61708Y595034D01*
X62497Y596939D01*
X62979Y598944D01*
X63109Y600600D01*
D02*
G37*
G36*
X422600Y591070D02*
X422321Y591033D01*
X421689Y590771D01*
X421146Y590354D01*
X420729Y589811D01*
X420467Y589179D01*
X420430Y588900D01*
X422600D01*
Y591070D01*
D02*
G37*
G36*
X325400Y592070D02*
Y589900D01*
X327570D01*
X327533Y590179D01*
X327271Y590811D01*
X326854Y591354D01*
X326311Y591771D01*
X325679Y592033D01*
X325400Y592070D01*
D02*
G37*
G36*
X585100Y594600D02*
X582930D01*
X582967Y594321D01*
X583229Y593689D01*
X583646Y593146D01*
X584189Y592729D01*
X584821Y592467D01*
X585100Y592430D01*
Y594600D01*
D02*
G37*
G36*
X588070D02*
X585900D01*
Y592430D01*
X586179Y592467D01*
X586811Y592729D01*
X587354Y593146D01*
X587771Y593689D01*
X588033Y594321D01*
X588070Y594600D01*
D02*
G37*
G36*
X463109Y599600D02*
X450400D01*
Y586891D01*
X452056Y587021D01*
X454061Y587503D01*
X455966Y588292D01*
X457724Y589369D01*
X459292Y590708D01*
X460559Y592192D01*
X460841Y592147D01*
X461106Y591985D01*
X461229Y591689D01*
X461646Y591146D01*
X462189Y590729D01*
X462821Y590467D01*
X463100Y590430D01*
Y592999D01*
Y595570D01*
X462821Y595533D01*
X462473Y595881D01*
X462497Y595939D01*
X462979Y597944D01*
X463109Y599600D01*
D02*
G37*
G36*
X466070Y592600D02*
X463900D01*
Y590430D01*
X464179Y590467D01*
X464811Y590729D01*
X465354Y591146D01*
X465771Y591689D01*
X466033Y592321D01*
X466070Y592600D01*
D02*
G37*
G36*
X450400Y613109D02*
Y600400D01*
X463109D01*
X462979Y602056D01*
X462497Y604061D01*
X461708Y605966D01*
X460631Y607724D01*
X459292Y609292D01*
X457724Y610631D01*
X455966Y611708D01*
X454061Y612497D01*
X452056Y612979D01*
X450400Y613109D01*
D02*
G37*
G36*
X499600D02*
X497944Y612979D01*
X495939Y612497D01*
X494034Y611708D01*
X492276Y610631D01*
X490708Y609292D01*
X489369Y607724D01*
X488292Y605966D01*
X487503Y604061D01*
X487021Y602056D01*
X486891Y600400D01*
X499600D01*
Y613109D01*
D02*
G37*
G36*
X400400D02*
Y600400D01*
X413109D01*
X412979Y602056D01*
X412497Y604061D01*
X411708Y605966D01*
X410631Y607724D01*
X409292Y609292D01*
X407724Y610631D01*
X405966Y611708D01*
X404061Y612497D01*
X402056Y612979D01*
X400400Y613109D01*
D02*
G37*
G36*
X449600D02*
X447944Y612979D01*
X445939Y612497D01*
X444034Y611708D01*
X442276Y610631D01*
X440708Y609292D01*
X439369Y607724D01*
X438292Y605966D01*
X437503Y604061D01*
X437021Y602056D01*
X436891Y600400D01*
X449600D01*
Y613109D01*
D02*
G37*
G36*
X500400D02*
Y600400D01*
X513109D01*
X512979Y602056D01*
X512497Y604061D01*
X511708Y605966D01*
X510631Y607724D01*
X509292Y609292D01*
X507724Y610631D01*
X505966Y611708D01*
X504061Y612497D01*
X502056Y612979D01*
X500400Y613109D01*
D02*
G37*
G36*
X49600Y614109D02*
X47944Y613979D01*
X45939Y613497D01*
X44034Y612708D01*
X42276Y611631D01*
X40708Y610292D01*
X39369Y608724D01*
X38292Y606966D01*
X37503Y605061D01*
X37021Y603056D01*
X36891Y601400D01*
X49600D01*
Y614109D01*
D02*
G37*
G36*
X50400D02*
Y601400D01*
X63109D01*
X62979Y603056D01*
X62497Y605061D01*
X61708Y606966D01*
X60631Y608724D01*
X59292Y610292D01*
X57724Y611631D01*
X55966Y612708D01*
X54061Y613497D01*
X52056Y613979D01*
X50400Y614109D01*
D02*
G37*
G36*
X549600Y613109D02*
X547944Y612979D01*
X545939Y612497D01*
X544034Y611708D01*
X542276Y610631D01*
X540708Y609292D01*
X539369Y607724D01*
X538292Y605966D01*
X537503Y604061D01*
X537021Y602056D01*
X536891Y600400D01*
X549600D01*
Y613109D01*
D02*
G37*
G36*
X550400D02*
Y600400D01*
X563109D01*
X562979Y602056D01*
X562497Y604061D01*
X561708Y605966D01*
X560631Y607724D01*
X559292Y609292D01*
X557724Y610631D01*
X555966Y611708D01*
X554061Y612497D01*
X552056Y612979D01*
X550400Y613109D01*
D02*
G37*
G36*
X399600D02*
X397944Y612979D01*
X395939Y612497D01*
X394034Y611708D01*
X392276Y610631D01*
X390708Y609292D01*
X389369Y607724D01*
X388292Y605966D01*
X387503Y604061D01*
X387021Y602056D01*
X386891Y600400D01*
X399600D01*
Y613109D01*
D02*
G37*
G36*
X200400D02*
Y600400D01*
X213109D01*
X212979Y602056D01*
X212497Y604061D01*
X211708Y605966D01*
X210631Y607724D01*
X209292Y609292D01*
X207724Y610631D01*
X205966Y611708D01*
X204061Y612497D01*
X202056Y612979D01*
X200400Y613109D01*
D02*
G37*
G36*
X249600D02*
X247944Y612979D01*
X245939Y612497D01*
X244034Y611708D01*
X242276Y610631D01*
X240708Y609292D01*
X239369Y607724D01*
X238292Y605966D01*
X237503Y604061D01*
X237021Y602056D01*
X236891Y600400D01*
X249600D01*
Y613109D01*
D02*
G37*
G36*
X150400D02*
Y600400D01*
X163109D01*
X162979Y602056D01*
X162497Y604061D01*
X161708Y605966D01*
X160631Y607724D01*
X159292Y609292D01*
X157724Y610631D01*
X155966Y611708D01*
X154061Y612497D01*
X152056Y612979D01*
X150400Y613109D01*
D02*
G37*
G36*
X199600D02*
X197944Y612979D01*
X195939Y612497D01*
X194034Y611708D01*
X192276Y610631D01*
X190708Y609292D01*
X189369Y607724D01*
X188292Y605966D01*
X187503Y604061D01*
X187021Y602056D01*
X186891Y600400D01*
X199600D01*
Y613109D01*
D02*
G37*
G36*
X250400D02*
Y600400D01*
X263109D01*
X262979Y602056D01*
X262497Y604061D01*
X261708Y605966D01*
X260631Y607724D01*
X259292Y609292D01*
X257724Y610631D01*
X255966Y611708D01*
X254061Y612497D01*
X252056Y612979D01*
X250400Y613109D01*
D02*
G37*
G36*
X349600D02*
X347944Y612979D01*
X345939Y612497D01*
X344034Y611708D01*
X342276Y610631D01*
X340708Y609292D01*
X339369Y607724D01*
X338292Y605966D01*
X337503Y604061D01*
X337021Y602056D01*
X336891Y600400D01*
X349600D01*
Y613109D01*
D02*
G37*
G36*
X350400D02*
Y600400D01*
X363109D01*
X362979Y602056D01*
X362497Y604061D01*
X361708Y605966D01*
X360631Y607724D01*
X359292Y609292D01*
X357724Y610631D01*
X355966Y611708D01*
X354061Y612497D01*
X352056Y612979D01*
X350400Y613109D01*
D02*
G37*
G36*
X299600D02*
X297944Y612979D01*
X295939Y612497D01*
X294034Y611708D01*
X292276Y610631D01*
X290708Y609292D01*
X289369Y607724D01*
X288292Y605966D01*
X287503Y604061D01*
X287021Y602056D01*
X286891Y600400D01*
X299600D01*
Y613109D01*
D02*
G37*
G36*
X300400D02*
Y600400D01*
X313109D01*
X312979Y602056D01*
X312497Y604061D01*
X311708Y605966D01*
X310631Y607724D01*
X309292Y609292D01*
X307724Y610631D01*
X305966Y611708D01*
X304061Y612497D01*
X302056Y612979D01*
X300400Y613109D01*
D02*
G37*
G36*
X425570Y588100D02*
X423400D01*
Y585930D01*
X423679Y585967D01*
X424311Y586229D01*
X424854Y586646D01*
X425271Y587189D01*
X425533Y587821D01*
X425570Y588100D01*
D02*
G37*
G36*
X563109Y599600D02*
X550400D01*
Y586891D01*
X552056Y587021D01*
X554061Y587503D01*
X554213Y587566D01*
X554472Y587459D01*
X554889Y586915D01*
X555432Y586499D01*
X556065Y586237D01*
X556343Y586200D01*
Y588771D01*
X556742D01*
Y589170D01*
X559313D01*
X559276Y589448D01*
X559014Y590081D01*
X558833Y590317D01*
X559292Y590708D01*
X560631Y592276D01*
X561708Y594034D01*
X562497Y595939D01*
X562979Y597944D01*
X563109Y599600D01*
D02*
G37*
G36*
X429500Y591122D02*
X428821Y591033D01*
X428189Y590771D01*
X427646Y590354D01*
X427229Y589811D01*
X426967Y589179D01*
X426878Y588500D01*
X426967Y587821D01*
X427229Y587189D01*
X427646Y586646D01*
X428189Y586229D01*
X428821Y585967D01*
X429500Y585878D01*
X430179Y585967D01*
X430811Y586229D01*
X431354Y586646D01*
X431771Y587189D01*
X432033Y587821D01*
X432122Y588500D01*
X432033Y589179D01*
X431771Y589811D01*
X431354Y590354D01*
X430811Y590771D01*
X430179Y591033D01*
X429500Y591122D01*
D02*
G37*
G36*
X422600Y588100D02*
X420430D01*
X420467Y587821D01*
X420729Y587189D01*
X421146Y586646D01*
X421689Y586229D01*
X422321Y585967D01*
X422600Y585930D01*
Y588100D01*
D02*
G37*
G36*
X559313Y588370D02*
X557143D01*
Y586200D01*
X557422Y586237D01*
X558054Y586499D01*
X558598Y586915D01*
X559014Y587459D01*
X559276Y588091D01*
X559313Y588370D01*
D02*
G37*
G36*
X149600Y599600D02*
X136891D01*
X137021Y597944D01*
X137503Y595939D01*
X138292Y594034D01*
X139369Y592276D01*
X140708Y590708D01*
X142276Y589369D01*
X144034Y588292D01*
X145939Y587503D01*
X147944Y587021D01*
X149600Y586891D01*
Y599600D01*
D02*
G37*
G36*
X163109D02*
X150400D01*
Y586891D01*
X152056Y587021D01*
X154061Y587503D01*
X155966Y588292D01*
X157724Y589369D01*
X159292Y590708D01*
X160631Y592276D01*
X161708Y594034D01*
X162497Y595939D01*
X162979Y597944D01*
X163109Y599600D01*
D02*
G37*
G36*
X99600D02*
X86891D01*
X87021Y597944D01*
X87503Y595939D01*
X88292Y594034D01*
X89369Y592276D01*
X90708Y590708D01*
X92276Y589369D01*
X94034Y588292D01*
X95939Y587503D01*
X97944Y587021D01*
X99600Y586891D01*
Y599600D01*
D02*
G37*
G36*
X113109D02*
X100400D01*
Y586891D01*
X102056Y587021D01*
X104061Y587503D01*
X105966Y588292D01*
X107724Y589369D01*
X109292Y590708D01*
X110631Y592276D01*
X111708Y594034D01*
X112497Y595939D01*
X112979Y597944D01*
X113109Y599600D01*
D02*
G37*
G36*
X394600Y587600D02*
X392430D01*
X392467Y587321D01*
X392729Y586689D01*
X393146Y586146D01*
X393689Y585729D01*
X394321Y585467D01*
X394600Y585430D01*
Y587600D01*
D02*
G37*
G36*
X557100Y580070D02*
X556821Y580033D01*
X556189Y579771D01*
X555646Y579354D01*
X555229Y578811D01*
X554967Y578179D01*
X554930Y577900D01*
X557100D01*
Y580070D01*
D02*
G37*
G36*
X557900D02*
Y577900D01*
X560070D01*
X560033Y578179D01*
X559771Y578811D01*
X559354Y579354D01*
X558811Y579771D01*
X558179Y580033D01*
X557900Y580070D01*
D02*
G37*
G36*
X511100Y577600D02*
X508930D01*
X508967Y577321D01*
X509229Y576689D01*
X509646Y576146D01*
X510189Y575729D01*
X510821Y575467D01*
X511100Y575430D01*
Y577600D01*
D02*
G37*
G36*
X514070D02*
X511900D01*
Y575430D01*
X512179Y575467D01*
X512811Y575729D01*
X513354Y576146D01*
X513771Y576689D01*
X514033Y577321D01*
X514070Y577600D01*
D02*
G37*
G36*
X511100Y580570D02*
X510821Y580533D01*
X510189Y580271D01*
X509646Y579854D01*
X509229Y579311D01*
X508967Y578679D01*
X508930Y578400D01*
X511100D01*
Y580570D01*
D02*
G37*
G36*
X597570Y586600D02*
X595400D01*
Y584430D01*
X595679Y584467D01*
X596311Y584729D01*
X596854Y585146D01*
X597271Y585689D01*
X597533Y586321D01*
X597570Y586600D01*
D02*
G37*
G36*
X476000Y590622D02*
X475321Y590533D01*
X474689Y590271D01*
X474146Y589854D01*
X473729Y589311D01*
X473467Y588679D01*
X473378Y588000D01*
X473467Y587321D01*
X473729Y586689D01*
X474146Y586146D01*
X474689Y585729D01*
X475321Y585467D01*
X476000Y585378D01*
X476679Y585467D01*
X477311Y585729D01*
X477854Y586146D01*
X478271Y586689D01*
X478533Y587321D01*
X478622Y588000D01*
X478533Y588679D01*
X478271Y589311D01*
X477854Y589854D01*
X477311Y590271D01*
X476679Y590533D01*
X476000Y590622D01*
D02*
G37*
G36*
X511900Y580570D02*
Y578400D01*
X514070D01*
X514033Y578679D01*
X513771Y579311D01*
X513354Y579854D01*
X512811Y580271D01*
X512179Y580533D01*
X511900Y580570D01*
D02*
G37*
G36*
X594600Y586600D02*
X592430D01*
X592467Y586321D01*
X592729Y585689D01*
X593146Y585146D01*
X593689Y584729D01*
X594321Y584467D01*
X594600Y584430D01*
Y586600D01*
D02*
G37*
G36*
X513109Y599600D02*
X500400D01*
Y586891D01*
X502056Y587021D01*
X504061Y587503D01*
X505966Y588292D01*
X507724Y589369D01*
X509292Y590708D01*
X510631Y592276D01*
X511708Y594034D01*
X512497Y595939D01*
X512979Y597944D01*
X513109Y599600D01*
D02*
G37*
G36*
X549600D02*
X536891D01*
X537021Y597944D01*
X537503Y595939D01*
X538292Y594034D01*
X539369Y592276D01*
X540708Y590708D01*
X542276Y589369D01*
X544034Y588292D01*
X545939Y587503D01*
X547944Y587021D01*
X549600Y586891D01*
Y599600D01*
D02*
G37*
G36*
X449600D02*
X436891D01*
X437021Y597944D01*
X437503Y595939D01*
X438292Y594034D01*
X439369Y592276D01*
X440708Y590708D01*
X442276Y589369D01*
X444034Y588292D01*
X445939Y587503D01*
X447944Y587021D01*
X449600Y586891D01*
Y599600D01*
D02*
G37*
G36*
X499600D02*
X486891D01*
X487021Y597944D01*
X487503Y595939D01*
X488292Y594034D01*
X489369Y592276D01*
X490708Y590708D01*
X492276Y589369D01*
X494034Y588292D01*
X495939Y587503D01*
X497944Y587021D01*
X499600Y586891D01*
Y599600D01*
D02*
G37*
G36*
X324600Y589100D02*
X322430D01*
X322467Y588821D01*
X322729Y588189D01*
X323146Y587646D01*
X323689Y587229D01*
X324321Y586967D01*
X324600Y586930D01*
Y589100D01*
D02*
G37*
G36*
X595400Y589570D02*
Y587400D01*
X597570D01*
X597533Y587679D01*
X597271Y588311D01*
X596854Y588854D01*
X596311Y589271D01*
X595679Y589533D01*
X595400Y589570D01*
D02*
G37*
G36*
X49600Y600600D02*
X36891D01*
X37021Y598944D01*
X37503Y596939D01*
X38292Y595034D01*
X39369Y593276D01*
X40708Y591708D01*
X42276Y590369D01*
X44034Y589292D01*
X45939Y588503D01*
X47944Y588021D01*
X49600Y587891D01*
Y600600D01*
D02*
G37*
G36*
X327570Y589100D02*
X325400D01*
Y586930D01*
X325679Y586967D01*
X326311Y587229D01*
X326854Y587646D01*
X327271Y588189D01*
X327533Y588821D01*
X327570Y589100D01*
D02*
G37*
G36*
X594600Y589570D02*
X594321Y589533D01*
X593689Y589271D01*
X593146Y588854D01*
X592729Y588311D01*
X592467Y587679D01*
X592430Y587400D01*
X594600D01*
Y589570D01*
D02*
G37*
G36*
X413109Y599600D02*
X400400D01*
Y586891D01*
X402056Y587021D01*
X404061Y587503D01*
X405966Y588292D01*
X407724Y589369D01*
X409292Y590708D01*
X410631Y592276D01*
X411708Y594034D01*
X412497Y595939D01*
X412979Y597944D01*
X413109Y599600D01*
D02*
G37*
G36*
X249600D02*
X236891D01*
X237021Y597944D01*
X237503Y595939D01*
X238292Y594034D01*
X239369Y592276D01*
X240708Y590708D01*
X242276Y589369D01*
X244034Y588292D01*
X245939Y587503D01*
X247944Y587021D01*
X249600Y586891D01*
Y599600D01*
D02*
G37*
G36*
X263109D02*
X250400D01*
Y586891D01*
X252056Y587021D01*
X254061Y587503D01*
X255966Y588292D01*
X257724Y589369D01*
X259292Y590708D01*
X260631Y592276D01*
X261708Y594034D01*
X262497Y595939D01*
X262979Y597944D01*
X263109Y599600D01*
D02*
G37*
G36*
X199600D02*
X186891D01*
X187021Y597944D01*
X187503Y595939D01*
X188292Y594034D01*
X189369Y592276D01*
X190708Y590708D01*
X192276Y589369D01*
X194034Y588292D01*
X195939Y587503D01*
X197944Y587021D01*
X199600Y586891D01*
Y599600D01*
D02*
G37*
G36*
X213109D02*
X200400D01*
Y586891D01*
X202056Y587021D01*
X204061Y587503D01*
X205966Y588292D01*
X207724Y589369D01*
X209292Y590708D01*
X210631Y592276D01*
X211708Y594034D01*
X212497Y595939D01*
X212979Y597944D01*
X213109Y599600D01*
D02*
G37*
G36*
X299600D02*
X286891D01*
X287021Y597944D01*
X287503Y595939D01*
X288292Y594034D01*
X289369Y592276D01*
X290708Y590708D01*
X292276Y589369D01*
X294034Y588292D01*
X295939Y587503D01*
X297944Y587021D01*
X299600Y586891D01*
Y599600D01*
D02*
G37*
G36*
X363109D02*
X350400D01*
Y586891D01*
X352056Y587021D01*
X354061Y587503D01*
X355966Y588292D01*
X357724Y589369D01*
X359292Y590708D01*
X360631Y592276D01*
X361708Y594034D01*
X362497Y595939D01*
X362979Y597944D01*
X363109Y599600D01*
D02*
G37*
G36*
X399600D02*
X386891D01*
X387021Y597944D01*
X387503Y595939D01*
X388292Y594034D01*
X389369Y592276D01*
X390708Y590708D01*
X392276Y589369D01*
X392656Y589136D01*
X392467Y588679D01*
X392430Y588400D01*
X395001D01*
Y588001D01*
X395400D01*
Y585430D01*
X395679Y585467D01*
X396311Y585729D01*
X396854Y586146D01*
X397271Y586689D01*
X397457Y587138D01*
X397944Y587021D01*
X399600Y586891D01*
Y599600D01*
D02*
G37*
G36*
X313109D02*
X300400D01*
Y586891D01*
X302056Y587021D01*
X304061Y587503D01*
X305966Y588292D01*
X307724Y589369D01*
X309292Y590708D01*
X310631Y592276D01*
X311708Y594034D01*
X312497Y595939D01*
X312979Y597944D01*
X313109Y599600D01*
D02*
G37*
G36*
X349600D02*
X336891D01*
X337021Y597944D01*
X337503Y595939D01*
X338292Y594034D01*
X339369Y592276D01*
X340708Y590708D01*
X342276Y589369D01*
X344034Y588292D01*
X345939Y587503D01*
X347944Y587021D01*
X349600Y586891D01*
Y599600D01*
D02*
G37*
G36*
X547100Y431070D02*
X546821Y431033D01*
X546189Y430771D01*
X545646Y430354D01*
X545229Y429811D01*
X544967Y429179D01*
X544930Y428900D01*
X547100D01*
Y431070D01*
D02*
G37*
G36*
X547900D02*
Y428900D01*
X550070D01*
X550033Y429179D01*
X549771Y429811D01*
X549354Y430354D01*
X548811Y430771D01*
X548179Y431033D01*
X547900Y431070D01*
D02*
G37*
G36*
X571200Y435240D02*
X569999Y435082D01*
X568880Y434618D01*
X567919Y433881D01*
X567182Y432920D01*
X566718Y431801D01*
X566560Y430600D01*
X566718Y429399D01*
X567182Y428280D01*
X567919Y427319D01*
X568880Y426582D01*
X569999Y426118D01*
X571200Y425960D01*
X572401Y426118D01*
X573520Y426582D01*
X574481Y427319D01*
X575218Y428280D01*
X575682Y429399D01*
X575840Y430600D01*
X575682Y431801D01*
X575218Y432920D01*
X574481Y433881D01*
X573520Y434618D01*
X572401Y435082D01*
X571200Y435240D01*
D02*
G37*
G36*
X511500Y432622D02*
X510821Y432533D01*
X510189Y432271D01*
X509646Y431854D01*
X509229Y431311D01*
X508967Y430679D01*
X508878Y430000D01*
X508967Y429321D01*
X509229Y428689D01*
X509646Y428146D01*
X510189Y427729D01*
X510821Y427467D01*
X511500Y427378D01*
X512179Y427467D01*
X512811Y427729D01*
X513354Y428146D01*
X513771Y428689D01*
X514033Y429321D01*
X514122Y430000D01*
X514033Y430679D01*
X513771Y431311D01*
X513354Y431854D01*
X512811Y432271D01*
X512179Y432533D01*
X511500Y432622D01*
D02*
G37*
G36*
X299600Y449600D02*
X289399D01*
X289498Y448337D01*
X289888Y446714D01*
X290526Y445173D01*
X291398Y443750D01*
X292481Y442482D01*
X293750Y441398D01*
X295173Y440526D01*
X296714Y439888D01*
X298337Y439498D01*
X299600Y439399D01*
Y449600D01*
D02*
G37*
G36*
X560601D02*
X550400D01*
Y439399D01*
X551663Y439498D01*
X553286Y439888D01*
X554827Y440526D01*
X556250Y441398D01*
X557518Y442482D01*
X558602Y443750D01*
X559474Y445173D01*
X560112Y446714D01*
X560502Y448337D01*
X560601Y449600D01*
D02*
G37*
G36*
X528500Y453122D02*
X527821Y453033D01*
X527189Y452771D01*
X526646Y452354D01*
X526229Y451811D01*
X525967Y451179D01*
X525878Y450500D01*
X525967Y449821D01*
X526229Y449189D01*
X526646Y448646D01*
X527189Y448229D01*
X527821Y447967D01*
X528500Y447878D01*
X529179Y447967D01*
X529811Y448229D01*
X530354Y448646D01*
X530771Y449189D01*
X531033Y449821D01*
X531122Y450500D01*
X531033Y451179D01*
X530771Y451811D01*
X530354Y452354D01*
X529811Y452771D01*
X529179Y453033D01*
X528500Y453122D01*
D02*
G37*
G36*
X310601Y449600D02*
X300400D01*
Y439399D01*
X301663Y439498D01*
X303286Y439888D01*
X304827Y440526D01*
X306250Y441398D01*
X307519Y442482D01*
X308602Y443750D01*
X309474Y445173D01*
X310112Y446714D01*
X310502Y448337D01*
X310601Y449600D01*
D02*
G37*
G36*
X549600D02*
X539399D01*
X539498Y448337D01*
X539888Y446714D01*
X540526Y445173D01*
X541398Y443750D01*
X542482Y442482D01*
X543750Y441398D01*
X545173Y440526D01*
X546714Y439888D01*
X548337Y439498D01*
X549600Y439399D01*
Y449600D01*
D02*
G37*
G36*
X550070Y428100D02*
X547900D01*
Y425930D01*
X548179Y425967D01*
X548811Y426229D01*
X549354Y426646D01*
X549771Y427189D01*
X550033Y427821D01*
X550070Y428100D01*
D02*
G37*
G36*
X550800Y420200D02*
X547622D01*
X547693Y419660D01*
X548055Y418785D01*
X548632Y418032D01*
X549384Y417455D01*
X550260Y417093D01*
X550800Y417022D01*
Y420200D01*
D02*
G37*
G36*
X554778D02*
X551600D01*
Y417022D01*
X552140Y417093D01*
X553016Y417455D01*
X553768Y418032D01*
X554345Y418785D01*
X554707Y419660D01*
X554778Y420200D01*
D02*
G37*
G36*
X485500Y420122D02*
X484821Y420033D01*
X484189Y419771D01*
X483646Y419354D01*
X483229Y418811D01*
X482967Y418179D01*
X482878Y417500D01*
X482967Y416821D01*
X483229Y416189D01*
X483646Y415646D01*
X484189Y415229D01*
X484821Y414967D01*
X485500Y414878D01*
X486179Y414967D01*
X486811Y415229D01*
X487354Y415646D01*
X487771Y416189D01*
X488033Y416821D01*
X488122Y417500D01*
X488033Y418179D01*
X487771Y418811D01*
X487354Y419354D01*
X486811Y419771D01*
X486179Y420033D01*
X485500Y420122D01*
D02*
G37*
G36*
X496000Y421622D02*
X495321Y421533D01*
X494689Y421271D01*
X494146Y420854D01*
X493729Y420311D01*
X493467Y419679D01*
X493378Y419000D01*
X493467Y418321D01*
X493729Y417689D01*
X494146Y417146D01*
X494689Y416729D01*
X495321Y416467D01*
X496000Y416378D01*
X496679Y416467D01*
X497311Y416729D01*
X497854Y417146D01*
X498271Y417689D01*
X498533Y418321D01*
X498622Y419000D01*
X498533Y419679D01*
X498271Y420311D01*
X497854Y420854D01*
X497311Y421271D01*
X496679Y421533D01*
X496000Y421622D01*
D02*
G37*
G36*
X371000Y424622D02*
X370321Y424533D01*
X369689Y424271D01*
X369146Y423854D01*
X368729Y423311D01*
X368467Y422679D01*
X368378Y422000D01*
X368467Y421321D01*
X368729Y420689D01*
X369146Y420146D01*
X369689Y419729D01*
X370321Y419467D01*
X371000Y419378D01*
X371679Y419467D01*
X372311Y419729D01*
X372854Y420146D01*
X373271Y420689D01*
X373533Y421321D01*
X373622Y422000D01*
X373533Y422679D01*
X373271Y423311D01*
X372854Y423854D01*
X372311Y424271D01*
X371679Y424533D01*
X371000Y424622D01*
D02*
G37*
G36*
X551600Y424178D02*
Y421000D01*
X554778D01*
X554707Y421540D01*
X554345Y422415D01*
X553768Y423168D01*
X553016Y423745D01*
X552140Y424107D01*
X551600Y424178D01*
D02*
G37*
G36*
X547100Y428100D02*
X544930D01*
X544967Y427821D01*
X545229Y427189D01*
X545646Y426646D01*
X546189Y426229D01*
X546821Y425967D01*
X547100Y425930D01*
Y428100D01*
D02*
G37*
G36*
X396500Y424622D02*
X395821Y424533D01*
X395189Y424271D01*
X394646Y423854D01*
X394229Y423311D01*
X393967Y422679D01*
X393878Y422000D01*
X393967Y421321D01*
X394229Y420689D01*
X394646Y420146D01*
X395189Y419729D01*
X395821Y419467D01*
X396500Y419378D01*
X397179Y419467D01*
X397811Y419729D01*
X398354Y420146D01*
X398771Y420689D01*
X399033Y421321D01*
X399122Y422000D01*
X399033Y422679D01*
X398771Y423311D01*
X398354Y423854D01*
X397811Y424271D01*
X397179Y424533D01*
X396500Y424622D01*
D02*
G37*
G36*
X550800Y424178D02*
X550260Y424107D01*
X549384Y423745D01*
X548632Y423168D01*
X548055Y422415D01*
X547693Y421540D01*
X547622Y421000D01*
X550800D01*
Y424178D01*
D02*
G37*
G36*
X474570Y472600D02*
X472400D01*
Y470430D01*
X472679Y470467D01*
X473311Y470729D01*
X473854Y471146D01*
X474271Y471689D01*
X474533Y472321D01*
X474570Y472600D01*
D02*
G37*
G36*
X323000Y476622D02*
X322321Y476533D01*
X321689Y476271D01*
X321146Y475854D01*
X320729Y475311D01*
X320467Y474679D01*
X320378Y474000D01*
X320467Y473321D01*
X320729Y472689D01*
X321146Y472146D01*
X321689Y471729D01*
X322321Y471467D01*
X323000Y471378D01*
X323679Y471467D01*
X324311Y471729D01*
X324854Y472146D01*
X325271Y472689D01*
X325533Y473321D01*
X325622Y474000D01*
X325533Y474679D01*
X325271Y475311D01*
X324854Y475854D01*
X324311Y476271D01*
X323679Y476533D01*
X323000Y476622D01*
D02*
G37*
G36*
X465000Y475622D02*
X464321Y475533D01*
X463689Y475271D01*
X463146Y474854D01*
X462729Y474311D01*
X462467Y473679D01*
X462378Y473000D01*
X462467Y472321D01*
X462729Y471689D01*
X463146Y471146D01*
X463689Y470729D01*
X464321Y470467D01*
X465000Y470378D01*
X465679Y470467D01*
X466311Y470729D01*
X466854Y471146D01*
X467271Y471689D01*
X467533Y472321D01*
X467622Y473000D01*
X467533Y473679D01*
X467271Y474311D01*
X466854Y474854D01*
X466311Y475271D01*
X465679Y475533D01*
X465000Y475622D01*
D02*
G37*
G36*
X471600Y472600D02*
X469430D01*
X469467Y472321D01*
X469729Y471689D01*
X470146Y471146D01*
X470689Y470729D01*
X471321Y470467D01*
X471600Y470430D01*
Y472600D01*
D02*
G37*
G36*
X367000Y478122D02*
X366321Y478033D01*
X365689Y477771D01*
X365146Y477354D01*
X364729Y476811D01*
X364467Y476179D01*
X364378Y475500D01*
X364467Y474821D01*
X364729Y474189D01*
X365146Y473646D01*
X365689Y473229D01*
X366321Y472967D01*
X367000Y472878D01*
X367679Y472967D01*
X368311Y473229D01*
X368854Y473646D01*
X369271Y474189D01*
X369533Y474821D01*
X369622Y475500D01*
X369533Y476179D01*
X369271Y476811D01*
X368854Y477354D01*
X368311Y477771D01*
X367679Y478033D01*
X367000Y478122D01*
D02*
G37*
G36*
X471600Y475570D02*
X471321Y475533D01*
X470689Y475271D01*
X470146Y474854D01*
X469729Y474311D01*
X469467Y473679D01*
X469430Y473400D01*
X471600D01*
Y475570D01*
D02*
G37*
G36*
X472400D02*
Y473400D01*
X474570D01*
X474533Y473679D01*
X474271Y474311D01*
X473854Y474854D01*
X473311Y475271D01*
X472679Y475533D01*
X472400Y475570D01*
D02*
G37*
G36*
X391100Y475100D02*
X388930D01*
X388967Y474821D01*
X389229Y474189D01*
X389646Y473646D01*
X390189Y473229D01*
X390821Y472967D01*
X391100Y472930D01*
Y475100D01*
D02*
G37*
G36*
X394070D02*
X391900D01*
Y472930D01*
X392179Y472967D01*
X392811Y473229D01*
X393354Y473646D01*
X393771Y474189D01*
X394033Y474821D01*
X394070Y475100D01*
D02*
G37*
G36*
X532900Y467570D02*
Y465400D01*
X535070D01*
X535033Y465679D01*
X534771Y466311D01*
X534354Y466854D01*
X533811Y467271D01*
X533179Y467533D01*
X532900Y467570D01*
D02*
G37*
G36*
X549600Y460601D02*
X548337Y460502D01*
X546714Y460112D01*
X545173Y459474D01*
X543750Y458602D01*
X542482Y457518D01*
X541398Y456250D01*
X540526Y454827D01*
X539888Y453286D01*
X539498Y451663D01*
X539399Y450400D01*
X549600D01*
Y460601D01*
D02*
G37*
G36*
X429000Y463122D02*
X428321Y463033D01*
X427689Y462771D01*
X427146Y462354D01*
X426729Y461811D01*
X426467Y461179D01*
X426378Y460500D01*
X426467Y459821D01*
X426729Y459189D01*
X427146Y458646D01*
X427661Y458250D01*
Y457750D01*
X427146Y457354D01*
X426729Y456811D01*
X426467Y456179D01*
X426378Y455500D01*
X426467Y454821D01*
X426729Y454189D01*
X427146Y453646D01*
X427689Y453229D01*
X428321Y452967D01*
X429000Y452878D01*
X429679Y452967D01*
X430311Y453229D01*
X430854Y453646D01*
X431271Y454189D01*
X431533Y454821D01*
X431622Y455500D01*
X431533Y456179D01*
X431271Y456811D01*
X430854Y457354D01*
X430311Y457771D01*
Y458229D01*
X430854Y458646D01*
X431271Y459189D01*
X431533Y459821D01*
X431622Y460500D01*
X431533Y461179D01*
X431271Y461811D01*
X430854Y462354D01*
X430311Y462771D01*
X429679Y463033D01*
X429000Y463122D01*
D02*
G37*
G36*
X299600Y460601D02*
X298337Y460502D01*
X296714Y460112D01*
X295173Y459474D01*
X293750Y458602D01*
X292481Y457518D01*
X291398Y456250D01*
X290526Y454827D01*
X289888Y453286D01*
X289498Y451663D01*
X289399Y450400D01*
X299600D01*
Y460601D01*
D02*
G37*
G36*
X300400D02*
Y450400D01*
X310601D01*
X310502Y451663D01*
X310112Y453286D01*
X309474Y454827D01*
X308602Y456250D01*
X307519Y457518D01*
X306250Y458602D01*
X304827Y459474D01*
X303286Y460112D01*
X301663Y460502D01*
X300400Y460601D01*
D02*
G37*
G36*
X556500Y469622D02*
X555821Y469533D01*
X555189Y469271D01*
X554646Y468854D01*
X554229Y468311D01*
X553967Y467679D01*
X553878Y467000D01*
X553967Y466321D01*
X554229Y465689D01*
X554605Y465199D01*
X554562Y465036D01*
X554241Y464618D01*
X554184Y464595D01*
X553641Y464178D01*
X553224Y463635D01*
X552962Y463002D01*
X552873Y462324D01*
X552962Y461645D01*
X553224Y461013D01*
X553620Y460497D01*
X553316Y460100D01*
X553286Y460112D01*
X551663Y460502D01*
X550400Y460601D01*
Y450400D01*
X560601D01*
X560502Y451663D01*
X560112Y453286D01*
X559474Y454827D01*
X558602Y456250D01*
X557518Y457518D01*
X556250Y458602D01*
X555197Y459247D01*
X555364Y459719D01*
X555495Y459701D01*
X556174Y459791D01*
X556807Y460053D01*
X557350Y460469D01*
X557766Y461013D01*
X558028Y461645D01*
X558118Y462324D01*
X558028Y463002D01*
X557766Y463635D01*
X557350Y464178D01*
X557144Y464336D01*
X557179Y464467D01*
X557811Y464729D01*
X558354Y465146D01*
X558771Y465689D01*
X559033Y466321D01*
X559122Y467000D01*
X559033Y467679D01*
X558771Y468311D01*
X558354Y468854D01*
X557811Y469271D01*
X557179Y469533D01*
X556500Y469622D01*
D02*
G37*
G36*
X546500Y470622D02*
X545821Y470533D01*
X545189Y470271D01*
X544646Y469854D01*
X544229Y469311D01*
X543967Y468679D01*
X543878Y468000D01*
X543967Y467321D01*
X544229Y466689D01*
X544646Y466146D01*
X545189Y465729D01*
X545821Y465467D01*
X546500Y465378D01*
X547179Y465467D01*
X547811Y465729D01*
X548354Y466146D01*
X548771Y466689D01*
X549033Y467321D01*
X549122Y468000D01*
X549033Y468679D01*
X548771Y469311D01*
X548354Y469854D01*
X547811Y470271D01*
X547179Y470533D01*
X546500Y470622D01*
D02*
G37*
G36*
X532100Y467570D02*
X531821Y467533D01*
X531189Y467271D01*
X530646Y466854D01*
X530229Y466311D01*
X529967Y465679D01*
X529930Y465400D01*
X532100D01*
Y467570D01*
D02*
G37*
G36*
Y464600D02*
X529930D01*
X529967Y464321D01*
X530229Y463689D01*
X530646Y463146D01*
X531189Y462729D01*
X531821Y462467D01*
X532100Y462430D01*
Y464600D01*
D02*
G37*
G36*
X535070D02*
X532900D01*
Y462430D01*
X533179Y462467D01*
X533811Y462729D01*
X534354Y463146D01*
X534771Y463689D01*
X535033Y464321D01*
X535070Y464600D01*
D02*
G37*
G36*
X473400Y376074D02*
Y373400D01*
X476074D01*
X476020Y373809D01*
X475708Y374563D01*
X475211Y375211D01*
X474563Y375708D01*
X473809Y376020D01*
X473400Y376074D01*
D02*
G37*
G36*
X340500Y384622D02*
X339821Y384533D01*
X339189Y384271D01*
X338646Y383854D01*
X338229Y383311D01*
X337967Y382679D01*
X337878Y382000D01*
X337967Y381321D01*
X338229Y380689D01*
X338646Y380146D01*
X339189Y379729D01*
X339821Y379467D01*
X340500Y379378D01*
X341179Y379467D01*
X341811Y379729D01*
X342354Y380146D01*
X342771Y380689D01*
X343033Y381321D01*
X343122Y382000D01*
X343033Y382679D01*
X342771Y383311D01*
X342354Y383854D01*
X341811Y384271D01*
X341179Y384533D01*
X340500Y384622D01*
D02*
G37*
G36*
X476074Y372600D02*
X473400D01*
Y369926D01*
X473809Y369980D01*
X474563Y370292D01*
X475211Y370789D01*
X475708Y371437D01*
X476020Y372191D01*
X476074Y372600D01*
D02*
G37*
G36*
X472600Y376074D02*
X472191Y376020D01*
X471437Y375708D01*
X470789Y375211D01*
X470292Y374563D01*
X469980Y373809D01*
X469926Y373400D01*
X472600D01*
Y376074D01*
D02*
G37*
G36*
X369500Y384622D02*
X368821Y384533D01*
X368189Y384271D01*
X367646Y383854D01*
X367229Y383311D01*
X366967Y382679D01*
X366878Y382000D01*
X366967Y381321D01*
X367229Y380689D01*
X367646Y380146D01*
X368189Y379729D01*
X368821Y379467D01*
X369500Y379378D01*
X370179Y379467D01*
X370811Y379729D01*
X371354Y380146D01*
X371771Y380689D01*
X372033Y381321D01*
X372122Y382000D01*
X372033Y382679D01*
X371771Y383311D01*
X371354Y383854D01*
X370811Y384271D01*
X370179Y384533D01*
X369500Y384622D01*
D02*
G37*
G36*
X571200Y395240D02*
X569999Y395082D01*
X568880Y394618D01*
X567919Y393881D01*
X567182Y392920D01*
X566718Y391801D01*
X566560Y390600D01*
X566718Y389399D01*
X567182Y388280D01*
X567919Y387319D01*
X568880Y386582D01*
X569999Y386118D01*
X571200Y385960D01*
X572401Y386118D01*
X573520Y386582D01*
X574481Y387319D01*
X575218Y388280D01*
X575682Y389399D01*
X575840Y390600D01*
X575682Y391801D01*
X575218Y392920D01*
X574481Y393881D01*
X573520Y394618D01*
X572401Y395082D01*
X571200Y395240D01*
D02*
G37*
G36*
X505000Y393122D02*
X504321Y393033D01*
X503689Y392771D01*
X503146Y392354D01*
X502729Y391811D01*
X502467Y391179D01*
X502378Y390500D01*
X502467Y389821D01*
X502729Y389189D01*
X503146Y388646D01*
X503689Y388229D01*
X504321Y387967D01*
X505000Y387878D01*
X505679Y387967D01*
X506311Y388229D01*
X506854Y388646D01*
X507271Y389189D01*
X507533Y389821D01*
X507622Y390500D01*
X507533Y391179D01*
X507271Y391811D01*
X506854Y392354D01*
X506311Y392771D01*
X505679Y393033D01*
X505000Y393122D01*
D02*
G37*
G36*
X331500Y385622D02*
X330821Y385533D01*
X330189Y385271D01*
X329646Y384854D01*
X329229Y384311D01*
X328967Y383679D01*
X328878Y383000D01*
X328967Y382321D01*
X329229Y381689D01*
X329646Y381146D01*
X330189Y380729D01*
X330821Y380467D01*
X331500Y380378D01*
X332179Y380467D01*
X332811Y380729D01*
X333354Y381146D01*
X333771Y381689D01*
X334033Y382321D01*
X334122Y383000D01*
X334033Y383679D01*
X333771Y384311D01*
X333354Y384854D01*
X332811Y385271D01*
X332179Y385533D01*
X331500Y385622D01*
D02*
G37*
G36*
X383000Y386622D02*
X382321Y386533D01*
X381689Y386271D01*
X381146Y385854D01*
X380729Y385311D01*
X380467Y384679D01*
X380378Y384000D01*
X380467Y383321D01*
X380729Y382689D01*
X381146Y382146D01*
X381689Y381729D01*
X382321Y381467D01*
X383000Y381378D01*
X383679Y381467D01*
X384311Y381729D01*
X384854Y382146D01*
X385271Y382689D01*
X385533Y383321D01*
X385622Y384000D01*
X385533Y384679D01*
X385271Y385311D01*
X384854Y385854D01*
X384311Y386271D01*
X383679Y386533D01*
X383000Y386622D01*
D02*
G37*
G36*
X472600Y372600D02*
X469926D01*
X469980Y372191D01*
X470292Y371437D01*
X470789Y370789D01*
X471437Y370292D01*
X472191Y369980D01*
X472600Y369926D01*
Y372600D01*
D02*
G37*
G36*
X353600Y368070D02*
X353321Y368033D01*
X352689Y367771D01*
X352146Y367354D01*
X351729Y366811D01*
X351467Y366179D01*
X351430Y365900D01*
X353600D01*
Y368070D01*
D02*
G37*
G36*
X354400D02*
Y365900D01*
X356570D01*
X356533Y366179D01*
X356271Y366811D01*
X355854Y367354D01*
X355311Y367771D01*
X354679Y368033D01*
X354400Y368070D01*
D02*
G37*
G36*
X545600Y367100D02*
X543430D01*
X543467Y366821D01*
X543729Y366189D01*
X544146Y365646D01*
X544689Y365229D01*
X545321Y364967D01*
X545600Y364930D01*
Y367100D01*
D02*
G37*
G36*
X548570D02*
X546400D01*
Y364930D01*
X546679Y364967D01*
X547311Y365229D01*
X547854Y365646D01*
X548271Y366189D01*
X548533Y366821D01*
X548570Y367100D01*
D02*
G37*
G36*
X570900Y375240D02*
X569699Y375082D01*
X568580Y374618D01*
X567619Y373881D01*
X566882Y372920D01*
X566418Y371801D01*
X566260Y370600D01*
X566418Y369399D01*
X566882Y368280D01*
X567619Y367319D01*
X568580Y366582D01*
X569699Y366118D01*
X570900Y365960D01*
X572101Y366118D01*
X573220Y366582D01*
X574181Y367319D01*
X574918Y368280D01*
X575382Y369399D01*
X575540Y370600D01*
X575382Y371801D01*
X574918Y372920D01*
X574181Y373881D01*
X573220Y374618D01*
X572101Y375082D01*
X570900Y375240D01*
D02*
G37*
G36*
X340500Y374622D02*
X339821Y374533D01*
X339189Y374271D01*
X338646Y373854D01*
X338229Y373311D01*
X337967Y372679D01*
X337878Y372000D01*
X337967Y371321D01*
X338229Y370689D01*
X338646Y370146D01*
X339189Y369729D01*
X339821Y369467D01*
X340500Y369378D01*
X341179Y369467D01*
X341811Y369729D01*
X342354Y370146D01*
X342771Y370689D01*
X343033Y371321D01*
X343122Y372000D01*
X343033Y372679D01*
X342771Y373311D01*
X342354Y373854D01*
X341811Y374271D01*
X341179Y374533D01*
X340500Y374622D01*
D02*
G37*
G36*
X368500Y375122D02*
X367821Y375033D01*
X367189Y374771D01*
X366646Y374354D01*
X366229Y373811D01*
X365967Y373179D01*
X365878Y372500D01*
X365967Y371821D01*
X366229Y371189D01*
X366646Y370646D01*
X367189Y370229D01*
X367821Y369967D01*
X368500Y369878D01*
X369179Y369967D01*
X369811Y370229D01*
X370354Y370646D01*
X370771Y371189D01*
X371033Y371821D01*
X371122Y372500D01*
X371033Y373179D01*
X370771Y373811D01*
X370354Y374354D01*
X369811Y374771D01*
X369179Y375033D01*
X368500Y375122D01*
D02*
G37*
G36*
X545600Y370070D02*
X545321Y370033D01*
X544689Y369771D01*
X544146Y369354D01*
X543729Y368811D01*
X543467Y368179D01*
X543430Y367900D01*
X545600D01*
Y370070D01*
D02*
G37*
G36*
X546400D02*
Y367900D01*
X548570D01*
X548533Y368179D01*
X548271Y368811D01*
X547854Y369354D01*
X547311Y369771D01*
X546679Y370033D01*
X546400Y370070D01*
D02*
G37*
G36*
X357100Y410100D02*
X354930D01*
X354967Y409821D01*
X355229Y409189D01*
X355646Y408646D01*
X356189Y408229D01*
X356821Y407967D01*
X357100Y407930D01*
Y410100D01*
D02*
G37*
G36*
X360070D02*
X357900D01*
Y407930D01*
X358179Y407967D01*
X358811Y408229D01*
X359354Y408646D01*
X359771Y409189D01*
X360033Y409821D01*
X360070Y410100D01*
D02*
G37*
G36*
X546400Y407570D02*
Y405400D01*
X548570D01*
X548533Y405679D01*
X548271Y406311D01*
X547854Y406854D01*
X547311Y407271D01*
X546679Y407533D01*
X546400Y407570D01*
D02*
G37*
G36*
X551200Y414231D02*
X550260Y414107D01*
X549384Y413745D01*
X548632Y413168D01*
X548055Y412416D01*
X547693Y411540D01*
X547569Y410600D01*
X547693Y409660D01*
X548055Y408784D01*
X548632Y408033D01*
X549384Y407455D01*
X550260Y407093D01*
X551200Y406969D01*
X552140Y407093D01*
X553016Y407455D01*
X553768Y408033D01*
X554345Y408784D01*
X554707Y409660D01*
X554831Y410600D01*
X554707Y411540D01*
X554345Y412416D01*
X553768Y413168D01*
X553016Y413745D01*
X552140Y414107D01*
X551200Y414231D01*
D02*
G37*
G36*
X474000Y412122D02*
X473321Y412033D01*
X472689Y411771D01*
X472146Y411354D01*
X471729Y410811D01*
X471467Y410179D01*
X471378Y409500D01*
X471463Y408853D01*
X471254Y408733D01*
X470999Y408627D01*
X470811Y408771D01*
X470179Y409033D01*
X469500Y409122D01*
X468821Y409033D01*
X468189Y408771D01*
X467646Y408354D01*
X467229Y407811D01*
X466967Y407179D01*
X466878Y406500D01*
X466967Y405821D01*
X467229Y405189D01*
X467646Y404646D01*
X468189Y404229D01*
X468821Y403967D01*
X469500Y403878D01*
X470179Y403967D01*
X470811Y404229D01*
X471354Y404646D01*
X471771Y405189D01*
X472033Y405821D01*
X472122Y406500D01*
X472037Y407147D01*
X472246Y407267D01*
X472501Y407373D01*
X472689Y407229D01*
X473321Y406967D01*
X474000Y406878D01*
X474679Y406967D01*
X475311Y407229D01*
X475854Y407646D01*
X476271Y408189D01*
X476533Y408821D01*
X476622Y409500D01*
X476533Y410179D01*
X476271Y410811D01*
X475854Y411354D01*
X475311Y411771D01*
X474679Y412033D01*
X474000Y412122D01*
D02*
G37*
G36*
X357900Y413070D02*
Y410900D01*
X360070D01*
X360033Y411179D01*
X359771Y411811D01*
X359354Y412354D01*
X358811Y412771D01*
X358179Y413033D01*
X357900Y413070D01*
D02*
G37*
G36*
X426500Y413122D02*
X425821Y413033D01*
X425189Y412771D01*
X424646Y412354D01*
X424229Y411811D01*
X424125Y411561D01*
X423630Y411496D01*
X423354Y411854D01*
X422811Y412271D01*
X422179Y412533D01*
X421500Y412622D01*
X420821Y412533D01*
X420189Y412271D01*
X419646Y411854D01*
X419229Y411311D01*
X418967Y410679D01*
X418878Y410000D01*
X418967Y409321D01*
X419229Y408689D01*
X419646Y408146D01*
X420189Y407729D01*
X420821Y407467D01*
X421500Y407378D01*
X422179Y407467D01*
X422811Y407729D01*
X423354Y408146D01*
X423771Y408689D01*
X423875Y408939D01*
X424370Y409004D01*
X424646Y408646D01*
X425189Y408229D01*
X425821Y407967D01*
X426500Y407878D01*
X427179Y407967D01*
X427811Y408229D01*
X428354Y408646D01*
X428771Y409189D01*
X429033Y409821D01*
X429122Y410500D01*
X429033Y411179D01*
X428771Y411811D01*
X428354Y412354D01*
X427811Y412771D01*
X427179Y413033D01*
X426500Y413122D01*
D02*
G37*
G36*
X435000Y420622D02*
X434321Y420533D01*
X433689Y420271D01*
X433146Y419854D01*
X432729Y419311D01*
X432467Y418679D01*
X432378Y418000D01*
X432467Y417321D01*
X432729Y416689D01*
X433146Y416146D01*
X433689Y415729D01*
X434241Y415500D01*
Y415000D01*
X433689Y414771D01*
X433146Y414354D01*
X432729Y413811D01*
X432467Y413179D01*
X432378Y412500D01*
X432467Y411821D01*
X432729Y411189D01*
X433146Y410646D01*
X433689Y410229D01*
X434321Y409967D01*
X435000Y409878D01*
X435679Y409967D01*
X436311Y410229D01*
X436854Y410646D01*
X437271Y411189D01*
X437533Y411821D01*
X437622Y412500D01*
X437533Y413179D01*
X437271Y413811D01*
X436854Y414354D01*
X436311Y414771D01*
X435759Y415000D01*
Y415500D01*
X436311Y415729D01*
X436854Y416146D01*
X437271Y416689D01*
X437533Y417321D01*
X437622Y418000D01*
X437533Y418679D01*
X437271Y419311D01*
X436854Y419854D01*
X436311Y420271D01*
X435679Y420533D01*
X435000Y420622D01*
D02*
G37*
G36*
X357100Y413070D02*
X356821Y413033D01*
X356189Y412771D01*
X355646Y412354D01*
X355229Y411811D01*
X354967Y411179D01*
X354930Y410900D01*
X357100D01*
Y413070D01*
D02*
G37*
G36*
X545600Y407570D02*
X545321Y407533D01*
X544689Y407271D01*
X544146Y406854D01*
X543729Y406311D01*
X543467Y405679D01*
X543430Y405400D01*
X545600D01*
Y407570D01*
D02*
G37*
G36*
X516335Y394622D02*
X515656Y394533D01*
X515023Y394271D01*
X514480Y393854D01*
X514064Y393311D01*
X513802Y392679D01*
X513712Y392000D01*
X513802Y391321D01*
X514064Y390689D01*
X514480Y390146D01*
X515023Y389729D01*
X515656Y389467D01*
X516335Y389378D01*
X517013Y389467D01*
X517646Y389729D01*
X518189Y390146D01*
X518606Y390689D01*
X518868Y391321D01*
X518957Y392000D01*
X518868Y392679D01*
X518606Y393311D01*
X518189Y393854D01*
X517646Y394271D01*
X517013Y394533D01*
X516335Y394622D01*
D02*
G37*
G36*
X522600Y393570D02*
X522321Y393533D01*
X521689Y393271D01*
X521146Y392854D01*
X520729Y392311D01*
X520467Y391679D01*
X520430Y391400D01*
X522600D01*
Y393570D01*
D02*
G37*
G36*
Y390600D02*
X520430D01*
X520467Y390321D01*
X520729Y389689D01*
X521146Y389146D01*
X521689Y388729D01*
X522321Y388467D01*
X522600Y388430D01*
Y390600D01*
D02*
G37*
G36*
X525570D02*
X523400D01*
Y388430D01*
X523679Y388467D01*
X524311Y388729D01*
X524854Y389146D01*
X525271Y389689D01*
X525533Y390321D01*
X525570Y390600D01*
D02*
G37*
G36*
X523400Y393570D02*
Y391400D01*
X525570D01*
X525533Y391679D01*
X525271Y392311D01*
X524854Y392854D01*
X524311Y393271D01*
X523679Y393533D01*
X523400Y393570D01*
D02*
G37*
G36*
X548570Y404600D02*
X546400D01*
Y402430D01*
X546679Y402467D01*
X547311Y402729D01*
X547854Y403146D01*
X548271Y403689D01*
X548533Y404321D01*
X548570Y404600D01*
D02*
G37*
G36*
X533000Y410622D02*
X532321Y410533D01*
X531689Y410271D01*
X531146Y409854D01*
X530729Y409311D01*
X530467Y408679D01*
X530378Y408000D01*
X530467Y407321D01*
X530729Y406689D01*
X531146Y406146D01*
X531689Y405729D01*
X532321Y405467D01*
X533000Y405378D01*
X533679Y405467D01*
X534311Y405729D01*
X534854Y406146D01*
X535271Y406689D01*
X535533Y407321D01*
X535622Y408000D01*
X535533Y408679D01*
X535271Y409311D01*
X534854Y409854D01*
X534311Y410271D01*
X533679Y410533D01*
X533000Y410622D01*
D02*
G37*
G36*
X408500D02*
X407821Y410533D01*
X407189Y410271D01*
X406646Y409854D01*
X406229Y409311D01*
X405967Y408679D01*
X405878Y408000D01*
X405967Y407321D01*
X406229Y406689D01*
X406646Y406146D01*
X407189Y405729D01*
X407821Y405467D01*
X408500Y405378D01*
X409179Y405467D01*
X409811Y405729D01*
X409999Y405873D01*
X410254Y405767D01*
X410463Y405647D01*
X410378Y405000D01*
X410467Y404321D01*
X410729Y403689D01*
X411146Y403146D01*
X411689Y402729D01*
X412321Y402467D01*
X413000Y402378D01*
X413679Y402467D01*
X414311Y402729D01*
X414854Y403146D01*
X415271Y403689D01*
X415533Y404321D01*
X415622Y405000D01*
X415533Y405679D01*
X415271Y406311D01*
X414854Y406854D01*
X414311Y407271D01*
X413679Y407533D01*
X413000Y407622D01*
X412321Y407533D01*
X411689Y407271D01*
X411501Y407127D01*
X411246Y407233D01*
X411037Y407353D01*
X411122Y408000D01*
X411033Y408679D01*
X410771Y409311D01*
X410354Y409854D01*
X409811Y410271D01*
X409179Y410533D01*
X408500Y410622D01*
D02*
G37*
G36*
X545600Y404600D02*
X543430D01*
X543467Y404321D01*
X543729Y403689D01*
X544146Y403146D01*
X544689Y402729D01*
X545321Y402467D01*
X545600Y402430D01*
Y404600D01*
D02*
G37*
G36*
X440600Y522070D02*
X440321Y522033D01*
X439689Y521771D01*
X439146Y521354D01*
X438729Y520811D01*
X438467Y520179D01*
X438430Y519900D01*
X440600D01*
Y522070D01*
D02*
G37*
G36*
X441400D02*
Y519900D01*
X443570D01*
X443533Y520179D01*
X443271Y520811D01*
X442854Y521354D01*
X442311Y521771D01*
X441679Y522033D01*
X441400Y522070D01*
D02*
G37*
G36*
X318500Y523158D02*
X317821Y523069D01*
X317189Y522807D01*
X316646Y522390D01*
X316229Y521847D01*
X315967Y521214D01*
X315878Y520535D01*
X315967Y519857D01*
X316229Y519224D01*
X316646Y518681D01*
X317189Y518264D01*
X317821Y518002D01*
X318500Y517913D01*
X319179Y518002D01*
X319811Y518264D01*
X320354Y518681D01*
X320771Y519224D01*
X321033Y519857D01*
X321122Y520535D01*
X321033Y521214D01*
X320771Y521847D01*
X320354Y522390D01*
X319811Y522807D01*
X319179Y523069D01*
X318500Y523158D01*
D02*
G37*
G36*
X511000Y523622D02*
X510321Y523533D01*
X509689Y523271D01*
X509146Y522854D01*
X508729Y522311D01*
X508467Y521679D01*
X508378Y521000D01*
X508467Y520321D01*
X508729Y519689D01*
X509146Y519146D01*
X509689Y518729D01*
X510321Y518467D01*
X511000Y518378D01*
X511679Y518467D01*
X512311Y518729D01*
X512854Y519146D01*
X513271Y519689D01*
X513533Y520321D01*
X513622Y521000D01*
X513533Y521679D01*
X513271Y522311D01*
X512854Y522854D01*
X512311Y523271D01*
X511679Y523533D01*
X511000Y523622D01*
D02*
G37*
G36*
X499600Y522100D02*
X497430D01*
X497467Y521821D01*
X497729Y521189D01*
X498146Y520646D01*
X498689Y520229D01*
X499321Y519967D01*
X499600Y519930D01*
Y522100D01*
D02*
G37*
G36*
X521570D02*
X519400D01*
Y519930D01*
X519679Y519967D01*
X520311Y520229D01*
X520854Y520646D01*
X521271Y521189D01*
X521533Y521821D01*
X521570Y522100D01*
D02*
G37*
G36*
X481000Y526622D02*
X480321Y526533D01*
X479689Y526271D01*
X479146Y525854D01*
X478729Y525311D01*
X478467Y524679D01*
X478378Y524000D01*
X478467Y523321D01*
X478729Y522689D01*
X479146Y522146D01*
X479689Y521729D01*
X480321Y521467D01*
X481000Y521378D01*
X481679Y521467D01*
X482311Y521729D01*
X482854Y522146D01*
X483271Y522689D01*
X483533Y523321D01*
X483622Y524000D01*
X483533Y524679D01*
X483271Y525311D01*
X482854Y525854D01*
X482311Y526271D01*
X481679Y526533D01*
X481000Y526622D01*
D02*
G37*
G36*
X502570Y522100D02*
X500400D01*
Y519930D01*
X500679Y519967D01*
X501311Y520229D01*
X501854Y520646D01*
X502271Y521189D01*
X502533Y521821D01*
X502570Y522100D01*
D02*
G37*
G36*
X518600D02*
X516430D01*
X516467Y521821D01*
X516729Y521189D01*
X517146Y520646D01*
X517689Y520229D01*
X518321Y519967D01*
X518600Y519930D01*
Y522100D01*
D02*
G37*
G36*
X368000Y523040D02*
X367321Y522950D01*
X366689Y522688D01*
X366146Y522272D01*
X365729Y521729D01*
X365467Y521096D01*
X365378Y520417D01*
X365467Y519739D01*
X365729Y519106D01*
X366146Y518563D01*
X366689Y518146D01*
X367321Y517884D01*
X368000Y517795D01*
X368679Y517884D01*
X369311Y518146D01*
X369854Y518563D01*
X370271Y519106D01*
X370533Y519739D01*
X370622Y520417D01*
X370533Y521096D01*
X370271Y521729D01*
X369854Y522272D01*
X369311Y522688D01*
X368679Y522950D01*
X368000Y523040D01*
D02*
G37*
G36*
X433500Y516122D02*
X432821Y516033D01*
X432189Y515771D01*
X431646Y515354D01*
X431229Y514811D01*
X430967Y514179D01*
X430878Y513500D01*
X430967Y512821D01*
X431229Y512189D01*
X431646Y511646D01*
X432189Y511229D01*
X432821Y510967D01*
X433500Y510878D01*
X434179Y510967D01*
X434811Y511229D01*
X435354Y511646D01*
X435771Y512189D01*
X436033Y512821D01*
X436122Y513500D01*
X436033Y514179D01*
X435771Y514811D01*
X435354Y515354D01*
X434811Y515771D01*
X434179Y516033D01*
X433500Y516122D01*
D02*
G37*
G36*
X297474Y514973D02*
X297026Y514914D01*
X296235Y514587D01*
X295556Y514066D01*
X295035Y513387D01*
X294708Y512597D01*
X294649Y512148D01*
X297474D01*
Y514973D01*
D02*
G37*
G36*
X304600Y511600D02*
X302430D01*
X302467Y511321D01*
X302729Y510689D01*
X303146Y510146D01*
X303689Y509729D01*
X304321Y509467D01*
X304600Y509430D01*
Y511600D01*
D02*
G37*
G36*
X307570D02*
X305400D01*
Y509430D01*
X305679Y509467D01*
X306311Y509729D01*
X306854Y510146D01*
X307271Y510689D01*
X307533Y511321D01*
X307570Y511600D01*
D02*
G37*
G36*
X298274Y514973D02*
Y512148D01*
X301099D01*
X301040Y512597D01*
X300713Y513387D01*
X300192Y514066D01*
X299513Y514587D01*
X298722Y514914D01*
X298274Y514973D01*
D02*
G37*
G36*
X440600Y519100D02*
X438430D01*
X438467Y518821D01*
X438729Y518189D01*
X439146Y517646D01*
X439689Y517229D01*
X440321Y516967D01*
X440600Y516930D01*
Y519100D01*
D02*
G37*
G36*
X443570D02*
X441400D01*
Y516930D01*
X441679Y516967D01*
X442311Y517229D01*
X442854Y517646D01*
X443271Y518189D01*
X443533Y518821D01*
X443570Y519100D01*
D02*
G37*
G36*
X304600Y514570D02*
X304321Y514533D01*
X303689Y514271D01*
X303146Y513854D01*
X302729Y513311D01*
X302467Y512679D01*
X302430Y512400D01*
X304600D01*
Y514570D01*
D02*
G37*
G36*
X305400D02*
Y512400D01*
X307570D01*
X307533Y512679D01*
X307271Y513311D01*
X306854Y513854D01*
X306311Y514271D01*
X305679Y514533D01*
X305400Y514570D01*
D02*
G37*
G36*
X441000Y541622D02*
X440321Y541533D01*
X439689Y541271D01*
X439146Y540854D01*
X438729Y540311D01*
X438467Y539679D01*
X438378Y539000D01*
X438467Y538321D01*
X438729Y537689D01*
X439146Y537146D01*
X439689Y536729D01*
X440321Y536467D01*
X441000Y536378D01*
X441679Y536467D01*
X442311Y536729D01*
X442854Y537146D01*
X443271Y537689D01*
X443533Y538321D01*
X443622Y539000D01*
X443533Y539679D01*
X443271Y540311D01*
X442854Y540854D01*
X442311Y541271D01*
X441679Y541533D01*
X441000Y541622D01*
D02*
G37*
G36*
X554201Y542122D02*
X553522Y542033D01*
X552890Y541771D01*
X552347Y541354D01*
X551930Y540811D01*
X551668Y540179D01*
X551579Y539500D01*
X551668Y538821D01*
X551930Y538189D01*
X552347Y537646D01*
X552890Y537229D01*
X553522Y536967D01*
X554201Y536878D01*
X554880Y536967D01*
X555513Y537229D01*
X556056Y537646D01*
X556472Y538189D01*
X556734Y538821D01*
X556824Y539500D01*
X556734Y540179D01*
X556472Y540811D01*
X556056Y541354D01*
X555513Y541771D01*
X554880Y542033D01*
X554201Y542122D01*
D02*
G37*
G36*
X419000Y540622D02*
X418321Y540533D01*
X417689Y540271D01*
X417146Y539854D01*
X416729Y539311D01*
X416467Y538679D01*
X416378Y538000D01*
X416467Y537321D01*
X416729Y536689D01*
X417146Y536146D01*
X417689Y535729D01*
X418321Y535467D01*
X419000Y535378D01*
X419679Y535467D01*
X420311Y535729D01*
X420854Y536146D01*
X421271Y536689D01*
X421533Y537321D01*
X421622Y538000D01*
X421533Y538679D01*
X421271Y539311D01*
X420854Y539854D01*
X420311Y540271D01*
X419679Y540533D01*
X419000Y540622D01*
D02*
G37*
G36*
X501500Y546122D02*
X500821Y546033D01*
X500189Y545771D01*
X499646Y545354D01*
X499229Y544811D01*
X498967Y544179D01*
X498878Y543500D01*
X498967Y542821D01*
X499229Y542189D01*
X499646Y541646D01*
X500161Y541250D01*
Y540750D01*
X499646Y540354D01*
X499229Y539811D01*
X498967Y539179D01*
X498878Y538500D01*
X498967Y537821D01*
X499229Y537189D01*
X499646Y536646D01*
X500189Y536229D01*
X500821Y535967D01*
X501500Y535878D01*
X502179Y535967D01*
X502811Y536229D01*
X503354Y536646D01*
X503771Y537189D01*
X504033Y537821D01*
X504122Y538500D01*
X504033Y539179D01*
X503771Y539811D01*
X503354Y540354D01*
X502811Y540771D01*
Y541229D01*
X503354Y541646D01*
X503771Y542189D01*
X504033Y542821D01*
X504122Y543500D01*
X504033Y544179D01*
X503771Y544811D01*
X503354Y545354D01*
X502811Y545771D01*
X502179Y546033D01*
X501500Y546122D01*
D02*
G37*
G36*
X329100Y539100D02*
X326930D01*
X326967Y538821D01*
X327229Y538189D01*
X327646Y537646D01*
X328189Y537229D01*
X328821Y536967D01*
X329100Y536930D01*
Y539100D01*
D02*
G37*
G36*
X528000Y541100D02*
X525830D01*
X525867Y540821D01*
X526129Y540189D01*
X526546Y539646D01*
X527089Y539229D01*
X527721Y538967D01*
X528000Y538930D01*
Y541100D01*
D02*
G37*
G36*
X530970D02*
X528800D01*
Y538930D01*
X529079Y538967D01*
X529711Y539229D01*
X530254Y539646D01*
X530671Y540189D01*
X530933Y540821D01*
X530970Y541100D01*
D02*
G37*
G36*
X332070Y539100D02*
X329900D01*
Y536930D01*
X330179Y536967D01*
X330811Y537229D01*
X331354Y537646D01*
X331771Y538189D01*
X332033Y538821D01*
X332070Y539100D01*
D02*
G37*
G36*
X561000Y542622D02*
X560321Y542533D01*
X559689Y542271D01*
X559146Y541854D01*
X558729Y541311D01*
X558467Y540679D01*
X558378Y540000D01*
X558467Y539321D01*
X558729Y538689D01*
X559146Y538146D01*
X559689Y537729D01*
X560321Y537467D01*
X561000Y537378D01*
X561679Y537467D01*
X562311Y537729D01*
X562854Y538146D01*
X563271Y538689D01*
X563533Y539321D01*
X563622Y540000D01*
X563533Y540679D01*
X563271Y541311D01*
X562854Y541854D01*
X562311Y542271D01*
X561679Y542533D01*
X561000Y542622D01*
D02*
G37*
G36*
X452500Y540122D02*
X451821Y540033D01*
X451189Y539771D01*
X450646Y539354D01*
X450229Y538811D01*
X449967Y538179D01*
X449878Y537500D01*
X449967Y536821D01*
X450229Y536189D01*
X450646Y535646D01*
X451189Y535229D01*
X451821Y534967D01*
X452500Y534878D01*
X453179Y534967D01*
X453811Y535229D01*
X454354Y535646D01*
X454771Y536189D01*
X455033Y536821D01*
X455122Y537500D01*
X455033Y538179D01*
X454771Y538811D01*
X454354Y539354D01*
X453811Y539771D01*
X453179Y540033D01*
X452500Y540122D01*
D02*
G37*
G36*
X518600Y525070D02*
X518321Y525033D01*
X517689Y524771D01*
X517146Y524354D01*
X516729Y523811D01*
X516467Y523179D01*
X516430Y522900D01*
X518600D01*
Y525070D01*
D02*
G37*
G36*
X519400D02*
Y522900D01*
X521570D01*
X521533Y523179D01*
X521271Y523811D01*
X520854Y524354D01*
X520311Y524771D01*
X519679Y525033D01*
X519400Y525070D01*
D02*
G37*
G36*
X499600D02*
X499321Y525033D01*
X498689Y524771D01*
X498146Y524354D01*
X497729Y523811D01*
X497467Y523179D01*
X497430Y522900D01*
X499600D01*
Y525070D01*
D02*
G37*
G36*
X500400D02*
Y522900D01*
X502570D01*
X502533Y523179D01*
X502271Y523811D01*
X501854Y524354D01*
X501311Y524771D01*
X500679Y525033D01*
X500400Y525070D01*
D02*
G37*
G36*
X296000Y537140D02*
X294799Y536982D01*
X293680Y536518D01*
X292719Y535781D01*
X291982Y534820D01*
X291518Y533701D01*
X291360Y532500D01*
X291518Y531299D01*
X291982Y530180D01*
X292719Y529219D01*
X293680Y528482D01*
X294799Y528018D01*
X296000Y527860D01*
X297201Y528018D01*
X298320Y528482D01*
X299281Y529219D01*
X300018Y530180D01*
X300482Y531299D01*
X300640Y532500D01*
X300482Y533701D01*
X300018Y534820D01*
X299281Y535781D01*
X298320Y536518D01*
X297201Y536982D01*
X296000Y537140D01*
D02*
G37*
G36*
X504500Y536122D02*
X503821Y536033D01*
X503189Y535771D01*
X502646Y535354D01*
X502229Y534811D01*
X501967Y534179D01*
X501878Y533500D01*
X501967Y532821D01*
X502229Y532189D01*
X502646Y531646D01*
X503189Y531229D01*
X503821Y530967D01*
X504500Y530878D01*
X505179Y530967D01*
X505811Y531229D01*
X506354Y531646D01*
X506771Y532189D01*
X507033Y532821D01*
X507122Y533500D01*
X507033Y534179D01*
X506771Y534811D01*
X506354Y535354D01*
X505811Y535771D01*
X505179Y536033D01*
X504500Y536122D01*
D02*
G37*
G36*
X532388Y539923D02*
X531709Y539833D01*
X531077Y539571D01*
X530534Y539154D01*
X530117Y538611D01*
X529855Y537979D01*
X529766Y537300D01*
X529855Y536621D01*
X530117Y535989D01*
X530534Y535446D01*
X531077Y535029D01*
X531709Y534767D01*
X532388Y534678D01*
X533067Y534767D01*
X533699Y535029D01*
X534242Y535446D01*
X534659Y535989D01*
X534921Y536621D01*
X535011Y537300D01*
X534921Y537979D01*
X534659Y538611D01*
X534242Y539154D01*
X533699Y539571D01*
X533067Y539833D01*
X532388Y539923D01*
D02*
G37*
G36*
X424000Y535622D02*
X423321Y535533D01*
X422689Y535271D01*
X422146Y534854D01*
X421729Y534311D01*
X421467Y533679D01*
X421378Y533000D01*
X421467Y532321D01*
X421729Y531689D01*
X422146Y531146D01*
X422689Y530729D01*
X423321Y530467D01*
X424000Y530378D01*
X424679Y530467D01*
X425311Y530729D01*
X425854Y531146D01*
X426271Y531689D01*
X426533Y532321D01*
X426622Y533000D01*
X426533Y533679D01*
X426271Y534311D01*
X425854Y534854D01*
X425311Y535271D01*
X424679Y535533D01*
X424000Y535622D01*
D02*
G37*
G36*
X443500Y536122D02*
X442821Y536033D01*
X442189Y535771D01*
X441646Y535354D01*
X441229Y534811D01*
X440967Y534179D01*
X440878Y533500D01*
X440967Y532821D01*
X441229Y532189D01*
X441646Y531646D01*
X442189Y531229D01*
X442821Y530967D01*
X443500Y530878D01*
X444179Y530967D01*
X444811Y531229D01*
X445354Y531646D01*
X445771Y532189D01*
X446033Y532821D01*
X446122Y533500D01*
X446033Y534179D01*
X445771Y534811D01*
X445354Y535354D01*
X444811Y535771D01*
X444179Y536033D01*
X443500Y536122D01*
D02*
G37*
G36*
X353100Y480070D02*
X352821Y480033D01*
X352189Y479771D01*
X351646Y479354D01*
X351229Y478811D01*
X350967Y478179D01*
X350930Y477900D01*
X353100D01*
Y480070D01*
D02*
G37*
G36*
X353900D02*
Y477900D01*
X356070D01*
X356033Y478179D01*
X355771Y478811D01*
X355354Y479354D01*
X354811Y479771D01*
X354179Y480033D01*
X353900Y480070D01*
D02*
G37*
G36*
X536000Y482622D02*
X535321Y482533D01*
X534689Y482271D01*
X534146Y481854D01*
X533729Y481311D01*
X533467Y480679D01*
X533378Y480000D01*
X533467Y479321D01*
X533729Y478689D01*
X534146Y478146D01*
X534689Y477729D01*
X535321Y477467D01*
X536000Y477378D01*
X536679Y477467D01*
X537311Y477729D01*
X537854Y478146D01*
X538271Y478689D01*
X538533Y479321D01*
X538622Y480000D01*
X538533Y480679D01*
X538271Y481311D01*
X537854Y481854D01*
X537311Y482271D01*
X536679Y482533D01*
X536000Y482622D01*
D02*
G37*
G36*
X571500D02*
X570821Y482533D01*
X570189Y482271D01*
X569646Y481854D01*
X569229Y481311D01*
X568967Y480679D01*
X568878Y480000D01*
X568967Y479321D01*
X569229Y478689D01*
X569646Y478146D01*
X570189Y477729D01*
X570821Y477467D01*
X571500Y477378D01*
X572179Y477467D01*
X572811Y477729D01*
X573354Y478146D01*
X573771Y478689D01*
X574033Y479321D01*
X574122Y480000D01*
X574033Y480679D01*
X573771Y481311D01*
X573354Y481854D01*
X572811Y482271D01*
X572179Y482533D01*
X571500Y482622D01*
D02*
G37*
G36*
X589100Y480600D02*
X586930D01*
X586967Y480321D01*
X587229Y479689D01*
X587646Y479146D01*
X588189Y478729D01*
X588821Y478467D01*
X589100Y478430D01*
Y480600D01*
D02*
G37*
G36*
X415900Y481070D02*
Y478900D01*
X418070D01*
X418033Y479179D01*
X417771Y479811D01*
X417354Y480354D01*
X416811Y480771D01*
X416179Y481033D01*
X415900Y481070D01*
D02*
G37*
G36*
X495600D02*
X495321Y481033D01*
X494689Y480771D01*
X494146Y480354D01*
X493729Y479811D01*
X493467Y479179D01*
X493430Y478900D01*
X495600D01*
Y481070D01*
D02*
G37*
G36*
X592070Y480600D02*
X589900D01*
Y478430D01*
X590179Y478467D01*
X590811Y478729D01*
X591354Y479146D01*
X591771Y479689D01*
X592033Y480321D01*
X592070Y480600D01*
D02*
G37*
G36*
X415100Y481070D02*
X414821Y481033D01*
X414189Y480771D01*
X413646Y480354D01*
X413229Y479811D01*
X412967Y479179D01*
X412930Y478900D01*
X415100D01*
Y481070D01*
D02*
G37*
G36*
X498570Y478100D02*
X496400D01*
Y475930D01*
X496679Y475967D01*
X497311Y476229D01*
X497854Y476646D01*
X498271Y477189D01*
X498533Y477821D01*
X498570Y478100D01*
D02*
G37*
G36*
X356070Y477100D02*
X353900D01*
Y474930D01*
X354179Y474967D01*
X354811Y475229D01*
X355354Y475646D01*
X355771Y476189D01*
X356033Y476821D01*
X356070Y477100D01*
D02*
G37*
G36*
X560000Y481122D02*
X559321Y481033D01*
X558689Y480771D01*
X558146Y480354D01*
X557729Y479811D01*
X557467Y479179D01*
X557378Y478500D01*
X557467Y477821D01*
X557729Y477189D01*
X558146Y476646D01*
X558689Y476229D01*
X559321Y475967D01*
X560000Y475878D01*
X560679Y475967D01*
X561311Y476229D01*
X561854Y476646D01*
X562271Y477189D01*
X562533Y477821D01*
X562622Y478500D01*
X562533Y479179D01*
X562271Y479811D01*
X561854Y480354D01*
X561311Y480771D01*
X560679Y481033D01*
X560000Y481122D01*
D02*
G37*
G36*
X303939Y479562D02*
X303261Y479472D01*
X302628Y479210D01*
X302085Y478794D01*
X301668Y478251D01*
X301406Y477618D01*
X301317Y476939D01*
X301406Y476261D01*
X301668Y475628D01*
X302085Y475085D01*
X302628Y474668D01*
X303261Y474406D01*
X303939Y474317D01*
X304618Y474406D01*
X305251Y474668D01*
X305794Y475085D01*
X306210Y475628D01*
X306472Y476261D01*
X306562Y476939D01*
X306472Y477618D01*
X306210Y478251D01*
X305794Y478794D01*
X305251Y479210D01*
X304618Y479472D01*
X303939Y479562D01*
D02*
G37*
G36*
X353100Y477100D02*
X350930D01*
X350967Y476821D01*
X351229Y476189D01*
X351646Y475646D01*
X352189Y475229D01*
X352821Y474967D01*
X353100Y474930D01*
Y477100D01*
D02*
G37*
G36*
X391100Y478070D02*
X390821Y478033D01*
X390189Y477771D01*
X389646Y477354D01*
X389229Y476811D01*
X388967Y476179D01*
X388930Y475900D01*
X391100D01*
Y478070D01*
D02*
G37*
G36*
X418070Y478100D02*
X415900D01*
Y475930D01*
X416179Y475967D01*
X416811Y476229D01*
X417354Y476646D01*
X417771Y477189D01*
X418033Y477821D01*
X418070Y478100D01*
D02*
G37*
G36*
X495600D02*
X493430D01*
X493467Y477821D01*
X493729Y477189D01*
X494146Y476646D01*
X494689Y476229D01*
X495321Y475967D01*
X495600Y475930D01*
Y478100D01*
D02*
G37*
G36*
X391900Y478070D02*
Y475900D01*
X394070D01*
X394033Y476179D01*
X393771Y476811D01*
X393354Y477354D01*
X392811Y477771D01*
X392179Y478033D01*
X391900Y478070D01*
D02*
G37*
G36*
X415100Y478100D02*
X412930D01*
X412967Y477821D01*
X413229Y477189D01*
X413646Y476646D01*
X414189Y476229D01*
X414821Y475967D01*
X415100Y475930D01*
Y478100D01*
D02*
G37*
G36*
X290000Y507152D02*
X289152Y507040D01*
X288361Y506713D01*
X287682Y506192D01*
X287161Y505513D01*
X286834Y504722D01*
X286722Y503874D01*
X286834Y503026D01*
X287161Y502235D01*
X287682Y501556D01*
X288361Y501035D01*
X289152Y500708D01*
X290000Y500596D01*
X290848Y500708D01*
X291639Y501035D01*
X292318Y501556D01*
X292839Y502235D01*
X293166Y503026D01*
X293278Y503874D01*
X293166Y504722D01*
X292839Y505513D01*
X292318Y506192D01*
X291639Y506713D01*
X290848Y507040D01*
X290000Y507152D01*
D02*
G37*
G36*
X297874D02*
X297026Y507040D01*
X296235Y506713D01*
X295556Y506192D01*
X295035Y505513D01*
X294708Y504722D01*
X294596Y503874D01*
X294708Y503026D01*
X295035Y502235D01*
X295556Y501556D01*
X296235Y501035D01*
X297026Y500708D01*
X297874Y500596D01*
X298722Y500708D01*
X299513Y501035D01*
X300192Y501556D01*
X300713Y502235D01*
X301040Y503026D01*
X301152Y503874D01*
X301040Y504722D01*
X300713Y505513D01*
X300192Y506192D01*
X299513Y506713D01*
X298722Y507040D01*
X297874Y507152D01*
D02*
G37*
G36*
X529600Y500570D02*
X529321Y500533D01*
X528689Y500271D01*
X528146Y499854D01*
X527729Y499311D01*
X527467Y498679D01*
X527430Y498400D01*
X529600D01*
Y500570D01*
D02*
G37*
G36*
X530400D02*
Y498400D01*
X532570D01*
X532533Y498679D01*
X532271Y499311D01*
X531854Y499854D01*
X531311Y500271D01*
X530679Y500533D01*
X530400Y500570D01*
D02*
G37*
G36*
X530500Y507122D02*
X529821Y507033D01*
X529189Y506771D01*
X528646Y506354D01*
X528229Y505811D01*
X527967Y505179D01*
X527878Y504500D01*
X527967Y503821D01*
X528229Y503189D01*
X528646Y502646D01*
X529189Y502229D01*
X529821Y501967D01*
X530500Y501878D01*
X531179Y501967D01*
X531811Y502229D01*
X532354Y502646D01*
X532771Y503189D01*
X533033Y503821D01*
X533122Y504500D01*
X533033Y505179D01*
X532771Y505811D01*
X532354Y506354D01*
X531811Y506771D01*
X531179Y507033D01*
X530500Y507122D01*
D02*
G37*
G36*
X297474Y511348D02*
X294649D01*
X294708Y510900D01*
X295035Y510109D01*
X295556Y509430D01*
X296235Y508909D01*
X297026Y508582D01*
X297474Y508523D01*
Y511348D01*
D02*
G37*
G36*
X301099D02*
X298274D01*
Y508523D01*
X298722Y508582D01*
X299513Y508909D01*
X300192Y509430D01*
X300713Y510109D01*
X301040Y510900D01*
X301099Y511348D01*
D02*
G37*
G36*
X418500Y513622D02*
X417821Y513533D01*
X417189Y513271D01*
X416646Y512854D01*
X416229Y512311D01*
X415967Y511679D01*
X415878Y511000D01*
X415967Y510321D01*
X416229Y509689D01*
X416646Y509146D01*
X417189Y508729D01*
X417821Y508467D01*
X418500Y508378D01*
X419179Y508467D01*
X419811Y508729D01*
X420354Y509146D01*
X420443Y509261D01*
X420926Y509132D01*
X420967Y508821D01*
X421229Y508189D01*
X421646Y507646D01*
X422189Y507229D01*
X422821Y506967D01*
X423500Y506878D01*
X424179Y506967D01*
X424811Y507229D01*
X425354Y507646D01*
X425771Y508189D01*
X426033Y508821D01*
X426122Y509500D01*
X426033Y510179D01*
X425771Y510811D01*
X425354Y511354D01*
X424811Y511771D01*
X424179Y512033D01*
X423500Y512122D01*
X422821Y512033D01*
X422189Y511771D01*
X421646Y511354D01*
X421557Y511239D01*
X421074Y511368D01*
X421033Y511679D01*
X420771Y512311D01*
X420354Y512854D01*
X419811Y513271D01*
X419179Y513533D01*
X418500Y513622D01*
D02*
G37*
G36*
X290000Y515026D02*
X289152Y514914D01*
X288361Y514587D01*
X287682Y514066D01*
X287161Y513387D01*
X286834Y512597D01*
X286722Y511748D01*
X286834Y510900D01*
X287161Y510109D01*
X287682Y509430D01*
X288361Y508909D01*
X289152Y508582D01*
X290000Y508470D01*
X290848Y508582D01*
X291639Y508909D01*
X292318Y509430D01*
X292839Y510109D01*
X293166Y510900D01*
X293278Y511748D01*
X293166Y512597D01*
X292839Y513387D01*
X292318Y514066D01*
X291639Y514587D01*
X290848Y514914D01*
X290000Y515026D01*
D02*
G37*
G36*
X344500Y509648D02*
X343038Y509456D01*
X341676Y508892D01*
X340506Y507994D01*
X339608Y506824D01*
X339044Y505462D01*
X338852Y504000D01*
X339044Y502538D01*
X339608Y501176D01*
X340506Y500006D01*
X341676Y499108D01*
X343038Y498544D01*
X344500Y498352D01*
X345962Y498544D01*
X347324Y499108D01*
X348494Y500006D01*
X349392Y501176D01*
X349956Y502538D01*
X350148Y504000D01*
X349956Y505462D01*
X349392Y506824D01*
X348494Y507994D01*
X347324Y508892D01*
X345962Y509456D01*
X344500Y509648D01*
D02*
G37*
G36*
X589900Y483570D02*
Y481400D01*
X592070D01*
X592033Y481679D01*
X591771Y482311D01*
X591354Y482854D01*
X590811Y483271D01*
X590179Y483533D01*
X589900Y483570D01*
D02*
G37*
G36*
X532500Y487122D02*
X531821Y487033D01*
X531189Y486771D01*
X530646Y486354D01*
X530229Y485811D01*
X529967Y485179D01*
X529878Y484500D01*
X529967Y483821D01*
X530229Y483189D01*
X530646Y482646D01*
X531189Y482229D01*
X531821Y481967D01*
X532500Y481878D01*
X533179Y481967D01*
X533811Y482229D01*
X534354Y482646D01*
X534771Y483189D01*
X535033Y483821D01*
X535122Y484500D01*
X535033Y485179D01*
X534771Y485811D01*
X534354Y486354D01*
X533811Y486771D01*
X533179Y487033D01*
X532500Y487122D01*
D02*
G37*
G36*
X496400Y481070D02*
Y478900D01*
X498570D01*
X498533Y479179D01*
X498271Y479811D01*
X497854Y480354D01*
X497311Y480771D01*
X496679Y481033D01*
X496400Y481070D01*
D02*
G37*
G36*
X589100Y483570D02*
X588821Y483533D01*
X588189Y483271D01*
X587646Y482854D01*
X587229Y482311D01*
X586967Y481679D01*
X586930Y481400D01*
X589100D01*
Y483570D01*
D02*
G37*
G36*
X429000Y497122D02*
X428321Y497033D01*
X427689Y496771D01*
X427146Y496354D01*
X426729Y495811D01*
X426467Y495179D01*
X426378Y494500D01*
X426467Y493821D01*
X426729Y493189D01*
X427146Y492646D01*
X427689Y492229D01*
X428321Y491967D01*
X429000Y491878D01*
X429679Y491967D01*
X430311Y492229D01*
X430854Y492646D01*
X431271Y493189D01*
X431533Y493821D01*
X431622Y494500D01*
X431533Y495179D01*
X431271Y495811D01*
X430854Y496354D01*
X430311Y496771D01*
X429679Y497033D01*
X429000Y497122D01*
D02*
G37*
G36*
X529600Y497600D02*
X527430D01*
X527467Y497321D01*
X527729Y496689D01*
X528146Y496146D01*
X528689Y495729D01*
X529321Y495467D01*
X529600Y495430D01*
Y497600D01*
D02*
G37*
G36*
X532570D02*
X530400D01*
Y495430D01*
X530679Y495467D01*
X531311Y495729D01*
X531854Y496146D01*
X532271Y496689D01*
X532533Y497321D01*
X532570Y497600D01*
D02*
G37*
G36*
X297874Y499278D02*
X297026Y499166D01*
X296235Y498839D01*
X295556Y498318D01*
X295035Y497639D01*
X294708Y496848D01*
X294596Y496000D01*
X294708Y495152D01*
X295035Y494361D01*
X295556Y493682D01*
X296235Y493161D01*
X297026Y492834D01*
X297874Y492722D01*
X298722Y492834D01*
X299513Y493161D01*
X300192Y493682D01*
X300713Y494361D01*
X301040Y495152D01*
X301152Y496000D01*
X301040Y496848D01*
X300713Y497639D01*
X300192Y498318D01*
X299513Y498839D01*
X298722Y499166D01*
X297874Y499278D01*
D02*
G37*
G36*
X293250Y499250D02*
X286750D01*
Y492750D01*
X293250D01*
Y499250D01*
D02*
G37*
%LPD*%
D39*
X50000Y601000D02*
D03*
X100000Y600000D02*
D03*
X150000D02*
D03*
X200000D02*
D03*
X250000D02*
D03*
X300000D02*
D03*
X350000D02*
D03*
X500000D02*
D03*
X550000D02*
D03*
X450000D02*
D03*
X400000D02*
D03*
D40*
X550000Y450000D02*
D03*
X500000Y150000D02*
D03*
X300000Y450000D02*
D03*
D41*
X149721Y548996D02*
D03*
X122240D02*
D03*
D43*
X550000Y100000D02*
D03*
D44*
Y550000D02*
D03*
D50*
X272319Y211000D02*
D03*
D52*
X322000Y38000D02*
D03*
D53*
Y61622D02*
D03*
Y14378D02*
D03*
D57*
X297874Y511748D02*
D03*
D59*
X584500Y93500D02*
D03*
X371000Y280000D02*
D03*
X532500Y465000D02*
D03*
X441000Y519500D02*
D03*
X511500Y578000D02*
D03*
X465000Y557500D02*
D03*
X325000Y589500D02*
D03*
X526500Y138000D02*
D03*
X395100Y146100D02*
D03*
X588500Y144500D02*
D03*
X589500Y481000D02*
D03*
X391500Y475500D02*
D03*
X353500Y477500D02*
D03*
X502500Y553500D02*
D03*
X305000Y512000D02*
D03*
X500000Y522500D02*
D03*
X519000D02*
D03*
X415500Y478500D02*
D03*
X351500Y569000D02*
D03*
X496000Y478500D02*
D03*
X472000Y473000D02*
D03*
X512500Y227000D02*
D03*
X558500Y292500D02*
D03*
X555000Y223000D02*
D03*
X529000Y84000D02*
D03*
X512000Y120500D02*
D03*
X467000Y83000D02*
D03*
X408500Y88500D02*
D03*
X400500Y80500D02*
D03*
X540500Y175500D02*
D03*
X360500Y158000D02*
D03*
X378000Y272000D02*
D03*
X404000Y259000D02*
D03*
X354000Y365500D02*
D03*
X357500Y410500D02*
D03*
X374500Y336000D02*
D03*
X522500Y335000D02*
D03*
X530000Y333000D02*
D03*
X523000Y391000D02*
D03*
X546000Y367500D02*
D03*
Y405000D02*
D03*
X368000Y99500D02*
D03*
X381000Y93000D02*
D03*
X449000Y118500D02*
D03*
X329500Y539500D02*
D03*
X363500Y212500D02*
D03*
X406500Y322000D02*
D03*
X382500Y120000D02*
D03*
X530000Y498000D02*
D03*
X477000Y115000D02*
D03*
X540759Y242600D02*
D03*
X580000Y573000D02*
D03*
Y567500D02*
D03*
X581000Y559500D02*
D03*
X594000Y547000D02*
D03*
X595500Y562000D02*
D03*
X596000Y573500D02*
D03*
X595000Y587000D02*
D03*
X566500Y595500D02*
D03*
X556743Y588770D02*
D03*
X557500Y577500D02*
D03*
X585500Y595000D02*
D03*
X346000Y548500D02*
D03*
X558800Y105357D02*
D03*
X528400Y541500D02*
D03*
X525500Y553500D02*
D03*
X560000Y561000D02*
D03*
X513000Y290500D02*
D03*
X487000Y94500D02*
D03*
X395000Y588000D02*
D03*
X423000Y588500D02*
D03*
X583000Y121500D02*
D03*
X542500Y207000D02*
D03*
X533500Y305000D02*
D03*
X463500Y593000D02*
D03*
X547500Y428500D02*
D03*
D60*
X299000Y176000D02*
D03*
D61*
X473000Y373000D02*
D03*
Y356500D02*
D03*
D63*
X551200Y420600D02*
D03*
X519600Y50100D02*
D03*
X579600D02*
D03*
X399600D02*
D03*
X550900Y360600D02*
D03*
X459600Y50100D02*
D03*
M02*
