%FSLAX25Y25*%
%MOIN*%
G70*
G01*
G75*
G04 Layer_Physical_Order=3*
G04 Layer_Color=16440176*
%ADD10C,0.00600*%
%ADD11R,0.03200X0.03800*%
%ADD12R,0.03937X0.11811*%
%ADD13R,0.03937X0.09449*%
%ADD14R,0.12992X0.09449*%
%ADD15R,0.03800X0.03200*%
%ADD16R,0.07087X0.13386*%
%ADD17R,0.11811X0.03937*%
%ADD18R,0.13386X0.07087*%
%ADD19R,0.09000X0.10000*%
%ADD20R,0.04724X0.01181*%
%ADD21O,0.08661X0.02362*%
G04:AMPARAMS|DCode=22|XSize=216.54mil|YSize=78.74mil|CornerRadius=0mil|HoleSize=0mil|Usage=FLASHONLY|Rotation=180.000|XOffset=0mil|YOffset=0mil|HoleType=Round|Shape=Octagon|*
%AMOCTAGOND22*
4,1,8,-0.10827,0.01969,-0.10827,-0.01969,-0.08858,-0.03937,0.08858,-0.03937,0.10827,-0.01969,0.10827,0.01969,0.08858,0.03937,-0.08858,0.03937,-0.10827,0.01969,0.0*
%
%ADD22OCTAGOND22*%

%ADD23R,0.21654X0.07874*%
G04:AMPARAMS|DCode=24|XSize=216.54mil|YSize=78.74mil|CornerRadius=0mil|HoleSize=0mil|Usage=FLASHONLY|Rotation=90.000|XOffset=0mil|YOffset=0mil|HoleType=Round|Shape=Octagon|*
%AMOCTAGOND24*
4,1,8,0.01969,0.10827,-0.01969,0.10827,-0.03937,0.08858,-0.03937,-0.08858,-0.01969,-0.10827,0.01969,-0.10827,0.03937,-0.08858,0.03937,0.08858,0.01969,0.10827,0.0*
%
%ADD24OCTAGOND24*%

%ADD25R,0.07874X0.21654*%
%ADD26R,0.03937X0.04331*%
%ADD27R,0.03740X0.02165*%
%ADD28R,0.10000X0.09000*%
%ADD29R,0.06299X0.13780*%
%ADD30C,0.00800*%
%ADD31C,0.01000*%
%ADD32C,0.04000*%
%ADD33C,0.06000*%
%ADD34C,0.08000*%
%ADD35C,0.01500*%
%ADD36C,0.02500*%
%ADD37C,0.10000*%
%ADD38C,0.03000*%
%ADD39C,0.25000*%
%ADD40C,0.20000*%
%ADD41R,0.08858X0.08858*%
%ADD42C,0.17716*%
%ADD43C,0.15000*%
%ADD44C,0.00250*%
%ADD45R,0.12000X0.12000*%
%ADD46C,0.06200*%
%ADD47R,0.12000X0.12000*%
%ADD48P,0.25569X8X202.5*%
G04:AMPARAMS|DCode=49|XSize=180mil|YSize=300mil|CornerRadius=0mil|HoleSize=0mil|Usage=FLASHONLY|Rotation=180.000|XOffset=0mil|YOffset=0mil|HoleType=Round|Shape=Octagon|*
%AMOCTAGOND49*
4,1,8,0.04500,-0.15000,-0.04500,-0.15000,-0.09000,-0.10500,-0.09000,0.10500,-0.04500,0.15000,0.04500,0.15000,0.09000,0.10500,0.09000,-0.10500,0.04500,-0.15000,0.0*
%
%ADD49OCTAGOND49*%

%ADD50C,0.09843*%
%ADD51P,0.10653X8X22.5*%
%ADD52P,0.25569X8X112.5*%
G04:AMPARAMS|DCode=53|XSize=180mil|YSize=300mil|CornerRadius=0mil|HoleSize=0mil|Usage=FLASHONLY|Rotation=90.000|XOffset=0mil|YOffset=0mil|HoleType=Round|Shape=Octagon|*
%AMOCTAGOND53*
4,1,8,-0.15000,-0.04500,-0.15000,0.04500,-0.10500,0.09000,0.10500,0.09000,0.15000,0.04500,0.15000,-0.04500,0.10500,-0.09000,-0.10500,-0.09000,-0.15000,-0.04500,0.0*
%
%ADD53OCTAGOND53*%

%ADD54C,0.08268*%
%ADD55C,0.14500*%
%ADD56C,0.06500*%
%ADD57C,0.05300*%
%ADD58R,0.05300X0.05300*%
%ADD59C,0.04000*%
%ADD60C,0.08000*%
%ADD61C,0.05000*%
%ADD62C,0.10000*%
%ADD63C,0.06000*%
%ADD64C,0.05000*%
G36*
X375000Y466500D02*
X359500Y451000D01*
Y412808D01*
X359052Y412587D01*
X358811Y412771D01*
X358179Y413033D01*
X357500Y413122D01*
X356821Y413033D01*
X356189Y412771D01*
X355646Y412354D01*
X355229Y411811D01*
X354967Y411179D01*
X354878Y410500D01*
X354967Y409821D01*
X355229Y409189D01*
X355646Y408646D01*
X356189Y408229D01*
X356821Y407967D01*
X357500Y407878D01*
X358179Y407967D01*
X358811Y408229D01*
X359052Y408413D01*
X359500Y408192D01*
Y358000D01*
X365500Y352000D01*
X365878D01*
Y335451D01*
X365000Y326500D01*
X362500D01*
Y322759D01*
X362467Y322679D01*
X362378Y322000D01*
X362378Y322000D01*
Y276500D01*
X362378Y276500D01*
X362467Y275821D01*
X362729Y275189D01*
X363146Y274646D01*
X365000Y272791D01*
Y272500D01*
X373400Y263600D01*
X373500Y259500D01*
Y204714D01*
X372646Y203860D01*
X372229Y203317D01*
X371967Y202684D01*
X371878Y202005D01*
X371878Y202005D01*
Y197500D01*
X371878Y197500D01*
X371967Y196821D01*
X372229Y196189D01*
X372646Y195646D01*
X373500Y194791D01*
Y176557D01*
X373321Y176533D01*
X372689Y176271D01*
X372146Y175854D01*
X371729Y175311D01*
X371467Y174679D01*
X371378Y174000D01*
X371467Y173321D01*
X371729Y172689D01*
X372146Y172146D01*
X372689Y171729D01*
X373321Y171467D01*
X373500Y171443D01*
Y119000D01*
X380100D01*
X380229Y118689D01*
X380646Y118146D01*
X381189Y117729D01*
X381821Y117467D01*
X382500Y117378D01*
X383179Y117467D01*
X383811Y117729D01*
X384354Y118146D01*
X384771Y118689D01*
X384900Y119000D01*
X436600D01*
X436729Y118689D01*
X437146Y118146D01*
X437689Y117729D01*
X438321Y117467D01*
X439000Y117378D01*
X439679Y117467D01*
X440311Y117729D01*
X440854Y118146D01*
X441271Y118689D01*
X441400Y119000D01*
X446064D01*
X446394Y118624D01*
X446378Y118500D01*
X446467Y117821D01*
X446729Y117189D01*
X447146Y116646D01*
X447689Y116229D01*
X448321Y115967D01*
X449000Y115878D01*
X449679Y115967D01*
X450311Y116229D01*
X450854Y116646D01*
X451271Y117189D01*
X451533Y117821D01*
X451622Y118500D01*
X451606Y118624D01*
X451936Y119000D01*
X456500D01*
X463500Y112000D01*
X464000Y112500D01*
X476241D01*
X476321Y112467D01*
X477000Y112378D01*
X477679Y112467D01*
X477759Y112500D01*
X482500D01*
Y97500D01*
X468436D01*
X468106Y97876D01*
X468122Y98000D01*
X468033Y98679D01*
X467771Y99311D01*
X467354Y99854D01*
X466811Y100271D01*
X466179Y100533D01*
X465500Y100622D01*
X464821Y100533D01*
X464189Y100271D01*
X463646Y99854D01*
X463229Y99311D01*
X462967Y98679D01*
X462878Y98000D01*
X462894Y97876D01*
X462564Y97500D01*
X370308D01*
X370087Y97948D01*
X370271Y98189D01*
X370533Y98821D01*
X370622Y99500D01*
X370533Y100179D01*
X370271Y100811D01*
X369854Y101354D01*
X369311Y101771D01*
X368679Y102033D01*
X368000Y102122D01*
X367321Y102033D01*
X366689Y101771D01*
X366146Y101354D01*
X365729Y100811D01*
X365467Y100179D01*
X365378Y99500D01*
X365467Y98821D01*
X365729Y98189D01*
X365913Y97948D01*
X365692Y97500D01*
X355000D01*
Y103000D01*
X342649Y115351D01*
Y138500D01*
X342500Y138861D01*
Y165167D01*
X342990Y165265D01*
X343229Y164689D01*
X343646Y164146D01*
X344189Y163729D01*
X344821Y163467D01*
X345100Y163430D01*
Y165999D01*
Y168570D01*
X344821Y168533D01*
X344189Y168271D01*
X343646Y167854D01*
X343229Y167311D01*
X342990Y166735D01*
X342500Y166833D01*
Y172000D01*
X344071Y173571D01*
X344321Y173467D01*
X345000Y173378D01*
X345679Y173467D01*
X346311Y173729D01*
X346854Y174146D01*
X347271Y174689D01*
X347533Y175321D01*
X347622Y176000D01*
X347533Y176679D01*
X347429Y176929D01*
X361000Y190500D01*
X352000Y199500D01*
Y217000D01*
X352448Y217221D01*
X352558Y217137D01*
X353495Y216749D01*
X354500Y216617D01*
X355505Y216749D01*
X356442Y217137D01*
X357246Y217754D01*
X357863Y218558D01*
X358251Y219495D01*
X358383Y220500D01*
X358251Y221505D01*
X357863Y222442D01*
X357246Y223246D01*
X356442Y223863D01*
X355505Y224251D01*
X354500Y224383D01*
X353495Y224251D01*
X352558Y223863D01*
X352448Y223779D01*
X352000Y224000D01*
Y228884D01*
X352448Y229105D01*
X353058Y228637D01*
X353995Y228249D01*
X355000Y228117D01*
X356005Y228249D01*
X356942Y228637D01*
X357746Y229254D01*
X358363Y230058D01*
X358751Y230995D01*
X358883Y232000D01*
X358751Y233005D01*
X358363Y233942D01*
X357746Y234746D01*
X356942Y235363D01*
X356005Y235751D01*
X355000Y235883D01*
X353995Y235751D01*
X353058Y235363D01*
X352448Y234895D01*
X352000Y235116D01*
Y268884D01*
X352448Y269105D01*
X353058Y268637D01*
X353995Y268249D01*
X355000Y268117D01*
X356005Y268249D01*
X356942Y268637D01*
X357746Y269254D01*
X358363Y270058D01*
X358751Y270995D01*
X358883Y272000D01*
X358751Y273005D01*
X358363Y273942D01*
X357746Y274746D01*
X356942Y275363D01*
X356005Y275751D01*
X355000Y275883D01*
X353995Y275751D01*
X353058Y275363D01*
X352448Y274895D01*
X352000Y275116D01*
Y279000D01*
X357000Y284000D01*
X356500Y284500D01*
Y285020D01*
X356533Y285100D01*
X356622Y285778D01*
X356622Y285779D01*
Y347500D01*
Y351994D01*
X356622Y351995D01*
X356533Y352673D01*
X356500Y352753D01*
Y353500D01*
X341008Y368992D01*
X341169Y369466D01*
X341179Y369467D01*
X341811Y369729D01*
X342354Y370146D01*
X342771Y370689D01*
X343033Y371321D01*
X343070Y371600D01*
X340499D01*
Y371999D01*
X340100D01*
Y374570D01*
X339821Y374533D01*
X339189Y374271D01*
X338646Y373854D01*
X338229Y373311D01*
X337967Y372679D01*
X337966Y372669D01*
X337492Y372508D01*
X336500Y373500D01*
Y482500D01*
X375000D01*
Y466500D01*
D02*
G37*
G36*
X484000Y477500D02*
X548502Y412998D01*
X548055Y412416D01*
X547693Y411540D01*
X547569Y410600D01*
X547693Y409660D01*
X548055Y408784D01*
X548632Y408033D01*
X549384Y407455D01*
X550260Y407093D01*
X551200Y406969D01*
X552140Y407093D01*
X553016Y407455D01*
X553598Y407902D01*
X561000Y400500D01*
Y294291D01*
X560527Y294130D01*
X560354Y294354D01*
X559811Y294771D01*
X559179Y295033D01*
X558500Y295122D01*
X557821Y295033D01*
X557189Y294771D01*
X556646Y294354D01*
X556229Y293811D01*
X555967Y293179D01*
X555878Y292500D01*
X555967Y291821D01*
X556229Y291189D01*
X556646Y290646D01*
X557189Y290229D01*
X557821Y289967D01*
X558500Y289878D01*
X559179Y289967D01*
X559811Y290229D01*
X560354Y290646D01*
X560527Y290870D01*
X561000Y290709D01*
Y271000D01*
X564492Y267508D01*
X564331Y267034D01*
X564321Y267033D01*
X563689Y266771D01*
X563146Y266354D01*
X562729Y265811D01*
X562467Y265179D01*
X562378Y264500D01*
X562467Y263821D01*
X562729Y263189D01*
X563146Y262646D01*
X563689Y262229D01*
X564321Y261967D01*
X565000Y261878D01*
X565679Y261967D01*
X566311Y262229D01*
X566854Y262646D01*
X567271Y263189D01*
X567533Y263821D01*
X567534Y263831D01*
X568008Y263992D01*
X576500Y255500D01*
Y161500D01*
X583000Y155000D01*
Y145000D01*
X567000D01*
X566149Y145851D01*
Y155500D01*
X566000Y155861D01*
Y157000D01*
X565000D01*
X536500Y185500D01*
Y236209D01*
X536973Y236370D01*
X537146Y236146D01*
X537689Y235729D01*
X538321Y235467D01*
X538600Y235430D01*
Y238001D01*
X538999D01*
Y238400D01*
X541570D01*
X541533Y238679D01*
X541271Y239311D01*
X540854Y239854D01*
X540743Y239940D01*
X540759Y239978D01*
X541437Y240067D01*
X542070Y240329D01*
X542613Y240746D01*
X543030Y241289D01*
X543292Y241921D01*
X543381Y242600D01*
X543292Y243279D01*
X543030Y243911D01*
X542613Y244454D01*
X542070Y244871D01*
X541437Y245133D01*
X540759Y245222D01*
X540080Y245133D01*
X539447Y244871D01*
X538904Y244454D01*
X538487Y243911D01*
X538226Y243279D01*
X538136Y242600D01*
X538226Y241921D01*
X538487Y241289D01*
X538694Y241019D01*
X538503Y240557D01*
X538321Y240533D01*
X537689Y240271D01*
X537146Y239854D01*
X536973Y239630D01*
X536500Y239791D01*
Y265000D01*
X525149Y276351D01*
Y276649D01*
X525500Y277000D01*
Y302192D01*
X525948Y302413D01*
X526189Y302229D01*
X526821Y301967D01*
X527100Y301930D01*
Y304499D01*
Y307070D01*
X526821Y307033D01*
X526189Y306771D01*
X525948Y306587D01*
X525500Y306808D01*
Y322209D01*
X525974Y322370D01*
X526146Y322146D01*
X526689Y321729D01*
X527321Y321467D01*
X528000Y321378D01*
X528679Y321467D01*
X529311Y321729D01*
X529854Y322146D01*
X530271Y322689D01*
X530533Y323321D01*
X530622Y324000D01*
X530533Y324679D01*
X530271Y325311D01*
X529854Y325854D01*
X529311Y326271D01*
X528679Y326533D01*
X528000Y326622D01*
X527321Y326533D01*
X526689Y326271D01*
X526146Y325854D01*
X525974Y325630D01*
X525500Y325791D01*
Y390241D01*
X525533Y390321D01*
X525622Y391000D01*
X525533Y391679D01*
X525500Y391759D01*
Y412000D01*
X525149Y412351D01*
Y412500D01*
Y412791D01*
X524959Y413250D01*
X519470Y418740D01*
X519131Y419182D01*
X519105Y419243D01*
X519014Y419335D01*
X518964Y419454D01*
X517959Y420459D01*
X517959Y420459D01*
X516149Y422269D01*
Y429791D01*
X515959Y430251D01*
X515320Y430890D01*
X515309Y430894D01*
X515304Y430905D01*
X515081Y430989D01*
X514860Y431080D01*
X514850Y431076D01*
X514839Y431080D01*
X514433Y431067D01*
X511500Y434000D01*
X487000D01*
X457500Y463500D01*
X421000D01*
X386500Y429000D01*
Y226370D01*
X386124Y226040D01*
X385500Y226122D01*
X384821Y226033D01*
X384189Y225771D01*
X383646Y225354D01*
X383229Y224811D01*
X382967Y224179D01*
X382878Y223500D01*
X382967Y222821D01*
X383229Y222189D01*
X383646Y221646D01*
X384189Y221229D01*
X384821Y220967D01*
X385500Y220878D01*
X386124Y220960D01*
X386500Y220630D01*
Y183936D01*
X386124Y183606D01*
X386000Y183622D01*
X385321Y183533D01*
X384689Y183271D01*
X384146Y182854D01*
X383729Y182311D01*
X383467Y181679D01*
X383378Y181000D01*
X383467Y180321D01*
X383729Y179689D01*
X384146Y179146D01*
X384689Y178729D01*
X385321Y178467D01*
X386000Y178378D01*
X386124Y178394D01*
X386500Y178064D01*
Y144000D01*
X395961Y134539D01*
X395740Y134091D01*
X395500Y134122D01*
X394821Y134033D01*
X394189Y133771D01*
X393646Y133354D01*
X393229Y132811D01*
X392967Y132179D01*
X392878Y131500D01*
X392967Y130821D01*
X393229Y130189D01*
X393646Y129646D01*
X394189Y129229D01*
X394821Y128967D01*
X395500Y128878D01*
X396179Y128967D01*
X396811Y129229D01*
X397354Y129646D01*
X397771Y130189D01*
X398033Y130821D01*
X398122Y131500D01*
X398091Y131739D01*
X398539Y131961D01*
X399500Y131000D01*
X427209D01*
X427370Y130526D01*
X427146Y130354D01*
X426729Y129811D01*
X426467Y129179D01*
X426378Y128500D01*
X426467Y127821D01*
X426729Y127189D01*
X427146Y126646D01*
X427689Y126229D01*
X428321Y125967D01*
X429000Y125878D01*
X429679Y125967D01*
X430311Y126229D01*
X430854Y126646D01*
X431271Y127189D01*
X431533Y127821D01*
X431622Y128500D01*
X431533Y129179D01*
X431271Y129811D01*
X430854Y130354D01*
X430311Y130771D01*
X430357Y131000D01*
X458878D01*
X458967Y130321D01*
X459229Y129689D01*
X459646Y129146D01*
X460189Y128729D01*
X460821Y128467D01*
X461500Y128378D01*
X462179Y128467D01*
X462811Y128729D01*
X463354Y129146D01*
X463431Y129151D01*
X470403Y122179D01*
X470434Y122166D01*
X470450Y122136D01*
X470660Y122072D01*
X470862Y121989D01*
X470893Y122002D01*
X470926Y121992D01*
X471423Y122041D01*
X471447Y122053D01*
X471500Y122000D01*
X472391D01*
X472483Y121929D01*
X473116Y121667D01*
X473795Y121578D01*
X474473Y121667D01*
X475106Y121929D01*
X475199Y122000D01*
X475994D01*
X476070Y121968D01*
X476228Y121863D01*
X476293Y121876D01*
X476355Y121851D01*
X509295D01*
X509573Y121435D01*
X509467Y121179D01*
X509378Y120500D01*
X509467Y119821D01*
X509729Y119189D01*
X510146Y118646D01*
X510689Y118229D01*
X511321Y117967D01*
X512000Y117878D01*
X512679Y117967D01*
X513311Y118229D01*
X513854Y118646D01*
X514271Y119189D01*
X514533Y119821D01*
X514622Y120500D01*
X514533Y121179D01*
X514271Y121811D01*
X514291Y121851D01*
X526295D01*
X526573Y121435D01*
X526467Y121179D01*
X526430Y120900D01*
X531570D01*
X531533Y121179D01*
X531271Y121811D01*
X531290Y121851D01*
X535500D01*
Y111500D01*
X483149D01*
Y112500D01*
X482959Y112959D01*
X482500Y113149D01*
X479423D01*
X479201Y113598D01*
X479271Y113689D01*
X479533Y114321D01*
X479622Y115000D01*
X479533Y115679D01*
X479271Y116311D01*
X478854Y116854D01*
X478311Y117271D01*
X477679Y117533D01*
X477000Y117622D01*
X476321Y117533D01*
X475689Y117271D01*
X475146Y116854D01*
X474729Y116311D01*
X474467Y115679D01*
X474378Y115000D01*
X474467Y114321D01*
X474729Y113689D01*
X474799Y113598D01*
X474578Y113149D01*
X464000D01*
X463541Y112959D01*
D01*
X463541Y112959D01*
X463459D01*
X456959Y119459D01*
X456500Y119649D01*
X455851D01*
X455000Y120500D01*
X450665D01*
X450311Y120771D01*
X449679Y121033D01*
X449000Y121122D01*
X448321Y121033D01*
X447689Y120771D01*
X447335Y120500D01*
X441557D01*
X441533Y120679D01*
X441271Y121311D01*
X440854Y121854D01*
X440311Y122271D01*
X439679Y122533D01*
X439000Y122622D01*
X438321Y122533D01*
X437689Y122271D01*
X437146Y121854D01*
X436729Y121311D01*
X436467Y120679D01*
X436443Y120500D01*
X385057D01*
X385033Y120679D01*
X384771Y121311D01*
X384354Y121854D01*
X383811Y122271D01*
X383831Y122421D01*
X383542Y122383D01*
X383179Y122533D01*
X383100Y122544D01*
Y124600D01*
X380930D01*
X380967Y124321D01*
X381229Y123689D01*
X381646Y123146D01*
X381751Y123065D01*
X381794Y122740D01*
X381764Y122509D01*
X381189Y122271D01*
X380646Y121854D01*
X380229Y121311D01*
X379967Y120679D01*
X379943Y120500D01*
X374500D01*
Y171443D01*
X374679Y171467D01*
X375311Y171729D01*
X375854Y172146D01*
X376271Y172689D01*
X376533Y173321D01*
X376622Y174000D01*
X376533Y174679D01*
X376271Y175311D01*
X375854Y175854D01*
X375311Y176271D01*
X374679Y176533D01*
X374500Y176557D01*
Y262500D01*
X374066Y262934D01*
X374049Y263616D01*
X373955Y263828D01*
X373872Y264046D01*
X365649Y272758D01*
Y272791D01*
X365459Y273251D01*
X363635Y275075D01*
X363296Y275516D01*
X363100Y275991D01*
X363027Y276542D01*
Y319672D01*
X363475Y319893D01*
X363689Y319729D01*
X364321Y319467D01*
X364600Y319430D01*
Y321999D01*
Y324396D01*
X364800Y324596D01*
X365000Y324623D01*
X364943Y324739D01*
X365754Y325551D01*
X365754Y325551D01*
X366171Y326094D01*
X366433Y326727D01*
X366522Y327405D01*
X366522Y327406D01*
Y335373D01*
X366524Y335388D01*
X366522Y335392D01*
Y335440D01*
X366527Y335451D01*
Y352000D01*
X366337Y352459D01*
X365878Y352649D01*
X365769D01*
X362500Y355918D01*
Y451500D01*
X394000Y483000D01*
X479000D01*
X484000Y477500D01*
D02*
G37*
G36*
X414242Y594210D02*
X419000Y588500D01*
X418000Y585000D01*
X438934Y564066D01*
X438773Y563593D01*
X438321Y563533D01*
X437689Y563271D01*
X437146Y562854D01*
X436729Y562311D01*
X436467Y561679D01*
X436378Y561000D01*
X436467Y560321D01*
X436729Y559689D01*
X437146Y559146D01*
X437689Y558729D01*
X438321Y558467D01*
X439000Y558378D01*
X439679Y558467D01*
X440311Y558729D01*
X440854Y559146D01*
X441271Y559689D01*
X441533Y560321D01*
X441593Y560773D01*
X442066Y560934D01*
X442500Y560500D01*
X464167D01*
X464265Y560010D01*
X463689Y559771D01*
X463146Y559354D01*
X462729Y558811D01*
X462467Y558179D01*
X462378Y557500D01*
X462467Y556821D01*
X462729Y556189D01*
X463146Y555646D01*
X463689Y555229D01*
X464321Y554967D01*
X465000Y554878D01*
X465679Y554967D01*
X466311Y555229D01*
X466854Y555646D01*
X467271Y556189D01*
X467533Y556821D01*
X467622Y557500D01*
X467533Y558179D01*
X467271Y558811D01*
X466854Y559354D01*
X466311Y559771D01*
X465735Y560010D01*
X465833Y560500D01*
X477500D01*
X484515Y552821D01*
X484500Y551500D01*
Y542000D01*
X477000Y534500D01*
X453333D01*
X453235Y534990D01*
X453811Y535229D01*
X454354Y535646D01*
X454771Y536189D01*
X455033Y536821D01*
X455122Y537500D01*
X455033Y538179D01*
X454771Y538811D01*
X454354Y539354D01*
X453811Y539771D01*
X453179Y540033D01*
X452500Y540122D01*
X451821Y540033D01*
X451189Y539771D01*
X450646Y539354D01*
X450229Y538811D01*
X449967Y538179D01*
X449878Y537500D01*
X449967Y536821D01*
X450229Y536189D01*
X450646Y535646D01*
X451189Y535229D01*
X451765Y534990D01*
X451667Y534500D01*
X445900D01*
X445771Y534811D01*
X445354Y535354D01*
X444811Y535771D01*
X444179Y536033D01*
X443500Y536122D01*
X442821Y536033D01*
X442189Y535771D01*
X441646Y535354D01*
X441229Y534811D01*
X441100Y534500D01*
X426126D01*
X425854Y534854D01*
X425311Y535271D01*
X424679Y535533D01*
X424000Y535622D01*
X423321Y535533D01*
X422689Y535271D01*
X422146Y534854D01*
X421874Y534500D01*
X397500D01*
X376000Y513000D01*
X307400D01*
X307271Y513311D01*
X306854Y513854D01*
X306311Y514271D01*
X305679Y514533D01*
X305000Y514622D01*
X304321Y514533D01*
X303689Y514271D01*
X303146Y513854D01*
X302729Y513311D01*
X302600Y513000D01*
X301000D01*
X300784Y513216D01*
X300713Y513387D01*
X300192Y514066D01*
X299513Y514587D01*
X299342Y514658D01*
X288500Y525500D01*
Y537000D01*
X292500D01*
X296000Y540500D01*
X312000Y545000D01*
X319000Y538000D01*
X327374D01*
X327646Y537646D01*
X328189Y537229D01*
X328821Y536967D01*
X329500Y536878D01*
X330179Y536967D01*
X330811Y537229D01*
X331354Y537646D01*
X331626Y538000D01*
X358000D01*
X406500Y586500D01*
X413742Y594225D01*
X414242Y594210D01*
D02*
G37*
G36*
X405500Y324400D02*
X405189Y324271D01*
X404646Y323854D01*
X404229Y323311D01*
X403967Y322679D01*
X403878Y322000D01*
X403967Y321321D01*
X404229Y320689D01*
X404646Y320146D01*
X405189Y319729D01*
X405500Y319600D01*
Y283143D01*
X405084Y282865D01*
X404679Y283033D01*
X404000Y283122D01*
X403321Y283033D01*
X402689Y282771D01*
X402146Y282354D01*
X401729Y281811D01*
X401467Y281179D01*
X401378Y280500D01*
X401467Y279821D01*
X401729Y279189D01*
X402146Y278646D01*
X402689Y278229D01*
X403321Y277967D01*
X404000Y277878D01*
X404679Y277967D01*
X405084Y278135D01*
X405500Y277857D01*
Y273000D01*
X399000Y266500D01*
X398500Y266000D01*
X392000D01*
Y267000D01*
X387500Y271500D01*
Y345500D01*
X405500D01*
Y324400D01*
D02*
G37*
G36*
X437484Y596016D02*
X437503Y595939D01*
X438292Y594034D01*
X439369Y592276D01*
X440708Y590708D01*
X442276Y589369D01*
X444034Y588292D01*
X445939Y587503D01*
X446016Y587484D01*
X447500Y586000D01*
X471891D01*
X471982Y585780D01*
X472719Y584819D01*
X473680Y584082D01*
X474799Y583618D01*
X476000Y583460D01*
X477201Y583618D01*
X478320Y584082D01*
X479281Y584819D01*
X479781Y585319D01*
X479781Y585319D01*
X480303Y586000D01*
X526500D01*
X527000Y586500D01*
X541000Y572500D01*
Y557333D01*
X540510Y557235D01*
X540271Y557811D01*
X539854Y558354D01*
X539311Y558771D01*
X538679Y559033D01*
X538000Y559122D01*
X537321Y559033D01*
X536689Y558771D01*
X536146Y558354D01*
X535729Y557811D01*
X535467Y557179D01*
X535378Y556500D01*
X535467Y555821D01*
X535729Y555189D01*
X536146Y554646D01*
X536689Y554229D01*
X537321Y553967D01*
X538000Y553878D01*
X538679Y553967D01*
X539311Y554229D01*
X539854Y554646D01*
X540271Y555189D01*
X540510Y555765D01*
X541000Y555667D01*
Y549000D01*
X542204Y547796D01*
X542480Y546885D01*
X543232Y545478D01*
X544245Y544245D01*
X545478Y543232D01*
X546885Y542480D01*
X547796Y542204D01*
X552322Y537678D01*
X552347Y537646D01*
X552379Y537621D01*
X553000Y537000D01*
X553443D01*
X553522Y536967D01*
X554201Y536878D01*
X554500Y536616D01*
Y494000D01*
X555000Y493500D01*
X549500Y488000D01*
X311500D01*
X304500Y495000D01*
Y508000D01*
X311000D01*
X315351Y512351D01*
X376000D01*
X376361Y512500D01*
X376500D01*
X395500Y531500D01*
X421874D01*
X422146Y531146D01*
X422689Y530729D01*
X423321Y530467D01*
X424000Y530378D01*
X424679Y530467D01*
X425311Y530729D01*
X425854Y531146D01*
X426126Y531500D01*
X441835D01*
X442189Y531229D01*
X442821Y530967D01*
X443500Y530878D01*
X444179Y530967D01*
X444811Y531229D01*
X445164Y531500D01*
X467000D01*
X469500Y533500D01*
X475109Y533851D01*
X477000D01*
X477336Y533990D01*
X477500Y534000D01*
X485000Y541500D01*
X485007Y541657D01*
X485149Y542000D01*
Y544638D01*
X485500Y552000D01*
X485158Y552285D01*
X485164Y552814D01*
X485075Y553035D01*
X484994Y553259D01*
X477980Y560938D01*
X477965Y560945D01*
X477959Y560959D01*
X477742Y561049D01*
X477529Y561149D01*
X477515Y561143D01*
X477500Y561149D01*
X474521D01*
X473500Y562000D01*
X460500Y561500D01*
X449983Y561149D01*
X444603D01*
X442500Y561500D01*
X440000Y564000D01*
X431500Y573000D01*
X428000Y577500D01*
X424000Y581000D01*
X422500Y583000D01*
X420500Y586000D01*
X419303Y587197D01*
X419546Y588046D01*
X419934Y588434D01*
X420407Y588273D01*
X420467Y587821D01*
X420729Y587189D01*
X421146Y586646D01*
X421689Y586229D01*
X422321Y585967D01*
X423000Y585878D01*
X423679Y585967D01*
X424311Y586229D01*
X424854Y586646D01*
X425271Y587189D01*
X425533Y587821D01*
X425622Y588500D01*
X425533Y589179D01*
X425271Y589811D01*
X424854Y590354D01*
X424311Y590771D01*
X423679Y591033D01*
X423000Y591122D01*
X422875Y591375D01*
X428500Y597000D01*
X431500D01*
X434000Y599500D01*
X437484Y596016D01*
D02*
G37*
G36*
X597500Y139308D02*
X597052Y139087D01*
X596811Y139271D01*
X596179Y139533D01*
X595900Y139570D01*
Y136999D01*
Y134430D01*
X596179Y134467D01*
X596811Y134729D01*
X597052Y134913D01*
X597500Y134692D01*
Y78000D01*
X598000Y77500D01*
X576500Y56000D01*
X361500D01*
X352000Y65500D01*
X332000Y85500D01*
X317000D01*
Y132500D01*
X317500Y133000D01*
X323000Y138500D01*
X342000D01*
Y109000D01*
X344000Y107000D01*
X361000Y90000D01*
X405857D01*
X406135Y89584D01*
X405967Y89179D01*
X405878Y88500D01*
X405967Y87821D01*
X406229Y87189D01*
X406646Y86646D01*
X407189Y86229D01*
X407821Y85967D01*
X408500Y85878D01*
X409179Y85967D01*
X409811Y86229D01*
X410354Y86646D01*
X410771Y87189D01*
X411033Y87821D01*
X411122Y88500D01*
X411033Y89179D01*
X410771Y89811D01*
X410864Y90000D01*
X423000D01*
X424000Y89000D01*
X437500Y75500D01*
X502209D01*
X502370Y75027D01*
X502146Y74854D01*
X501729Y74311D01*
X501467Y73679D01*
X501378Y73000D01*
X501467Y72321D01*
X501729Y71689D01*
X502146Y71146D01*
X502689Y70729D01*
X503321Y70467D01*
X503558Y70436D01*
X503632Y70340D01*
X503786Y69969D01*
X503434Y69511D01*
X503172Y68879D01*
X503136Y68600D01*
X505305D01*
Y70726D01*
X505311Y70729D01*
X505377Y70780D01*
X505705Y70823D01*
X505640Y70981D01*
X505854Y71146D01*
X506271Y71689D01*
X506533Y72321D01*
X506622Y73000D01*
X506533Y73679D01*
X506271Y74311D01*
X505854Y74854D01*
X505311Y75271D01*
X505357Y75500D01*
X523709D01*
X523870Y75027D01*
X523646Y74854D01*
X523229Y74311D01*
X522967Y73679D01*
X522878Y73000D01*
X522967Y72321D01*
X523229Y71689D01*
X523646Y71146D01*
X524189Y70729D01*
X524821Y70467D01*
X525500Y70378D01*
X526179Y70467D01*
X526811Y70729D01*
X527354Y71146D01*
X527771Y71689D01*
X528033Y72321D01*
X528122Y73000D01*
X528033Y73679D01*
X527771Y74311D01*
X527354Y74854D01*
X526811Y75271D01*
X526857Y75500D01*
X573000D01*
X573500Y75000D01*
X584000Y85500D01*
Y90564D01*
X584376Y90894D01*
X584500Y90878D01*
X585179Y90967D01*
X585811Y91229D01*
X586354Y91646D01*
X586771Y92189D01*
X587033Y92821D01*
X587122Y93500D01*
X587033Y94179D01*
X586771Y94811D01*
X586354Y95354D01*
X585811Y95771D01*
X585179Y96033D01*
X584500Y96122D01*
X584376Y96106D01*
X584000Y96436D01*
Y96943D01*
X584179Y96967D01*
X584811Y97229D01*
X585354Y97646D01*
X585771Y98189D01*
X586033Y98821D01*
X586122Y99500D01*
X586033Y100179D01*
X585771Y100811D01*
X585354Y101354D01*
X584811Y101771D01*
X584179Y102033D01*
X584000Y102057D01*
Y105241D01*
X584033Y105321D01*
X584122Y106000D01*
X584033Y106679D01*
X584000Y106759D01*
Y113378D01*
X584679Y113467D01*
X585311Y113729D01*
X585854Y114146D01*
X586271Y114689D01*
X586533Y115321D01*
X586622Y116000D01*
X586533Y116679D01*
X586271Y117311D01*
X585854Y117854D01*
X585311Y118271D01*
X584679Y118533D01*
X584000Y118622D01*
Y119100D01*
X584311Y119229D01*
X584854Y119646D01*
X585271Y120189D01*
X585533Y120821D01*
X585622Y121500D01*
X585533Y122179D01*
X585271Y122811D01*
X584854Y123354D01*
X584311Y123771D01*
X584000Y123900D01*
Y155000D01*
X577500Y161500D01*
Y360500D01*
Y433500D01*
X577000Y434000D01*
X565000Y446000D01*
Y455000D01*
Y484500D01*
X564962Y484538D01*
X565153Y485000D01*
X597500D01*
Y139308D01*
D02*
G37*
G36*
X335851Y479149D02*
Y373500D01*
X336000Y373139D01*
Y373000D01*
X338171Y370829D01*
X338229Y370689D01*
X338646Y370146D01*
X355851Y352941D01*
Y352753D01*
X355900Y352634D01*
Y352629D01*
X355889Y352589D01*
X355900Y352507D01*
Y352505D01*
X355900Y352504D01*
X355973Y351952D01*
Y349829D01*
X355525Y349607D01*
X355311Y349771D01*
X354679Y350033D01*
X354400Y350070D01*
Y347499D01*
Y344930D01*
X354679Y344967D01*
X355311Y345229D01*
X355525Y345393D01*
X355973Y345171D01*
Y285973D01*
X350000Y280000D01*
X346500Y276500D01*
Y271000D01*
Y267622D01*
X351351Y262772D01*
Y261473D01*
X351000Y261122D01*
Y222111D01*
X350749Y221505D01*
X350617Y220500D01*
X350749Y219495D01*
X351000Y218889D01*
Y200000D01*
Y197500D01*
X358500Y190000D01*
X346571Y178071D01*
X346311Y178271D01*
X345679Y178533D01*
X345000Y178622D01*
X344321Y178533D01*
X343689Y178271D01*
X343146Y177854D01*
X342729Y177311D01*
X342467Y176679D01*
X342378Y176000D01*
X342467Y175321D01*
X342729Y174689D01*
X342929Y174429D01*
X342500Y174000D01*
Y172918D01*
X342041Y172459D01*
X341851Y172000D01*
Y166833D01*
X341923Y166658D01*
X341960Y166472D01*
X342015Y166435D01*
X342041Y166374D01*
X342216Y166301D01*
X342292Y166250D01*
X342292Y165750D01*
X342216Y165699D01*
X342041Y165626D01*
X342015Y165565D01*
X341960Y165528D01*
X341923Y165342D01*
X341851Y165167D01*
Y142500D01*
X333000D01*
X325500Y150000D01*
Y152000D01*
Y183000D01*
X340000Y197500D01*
Y255500D01*
Y274500D01*
X352000Y286500D01*
Y287000D01*
Y345192D01*
X352448Y345413D01*
X352689Y345229D01*
X353321Y344967D01*
X353600Y344930D01*
Y347499D01*
Y350070D01*
X353321Y350033D01*
X352689Y349771D01*
X352448Y349587D01*
X352000Y349808D01*
Y350500D01*
X316000Y386500D01*
Y482000D01*
X333000D01*
X335851Y479149D01*
D02*
G37*
G36*
X509664Y432135D02*
X509646Y431854D01*
X509229Y431311D01*
X508967Y430679D01*
X508930Y430400D01*
X514070D01*
X514106Y430124D01*
X514361Y430414D01*
X514860Y430431D01*
X515500Y429791D01*
Y422000D01*
X517500Y420000D01*
X518505Y418995D01*
X518564Y418854D01*
X518980Y418311D01*
X524500Y412791D01*
Y412500D01*
Y393643D01*
X524084Y393365D01*
X523679Y393533D01*
X523000Y393622D01*
X522321Y393533D01*
X521689Y393271D01*
X521146Y392854D01*
X520729Y392311D01*
X520467Y391679D01*
X520378Y391000D01*
X520467Y390321D01*
X520729Y389689D01*
X521146Y389146D01*
X521689Y388729D01*
X522321Y388467D01*
X523000Y388378D01*
X523679Y388467D01*
X524084Y388635D01*
X524500Y388357D01*
Y337308D01*
X524052Y337087D01*
X523811Y337271D01*
X523179Y337533D01*
X522500Y337622D01*
X521821Y337533D01*
X521189Y337271D01*
X520646Y336854D01*
X520229Y336311D01*
X519967Y335679D01*
X519878Y335000D01*
X519967Y334321D01*
X520229Y333689D01*
X520646Y333146D01*
X521189Y332729D01*
X521821Y332467D01*
X522500Y332378D01*
X523179Y332467D01*
X523811Y332729D01*
X524052Y332913D01*
X524500Y332692D01*
Y314333D01*
X524010Y314235D01*
X523771Y314811D01*
X523354Y315354D01*
X522811Y315771D01*
X522179Y316033D01*
X521900Y316070D01*
Y313499D01*
Y310930D01*
X522179Y310967D01*
X522811Y311229D01*
X523354Y311646D01*
X523771Y312189D01*
X524010Y312765D01*
X524500Y312667D01*
Y275500D01*
X525500Y274500D01*
X535000Y265000D01*
Y261000D01*
Y186000D01*
X558618Y162382D01*
X558340Y161966D01*
X558179Y162033D01*
X557500Y162122D01*
X556821Y162033D01*
X556189Y161771D01*
X555646Y161354D01*
X555229Y160811D01*
X554967Y160179D01*
X554878Y159500D01*
X554967Y158821D01*
X555229Y158189D01*
X555646Y157646D01*
X556189Y157229D01*
X556821Y156967D01*
X557500Y156878D01*
X558179Y156967D01*
X558811Y157229D01*
X559354Y157646D01*
X559771Y158189D01*
X560033Y158821D01*
X560122Y159500D01*
X560033Y160179D01*
X559966Y160340D01*
X560382Y160618D01*
X563500Y157500D01*
X565500Y155500D01*
Y138000D01*
X546000D01*
X539000Y145000D01*
X499000Y185000D01*
Y327000D01*
Y432500D01*
X509322D01*
X509664Y432135D01*
D02*
G37*
G36*
X497118Y136882D02*
X496840Y136466D01*
X496679Y136533D01*
X496000Y136622D01*
X495321Y136533D01*
X494689Y136271D01*
X494146Y135854D01*
X493729Y135311D01*
X493467Y134679D01*
X493378Y134000D01*
X493467Y133321D01*
X493729Y132689D01*
X494146Y132146D01*
X494689Y131729D01*
X495321Y131467D01*
X496000Y131378D01*
X496679Y131467D01*
X497311Y131729D01*
X497854Y132146D01*
X498271Y132689D01*
X498533Y133321D01*
X498622Y134000D01*
X498533Y134679D01*
X498466Y134840D01*
X498882Y135118D01*
X502500Y131500D01*
X559874D01*
X560146Y131146D01*
X560689Y130729D01*
X561321Y130467D01*
X562000Y130378D01*
X562679Y130467D01*
X563311Y130729D01*
X563854Y131146D01*
X564271Y131689D01*
X564533Y132321D01*
X564622Y133000D01*
X564533Y133679D01*
X564283Y134283D01*
X574000Y144000D01*
X581500D01*
Y123626D01*
X581146Y123354D01*
X580729Y122811D01*
X580600Y122500D01*
X530664D01*
X530311Y122771D01*
X529679Y123033D01*
X529000Y123123D01*
X528321Y123033D01*
X527689Y122771D01*
X527336Y122500D01*
X513664D01*
X513311Y122771D01*
X512679Y123033D01*
X512000Y123122D01*
X511321Y123033D01*
X510689Y122771D01*
X510335Y122500D01*
X476355D01*
X476077Y122916D01*
X476328Y123521D01*
X476366Y123814D01*
X476828Y124005D01*
X477189Y123729D01*
X477821Y123467D01*
X478100Y123430D01*
Y125600D01*
X475998D01*
X475916Y125707D01*
X475877Y126000D01*
X475928Y126386D01*
X475466Y126195D01*
X475106Y126471D01*
X474473Y126733D01*
X473795Y126822D01*
X473116Y126733D01*
X472483Y126471D01*
X471940Y126054D01*
X471524Y125511D01*
X471262Y124879D01*
X471172Y124200D01*
X471262Y123521D01*
X471512Y122916D01*
X471360Y122687D01*
X470862Y122638D01*
X463783Y129717D01*
X464033Y130321D01*
X464122Y131000D01*
X464033Y131679D01*
X463771Y132311D01*
X463354Y132854D01*
X462811Y133271D01*
X462179Y133533D01*
X461500Y133622D01*
X460821Y133533D01*
X460189Y133271D01*
X459835Y133000D01*
X439370D01*
X439040Y133376D01*
X439122Y134000D01*
X439033Y134679D01*
X438771Y135311D01*
X438354Y135854D01*
X437811Y136271D01*
X437179Y136533D01*
X436500Y136622D01*
X435821Y136533D01*
X435189Y136271D01*
X434646Y135854D01*
X434371Y135496D01*
X433875Y135561D01*
X433771Y135811D01*
X433354Y136354D01*
X432811Y136771D01*
X432179Y137033D01*
X431500Y137122D01*
X430821Y137033D01*
X430189Y136771D01*
X429646Y136354D01*
X429229Y135811D01*
X428967Y135179D01*
X428878Y134500D01*
X428967Y133821D01*
X429135Y133416D01*
X428857Y133000D01*
X398500D01*
X390500Y141000D01*
X393529Y144029D01*
X393789Y143829D01*
X394421Y143567D01*
X395100Y143478D01*
X395779Y143567D01*
X396411Y143829D01*
X396954Y144246D01*
X397371Y144789D01*
X397459Y145000D01*
X404630D01*
X404960Y144624D01*
X404878Y144000D01*
X404967Y143321D01*
X405229Y142689D01*
X405646Y142146D01*
X406189Y141729D01*
X406821Y141467D01*
X407500Y141378D01*
X408179Y141467D01*
X408811Y141729D01*
X409354Y142146D01*
X409771Y142689D01*
X410033Y143321D01*
X410122Y144000D01*
X410033Y144679D01*
X410248Y145000D01*
X461741D01*
X461821Y144967D01*
X462500Y144878D01*
X463179Y144967D01*
X463259Y145000D01*
X471357D01*
X471635Y144584D01*
X471467Y144179D01*
X471378Y143500D01*
X471467Y142821D01*
X471729Y142189D01*
X472146Y141646D01*
X472689Y141229D01*
X473321Y140967D01*
X474000Y140878D01*
X474679Y140967D01*
X475311Y141229D01*
X475854Y141646D01*
X476271Y142189D01*
X476533Y142821D01*
X476622Y143500D01*
X476533Y144179D01*
X476271Y144811D01*
X476364Y145000D01*
X489000D01*
X497118Y136882D01*
D02*
G37*
%LPC*%
G36*
X524900Y182570D02*
Y180400D01*
X527070D01*
X527033Y180679D01*
X526771Y181311D01*
X526354Y181854D01*
X525811Y182271D01*
X525179Y182533D01*
X524900Y182570D01*
D02*
G37*
G36*
X524100D02*
X523821Y182533D01*
X523189Y182271D01*
X522646Y181854D01*
X522229Y181311D01*
X521967Y180679D01*
X521930Y180400D01*
X524100D01*
Y182570D01*
D02*
G37*
G36*
X559400Y184570D02*
Y182400D01*
X561570D01*
X561533Y182679D01*
X561271Y183311D01*
X560854Y183854D01*
X560311Y184271D01*
X559679Y184533D01*
X559400Y184570D01*
D02*
G37*
G36*
X558600D02*
X558321Y184533D01*
X557689Y184271D01*
X557146Y183854D01*
X556729Y183311D01*
X556467Y182679D01*
X556430Y182400D01*
X558600D01*
Y184570D01*
D02*
G37*
G36*
X338000Y189122D02*
X337321Y189033D01*
X336689Y188771D01*
X336146Y188354D01*
X335729Y187811D01*
X335467Y187179D01*
X335378Y186500D01*
X335467Y185821D01*
X335729Y185189D01*
X336146Y184646D01*
X336689Y184229D01*
X337321Y183967D01*
X338000Y183878D01*
X338679Y183967D01*
X339311Y184229D01*
X339854Y184646D01*
X340271Y185189D01*
X340533Y185821D01*
X340622Y186500D01*
X340533Y187179D01*
X340271Y187811D01*
X339854Y188354D01*
X339311Y188771D01*
X338679Y189033D01*
X338000Y189122D01*
D02*
G37*
G36*
X380000Y203622D02*
X379321Y203533D01*
X378689Y203271D01*
X378146Y202854D01*
X377729Y202311D01*
X377467Y201679D01*
X377378Y201000D01*
X377467Y200321D01*
X377729Y199689D01*
X378146Y199146D01*
X378689Y198729D01*
X379321Y198467D01*
X380000Y198378D01*
X380679Y198467D01*
X381311Y198729D01*
X381854Y199146D01*
X382271Y199689D01*
X382533Y200321D01*
X382622Y201000D01*
X382533Y201679D01*
X382271Y202311D01*
X381854Y202854D01*
X381311Y203271D01*
X380679Y203533D01*
X380000Y203622D01*
D02*
G37*
G36*
X554000Y206122D02*
X553321Y206033D01*
X552689Y205771D01*
X552146Y205354D01*
X551729Y204811D01*
X551467Y204179D01*
X551378Y203500D01*
X551467Y202821D01*
X551729Y202189D01*
X552146Y201646D01*
X552689Y201229D01*
X553321Y200967D01*
X554000Y200878D01*
X554679Y200967D01*
X555311Y201229D01*
X555854Y201646D01*
X556271Y202189D01*
X556533Y202821D01*
X556622Y203500D01*
X556533Y204179D01*
X556271Y204811D01*
X555854Y205354D01*
X555311Y205771D01*
X554679Y206033D01*
X554000Y206122D01*
D02*
G37*
G36*
X542500Y209622D02*
X541821Y209533D01*
X541189Y209271D01*
X540646Y208854D01*
X540229Y208311D01*
X539967Y207679D01*
X539878Y207000D01*
X539967Y206321D01*
X540229Y205689D01*
X540646Y205146D01*
X541189Y204729D01*
X541821Y204467D01*
X542500Y204378D01*
X543179Y204467D01*
X543811Y204729D01*
X544354Y205146D01*
X544771Y205689D01*
X545033Y206321D01*
X545122Y207000D01*
X545033Y207679D01*
X544771Y208311D01*
X544354Y208854D01*
X543811Y209271D01*
X543179Y209533D01*
X542500Y209622D01*
D02*
G37*
G36*
X516500Y198122D02*
X515821Y198033D01*
X515189Y197771D01*
X514646Y197354D01*
X514229Y196811D01*
X513967Y196179D01*
X513878Y195500D01*
X513967Y194821D01*
X514229Y194189D01*
X514646Y193646D01*
X515189Y193229D01*
X515821Y192967D01*
X516500Y192878D01*
X517179Y192967D01*
X517811Y193229D01*
X518354Y193646D01*
X518771Y194189D01*
X519033Y194821D01*
X519122Y195500D01*
X519033Y196179D01*
X518771Y196811D01*
X518354Y197354D01*
X517811Y197771D01*
X517179Y198033D01*
X516500Y198122D01*
D02*
G37*
G36*
X527000Y195122D02*
X526321Y195033D01*
X525689Y194771D01*
X525146Y194354D01*
X524729Y193811D01*
X524467Y193179D01*
X524378Y192500D01*
X524467Y191821D01*
X524729Y191189D01*
X525146Y190646D01*
X525689Y190229D01*
X526321Y189967D01*
X527000Y189878D01*
X527679Y189967D01*
X528311Y190229D01*
X528854Y190646D01*
X529271Y191189D01*
X529533Y191821D01*
X529622Y192500D01*
X529533Y193179D01*
X529271Y193811D01*
X528854Y194354D01*
X528311Y194771D01*
X527679Y195033D01*
X527000Y195122D01*
D02*
G37*
G36*
X553500D02*
X552821Y195033D01*
X552189Y194771D01*
X551646Y194354D01*
X551229Y193811D01*
X550967Y193179D01*
X550878Y192500D01*
X550967Y191821D01*
X551229Y191189D01*
X551646Y190646D01*
X552189Y190229D01*
X552821Y189967D01*
X553500Y189878D01*
X554179Y189967D01*
X554811Y190229D01*
X555354Y190646D01*
X555771Y191189D01*
X556033Y191821D01*
X556122Y192500D01*
X556033Y193179D01*
X555771Y193811D01*
X555354Y194354D01*
X554811Y194771D01*
X554179Y195033D01*
X553500Y195122D01*
D02*
G37*
G36*
X568000D02*
X567321Y195033D01*
X566689Y194771D01*
X566146Y194354D01*
X565729Y193811D01*
X565467Y193179D01*
X565378Y192500D01*
X565467Y191821D01*
X565729Y191189D01*
X566146Y190646D01*
X566689Y190229D01*
X567321Y189967D01*
X568000Y189878D01*
X568679Y189967D01*
X569311Y190229D01*
X569854Y190646D01*
X570271Y191189D01*
X570533Y191821D01*
X570622Y192500D01*
X570533Y193179D01*
X570271Y193811D01*
X569854Y194354D01*
X569311Y194771D01*
X568679Y195033D01*
X568000Y195122D01*
D02*
G37*
G36*
X561570Y181600D02*
X559400D01*
Y179430D01*
X559679Y179467D01*
X560311Y179729D01*
X560854Y180146D01*
X561271Y180689D01*
X561533Y181321D01*
X561570Y181600D01*
D02*
G37*
G36*
X583500Y162622D02*
X582821Y162533D01*
X582189Y162271D01*
X581646Y161854D01*
X581229Y161311D01*
X580967Y160679D01*
X580878Y160000D01*
X580967Y159321D01*
X581229Y158689D01*
X581646Y158146D01*
X582189Y157729D01*
X582821Y157467D01*
X583500Y157378D01*
X584179Y157467D01*
X584811Y157729D01*
X585354Y158146D01*
X585771Y158689D01*
X586033Y159321D01*
X586122Y160000D01*
X586033Y160679D01*
X585771Y161311D01*
X585354Y161854D01*
X584811Y162271D01*
X584179Y162533D01*
X583500Y162622D01*
D02*
G37*
G36*
X360500Y160622D02*
X359821Y160533D01*
X359189Y160271D01*
X358646Y159854D01*
X358229Y159311D01*
X357967Y158679D01*
X357878Y158000D01*
X357967Y157321D01*
X358229Y156689D01*
X358646Y156146D01*
X359189Y155729D01*
X359821Y155467D01*
X360500Y155378D01*
X361179Y155467D01*
X361811Y155729D01*
X362354Y156146D01*
X362771Y156689D01*
X363033Y157321D01*
X363122Y158000D01*
X363033Y158679D01*
X362771Y159311D01*
X362354Y159854D01*
X361811Y160271D01*
X361179Y160533D01*
X360500Y160622D01*
D02*
G37*
G36*
X345900Y168570D02*
Y166400D01*
X348070D01*
X348033Y166679D01*
X347771Y167311D01*
X347354Y167854D01*
X346811Y168271D01*
X346179Y168533D01*
X345900Y168570D01*
D02*
G37*
G36*
X348070Y165600D02*
X345900D01*
Y163430D01*
X346179Y163467D01*
X346811Y163729D01*
X347354Y164146D01*
X347771Y164689D01*
X348033Y165321D01*
X348070Y165600D01*
D02*
G37*
G36*
X338400Y153070D02*
Y150900D01*
X340570D01*
X340533Y151179D01*
X340271Y151811D01*
X339854Y152354D01*
X339311Y152771D01*
X338679Y153033D01*
X338400Y153070D01*
D02*
G37*
G36*
X337600D02*
X337321Y153033D01*
X336689Y152771D01*
X336146Y152354D01*
X335729Y151811D01*
X335467Y151179D01*
X335430Y150900D01*
X337600D01*
Y153070D01*
D02*
G37*
G36*
X578900Y155570D02*
Y153400D01*
X581070D01*
X581033Y153679D01*
X580771Y154311D01*
X580354Y154854D01*
X579811Y155271D01*
X579179Y155533D01*
X578900Y155570D01*
D02*
G37*
G36*
X578100D02*
X577821Y155533D01*
X577189Y155271D01*
X576646Y154854D01*
X576229Y154311D01*
X575967Y153679D01*
X575930Y153400D01*
X578100D01*
Y155570D01*
D02*
G37*
G36*
X524100Y179600D02*
X521930D01*
X521967Y179321D01*
X522229Y178689D01*
X522646Y178146D01*
X523189Y177729D01*
X523821Y177467D01*
X524100Y177430D01*
Y179600D01*
D02*
G37*
G36*
X540500Y178122D02*
X539821Y178033D01*
X539189Y177771D01*
X538646Y177354D01*
X538229Y176811D01*
X537967Y176179D01*
X537878Y175500D01*
X537967Y174821D01*
X538229Y174189D01*
X538646Y173646D01*
X539189Y173229D01*
X539821Y172967D01*
X540500Y172878D01*
X541179Y172967D01*
X541811Y173229D01*
X542354Y173646D01*
X542771Y174189D01*
X543033Y174821D01*
X543122Y175500D01*
X543033Y176179D01*
X542771Y176811D01*
X542354Y177354D01*
X541811Y177771D01*
X541179Y178033D01*
X540500Y178122D01*
D02*
G37*
G36*
X558600Y181600D02*
X556430D01*
X556467Y181321D01*
X556729Y180689D01*
X557146Y180146D01*
X557689Y179729D01*
X558321Y179467D01*
X558600Y179430D01*
Y181600D01*
D02*
G37*
G36*
X527070Y179600D02*
X524900D01*
Y177430D01*
X525179Y177467D01*
X525811Y177729D01*
X526354Y178146D01*
X526771Y178689D01*
X527033Y179321D01*
X527070Y179600D01*
D02*
G37*
G36*
X381070Y168600D02*
X378900D01*
Y166430D01*
X379179Y166467D01*
X379811Y166729D01*
X380354Y167146D01*
X380771Y167689D01*
X381033Y168321D01*
X381070Y168600D01*
D02*
G37*
G36*
X378100D02*
X375930D01*
X375967Y168321D01*
X376229Y167689D01*
X376646Y167146D01*
X377189Y166729D01*
X377821Y166467D01*
X378100Y166430D01*
Y168600D01*
D02*
G37*
G36*
X378900Y171570D02*
Y169400D01*
X381070D01*
X381033Y169679D01*
X380771Y170311D01*
X380354Y170854D01*
X379811Y171271D01*
X379179Y171533D01*
X378900Y171570D01*
D02*
G37*
G36*
X378100D02*
X377821Y171533D01*
X377189Y171271D01*
X376646Y170854D01*
X376229Y170311D01*
X375967Y169679D01*
X375930Y169400D01*
X378100D01*
Y171570D01*
D02*
G37*
G36*
X400070Y275100D02*
X397900D01*
Y272930D01*
X398179Y272967D01*
X398811Y273229D01*
X399354Y273646D01*
X399771Y274189D01*
X400033Y274821D01*
X400070Y275100D01*
D02*
G37*
G36*
X397100D02*
X394930D01*
X394967Y274821D01*
X395229Y274189D01*
X395646Y273646D01*
X396189Y273229D01*
X396821Y272967D01*
X397100Y272930D01*
Y275100D01*
D02*
G37*
G36*
X397900Y278070D02*
Y275900D01*
X400070D01*
X400033Y276179D01*
X399771Y276811D01*
X399354Y277354D01*
X398811Y277771D01*
X398179Y278033D01*
X397900Y278070D01*
D02*
G37*
G36*
X397100D02*
X396821Y278033D01*
X396189Y277771D01*
X395646Y277354D01*
X395229Y276811D01*
X394967Y276179D01*
X394930Y275900D01*
X397100D01*
Y278070D01*
D02*
G37*
G36*
X377100Y266570D02*
X376821Y266533D01*
X376189Y266271D01*
X375646Y265854D01*
X375229Y265311D01*
X374967Y264679D01*
X374930Y264400D01*
X377100D01*
Y266570D01*
D02*
G37*
G36*
X518500Y267122D02*
X517821Y267033D01*
X517189Y266771D01*
X516646Y266354D01*
X516229Y265811D01*
X515967Y265179D01*
X515878Y264500D01*
X515967Y263821D01*
X516229Y263189D01*
X516646Y262646D01*
X517189Y262229D01*
X517821Y261967D01*
X518500Y261878D01*
X519179Y261967D01*
X519811Y262229D01*
X520354Y262646D01*
X520771Y263189D01*
X521033Y263821D01*
X521122Y264500D01*
X521033Y265179D01*
X520771Y265811D01*
X520354Y266354D01*
X519811Y266771D01*
X519179Y267033D01*
X518500Y267122D01*
D02*
G37*
G36*
X378000Y274622D02*
X377321Y274533D01*
X376689Y274271D01*
X376146Y273854D01*
X375729Y273311D01*
X375467Y272679D01*
X375378Y272000D01*
X375467Y271321D01*
X375729Y270689D01*
X376146Y270146D01*
X376689Y269729D01*
X377321Y269467D01*
X378000Y269378D01*
X378679Y269467D01*
X379311Y269729D01*
X379854Y270146D01*
X380271Y270689D01*
X380533Y271321D01*
X380622Y272000D01*
X380533Y272679D01*
X380271Y273311D01*
X379854Y273854D01*
X379311Y274271D01*
X378679Y274533D01*
X378000Y274622D01*
D02*
G37*
G36*
X377900Y266570D02*
Y264400D01*
X380070D01*
X380033Y264679D01*
X379771Y265311D01*
X379354Y265854D01*
X378811Y266271D01*
X378179Y266533D01*
X377900Y266570D01*
D02*
G37*
G36*
X533500Y307622D02*
X532821Y307533D01*
X532189Y307271D01*
X531646Y306854D01*
X531229Y306311D01*
X530967Y305679D01*
X530878Y305000D01*
X530967Y304321D01*
X531229Y303689D01*
X531646Y303146D01*
X532189Y302729D01*
X532821Y302467D01*
X533500Y302378D01*
X534179Y302467D01*
X534811Y302729D01*
X535354Y303146D01*
X535771Y303689D01*
X536033Y304321D01*
X536122Y305000D01*
X536033Y305679D01*
X535771Y306311D01*
X535354Y306854D01*
X534811Y307271D01*
X534179Y307533D01*
X533500Y307622D01*
D02*
G37*
G36*
X530070Y304100D02*
X527900D01*
Y301930D01*
X528179Y301967D01*
X528811Y302229D01*
X529354Y302646D01*
X529771Y303189D01*
X530033Y303821D01*
X530070Y304100D01*
D02*
G37*
G36*
X553500Y316122D02*
X552821Y316033D01*
X552189Y315771D01*
X551646Y315354D01*
X551229Y314811D01*
X550967Y314179D01*
X550878Y313500D01*
X550967Y312821D01*
X551229Y312189D01*
X551646Y311646D01*
X552189Y311229D01*
X552821Y310967D01*
X553500Y310878D01*
X554179Y310967D01*
X554811Y311229D01*
X555354Y311646D01*
X555771Y312189D01*
X556033Y312821D01*
X556122Y313500D01*
X556033Y314179D01*
X555771Y314811D01*
X555354Y315354D01*
X554811Y315771D01*
X554179Y316033D01*
X553500Y316122D01*
D02*
G37*
G36*
X527900Y307070D02*
Y304900D01*
X530070D01*
X530033Y305179D01*
X529771Y305811D01*
X529354Y306354D01*
X528811Y306771D01*
X528179Y307033D01*
X527900Y307070D01*
D02*
G37*
G36*
X381500Y289622D02*
X380821Y289533D01*
X380189Y289271D01*
X379646Y288854D01*
X379229Y288311D01*
X378967Y287679D01*
X378878Y287000D01*
X378967Y286321D01*
X379229Y285689D01*
X379646Y285146D01*
X380189Y284729D01*
X380821Y284467D01*
X381500Y284378D01*
X382179Y284467D01*
X382811Y284729D01*
X383354Y285146D01*
X383771Y285689D01*
X384033Y286321D01*
X384122Y287000D01*
X384033Y287679D01*
X383771Y288311D01*
X383354Y288854D01*
X382811Y289271D01*
X382179Y289533D01*
X381500Y289622D01*
D02*
G37*
G36*
X371000Y282622D02*
X370321Y282533D01*
X369689Y282271D01*
X369146Y281854D01*
X368729Y281311D01*
X368467Y280679D01*
X368378Y280000D01*
X368467Y279321D01*
X368729Y278689D01*
X369146Y278146D01*
X369689Y277729D01*
X370321Y277467D01*
X371000Y277378D01*
X371679Y277467D01*
X372311Y277729D01*
X372854Y278146D01*
X373271Y278689D01*
X373533Y279321D01*
X373622Y280000D01*
X373533Y280679D01*
X373271Y281311D01*
X372854Y281854D01*
X372311Y282271D01*
X371679Y282533D01*
X371000Y282622D01*
D02*
G37*
G36*
X544000Y307122D02*
X543321Y307033D01*
X542689Y306771D01*
X542146Y306354D01*
X541729Y305811D01*
X541467Y305179D01*
X541378Y304500D01*
X541467Y303821D01*
X541729Y303189D01*
X542146Y302646D01*
X542689Y302229D01*
X543321Y301967D01*
X544000Y301878D01*
X544679Y301967D01*
X545311Y302229D01*
X545854Y302646D01*
X546271Y303189D01*
X546533Y303821D01*
X546622Y304500D01*
X546533Y305179D01*
X546271Y305811D01*
X545854Y306354D01*
X545311Y306771D01*
X544679Y307033D01*
X544000Y307122D01*
D02*
G37*
G36*
X513000Y293122D02*
X512321Y293033D01*
X511689Y292771D01*
X511146Y292354D01*
X510729Y291811D01*
X510467Y291179D01*
X510378Y290500D01*
X510467Y289821D01*
X510729Y289189D01*
X511146Y288646D01*
X511689Y288229D01*
X512321Y287967D01*
X513000Y287878D01*
X513679Y287967D01*
X514311Y288229D01*
X514854Y288646D01*
X515271Y289189D01*
X515533Y289821D01*
X515622Y290500D01*
X515533Y291179D01*
X515271Y291811D01*
X514854Y292354D01*
X514311Y292771D01*
X513679Y293033D01*
X513000Y293122D01*
D02*
G37*
G36*
X380070Y263600D02*
X377900D01*
Y261430D01*
X378179Y261467D01*
X378811Y261729D01*
X379354Y262146D01*
X379771Y262689D01*
X380033Y263321D01*
X380070Y263600D01*
D02*
G37*
G36*
X530070Y247100D02*
X527900D01*
Y244930D01*
X528179Y244967D01*
X528811Y245229D01*
X529354Y245646D01*
X529771Y246189D01*
X530033Y246821D01*
X530070Y247100D01*
D02*
G37*
G36*
X527100D02*
X524930D01*
X524967Y246821D01*
X525229Y246189D01*
X525646Y245646D01*
X526189Y245229D01*
X526821Y244967D01*
X527100Y244930D01*
Y247100D01*
D02*
G37*
G36*
X560570Y247600D02*
X558400D01*
Y245430D01*
X558679Y245467D01*
X559311Y245729D01*
X559854Y246146D01*
X560271Y246689D01*
X560533Y247321D01*
X560570Y247600D01*
D02*
G37*
G36*
X557600D02*
X555430D01*
X555467Y247321D01*
X555729Y246689D01*
X556146Y246146D01*
X556689Y245729D01*
X557321Y245467D01*
X557600Y245430D01*
Y247600D01*
D02*
G37*
G36*
X555000Y225622D02*
X554321Y225533D01*
X553689Y225271D01*
X553146Y224854D01*
X552729Y224311D01*
X552467Y223679D01*
X552378Y223000D01*
X552467Y222321D01*
X552729Y221689D01*
X553146Y221146D01*
X553689Y220729D01*
X554321Y220467D01*
X555000Y220378D01*
X555679Y220467D01*
X556311Y220729D01*
X556854Y221146D01*
X557271Y221689D01*
X557533Y222321D01*
X557622Y223000D01*
X557533Y223679D01*
X557271Y224311D01*
X556854Y224854D01*
X556311Y225271D01*
X555679Y225533D01*
X555000Y225622D01*
D02*
G37*
G36*
X363500Y215122D02*
X362821Y215033D01*
X362189Y214771D01*
X361646Y214354D01*
X361229Y213811D01*
X360967Y213179D01*
X360878Y212500D01*
X360967Y211821D01*
X361229Y211189D01*
X361646Y210646D01*
X362189Y210229D01*
X362821Y209967D01*
X363500Y209878D01*
X364179Y209967D01*
X364811Y210229D01*
X365354Y210646D01*
X365771Y211189D01*
X366033Y211821D01*
X366122Y212500D01*
X366033Y213179D01*
X365771Y213811D01*
X365354Y214354D01*
X364811Y214771D01*
X364179Y215033D01*
X363500Y215122D01*
D02*
G37*
G36*
X541570Y237600D02*
X539400D01*
Y235430D01*
X539679Y235467D01*
X540311Y235729D01*
X540854Y236146D01*
X541271Y236689D01*
X541533Y237321D01*
X541570Y237600D01*
D02*
G37*
G36*
X512500Y229622D02*
X511821Y229533D01*
X511189Y229271D01*
X510646Y228854D01*
X510229Y228311D01*
X509967Y227679D01*
X509878Y227000D01*
X509967Y226321D01*
X510229Y225689D01*
X510646Y225146D01*
X511189Y224729D01*
X511821Y224467D01*
X512500Y224378D01*
X513179Y224467D01*
X513811Y224729D01*
X514354Y225146D01*
X514771Y225689D01*
X515033Y226321D01*
X515122Y227000D01*
X515033Y227679D01*
X514771Y228311D01*
X514354Y228854D01*
X513811Y229271D01*
X513179Y229533D01*
X512500Y229622D01*
D02*
G37*
G36*
X528000Y262122D02*
X527321Y262033D01*
X526689Y261771D01*
X526146Y261354D01*
X525729Y260811D01*
X525467Y260179D01*
X525378Y259500D01*
X525467Y258821D01*
X525729Y258189D01*
X526146Y257646D01*
X526689Y257229D01*
X527321Y256967D01*
X528000Y256878D01*
X528679Y256967D01*
X529311Y257229D01*
X529854Y257646D01*
X530271Y258189D01*
X530533Y258821D01*
X530622Y259500D01*
X530533Y260179D01*
X530271Y260811D01*
X529854Y261354D01*
X529311Y261771D01*
X528679Y262033D01*
X528000Y262122D01*
D02*
G37*
G36*
X557000Y261622D02*
X556321Y261533D01*
X555689Y261271D01*
X555146Y260854D01*
X554729Y260311D01*
X554467Y259679D01*
X554378Y259000D01*
X554467Y258321D01*
X554729Y257689D01*
X555146Y257146D01*
X555689Y256729D01*
X556321Y256467D01*
X557000Y256378D01*
X557679Y256467D01*
X558311Y256729D01*
X558854Y257146D01*
X559271Y257689D01*
X559533Y258321D01*
X559622Y259000D01*
X559533Y259679D01*
X559271Y260311D01*
X558854Y260854D01*
X558311Y261271D01*
X557679Y261533D01*
X557000Y261622D01*
D02*
G37*
G36*
X377100Y263600D02*
X374930D01*
X374967Y263321D01*
X375229Y262689D01*
X375646Y262146D01*
X376189Y261729D01*
X376821Y261467D01*
X377100Y261430D01*
Y263600D01*
D02*
G37*
G36*
X588500Y266622D02*
X587821Y266533D01*
X587189Y266271D01*
X586646Y265854D01*
X586229Y265311D01*
X585967Y264679D01*
X585878Y264000D01*
X585967Y263321D01*
X586229Y262689D01*
X586646Y262146D01*
X587189Y261729D01*
X587821Y261467D01*
X588500Y261378D01*
X589179Y261467D01*
X589811Y261729D01*
X590354Y262146D01*
X590771Y262689D01*
X591033Y263321D01*
X591122Y264000D01*
X591033Y264679D01*
X590771Y265311D01*
X590354Y265854D01*
X589811Y266271D01*
X589179Y266533D01*
X588500Y266622D01*
D02*
G37*
G36*
X527900Y250070D02*
Y247900D01*
X530070D01*
X530033Y248179D01*
X529771Y248811D01*
X529354Y249354D01*
X528811Y249771D01*
X528179Y250033D01*
X527900Y250070D01*
D02*
G37*
G36*
X527100D02*
X526821Y250033D01*
X526189Y249771D01*
X525646Y249354D01*
X525229Y248811D01*
X524967Y248179D01*
X524930Y247900D01*
X527100D01*
Y250070D01*
D02*
G37*
G36*
X558400Y250570D02*
Y248400D01*
X560570D01*
X560533Y248679D01*
X560271Y249311D01*
X559854Y249854D01*
X559311Y250271D01*
X558679Y250533D01*
X558400Y250570D01*
D02*
G37*
G36*
X557600D02*
X557321Y250533D01*
X556689Y250271D01*
X556146Y249854D01*
X555729Y249311D01*
X555467Y248679D01*
X555430Y248400D01*
X557600D01*
Y250570D01*
D02*
G37*
G36*
X581070Y152600D02*
X578900D01*
Y150430D01*
X579179Y150467D01*
X579811Y150729D01*
X580354Y151146D01*
X580771Y151689D01*
X581033Y152321D01*
X581070Y152600D01*
D02*
G37*
G36*
X431600Y116570D02*
X431321Y116533D01*
X430689Y116271D01*
X430146Y115854D01*
X429729Y115311D01*
X429467Y114679D01*
X429430Y114400D01*
X431600D01*
Y116570D01*
D02*
G37*
G36*
X434570Y113600D02*
X432400D01*
Y111430D01*
X432679Y111467D01*
X433311Y111729D01*
X433854Y112146D01*
X434271Y112689D01*
X434533Y113321D01*
X434570Y113600D01*
D02*
G37*
G36*
X465600Y117100D02*
X463430D01*
X463467Y116821D01*
X463729Y116189D01*
X464146Y115646D01*
X464689Y115229D01*
X465321Y114967D01*
X465600Y114930D01*
Y117100D01*
D02*
G37*
G36*
X432400Y116570D02*
Y114400D01*
X434570D01*
X434533Y114679D01*
X434271Y115311D01*
X433854Y115854D01*
X433311Y116271D01*
X432679Y116533D01*
X432400Y116570D01*
D02*
G37*
G36*
X473600Y111570D02*
X473321Y111533D01*
X472689Y111271D01*
X472146Y110854D01*
X471729Y110311D01*
X471467Y109679D01*
X471430Y109400D01*
X473600D01*
Y111570D01*
D02*
G37*
G36*
X358400D02*
Y109400D01*
X360570D01*
X360533Y109679D01*
X360271Y110311D01*
X359854Y110854D01*
X359311Y111271D01*
X358679Y111533D01*
X358400Y111570D01*
D02*
G37*
G36*
X431600Y113600D02*
X429430D01*
X429467Y113321D01*
X429729Y112689D01*
X430146Y112146D01*
X430689Y111729D01*
X431321Y111467D01*
X431600Y111430D01*
Y113600D01*
D02*
G37*
G36*
X474400Y111570D02*
Y109400D01*
X476570D01*
X476533Y109679D01*
X476271Y110311D01*
X475854Y110854D01*
X475311Y111271D01*
X474679Y111533D01*
X474400Y111570D01*
D02*
G37*
G36*
X361500Y126022D02*
X360821Y125933D01*
X360189Y125671D01*
X359646Y125254D01*
X359229Y124711D01*
X358967Y124079D01*
X358878Y123400D01*
X358967Y122721D01*
X359229Y122089D01*
X359646Y121546D01*
X360189Y121129D01*
X360821Y120867D01*
X361500Y120778D01*
X362179Y120867D01*
X362811Y121129D01*
X363354Y121546D01*
X363771Y122089D01*
X364033Y122721D01*
X364122Y123400D01*
X364033Y124079D01*
X363771Y124711D01*
X363354Y125254D01*
X362811Y125671D01*
X362179Y125933D01*
X361500Y126022D01*
D02*
G37*
G36*
X531570Y120100D02*
X529400D01*
Y117930D01*
X529679Y117967D01*
X530311Y118229D01*
X530854Y118646D01*
X531271Y119189D01*
X531533Y119821D01*
X531570Y120100D01*
D02*
G37*
G36*
X481070Y125600D02*
X478900D01*
Y123430D01*
X479179Y123467D01*
X479811Y123729D01*
X480354Y124146D01*
X480771Y124689D01*
X481033Y125321D01*
X481070Y125600D01*
D02*
G37*
G36*
X386070Y124600D02*
X383900D01*
Y122430D01*
X384179Y122467D01*
X384811Y122729D01*
X385354Y123146D01*
X385771Y123689D01*
X386033Y124321D01*
X386070Y124600D01*
D02*
G37*
G36*
X465600Y120070D02*
X465321Y120033D01*
X464689Y119771D01*
X464146Y119354D01*
X463729Y118811D01*
X463467Y118179D01*
X463430Y117900D01*
X465600D01*
Y120070D01*
D02*
G37*
G36*
X468570Y117100D02*
X466400D01*
Y114930D01*
X466679Y114967D01*
X467311Y115229D01*
X467854Y115646D01*
X468271Y116189D01*
X468533Y116821D01*
X468570Y117100D01*
D02*
G37*
G36*
X528600Y120100D02*
X526430D01*
X526467Y119821D01*
X526729Y119189D01*
X527146Y118646D01*
X527689Y118229D01*
X528321Y117967D01*
X528600Y117930D01*
Y120100D01*
D02*
G37*
G36*
X466400Y120070D02*
Y117900D01*
X468570D01*
X468533Y118179D01*
X468271Y118811D01*
X467854Y119354D01*
X467311Y119771D01*
X466679Y120033D01*
X466400Y120070D01*
D02*
G37*
G36*
X357600Y111570D02*
X357321Y111533D01*
X356689Y111271D01*
X356146Y110854D01*
X355729Y110311D01*
X355467Y109679D01*
X355430Y109400D01*
X357600D01*
Y111570D01*
D02*
G37*
G36*
X400500Y83122D02*
X399821Y83033D01*
X399189Y82771D01*
X398646Y82354D01*
X398229Y81811D01*
X397967Y81179D01*
X397878Y80500D01*
X397967Y79821D01*
X398229Y79189D01*
X398646Y78646D01*
X399189Y78229D01*
X399821Y77967D01*
X400500Y77878D01*
X401179Y77967D01*
X401811Y78229D01*
X402354Y78646D01*
X402771Y79189D01*
X403033Y79821D01*
X403122Y80500D01*
X403033Y81179D01*
X402771Y81811D01*
X402354Y82354D01*
X401811Y82771D01*
X401179Y83033D01*
X400500Y83122D01*
D02*
G37*
G36*
X433500Y76122D02*
X432821Y76033D01*
X432189Y75771D01*
X431646Y75354D01*
X431229Y74811D01*
X430967Y74179D01*
X430878Y73500D01*
X430967Y72821D01*
X431229Y72189D01*
X431646Y71646D01*
X432189Y71229D01*
X432821Y70967D01*
X433500Y70878D01*
X434179Y70967D01*
X434811Y71229D01*
X435354Y71646D01*
X435771Y72189D01*
X436033Y72821D01*
X436122Y73500D01*
X436033Y74179D01*
X435771Y74811D01*
X435354Y75354D01*
X434811Y75771D01*
X434179Y76033D01*
X433500Y76122D01*
D02*
G37*
G36*
X420570Y82100D02*
X418400D01*
Y79930D01*
X418679Y79967D01*
X419311Y80229D01*
X419854Y80646D01*
X420271Y81189D01*
X420533Y81821D01*
X420570Y82100D01*
D02*
G37*
G36*
X417600D02*
X415430D01*
X415467Y81821D01*
X415729Y81189D01*
X416146Y80646D01*
X416689Y80229D01*
X417321Y79967D01*
X417600Y79930D01*
Y82100D01*
D02*
G37*
G36*
X505305Y67800D02*
X503136D01*
X503172Y67521D01*
X503434Y66889D01*
X503851Y66346D01*
X504394Y65929D01*
X505027Y65667D01*
X505305Y65630D01*
Y67800D01*
D02*
G37*
G36*
X391000Y66622D02*
X390321Y66533D01*
X389689Y66271D01*
X389146Y65854D01*
X388729Y65311D01*
X388467Y64679D01*
X388378Y64000D01*
X388467Y63321D01*
X388729Y62689D01*
X389146Y62146D01*
X389689Y61729D01*
X390321Y61467D01*
X391000Y61378D01*
X391679Y61467D01*
X392311Y61729D01*
X392854Y62146D01*
X393271Y62689D01*
X393533Y63321D01*
X393622Y64000D01*
X393533Y64679D01*
X393271Y65311D01*
X392854Y65854D01*
X392311Y66271D01*
X391679Y66533D01*
X391000Y66622D01*
D02*
G37*
G36*
X506105Y70770D02*
Y68600D01*
X508275D01*
X508238Y68879D01*
X507976Y69511D01*
X507560Y70054D01*
X507017Y70471D01*
X506384Y70733D01*
X506105Y70770D01*
D02*
G37*
G36*
X508275Y67800D02*
X506105D01*
Y65630D01*
X506384Y65667D01*
X507017Y65929D01*
X507560Y66346D01*
X507976Y66889D01*
X508238Y67521D01*
X508275Y67800D01*
D02*
G37*
G36*
X473600Y108600D02*
X471430D01*
X471467Y108321D01*
X471729Y107689D01*
X472146Y107146D01*
X472689Y106729D01*
X473321Y106467D01*
X473600Y106430D01*
Y108600D01*
D02*
G37*
G36*
X360570D02*
X358400D01*
Y106430D01*
X358679Y106467D01*
X359311Y106729D01*
X359854Y107146D01*
X360271Y107689D01*
X360533Y108321D01*
X360570Y108600D01*
D02*
G37*
G36*
X412500Y112622D02*
X411821Y112533D01*
X411189Y112271D01*
X410646Y111854D01*
X410229Y111311D01*
X409967Y110679D01*
X409878Y110000D01*
X409967Y109321D01*
X410229Y108689D01*
X410646Y108146D01*
X411189Y107729D01*
X411821Y107467D01*
X412500Y107378D01*
X413179Y107467D01*
X413811Y107729D01*
X414354Y108146D01*
X414771Y108689D01*
X415033Y109321D01*
X415122Y110000D01*
X415033Y110679D01*
X414771Y111311D01*
X414354Y111854D01*
X413811Y112271D01*
X413179Y112533D01*
X412500Y112622D01*
D02*
G37*
G36*
X476570Y108600D02*
X474400D01*
Y106430D01*
X474679Y106467D01*
X475311Y106729D01*
X475854Y107146D01*
X476271Y107689D01*
X476533Y108321D01*
X476570Y108600D01*
D02*
G37*
G36*
X418400Y85070D02*
Y82900D01*
X420570D01*
X420533Y83179D01*
X420271Y83811D01*
X419854Y84354D01*
X419311Y84771D01*
X418679Y85033D01*
X418400Y85070D01*
D02*
G37*
G36*
X417600D02*
X417321Y85033D01*
X416689Y84771D01*
X416146Y84354D01*
X415729Y83811D01*
X415467Y83179D01*
X415430Y82900D01*
X417600D01*
Y85070D01*
D02*
G37*
G36*
X357600Y108600D02*
X355430D01*
X355467Y108321D01*
X355729Y107689D01*
X356146Y107146D01*
X356689Y106729D01*
X357321Y106467D01*
X357600Y106430D01*
Y108600D01*
D02*
G37*
G36*
X403500Y107122D02*
X402821Y107033D01*
X402189Y106771D01*
X401646Y106354D01*
X401229Y105811D01*
X400967Y105179D01*
X400878Y104500D01*
X400967Y103821D01*
X401229Y103189D01*
X401646Y102646D01*
X402189Y102229D01*
X402821Y101967D01*
X403500Y101878D01*
X404179Y101967D01*
X404811Y102229D01*
X405354Y102646D01*
X405771Y103189D01*
X406033Y103821D01*
X406122Y104500D01*
X406033Y105179D01*
X405771Y105811D01*
X405354Y106354D01*
X404811Y106771D01*
X404179Y107033D01*
X403500Y107122D01*
D02*
G37*
G36*
X537100Y127100D02*
X534930D01*
X534967Y126821D01*
X535229Y126189D01*
X535646Y125646D01*
X536189Y125229D01*
X536821Y124967D01*
X537100Y124930D01*
Y127100D01*
D02*
G37*
G36*
X575400Y141070D02*
Y138900D01*
X577570D01*
X577533Y139179D01*
X577271Y139811D01*
X576854Y140354D01*
X576311Y140771D01*
X575679Y141033D01*
X575400Y141070D01*
D02*
G37*
G36*
X574600D02*
X574321Y141033D01*
X573689Y140771D01*
X573146Y140354D01*
X572729Y139811D01*
X572467Y139179D01*
X572430Y138900D01*
X574600D01*
Y141070D01*
D02*
G37*
G36*
X400900Y141570D02*
Y139400D01*
X403070D01*
X403033Y139679D01*
X402771Y140311D01*
X402354Y140854D01*
X401811Y141271D01*
X401179Y141533D01*
X400900Y141570D01*
D02*
G37*
G36*
X400100D02*
X399821Y141533D01*
X399189Y141271D01*
X398646Y140854D01*
X398229Y140311D01*
X397967Y139679D01*
X397930Y139400D01*
X400100D01*
Y141570D01*
D02*
G37*
G36*
Y138600D02*
X397930D01*
X397967Y138321D01*
X398229Y137689D01*
X398646Y137146D01*
X399189Y136729D01*
X399821Y136467D01*
X400100Y136430D01*
Y138600D01*
D02*
G37*
G36*
X577570Y138100D02*
X575400D01*
Y135930D01*
X575679Y135967D01*
X576311Y136229D01*
X576854Y136646D01*
X577271Y137189D01*
X577533Y137821D01*
X577570Y138100D01*
D02*
G37*
G36*
X595100Y139570D02*
X594821Y139533D01*
X594189Y139271D01*
X593646Y138854D01*
X593229Y138311D01*
X592967Y137679D01*
X592930Y137400D01*
X595100D01*
Y139570D01*
D02*
G37*
G36*
X403070Y138600D02*
X400900D01*
Y136430D01*
X401179Y136467D01*
X401811Y136729D01*
X402354Y137146D01*
X402771Y137689D01*
X403033Y138321D01*
X403070Y138600D01*
D02*
G37*
G36*
X337600Y150100D02*
X335430D01*
X335467Y149821D01*
X335729Y149189D01*
X336146Y148646D01*
X336689Y148229D01*
X337321Y147967D01*
X337600Y147930D01*
Y150100D01*
D02*
G37*
G36*
X558900Y146570D02*
Y144400D01*
X561070D01*
X561033Y144679D01*
X560771Y145311D01*
X560354Y145854D01*
X559811Y146271D01*
X559179Y146533D01*
X558900Y146570D01*
D02*
G37*
G36*
X578100Y152600D02*
X575930D01*
X575967Y152321D01*
X576229Y151689D01*
X576646Y151146D01*
X577189Y150729D01*
X577821Y150467D01*
X578100Y150430D01*
Y152600D01*
D02*
G37*
G36*
X340570Y150100D02*
X338400D01*
Y147930D01*
X338679Y147967D01*
X339311Y148229D01*
X339854Y148646D01*
X340271Y149189D01*
X340533Y149821D01*
X340570Y150100D01*
D02*
G37*
G36*
X561070Y143600D02*
X558900D01*
Y141430D01*
X559179Y141467D01*
X559811Y141729D01*
X560354Y142146D01*
X560771Y142689D01*
X561033Y143321D01*
X561070Y143600D01*
D02*
G37*
G36*
X558100D02*
X555930D01*
X555967Y143321D01*
X556229Y142689D01*
X556646Y142146D01*
X557189Y141729D01*
X557821Y141467D01*
X558100Y141430D01*
Y143600D01*
D02*
G37*
G36*
Y146570D02*
X557821Y146533D01*
X557189Y146271D01*
X556646Y145854D01*
X556229Y145311D01*
X555967Y144679D01*
X555930Y144400D01*
X558100D01*
Y146570D01*
D02*
G37*
G36*
X588500Y147122D02*
X587821Y147033D01*
X587189Y146771D01*
X586646Y146354D01*
X586229Y145811D01*
X585967Y145179D01*
X585878Y144500D01*
X585967Y143821D01*
X586229Y143189D01*
X586646Y142646D01*
X587189Y142229D01*
X587821Y141967D01*
X588500Y141878D01*
X589179Y141967D01*
X589811Y142229D01*
X590354Y142646D01*
X590771Y143189D01*
X591033Y143821D01*
X591122Y144500D01*
X591033Y145179D01*
X590771Y145811D01*
X590354Y146354D01*
X589811Y146771D01*
X589179Y147033D01*
X588500Y147122D01*
D02*
G37*
G36*
X574600Y138100D02*
X572430D01*
X572467Y137821D01*
X572729Y137189D01*
X573146Y136646D01*
X573689Y136229D01*
X574321Y135967D01*
X574600Y135930D01*
Y138100D01*
D02*
G37*
G36*
X389500Y132622D02*
X388821Y132533D01*
X388189Y132271D01*
X387646Y131854D01*
X387229Y131311D01*
X386967Y130679D01*
X386878Y130000D01*
X386967Y129321D01*
X387229Y128689D01*
X387646Y128146D01*
X388189Y127729D01*
X388821Y127467D01*
X389500Y127378D01*
X390179Y127467D01*
X390811Y127729D01*
X391354Y128146D01*
X391771Y128689D01*
X392033Y129321D01*
X392122Y130000D01*
X392033Y130679D01*
X391771Y131311D01*
X391354Y131854D01*
X390811Y132271D01*
X390179Y132533D01*
X389500Y132622D01*
D02*
G37*
G36*
X478900Y128570D02*
Y126400D01*
X481070D01*
X481033Y126679D01*
X480771Y127311D01*
X480354Y127854D01*
X479811Y128271D01*
X479179Y128533D01*
X478900Y128570D01*
D02*
G37*
G36*
X537900Y130070D02*
Y127900D01*
X540070D01*
X540033Y128179D01*
X539771Y128811D01*
X539354Y129354D01*
X538811Y129771D01*
X538179Y130033D01*
X537900Y130070D01*
D02*
G37*
G36*
X537100D02*
X536821Y130033D01*
X536189Y129771D01*
X535646Y129354D01*
X535229Y128811D01*
X534967Y128179D01*
X534930Y127900D01*
X537100D01*
Y130070D01*
D02*
G37*
G36*
X383100Y127570D02*
X382821Y127533D01*
X382189Y127271D01*
X381646Y126854D01*
X381229Y126311D01*
X380967Y125679D01*
X380930Y125400D01*
X383100D01*
Y127570D01*
D02*
G37*
G36*
X540070Y127100D02*
X537900D01*
Y124930D01*
X538179Y124967D01*
X538811Y125229D01*
X539354Y125646D01*
X539771Y126189D01*
X540033Y126821D01*
X540070Y127100D01*
D02*
G37*
G36*
X478100Y128570D02*
X477821Y128533D01*
X477189Y128271D01*
X476646Y127854D01*
X476229Y127311D01*
X475967Y126679D01*
X475930Y126400D01*
X478100D01*
Y128570D01*
D02*
G37*
G36*
X383900Y127570D02*
Y125400D01*
X386070D01*
X386033Y125679D01*
X385771Y126311D01*
X385354Y126854D01*
X384811Y127271D01*
X384179Y127533D01*
X383900Y127570D01*
D02*
G37*
G36*
X337900Y136070D02*
Y133900D01*
X340070D01*
X340033Y134179D01*
X339771Y134811D01*
X339354Y135354D01*
X338811Y135771D01*
X338179Y136033D01*
X337900Y136070D01*
D02*
G37*
G36*
X337100D02*
X336821Y136033D01*
X336189Y135771D01*
X335646Y135354D01*
X335229Y134811D01*
X334967Y134179D01*
X334930Y133900D01*
X337100D01*
Y136070D01*
D02*
G37*
G36*
X595100Y136600D02*
X592930D01*
X592967Y136321D01*
X593229Y135689D01*
X593646Y135146D01*
X594189Y134729D01*
X594821Y134467D01*
X595100Y134430D01*
Y136600D01*
D02*
G37*
G36*
X475750Y139372D02*
X475071Y139283D01*
X474439Y139021D01*
X473896Y138604D01*
X473479Y138061D01*
X473217Y137429D01*
X473128Y136750D01*
X473217Y136071D01*
X473479Y135439D01*
X473896Y134896D01*
X474439Y134479D01*
X475071Y134217D01*
X475750Y134128D01*
X476429Y134217D01*
X477061Y134479D01*
X477604Y134896D01*
X478021Y135439D01*
X478283Y136071D01*
X478372Y136750D01*
X478283Y137429D01*
X478021Y138061D01*
X477604Y138604D01*
X477061Y139021D01*
X476429Y139283D01*
X475750Y139372D01*
D02*
G37*
G36*
X337100Y133100D02*
X334930D01*
X334967Y132821D01*
X335229Y132189D01*
X335646Y131646D01*
X336189Y131229D01*
X336821Y130967D01*
X337100Y130930D01*
Y133100D01*
D02*
G37*
G36*
X488000Y134622D02*
X487321Y134533D01*
X486689Y134271D01*
X486146Y133854D01*
X485729Y133311D01*
X485467Y132679D01*
X485378Y132000D01*
X485467Y131321D01*
X485729Y130689D01*
X486146Y130146D01*
X486689Y129729D01*
X487321Y129467D01*
X488000Y129378D01*
X488679Y129467D01*
X489311Y129729D01*
X489854Y130146D01*
X490271Y130689D01*
X490533Y131321D01*
X490622Y132000D01*
X490533Y132679D01*
X490271Y133311D01*
X489854Y133854D01*
X489311Y134271D01*
X488679Y134533D01*
X488000Y134622D01*
D02*
G37*
G36*
X384000Y136622D02*
X383321Y136533D01*
X382689Y136271D01*
X382146Y135854D01*
X381729Y135311D01*
X381467Y134679D01*
X381378Y134000D01*
X381467Y133321D01*
X381729Y132689D01*
X382146Y132146D01*
X382689Y131729D01*
X383321Y131467D01*
X384000Y131378D01*
X384679Y131467D01*
X385311Y131729D01*
X385854Y132146D01*
X386271Y132689D01*
X386533Y133321D01*
X386622Y134000D01*
X386533Y134679D01*
X386271Y135311D01*
X385854Y135854D01*
X385311Y136271D01*
X384679Y136533D01*
X384000Y136622D01*
D02*
G37*
G36*
X340070Y133100D02*
X337900D01*
Y130930D01*
X338179Y130967D01*
X338811Y131229D01*
X339354Y131646D01*
X339771Y132189D01*
X340033Y132821D01*
X340070Y133100D01*
D02*
G37*
G36*
X318900Y523105D02*
Y520935D01*
X321070D01*
X321033Y521214D01*
X320771Y521847D01*
X320354Y522390D01*
X319811Y522807D01*
X319179Y523069D01*
X318900Y523105D01*
D02*
G37*
G36*
X318100D02*
X317821Y523069D01*
X317189Y522807D01*
X316646Y522390D01*
X316229Y521847D01*
X315967Y521214D01*
X315930Y520935D01*
X318100D01*
Y523105D01*
D02*
G37*
G36*
X483570Y523600D02*
X481400D01*
Y521430D01*
X481679Y521467D01*
X482311Y521729D01*
X482854Y522146D01*
X483271Y522689D01*
X483533Y523321D01*
X483570Y523600D01*
D02*
G37*
G36*
X480600D02*
X478430D01*
X478467Y523321D01*
X478729Y522689D01*
X479146Y522146D01*
X479689Y521729D01*
X480321Y521467D01*
X480600Y521430D01*
Y523600D01*
D02*
G37*
G36*
X519000Y525122D02*
X518321Y525033D01*
X517689Y524771D01*
X517146Y524354D01*
X516729Y523811D01*
X516467Y523179D01*
X516378Y522500D01*
X516467Y521821D01*
X516729Y521189D01*
X517146Y520646D01*
X517689Y520229D01*
X518321Y519967D01*
X519000Y519878D01*
X519679Y519967D01*
X520311Y520229D01*
X520854Y520646D01*
X521271Y521189D01*
X521533Y521821D01*
X521622Y522500D01*
X521533Y523179D01*
X521271Y523811D01*
X520854Y524354D01*
X520311Y524771D01*
X519679Y525033D01*
X519000Y525122D01*
D02*
G37*
G36*
X500000D02*
X499321Y525033D01*
X498689Y524771D01*
X498146Y524354D01*
X497729Y523811D01*
X497467Y523179D01*
X497378Y522500D01*
X497467Y521821D01*
X497729Y521189D01*
X498146Y520646D01*
X498689Y520229D01*
X499321Y519967D01*
X500000Y519878D01*
X500679Y519967D01*
X501311Y520229D01*
X501854Y520646D01*
X502271Y521189D01*
X502533Y521821D01*
X502622Y522500D01*
X502533Y523179D01*
X502271Y523811D01*
X501854Y524354D01*
X501311Y524771D01*
X500679Y525033D01*
X500000Y525122D01*
D02*
G37*
G36*
X368400Y522987D02*
Y520817D01*
X370570D01*
X370533Y521096D01*
X370271Y521729D01*
X369854Y522272D01*
X369311Y522688D01*
X368679Y522950D01*
X368400Y522987D01*
D02*
G37*
G36*
X367600D02*
X367321Y522950D01*
X366689Y522688D01*
X366146Y522272D01*
X365729Y521729D01*
X365467Y521096D01*
X365430Y520817D01*
X367600D01*
Y522987D01*
D02*
G37*
G36*
X295600Y537087D02*
X294799Y536982D01*
X293680Y536518D01*
X292719Y535781D01*
X291982Y534820D01*
X291518Y533701D01*
X291413Y532900D01*
X295600D01*
Y537087D01*
D02*
G37*
G36*
X504500Y536122D02*
X503821Y536033D01*
X503189Y535771D01*
X502646Y535354D01*
X502229Y534811D01*
X501967Y534179D01*
X501878Y533500D01*
X501967Y532821D01*
X502229Y532189D01*
X502646Y531646D01*
X503189Y531229D01*
X503821Y530967D01*
X504500Y530878D01*
X505179Y530967D01*
X505811Y531229D01*
X506354Y531646D01*
X506771Y532189D01*
X507033Y532821D01*
X507122Y533500D01*
X507033Y534179D01*
X506771Y534811D01*
X506354Y535354D01*
X505811Y535771D01*
X505179Y536033D01*
X504500Y536122D01*
D02*
G37*
G36*
X532388Y539923D02*
X531709Y539833D01*
X531077Y539571D01*
X530534Y539154D01*
X530117Y538611D01*
X529855Y537979D01*
X529766Y537300D01*
X529855Y536621D01*
X530117Y535989D01*
X530534Y535446D01*
X531077Y535029D01*
X531709Y534767D01*
X532388Y534678D01*
X533067Y534767D01*
X533699Y535029D01*
X534242Y535446D01*
X534659Y535989D01*
X534921Y536621D01*
X535011Y537300D01*
X534921Y537979D01*
X534659Y538611D01*
X534242Y539154D01*
X533699Y539571D01*
X533067Y539833D01*
X532388Y539923D01*
D02*
G37*
G36*
X296400Y537087D02*
Y532900D01*
X300587D01*
X300482Y533701D01*
X300018Y534820D01*
X299281Y535781D01*
X298320Y536518D01*
X297201Y536982D01*
X296400Y537087D01*
D02*
G37*
G36*
X481400Y526570D02*
Y524400D01*
X483570D01*
X483533Y524679D01*
X483271Y525311D01*
X482854Y525854D01*
X482311Y526271D01*
X481679Y526533D01*
X481400Y526570D01*
D02*
G37*
G36*
X480600D02*
X480321Y526533D01*
X479689Y526271D01*
X479146Y525854D01*
X478729Y525311D01*
X478467Y524679D01*
X478430Y524400D01*
X480600D01*
Y526570D01*
D02*
G37*
G36*
X300587Y532100D02*
X296400D01*
Y527913D01*
X297201Y528018D01*
X298320Y528482D01*
X299281Y529219D01*
X300018Y530180D01*
X300482Y531299D01*
X300587Y532100D01*
D02*
G37*
G36*
X295600D02*
X291413D01*
X291518Y531299D01*
X291982Y530180D01*
X292719Y529219D01*
X293680Y528482D01*
X294799Y528018D01*
X295600Y527913D01*
Y532100D01*
D02*
G37*
G36*
X511000Y523622D02*
X510321Y523533D01*
X509689Y523271D01*
X509146Y522854D01*
X508729Y522311D01*
X508467Y521679D01*
X508378Y521000D01*
X508467Y520321D01*
X508729Y519689D01*
X509146Y519146D01*
X509689Y518729D01*
X510321Y518467D01*
X511000Y518378D01*
X511679Y518467D01*
X512311Y518729D01*
X512854Y519146D01*
X513271Y519689D01*
X513533Y520321D01*
X513622Y521000D01*
X513533Y521679D01*
X513271Y522311D01*
X512854Y522854D01*
X512311Y523271D01*
X511679Y523533D01*
X511000Y523622D01*
D02*
G37*
G36*
X344100Y509596D02*
X343038Y509456D01*
X341676Y508892D01*
X340506Y507994D01*
X339608Y506824D01*
X339044Y505462D01*
X338904Y504400D01*
X344100D01*
Y509596D01*
D02*
G37*
G36*
X533070Y504100D02*
X530900D01*
Y501930D01*
X531179Y501967D01*
X531811Y502229D01*
X532354Y502646D01*
X532771Y503189D01*
X533033Y503821D01*
X533070Y504100D01*
D02*
G37*
G36*
X530100Y507070D02*
X529821Y507033D01*
X529189Y506771D01*
X528646Y506354D01*
X528229Y505811D01*
X527967Y505179D01*
X527930Y504900D01*
X530100D01*
Y507070D01*
D02*
G37*
G36*
X344900Y509596D02*
Y504400D01*
X350096D01*
X349956Y505462D01*
X349392Y506824D01*
X348494Y507994D01*
X347324Y508892D01*
X345962Y509456D01*
X344900Y509596D01*
D02*
G37*
G36*
X344100Y503600D02*
X338904D01*
X339044Y502538D01*
X339608Y501176D01*
X340506Y500006D01*
X341676Y499108D01*
X343038Y498544D01*
X344100Y498404D01*
Y503600D01*
D02*
G37*
G36*
X530000Y500622D02*
X529321Y500533D01*
X528689Y500271D01*
X528146Y499854D01*
X527729Y499311D01*
X527467Y498679D01*
X527378Y498000D01*
X527467Y497321D01*
X527729Y496689D01*
X528146Y496146D01*
X528689Y495729D01*
X529321Y495467D01*
X530000Y495378D01*
X530679Y495467D01*
X531311Y495729D01*
X531854Y496146D01*
X532271Y496689D01*
X532533Y497321D01*
X532622Y498000D01*
X532533Y498679D01*
X532271Y499311D01*
X531854Y499854D01*
X531311Y500271D01*
X530679Y500533D01*
X530000Y500622D01*
D02*
G37*
G36*
X530100Y504100D02*
X527930D01*
X527967Y503821D01*
X528229Y503189D01*
X528646Y502646D01*
X529189Y502229D01*
X529821Y501967D01*
X530100Y501930D01*
Y504100D01*
D02*
G37*
G36*
X350096Y503600D02*
X344900D01*
Y498404D01*
X345962Y498544D01*
X347324Y499108D01*
X348494Y500006D01*
X349392Y501176D01*
X349956Y502538D01*
X350096Y503600D01*
D02*
G37*
G36*
X370570Y520017D02*
X368400D01*
Y517847D01*
X368679Y517884D01*
X369311Y518146D01*
X369854Y518563D01*
X370271Y519106D01*
X370533Y519739D01*
X370570Y520017D01*
D02*
G37*
G36*
X367600D02*
X365430D01*
X365467Y519739D01*
X365729Y519106D01*
X366146Y518563D01*
X366689Y518146D01*
X367321Y517884D01*
X367600Y517847D01*
Y520017D01*
D02*
G37*
G36*
X321070Y520135D02*
X318900D01*
Y517966D01*
X319179Y518002D01*
X319811Y518264D01*
X320354Y518681D01*
X320771Y519224D01*
X321033Y519857D01*
X321070Y520135D01*
D02*
G37*
G36*
X318100D02*
X315930D01*
X315967Y519857D01*
X316229Y519224D01*
X316646Y518681D01*
X317189Y518264D01*
X317821Y518002D01*
X318100Y517966D01*
Y520135D01*
D02*
G37*
G36*
X418500Y513622D02*
X417821Y513533D01*
X417189Y513271D01*
X416646Y512854D01*
X416229Y512311D01*
X415967Y511679D01*
X415878Y511000D01*
X415967Y510321D01*
X416229Y509689D01*
X416646Y509146D01*
X417189Y508729D01*
X417821Y508467D01*
X418500Y508378D01*
X419179Y508467D01*
X419811Y508729D01*
X420354Y509146D01*
X420443Y509261D01*
X420926Y509132D01*
X420967Y508821D01*
X421229Y508189D01*
X421646Y507646D01*
X422189Y507229D01*
X422821Y506967D01*
X423500Y506878D01*
X424179Y506967D01*
X424811Y507229D01*
X425354Y507646D01*
X425771Y508189D01*
X426033Y508821D01*
X426122Y509500D01*
X426033Y510179D01*
X425771Y510811D01*
X425354Y511354D01*
X424811Y511771D01*
X424179Y512033D01*
X423500Y512122D01*
X422821Y512033D01*
X422189Y511771D01*
X421646Y511354D01*
X421557Y511239D01*
X421074Y511368D01*
X421033Y511679D01*
X420771Y512311D01*
X420354Y512854D01*
X419811Y513271D01*
X419179Y513533D01*
X418500Y513622D01*
D02*
G37*
G36*
X530900Y507070D02*
Y504900D01*
X533070D01*
X533033Y505179D01*
X532771Y505811D01*
X532354Y506354D01*
X531811Y506771D01*
X531179Y507033D01*
X530900Y507070D01*
D02*
G37*
G36*
X441000Y522122D02*
X440321Y522033D01*
X439689Y521771D01*
X439146Y521354D01*
X438729Y520811D01*
X438467Y520179D01*
X438378Y519500D01*
X438467Y518821D01*
X438729Y518189D01*
X439146Y517646D01*
X439689Y517229D01*
X440321Y516967D01*
X441000Y516878D01*
X441679Y516967D01*
X442311Y517229D01*
X442854Y517646D01*
X443271Y518189D01*
X443533Y518821D01*
X443622Y519500D01*
X443533Y520179D01*
X443271Y520811D01*
X442854Y521354D01*
X442311Y521771D01*
X441679Y522033D01*
X441000Y522122D01*
D02*
G37*
G36*
X433500Y516122D02*
X432821Y516033D01*
X432189Y515771D01*
X431646Y515354D01*
X431229Y514811D01*
X430967Y514179D01*
X430878Y513500D01*
X430967Y512821D01*
X431229Y512189D01*
X431646Y511646D01*
X432189Y511229D01*
X432821Y510967D01*
X433500Y510878D01*
X434179Y510967D01*
X434811Y511229D01*
X435354Y511646D01*
X435771Y512189D01*
X436033Y512821D01*
X436122Y513500D01*
X436033Y514179D01*
X435771Y514811D01*
X435354Y515354D01*
X434811Y515771D01*
X434179Y516033D01*
X433500Y516122D01*
D02*
G37*
G36*
X529100Y571070D02*
X528821Y571033D01*
X528189Y570771D01*
X527646Y570354D01*
X527229Y569811D01*
X526967Y569179D01*
X526930Y568900D01*
X529100D01*
Y571070D01*
D02*
G37*
G36*
X481500Y573122D02*
X480821Y573033D01*
X480189Y572771D01*
X479646Y572354D01*
X479229Y571811D01*
X478967Y571179D01*
X478878Y570500D01*
X478967Y569821D01*
X479229Y569189D01*
X479646Y568646D01*
X480189Y568229D01*
X480821Y567967D01*
X481500Y567878D01*
X482179Y567967D01*
X482811Y568229D01*
X483354Y568646D01*
X483771Y569189D01*
X484033Y569821D01*
X484122Y570500D01*
X484033Y571179D01*
X483771Y571811D01*
X483354Y572354D01*
X482811Y572771D01*
X482179Y573033D01*
X481500Y573122D01*
D02*
G37*
G36*
X423100Y574100D02*
X420930D01*
X420967Y573821D01*
X421229Y573189D01*
X421646Y572646D01*
X422189Y572229D01*
X422821Y571967D01*
X423100Y571930D01*
Y574100D01*
D02*
G37*
G36*
X529900Y571070D02*
Y568900D01*
X532070D01*
X532033Y569179D01*
X531771Y569811D01*
X531354Y570354D01*
X530811Y570771D01*
X530179Y571033D01*
X529900Y571070D01*
D02*
G37*
G36*
X532070Y568100D02*
X529900D01*
Y565930D01*
X530179Y565967D01*
X530811Y566229D01*
X531354Y566646D01*
X531771Y567189D01*
X532033Y567821D01*
X532070Y568100D01*
D02*
G37*
G36*
X529100D02*
X526930D01*
X526967Y567821D01*
X527229Y567189D01*
X527646Y566646D01*
X528189Y566229D01*
X528821Y565967D01*
X529100Y565930D01*
Y568100D01*
D02*
G37*
G36*
X491941Y568170D02*
Y566000D01*
X494111D01*
X494074Y566279D01*
X493813Y566911D01*
X493396Y567454D01*
X492853Y567871D01*
X492220Y568133D01*
X491941Y568170D01*
D02*
G37*
G36*
X491141D02*
X490863Y568133D01*
X490230Y567871D01*
X489687Y567454D01*
X489270Y566911D01*
X489008Y566279D01*
X488972Y566000D01*
X491141D01*
Y568170D01*
D02*
G37*
G36*
X432070Y588100D02*
X429900D01*
Y585930D01*
X430179Y585967D01*
X430811Y586229D01*
X431354Y586646D01*
X431771Y587189D01*
X432033Y587821D01*
X432070Y588100D01*
D02*
G37*
G36*
X429100D02*
X426930D01*
X426967Y587821D01*
X427229Y587189D01*
X427646Y586646D01*
X428189Y586229D01*
X428821Y585967D01*
X429100Y585930D01*
Y588100D01*
D02*
G37*
G36*
X429900Y591070D02*
Y588900D01*
X432070D01*
X432033Y589179D01*
X431771Y589811D01*
X431354Y590354D01*
X430811Y590771D01*
X430179Y591033D01*
X429900Y591070D01*
D02*
G37*
G36*
X429100D02*
X428821Y591033D01*
X428189Y590771D01*
X427646Y590354D01*
X427229Y589811D01*
X426967Y589179D01*
X426930Y588900D01*
X429100D01*
Y591070D01*
D02*
G37*
G36*
X423100Y577070D02*
X422821Y577033D01*
X422189Y576771D01*
X421646Y576354D01*
X421229Y575811D01*
X420967Y575179D01*
X420930Y574900D01*
X423100D01*
Y577070D01*
D02*
G37*
G36*
X426070Y574100D02*
X423900D01*
Y571930D01*
X424179Y571967D01*
X424811Y572229D01*
X425354Y572646D01*
X425771Y573189D01*
X426033Y573821D01*
X426070Y574100D01*
D02*
G37*
G36*
X511500Y580622D02*
X510821Y580533D01*
X510189Y580271D01*
X509646Y579854D01*
X509229Y579311D01*
X508967Y578679D01*
X508878Y578000D01*
X508967Y577321D01*
X509229Y576689D01*
X509646Y576146D01*
X510189Y575729D01*
X510821Y575467D01*
X511500Y575378D01*
X512179Y575467D01*
X512811Y575729D01*
X513354Y576146D01*
X513771Y576689D01*
X514033Y577321D01*
X514122Y578000D01*
X514033Y578679D01*
X513771Y579311D01*
X513354Y579854D01*
X512811Y580271D01*
X512179Y580533D01*
X511500Y580622D01*
D02*
G37*
G36*
X423900Y577070D02*
Y574900D01*
X426070D01*
X426033Y575179D01*
X425771Y575811D01*
X425354Y576354D01*
X424811Y576771D01*
X424179Y577033D01*
X423900Y577070D01*
D02*
G37*
G36*
X494111Y565200D02*
X491941D01*
Y563030D01*
X492220Y563067D01*
X492853Y563329D01*
X493396Y563746D01*
X493813Y564289D01*
X494074Y564921D01*
X494111Y565200D01*
D02*
G37*
G36*
X469570Y547100D02*
X467400D01*
Y544930D01*
X467679Y544967D01*
X468311Y545229D01*
X468854Y545646D01*
X469271Y546189D01*
X469533Y546821D01*
X469570Y547100D01*
D02*
G37*
G36*
X466600D02*
X464430D01*
X464467Y546821D01*
X464729Y546189D01*
X465146Y545646D01*
X465689Y545229D01*
X466321Y544967D01*
X466600Y544930D01*
Y547100D01*
D02*
G37*
G36*
X467400Y550070D02*
Y547900D01*
X469570D01*
X469533Y548179D01*
X469271Y548811D01*
X468854Y549354D01*
X468311Y549771D01*
X467679Y550033D01*
X467400Y550070D01*
D02*
G37*
G36*
X466600D02*
X466321Y550033D01*
X465689Y549771D01*
X465146Y549354D01*
X464729Y548811D01*
X464467Y548179D01*
X464430Y547900D01*
X466600D01*
Y550070D01*
D02*
G37*
G36*
X501500Y546122D02*
X500821Y546033D01*
X500189Y545771D01*
X499646Y545354D01*
X499229Y544811D01*
X498967Y544179D01*
X498878Y543500D01*
X498967Y542821D01*
X499229Y542189D01*
X499646Y541646D01*
X500161Y541250D01*
Y540750D01*
X499646Y540354D01*
X499229Y539811D01*
X498967Y539179D01*
X498878Y538500D01*
X498967Y537821D01*
X499229Y537189D01*
X499646Y536646D01*
X500189Y536229D01*
X500821Y535967D01*
X501500Y535878D01*
X502179Y535967D01*
X502811Y536229D01*
X503354Y536646D01*
X503771Y537189D01*
X504033Y537821D01*
X504122Y538500D01*
X504033Y539179D01*
X503771Y539811D01*
X503354Y540354D01*
X502811Y540771D01*
Y541229D01*
X503354Y541646D01*
X503771Y542189D01*
X504033Y542821D01*
X504122Y543500D01*
X504033Y544179D01*
X503771Y544811D01*
X503354Y545354D01*
X502811Y545771D01*
X502179Y546033D01*
X501500Y546122D01*
D02*
G37*
G36*
X419000Y540622D02*
X418321Y540533D01*
X417689Y540271D01*
X417146Y539854D01*
X416729Y539311D01*
X416467Y538679D01*
X416378Y538000D01*
X416467Y537321D01*
X416729Y536689D01*
X417146Y536146D01*
X417689Y535729D01*
X418321Y535467D01*
X419000Y535378D01*
X419679Y535467D01*
X420311Y535729D01*
X420854Y536146D01*
X421271Y536689D01*
X421533Y537321D01*
X421622Y538000D01*
X421533Y538679D01*
X421271Y539311D01*
X420854Y539854D01*
X420311Y540271D01*
X419679Y540533D01*
X419000Y540622D01*
D02*
G37*
G36*
X532500Y546622D02*
X531821Y546533D01*
X531189Y546271D01*
X530646Y545854D01*
X530229Y545311D01*
X529967Y544679D01*
X529894Y544125D01*
X529619Y543966D01*
X529332Y543928D01*
X529079Y544033D01*
X528400Y544122D01*
X527721Y544033D01*
X527089Y543771D01*
X526546Y543354D01*
X526129Y542811D01*
X525867Y542179D01*
X525778Y541500D01*
X525867Y540821D01*
X526129Y540189D01*
X526546Y539646D01*
X527089Y539229D01*
X527721Y538967D01*
X528400Y538878D01*
X529079Y538967D01*
X529711Y539229D01*
X530254Y539646D01*
X530671Y540189D01*
X530933Y540821D01*
X531006Y541375D01*
X531281Y541534D01*
X531568Y541572D01*
X531821Y541467D01*
X532500Y541378D01*
X533179Y541467D01*
X533811Y541729D01*
X534354Y542146D01*
X534771Y542689D01*
X535033Y543321D01*
X535122Y544000D01*
X535033Y544679D01*
X534771Y545311D01*
X534354Y545854D01*
X533811Y546271D01*
X533179Y546533D01*
X532500Y546622D01*
D02*
G37*
G36*
X441000Y541622D02*
X440321Y541533D01*
X439689Y541271D01*
X439146Y540854D01*
X438729Y540311D01*
X438467Y539679D01*
X438378Y539000D01*
X438467Y538321D01*
X438729Y537689D01*
X439146Y537146D01*
X439689Y536729D01*
X440321Y536467D01*
X441000Y536378D01*
X441679Y536467D01*
X442311Y536729D01*
X442854Y537146D01*
X443271Y537689D01*
X443533Y538321D01*
X443622Y539000D01*
X443533Y539679D01*
X443271Y540311D01*
X442854Y540854D01*
X442311Y541271D01*
X441679Y541533D01*
X441000Y541622D01*
D02*
G37*
G36*
X447500Y567122D02*
X446821Y567033D01*
X446189Y566771D01*
X445646Y566354D01*
X445229Y565811D01*
X444967Y565179D01*
X444878Y564500D01*
X444967Y563821D01*
X445229Y563189D01*
X445646Y562646D01*
X446189Y562229D01*
X446821Y561967D01*
X447500Y561878D01*
X448179Y561967D01*
X448811Y562229D01*
X449354Y562646D01*
X449771Y563189D01*
X450033Y563821D01*
X450122Y564500D01*
X450033Y565179D01*
X449771Y565811D01*
X449354Y566354D01*
X448811Y566771D01*
X448179Y567033D01*
X447500Y567122D01*
D02*
G37*
G36*
X536500Y565622D02*
X535821Y565533D01*
X535189Y565271D01*
X534646Y564854D01*
X534229Y564311D01*
X533967Y563679D01*
X533878Y563000D01*
X533967Y562321D01*
X534229Y561689D01*
X534646Y561146D01*
X535189Y560729D01*
X535821Y560467D01*
X536500Y560378D01*
X537179Y560467D01*
X537811Y560729D01*
X538354Y561146D01*
X538771Y561689D01*
X539033Y562321D01*
X539122Y563000D01*
X539033Y563679D01*
X538771Y564311D01*
X538354Y564854D01*
X537811Y565271D01*
X537179Y565533D01*
X536500Y565622D01*
D02*
G37*
G36*
X491141Y565200D02*
X488972D01*
X489008Y564921D01*
X489270Y564289D01*
X489687Y563746D01*
X490230Y563329D01*
X490863Y563067D01*
X491141Y563030D01*
Y565200D01*
D02*
G37*
G36*
X478500Y567622D02*
X477821Y567533D01*
X477189Y567271D01*
X476646Y566854D01*
X476229Y566311D01*
X475967Y565679D01*
X475878Y565000D01*
X475967Y564321D01*
X476229Y563689D01*
X476646Y563146D01*
X477189Y562729D01*
X477821Y562467D01*
X478500Y562378D01*
X479179Y562467D01*
X479811Y562729D01*
X480354Y563146D01*
X480771Y563689D01*
X481033Y564321D01*
X481122Y565000D01*
X481033Y565679D01*
X480771Y566311D01*
X480354Y566854D01*
X479811Y567271D01*
X479179Y567533D01*
X478500Y567622D01*
D02*
G37*
G36*
X525500Y556122D02*
X524821Y556033D01*
X524189Y555771D01*
X523646Y555354D01*
X523229Y554811D01*
X522967Y554179D01*
X522878Y553500D01*
X522967Y552821D01*
X523229Y552189D01*
X523646Y551646D01*
X524189Y551229D01*
X524821Y550967D01*
X525500Y550878D01*
X526179Y550967D01*
X526811Y551229D01*
X527354Y551646D01*
X527771Y552189D01*
X528033Y552821D01*
X528122Y553500D01*
X528033Y554179D01*
X527771Y554811D01*
X527354Y555354D01*
X526811Y555771D01*
X526179Y556033D01*
X525500Y556122D01*
D02*
G37*
G36*
X502500D02*
X501821Y556033D01*
X501189Y555771D01*
X500646Y555354D01*
X500229Y554811D01*
X499967Y554179D01*
X499878Y553500D01*
X499967Y552821D01*
X500229Y552189D01*
X500646Y551646D01*
X501189Y551229D01*
X501821Y550967D01*
X502500Y550878D01*
X503179Y550967D01*
X503811Y551229D01*
X504354Y551646D01*
X504771Y552189D01*
X505033Y552821D01*
X505122Y553500D01*
X505033Y554179D01*
X504771Y554811D01*
X504354Y555354D01*
X503811Y555771D01*
X503179Y556033D01*
X502500Y556122D01*
D02*
G37*
G36*
X483500Y564122D02*
X482821Y564033D01*
X482189Y563771D01*
X481646Y563354D01*
X481229Y562811D01*
X480967Y562179D01*
X480878Y561500D01*
X480967Y560821D01*
X481229Y560189D01*
X481646Y559646D01*
X482189Y559229D01*
X482821Y558967D01*
X483500Y558878D01*
X484179Y558967D01*
X484811Y559229D01*
X485354Y559646D01*
X485771Y560189D01*
X486033Y560821D01*
X486122Y561500D01*
X486033Y562179D01*
X485771Y562811D01*
X485354Y563354D01*
X484811Y563771D01*
X484179Y564033D01*
X483500Y564122D01*
D02*
G37*
G36*
X492500Y560122D02*
X491821Y560033D01*
X491189Y559771D01*
X490646Y559354D01*
X490229Y558811D01*
X489967Y558179D01*
X489878Y557500D01*
X489967Y556821D01*
X490229Y556189D01*
X490646Y555646D01*
X491189Y555229D01*
X491821Y554967D01*
X492500Y554878D01*
X493179Y554967D01*
X493811Y555229D01*
X494354Y555646D01*
X494771Y556189D01*
X495033Y556821D01*
X495122Y557500D01*
X495033Y558179D01*
X494771Y558811D01*
X494354Y559354D01*
X493811Y559771D01*
X493179Y560033D01*
X492500Y560122D01*
D02*
G37*
G36*
X429000Y497122D02*
X428321Y497033D01*
X427689Y496771D01*
X427146Y496354D01*
X426729Y495811D01*
X426467Y495179D01*
X426378Y494500D01*
X426467Y493821D01*
X426729Y493189D01*
X427146Y492646D01*
X427689Y492229D01*
X428321Y491967D01*
X429000Y491878D01*
X429679Y491967D01*
X430311Y492229D01*
X430854Y492646D01*
X431271Y493189D01*
X431533Y493821D01*
X431622Y494500D01*
X431533Y495179D01*
X431271Y495811D01*
X430854Y496354D01*
X430311Y496771D01*
X429679Y497033D01*
X429000Y497122D01*
D02*
G37*
G36*
X546000Y370122D02*
X545321Y370033D01*
X544689Y369771D01*
X544146Y369354D01*
X543729Y368811D01*
X543467Y368179D01*
X543378Y367500D01*
X543467Y366821D01*
X543729Y366189D01*
X544146Y365646D01*
X544689Y365229D01*
X545321Y364967D01*
X546000Y364878D01*
X546679Y364967D01*
X547311Y365229D01*
X547854Y365646D01*
X548271Y366189D01*
X548533Y366821D01*
X548622Y367500D01*
X548533Y368179D01*
X548271Y368811D01*
X547854Y369354D01*
X547311Y369771D01*
X546679Y370033D01*
X546000Y370122D01*
D02*
G37*
G36*
X354000Y368122D02*
X353321Y368033D01*
X352689Y367771D01*
X352146Y367354D01*
X351729Y366811D01*
X351467Y366179D01*
X351378Y365500D01*
X351467Y364821D01*
X351729Y364189D01*
X352146Y363646D01*
X352689Y363229D01*
X353321Y362967D01*
X354000Y362878D01*
X354679Y362967D01*
X355311Y363229D01*
X355854Y363646D01*
X356271Y364189D01*
X356533Y364821D01*
X356622Y365500D01*
X356533Y366179D01*
X356271Y366811D01*
X355854Y367354D01*
X355311Y367771D01*
X354679Y368033D01*
X354000Y368122D01*
D02*
G37*
G36*
X371070Y372100D02*
X368900D01*
Y369930D01*
X369179Y369967D01*
X369811Y370229D01*
X370354Y370646D01*
X370771Y371189D01*
X371033Y371821D01*
X371070Y372100D01*
D02*
G37*
G36*
X368100D02*
X365930D01*
X365967Y371821D01*
X366229Y371189D01*
X366646Y370646D01*
X367189Y370229D01*
X367821Y369967D01*
X368100Y369930D01*
Y372100D01*
D02*
G37*
G36*
X543100Y351570D02*
X542821Y351533D01*
X542189Y351271D01*
X541646Y350854D01*
X541229Y350311D01*
X540967Y349679D01*
X540930Y349400D01*
X543100D01*
Y351570D01*
D02*
G37*
G36*
X550900Y354231D02*
X549960Y354107D01*
X549085Y353745D01*
X548332Y353168D01*
X547755Y352415D01*
X547393Y351540D01*
X547269Y350600D01*
X547393Y349660D01*
X547755Y348784D01*
X548332Y348032D01*
X549085Y347455D01*
X549960Y347093D01*
X550900Y346969D01*
X551840Y347093D01*
X552715Y347455D01*
X553468Y348032D01*
X554045Y348784D01*
X554407Y349660D01*
X554531Y350600D01*
X554407Y351540D01*
X554045Y352415D01*
X553468Y353168D01*
X552715Y353745D01*
X551840Y354107D01*
X550900Y354231D01*
D02*
G37*
G36*
Y364231D02*
X549960Y364107D01*
X549085Y363745D01*
X548332Y363168D01*
X547755Y362416D01*
X547393Y361540D01*
X547269Y360600D01*
X547393Y359660D01*
X547755Y358785D01*
X548332Y358032D01*
X549085Y357455D01*
X549960Y357093D01*
X550900Y356969D01*
X551840Y357093D01*
X552715Y357455D01*
X553468Y358032D01*
X554045Y358785D01*
X554407Y359660D01*
X554531Y360600D01*
X554407Y361540D01*
X554045Y362416D01*
X553468Y363168D01*
X552715Y363745D01*
X551840Y364107D01*
X550900Y364231D01*
D02*
G37*
G36*
X543900Y351570D02*
Y349400D01*
X546070D01*
X546033Y349679D01*
X545771Y350311D01*
X545354Y350854D01*
X544811Y351271D01*
X544179Y351533D01*
X543900Y351570D01*
D02*
G37*
G36*
X331500Y385622D02*
X330821Y385533D01*
X330189Y385271D01*
X329646Y384854D01*
X329229Y384311D01*
X328967Y383679D01*
X328878Y383000D01*
X328967Y382321D01*
X329229Y381689D01*
X329646Y381146D01*
X330189Y380729D01*
X330821Y380467D01*
X331500Y380378D01*
X332179Y380467D01*
X332811Y380729D01*
X333354Y381146D01*
X333771Y381689D01*
X334033Y382321D01*
X334122Y383000D01*
X334033Y383679D01*
X333771Y384311D01*
X333354Y384854D01*
X332811Y385271D01*
X332179Y385533D01*
X331500Y385622D01*
D02*
G37*
G36*
X369500Y384622D02*
X368821Y384533D01*
X368189Y384271D01*
X367646Y383854D01*
X367229Y383311D01*
X366967Y382679D01*
X366878Y382000D01*
X366967Y381321D01*
X367229Y380689D01*
X367646Y380146D01*
X368189Y379729D01*
X368821Y379467D01*
X369500Y379378D01*
X370179Y379467D01*
X370811Y379729D01*
X371354Y380146D01*
X371771Y380689D01*
X372033Y381321D01*
X372122Y382000D01*
X372033Y382679D01*
X371771Y383311D01*
X371354Y383854D01*
X370811Y384271D01*
X370179Y384533D01*
X369500Y384622D01*
D02*
G37*
G36*
X505000Y393122D02*
X504321Y393033D01*
X503689Y392771D01*
X503146Y392354D01*
X502729Y391811D01*
X502467Y391179D01*
X502378Y390500D01*
X502467Y389821D01*
X502729Y389189D01*
X503146Y388646D01*
X503689Y388229D01*
X504321Y387967D01*
X505000Y387878D01*
X505679Y387967D01*
X506311Y388229D01*
X506854Y388646D01*
X507271Y389189D01*
X507533Y389821D01*
X507622Y390500D01*
X507533Y391179D01*
X507271Y391811D01*
X506854Y392354D01*
X506311Y392771D01*
X505679Y393033D01*
X505000Y393122D01*
D02*
G37*
G36*
X383000Y386622D02*
X382321Y386533D01*
X381689Y386271D01*
X381146Y385854D01*
X380729Y385311D01*
X380467Y384679D01*
X380378Y384000D01*
X380467Y383321D01*
X380729Y382689D01*
X381146Y382146D01*
X381689Y381729D01*
X382321Y381467D01*
X383000Y381378D01*
X383679Y381467D01*
X384311Y381729D01*
X384854Y382146D01*
X385271Y382689D01*
X385533Y383321D01*
X385622Y384000D01*
X385533Y384679D01*
X385271Y385311D01*
X384854Y385854D01*
X384311Y386271D01*
X383679Y386533D01*
X383000Y386622D01*
D02*
G37*
G36*
X368100Y375070D02*
X367821Y375033D01*
X367189Y374771D01*
X366646Y374354D01*
X366229Y373811D01*
X365967Y373179D01*
X365930Y372900D01*
X368100D01*
Y375070D01*
D02*
G37*
G36*
X340900Y374570D02*
Y372400D01*
X343070D01*
X343033Y372679D01*
X342771Y373311D01*
X342354Y373854D01*
X341811Y374271D01*
X341179Y374533D01*
X340900Y374570D01*
D02*
G37*
G36*
X340500Y384622D02*
X339821Y384533D01*
X339189Y384271D01*
X338646Y383854D01*
X338229Y383311D01*
X337967Y382679D01*
X337878Y382000D01*
X337967Y381321D01*
X338229Y380689D01*
X338646Y380146D01*
X339189Y379729D01*
X339821Y379467D01*
X340500Y379378D01*
X341179Y379467D01*
X341811Y379729D01*
X342354Y380146D01*
X342771Y380689D01*
X343033Y381321D01*
X343122Y382000D01*
X343033Y382679D01*
X342771Y383311D01*
X342354Y383854D01*
X341811Y384271D01*
X341179Y384533D01*
X340500Y384622D01*
D02*
G37*
G36*
X368900Y375070D02*
Y372900D01*
X371070D01*
X371033Y373179D01*
X370771Y373811D01*
X370354Y374354D01*
X369811Y374771D01*
X369179Y375033D01*
X368900Y375070D01*
D02*
G37*
G36*
X546070Y348600D02*
X543900D01*
Y346430D01*
X544179Y346467D01*
X544811Y346729D01*
X545354Y347146D01*
X545771Y347689D01*
X546033Y348321D01*
X546070Y348600D01*
D02*
G37*
G36*
X530000Y335622D02*
X529321Y335533D01*
X528689Y335271D01*
X528146Y334854D01*
X527729Y334311D01*
X527467Y333679D01*
X527378Y333000D01*
X527467Y332321D01*
X527729Y331689D01*
X528146Y331146D01*
X528689Y330729D01*
X529321Y330467D01*
X530000Y330378D01*
X530679Y330467D01*
X531311Y330729D01*
X531854Y331146D01*
X532271Y331689D01*
X532533Y332321D01*
X532622Y333000D01*
X532533Y333679D01*
X532271Y334311D01*
X531854Y334854D01*
X531311Y335271D01*
X530679Y335533D01*
X530000Y335622D01*
D02*
G37*
G36*
X365400Y324570D02*
Y322400D01*
X367570D01*
X367533Y322679D01*
X367271Y323311D01*
X366854Y323854D01*
X366311Y324271D01*
X365679Y324533D01*
X365400Y324570D01*
D02*
G37*
G36*
X394600Y337100D02*
X392430D01*
X392467Y336821D01*
X392729Y336189D01*
X393146Y335646D01*
X393689Y335229D01*
X394321Y334967D01*
X394600Y334930D01*
Y337100D01*
D02*
G37*
G36*
X374500Y338622D02*
X373821Y338533D01*
X373189Y338271D01*
X372646Y337854D01*
X372229Y337311D01*
X371967Y336679D01*
X371878Y336000D01*
X371967Y335321D01*
X372229Y334689D01*
X372646Y334146D01*
X373189Y333729D01*
X373821Y333467D01*
X374500Y333378D01*
X375179Y333467D01*
X375811Y333729D01*
X376354Y334146D01*
X376771Y334689D01*
X377033Y335321D01*
X377122Y336000D01*
X377033Y336679D01*
X376771Y337311D01*
X376354Y337854D01*
X375811Y338271D01*
X375179Y338533D01*
X374500Y338622D01*
D02*
G37*
G36*
X585500Y318122D02*
X584821Y318033D01*
X584189Y317771D01*
X583646Y317354D01*
X583229Y316811D01*
X582967Y316179D01*
X582878Y315500D01*
X582967Y314821D01*
X583229Y314189D01*
X583646Y313646D01*
X584189Y313229D01*
X584821Y312967D01*
X585500Y312878D01*
X586179Y312967D01*
X586811Y313229D01*
X587354Y313646D01*
X587771Y314189D01*
X588033Y314821D01*
X588122Y315500D01*
X588033Y316179D01*
X587771Y316811D01*
X587354Y317354D01*
X586811Y317771D01*
X586179Y318033D01*
X585500Y318122D01*
D02*
G37*
G36*
X521100Y313100D02*
X518930D01*
X518967Y312821D01*
X519229Y312189D01*
X519646Y311646D01*
X520189Y311229D01*
X520821Y310967D01*
X521100Y310930D01*
Y313100D01*
D02*
G37*
G36*
X367570Y321600D02*
X365400D01*
Y319430D01*
X365679Y319467D01*
X366311Y319729D01*
X366854Y320146D01*
X367271Y320689D01*
X367533Y321321D01*
X367570Y321600D01*
D02*
G37*
G36*
X521100Y316070D02*
X520821Y316033D01*
X520189Y315771D01*
X519646Y315354D01*
X519229Y314811D01*
X518967Y314179D01*
X518930Y313900D01*
X521100D01*
Y316070D01*
D02*
G37*
G36*
X513100Y340070D02*
X512821Y340033D01*
X512189Y339771D01*
X511646Y339354D01*
X511229Y338811D01*
X510967Y338179D01*
X510930Y337900D01*
X513100D01*
Y340070D01*
D02*
G37*
G36*
X395400D02*
Y337900D01*
X397570D01*
X397533Y338179D01*
X397271Y338811D01*
X396854Y339354D01*
X396311Y339771D01*
X395679Y340033D01*
X395400Y340070D01*
D02*
G37*
G36*
X543100Y348600D02*
X540930D01*
X540967Y348321D01*
X541229Y347689D01*
X541646Y347146D01*
X542189Y346729D01*
X542821Y346467D01*
X543100Y346430D01*
Y348600D01*
D02*
G37*
G36*
X513900Y340070D02*
Y337900D01*
X516070D01*
X516033Y338179D01*
X515771Y338811D01*
X515354Y339354D01*
X514811Y339771D01*
X514179Y340033D01*
X513900Y340070D01*
D02*
G37*
G36*
X513100Y337100D02*
X510930D01*
X510967Y336821D01*
X511229Y336189D01*
X511646Y335646D01*
X512189Y335229D01*
X512821Y334967D01*
X513100Y334930D01*
Y337100D01*
D02*
G37*
G36*
X397570D02*
X395400D01*
Y334930D01*
X395679Y334967D01*
X396311Y335229D01*
X396854Y335646D01*
X397271Y336189D01*
X397533Y336821D01*
X397570Y337100D01*
D02*
G37*
G36*
X394600Y340070D02*
X394321Y340033D01*
X393689Y339771D01*
X393146Y339354D01*
X392729Y338811D01*
X392467Y338179D01*
X392430Y337900D01*
X394600D01*
Y340070D01*
D02*
G37*
G36*
X516070Y337100D02*
X513900D01*
Y334930D01*
X514179Y334967D01*
X514811Y335229D01*
X515354Y335646D01*
X515771Y336189D01*
X516033Y336821D01*
X516070Y337100D01*
D02*
G37*
G36*
X322600Y476570D02*
X322321Y476533D01*
X321689Y476271D01*
X321146Y475854D01*
X320729Y475311D01*
X320467Y474679D01*
X320430Y474400D01*
X322600D01*
Y476570D01*
D02*
G37*
G36*
X465400Y475570D02*
Y473400D01*
X467570D01*
X467533Y473679D01*
X467271Y474311D01*
X466854Y474854D01*
X466311Y475271D01*
X465679Y475533D01*
X465400Y475570D01*
D02*
G37*
G36*
X353500Y480122D02*
X352821Y480033D01*
X352189Y479771D01*
X351646Y479354D01*
X351229Y478811D01*
X350967Y478179D01*
X350878Y477500D01*
X350967Y476821D01*
X351229Y476189D01*
X351646Y475646D01*
X352189Y475229D01*
X352821Y474967D01*
X353500Y474878D01*
X354179Y474967D01*
X354811Y475229D01*
X355354Y475646D01*
X355771Y476189D01*
X356033Y476821D01*
X356122Y477500D01*
X356033Y478179D01*
X355771Y478811D01*
X355354Y479354D01*
X354811Y479771D01*
X354179Y480033D01*
X353500Y480122D01*
D02*
G37*
G36*
X323400Y476570D02*
Y474400D01*
X325570D01*
X325533Y474679D01*
X325271Y475311D01*
X324854Y475854D01*
X324311Y476271D01*
X323679Y476533D01*
X323400Y476570D01*
D02*
G37*
G36*
X366600Y475100D02*
X364430D01*
X364467Y474821D01*
X364729Y474189D01*
X365146Y473646D01*
X365689Y473229D01*
X366321Y472967D01*
X366600Y472930D01*
Y475100D01*
D02*
G37*
G36*
X391500Y478122D02*
X390821Y478033D01*
X390189Y477771D01*
X389646Y477354D01*
X389229Y476811D01*
X388967Y476179D01*
X388878Y475500D01*
X388967Y474821D01*
X389229Y474189D01*
X389646Y473646D01*
X390189Y473229D01*
X390821Y472967D01*
X391500Y472878D01*
X392179Y472967D01*
X392811Y473229D01*
X393354Y473646D01*
X393771Y474189D01*
X394033Y474821D01*
X394122Y475500D01*
X394033Y476179D01*
X393771Y476811D01*
X393354Y477354D01*
X392811Y477771D01*
X392179Y478033D01*
X391500Y478122D01*
D02*
G37*
G36*
X464600Y475570D02*
X464321Y475533D01*
X463689Y475271D01*
X463146Y474854D01*
X462729Y474311D01*
X462467Y473679D01*
X462430Y473400D01*
X464600D01*
Y475570D01*
D02*
G37*
G36*
X369570Y475100D02*
X367400D01*
Y472930D01*
X367679Y472967D01*
X368311Y473229D01*
X368854Y473646D01*
X369271Y474189D01*
X369533Y474821D01*
X369570Y475100D01*
D02*
G37*
G36*
X589500Y483622D02*
X588821Y483533D01*
X588189Y483271D01*
X587646Y482854D01*
X587229Y482311D01*
X586967Y481679D01*
X586878Y481000D01*
X586967Y480321D01*
X587229Y479689D01*
X587646Y479146D01*
X588189Y478729D01*
X588821Y478467D01*
X589500Y478378D01*
X590179Y478467D01*
X590811Y478729D01*
X591354Y479146D01*
X591771Y479689D01*
X592033Y480321D01*
X592122Y481000D01*
X592033Y481679D01*
X591771Y482311D01*
X591354Y482854D01*
X590811Y483271D01*
X590179Y483533D01*
X589500Y483622D01*
D02*
G37*
G36*
X574070Y479600D02*
X571900D01*
Y477430D01*
X572179Y477467D01*
X572811Y477729D01*
X573354Y478146D01*
X573771Y478689D01*
X574033Y479321D01*
X574070Y479600D01*
D02*
G37*
G36*
X571900Y482570D02*
Y480400D01*
X574070D01*
X574033Y480679D01*
X573771Y481311D01*
X573354Y481854D01*
X572811Y482271D01*
X572179Y482533D01*
X571900Y482570D01*
D02*
G37*
G36*
X571100D02*
X570821Y482533D01*
X570189Y482271D01*
X569646Y481854D01*
X569229Y481311D01*
X568967Y480679D01*
X568930Y480400D01*
X571100D01*
Y482570D01*
D02*
G37*
G36*
X366600Y478070D02*
X366321Y478033D01*
X365689Y477771D01*
X365146Y477354D01*
X364729Y476811D01*
X364467Y476179D01*
X364430Y475900D01*
X366600D01*
Y478070D01*
D02*
G37*
G36*
X415500Y481122D02*
X414821Y481033D01*
X414189Y480771D01*
X413646Y480354D01*
X413229Y479811D01*
X412967Y479179D01*
X412878Y478500D01*
X412967Y477821D01*
X413229Y477189D01*
X413646Y476646D01*
X414189Y476229D01*
X414821Y475967D01*
X415500Y475878D01*
X416179Y475967D01*
X416811Y476229D01*
X417354Y476646D01*
X417771Y477189D01*
X418033Y477821D01*
X418122Y478500D01*
X418033Y479179D01*
X417771Y479811D01*
X417354Y480354D01*
X416811Y480771D01*
X416179Y481033D01*
X415500Y481122D01*
D02*
G37*
G36*
X571100Y479600D02*
X568930D01*
X568967Y479321D01*
X569229Y478689D01*
X569646Y478146D01*
X570189Y477729D01*
X570821Y477467D01*
X571100Y477430D01*
Y479600D01*
D02*
G37*
G36*
X367400Y478070D02*
Y475900D01*
X369570D01*
X369533Y476179D01*
X369271Y476811D01*
X368854Y477354D01*
X368311Y477771D01*
X367679Y478033D01*
X367400Y478070D01*
D02*
G37*
G36*
X325570Y473600D02*
X323400D01*
Y471430D01*
X323679Y471467D01*
X324311Y471729D01*
X324854Y472146D01*
X325271Y472689D01*
X325533Y473321D01*
X325570Y473600D01*
D02*
G37*
G36*
X532600Y407600D02*
X530430D01*
X530467Y407321D01*
X530729Y406689D01*
X531146Y406146D01*
X531689Y405729D01*
X532321Y405467D01*
X532600Y405430D01*
Y407600D01*
D02*
G37*
G36*
X546000Y407622D02*
X545321Y407533D01*
X544689Y407271D01*
X544146Y406854D01*
X543729Y406311D01*
X543467Y405679D01*
X543378Y405000D01*
X543467Y404321D01*
X543729Y403689D01*
X544146Y403146D01*
X544689Y402729D01*
X545321Y402467D01*
X546000Y402378D01*
X546679Y402467D01*
X547311Y402729D01*
X547854Y403146D01*
X548271Y403689D01*
X548533Y404321D01*
X548622Y405000D01*
X548533Y405679D01*
X548271Y406311D01*
X547854Y406854D01*
X547311Y407271D01*
X546679Y407533D01*
X546000Y407622D01*
D02*
G37*
G36*
X532600Y410570D02*
X532321Y410533D01*
X531689Y410271D01*
X531146Y409854D01*
X530729Y409311D01*
X530467Y408679D01*
X530430Y408400D01*
X532600D01*
Y410570D01*
D02*
G37*
G36*
X535570Y407600D02*
X533400D01*
Y405430D01*
X533679Y405467D01*
X534311Y405729D01*
X534854Y406146D01*
X535271Y406689D01*
X535533Y407321D01*
X535570Y407600D01*
D02*
G37*
G36*
X518904Y391600D02*
X516735D01*
Y389430D01*
X517013Y389467D01*
X517646Y389729D01*
X518189Y390146D01*
X518606Y390689D01*
X518868Y391321D01*
X518904Y391600D01*
D02*
G37*
G36*
X515935D02*
X513765D01*
X513802Y391321D01*
X514064Y390689D01*
X514480Y390146D01*
X515023Y389729D01*
X515656Y389467D01*
X515935Y389430D01*
Y391600D01*
D02*
G37*
G36*
X516735Y394570D02*
Y392400D01*
X518904D01*
X518868Y392679D01*
X518606Y393311D01*
X518189Y393854D01*
X517646Y394271D01*
X517013Y394533D01*
X516735Y394570D01*
D02*
G37*
G36*
X515935D02*
X515656Y394533D01*
X515023Y394271D01*
X514480Y393854D01*
X514064Y393311D01*
X513802Y392679D01*
X513765Y392400D01*
X515935D01*
Y394570D01*
D02*
G37*
G36*
X464600Y472600D02*
X462430D01*
X462467Y472321D01*
X462729Y471689D01*
X463146Y471146D01*
X463689Y470729D01*
X464321Y470467D01*
X464600Y470430D01*
Y472600D01*
D02*
G37*
G36*
X472000Y475622D02*
X471321Y475533D01*
X470689Y475271D01*
X470146Y474854D01*
X469729Y474311D01*
X469467Y473679D01*
X469378Y473000D01*
X469467Y472321D01*
X469729Y471689D01*
X470146Y471146D01*
X470689Y470729D01*
X471321Y470467D01*
X472000Y470378D01*
X472679Y470467D01*
X473311Y470729D01*
X473854Y471146D01*
X474271Y471689D01*
X474533Y472321D01*
X474622Y473000D01*
X474533Y473679D01*
X474271Y474311D01*
X473854Y474854D01*
X473311Y475271D01*
X472679Y475533D01*
X472000Y475622D01*
D02*
G37*
G36*
X322600Y473600D02*
X320430D01*
X320467Y473321D01*
X320729Y472689D01*
X321146Y472146D01*
X321689Y471729D01*
X322321Y471467D01*
X322600Y471430D01*
Y473600D01*
D02*
G37*
G36*
X467570Y472600D02*
X465400D01*
Y470430D01*
X465679Y470467D01*
X466311Y470729D01*
X466854Y471146D01*
X467271Y471689D01*
X467533Y472321D01*
X467570Y472600D01*
D02*
G37*
G36*
X371000Y424622D02*
X370321Y424533D01*
X369689Y424271D01*
X369146Y423854D01*
X368729Y423311D01*
X368467Y422679D01*
X368378Y422000D01*
X368467Y421321D01*
X368729Y420689D01*
X369146Y420146D01*
X369689Y419729D01*
X370321Y419467D01*
X371000Y419378D01*
X371679Y419467D01*
X372311Y419729D01*
X372854Y420146D01*
X373271Y420689D01*
X373533Y421321D01*
X373622Y422000D01*
X373533Y422679D01*
X373271Y423311D01*
X372854Y423854D01*
X372311Y424271D01*
X371679Y424533D01*
X371000Y424622D01*
D02*
G37*
G36*
X533400Y410570D02*
Y408400D01*
X535570D01*
X535533Y408679D01*
X535271Y409311D01*
X534854Y409854D01*
X534311Y410271D01*
X533679Y410533D01*
X533400Y410570D01*
D02*
G37*
G36*
X514070Y429600D02*
X511900D01*
Y427430D01*
X512179Y427467D01*
X512811Y427729D01*
X513354Y428146D01*
X513771Y428689D01*
X514033Y429321D01*
X514070Y429600D01*
D02*
G37*
G36*
X511100D02*
X508930D01*
X508967Y429321D01*
X509229Y428689D01*
X509646Y428146D01*
X510189Y427729D01*
X510821Y427467D01*
X511100Y427430D01*
Y429600D01*
D02*
G37*
%LPD*%
D32*
X318000Y566000D02*
X330000Y578000D01*
X318000Y552000D02*
Y566000D01*
X502500Y68000D02*
X506500Y64000D01*
X502500Y68000D02*
X502700Y68200D01*
X506500Y64000D02*
X577500D01*
X396364Y63000D02*
X437500D01*
X595500Y82000D02*
Y139000D01*
X470500Y105500D02*
X474000Y109000D01*
X423500Y105500D02*
X470500D01*
X423500D02*
X432000Y114000D01*
X564000Y127500D02*
X575000Y138500D01*
X558500Y144000D02*
Y146000D01*
X524500Y180000D02*
X558500Y146000D01*
X559000Y172500D02*
X578500Y153000D01*
X559000Y172500D02*
Y182000D01*
X524500Y180000D02*
Y181000D01*
X527500Y198364D02*
Y247500D01*
X523000Y252000D02*
X527500Y247500D01*
Y278500D02*
X558000Y248000D01*
X527500Y278500D02*
Y304500D01*
Y305364D01*
X513500Y389165D02*
X516335Y392000D01*
X513500Y337500D02*
Y389165D01*
X345500Y121500D02*
X358000Y109000D01*
X345500Y121500D02*
Y166000D01*
X395000Y278000D02*
X397500Y275500D01*
X395000Y278000D02*
Y337500D01*
X378500Y130000D02*
Y169000D01*
Y130000D02*
X383500Y125000D01*
X365000Y276500D02*
Y322000D01*
X368500Y325500D01*
Y372500D01*
X418000Y473000D02*
X465000D01*
X478500Y126000D02*
X536000D01*
X537500Y127500D01*
X458500Y125000D02*
X466000Y117500D01*
X344550Y267671D02*
X348750Y263472D01*
X348650Y218077D02*
X348750Y217977D01*
X348650Y218077D02*
Y222923D01*
X348750Y223023D01*
Y263472D01*
X354000Y347500D02*
Y351995D01*
X323000Y382995D02*
X354000Y351995D01*
X377500Y264000D02*
Y264137D01*
X323000Y382995D02*
Y474000D01*
X368500Y372500D02*
X378400Y382400D01*
Y433400D01*
X418000Y473000D01*
X338000Y150500D02*
Y151000D01*
X335500Y153500D02*
X338000Y151000D01*
X335500Y153500D02*
Y175495D01*
X348750Y188745D01*
Y217977D01*
X527500Y198364D02*
X528764Y197100D01*
X528905D01*
X531600Y194405D01*
Y188100D02*
Y194405D01*
X524500Y181000D02*
X531600Y188100D01*
X521500Y268005D02*
X523100Y266405D01*
X523000Y252000D02*
Y262495D01*
X523100Y262595D01*
Y266405D01*
X524500Y116000D02*
X529000Y120500D01*
X506536Y119600D02*
X507400Y118736D01*
Y118595D02*
Y118736D01*
Y118595D02*
X510095Y115900D01*
X513905D01*
X514005Y116000D01*
X524500D01*
X383500Y125000D02*
X425995D01*
X427095Y123900D01*
X430905D01*
X432005Y125000D01*
X458500D01*
X400500Y139000D02*
X400600Y139100D01*
X465400D01*
X478500Y126000D01*
X497500Y63000D02*
X502500Y68000D01*
X502700Y68200D02*
X505705D01*
X466000Y117500D02*
X471136D01*
X473236Y119600D01*
X506536D01*
X513500Y336500D02*
Y337500D01*
Y336500D02*
X521500Y328500D01*
Y313500D02*
Y328500D01*
X543500Y349000D02*
Y361636D01*
X540500Y364636D02*
X543500Y361636D01*
X540500Y364636D02*
Y400500D01*
X533000Y408000D02*
X540500Y400500D01*
X543500Y321364D02*
Y349000D01*
X512500Y395835D02*
X516335Y392000D01*
X512500Y395835D02*
Y429000D01*
X520835Y420165D02*
X533000Y408000D01*
X467400Y471095D02*
X499495Y439000D01*
X467400Y471095D02*
Y471236D01*
X465636Y473000D02*
X467400Y471236D01*
X465000Y473000D02*
X465636D01*
X511500Y430000D02*
X512500Y429000D01*
X499495Y439000D02*
X510000D01*
X520835Y428165D01*
Y420165D02*
Y428165D01*
X558000Y248000D02*
X560500Y245500D01*
X559000Y182000D02*
X560500Y183500D01*
Y245500D01*
X378500Y169000D02*
X378600Y169100D01*
Y193400D01*
X374500Y197500D02*
X378600Y193400D01*
X374500Y197500D02*
Y202005D01*
X376500Y204005D01*
Y263000D01*
X377500Y264000D01*
X358000Y109000D02*
X359000Y110000D01*
X406136D01*
X407900Y108236D01*
Y108095D02*
Y108236D01*
Y108095D02*
X410595Y105400D01*
X423400D01*
X423500Y105500D01*
X418000Y81000D02*
Y82500D01*
Y81000D02*
X436000Y63000D01*
X497500D01*
X395600Y62095D02*
Y62236D01*
X392905Y59400D02*
X395600Y62095D01*
X389095Y59400D02*
X392905D01*
X386400Y62095D02*
X389095Y59400D01*
X386400Y62095D02*
Y62236D01*
X363764D02*
X386400D01*
X338000Y88000D02*
X363764Y62236D01*
X338000Y88000D02*
Y133000D01*
X337500Y133500D02*
X338000Y133000D01*
X395600Y62236D02*
X396364Y63000D01*
X340500Y372000D02*
Y373000D01*
X346000Y378500D01*
Y454500D01*
X367000Y475500D01*
X595500Y139000D02*
Y456000D01*
X571500Y480000D02*
X595500Y456000D01*
X577500Y64000D02*
X595500Y82000D01*
X537500Y127500D02*
X542000D01*
X564000D01*
X521500Y268005D02*
Y313500D01*
X527500Y305364D02*
X528900Y306764D01*
Y306905D01*
X531595Y309600D01*
X531736D01*
X543500Y321364D01*
X344550Y267671D02*
Y276328D01*
X354000Y285778D01*
Y347500D01*
X365000Y276500D02*
X369768Y271732D01*
X369905D01*
X377500Y264137D01*
X345500Y166000D02*
X368100Y188600D01*
X349150Y269577D02*
Y274423D01*
X352577Y277850D01*
X352850D01*
X360400Y285400D01*
Y323905D01*
X363900Y327405D01*
Y348600D01*
X340500Y372000D02*
X363900Y348600D01*
X368100Y188600D02*
Y250627D01*
X349150Y269577D02*
X368100Y250627D01*
D33*
X414000Y588834D02*
X441666Y616500D01*
X457500D01*
X476000Y598000D01*
Y589100D02*
Y598000D01*
D34*
X500400Y504600D02*
X530500D01*
X344500Y504000D02*
X419666D01*
X423000Y575000D02*
X423500Y574500D01*
X423000Y575000D02*
X423500D01*
X422583D02*
X423000D01*
X423500Y574500D02*
Y575000D01*
Y566500D02*
Y574500D01*
X466000Y546500D02*
X467000Y547500D01*
X443500Y546500D02*
X466000D01*
X306535Y532500D02*
X318500Y520535D01*
X318618Y520417D01*
X423500Y566500D02*
X443500Y546500D01*
X368000Y520417D02*
X422583Y575000D01*
X318618Y520417D02*
X368000D01*
X296000Y532500D02*
X306535D01*
X438600Y579500D02*
X488500D01*
X491541Y576459D01*
X429600Y588500D02*
X438600Y579500D01*
X491541Y565600D02*
Y576459D01*
X512000Y551000D02*
X526600Y565600D01*
X491541D02*
X526600D01*
X529500Y568500D01*
X512000Y546000D02*
Y551000D01*
Y546000D02*
X530500Y527500D01*
Y504600D02*
Y527500D01*
X481000Y524000D02*
X500400Y504600D01*
X459900Y502900D02*
X481000Y524000D01*
X420766Y502900D02*
X459900D01*
X414000Y584000D02*
X423000Y575000D01*
X414000Y584000D02*
Y588834D01*
X476000Y589100D02*
X476500Y588600D01*
X476000Y588100D02*
X476500Y588600D01*
D59*
X423500Y574500D02*
D03*
X467000Y547500D02*
D03*
X476000Y588000D02*
D03*
X318500Y520535D02*
D03*
X368000Y520417D02*
D03*
X330000Y578000D02*
D03*
X474000Y109000D02*
D03*
X529000Y120500D02*
D03*
X432000Y114000D02*
D03*
X466000Y117500D02*
D03*
X337500Y133500D02*
D03*
X418000Y82500D02*
D03*
X571500Y480000D02*
D03*
X575000Y138500D02*
D03*
X400500Y139000D02*
D03*
X578500Y153000D02*
D03*
X537500Y127500D02*
D03*
X354000Y347500D02*
D03*
X323000Y474000D02*
D03*
X338000Y150500D02*
D03*
X521500Y313500D02*
D03*
X559000Y182000D02*
D03*
X524500Y180000D02*
D03*
X558000Y248000D02*
D03*
X527500Y247500D02*
D03*
X543500Y349000D02*
D03*
X513500Y337500D02*
D03*
X516335Y392000D02*
D03*
X533000Y408000D02*
D03*
X358000Y109000D02*
D03*
X378500Y169000D02*
D03*
X345500Y166000D02*
D03*
X377500Y264000D02*
D03*
X397500Y275500D02*
D03*
X395000Y337500D02*
D03*
X365000Y322000D02*
D03*
X465000Y473000D02*
D03*
X367000Y475500D02*
D03*
X368500Y372500D02*
D03*
X340500Y372000D02*
D03*
X429500Y588500D02*
D03*
X529500Y568500D02*
D03*
X481000Y524000D02*
D03*
X318000Y552000D02*
D03*
X383500Y125000D02*
D03*
X558500Y144000D02*
D03*
X491541Y565600D02*
D03*
X530500Y504500D02*
D03*
X505705Y68200D02*
D03*
X478500Y126000D02*
D03*
X539000Y238000D02*
D03*
X511500Y430000D02*
D03*
X595500Y137000D02*
D03*
X527500Y304500D02*
D03*
D60*
X296000Y532500D02*
D03*
D62*
X344500Y504000D02*
D03*
D64*
X395000Y337500D02*
X402000D01*
X403000Y343000D02*
X500000D01*
X505900Y337100D01*
X513900D01*
M02*
